<svg width="24" height="24" viewBox="0 0 24 24" fill="none" xmlns="http://www.w3.org/2000/svg">
<path opacity="0.4" d="M22.9104 13.9211L20.5904 12.0511L18.7204 8.6811C18.5042 8.28391 18.1848 7.95251 17.7957 7.72192C17.4067 7.49133 16.9627 7.37012 16.5104 7.3711H11.0004C10.6077 7.38036 10.2224 7.48097 9.87528 7.66496C9.52814 7.84895 9.22861 8.11126 9.00044 8.4311L6.81044 11.1211C6.76955 11.1694 6.71246 11.2011 6.64988 11.2103C6.58729 11.2195 6.52349 11.2056 6.47044 11.1711L4.69044 9.9211C4.09976 9.50605 3.41165 9.25106 2.69313 9.18096C1.97462 9.11086 1.2502 9.22804 0.590438 9.5211C0.365247 9.63977 0.193787 9.83985 0.111003 10.0806C0.0282195 10.3213 0.0403446 10.5845 0.144907 10.8166C0.249469 11.0486 0.438598 11.2321 0.673745 11.3296C0.908892 11.427 1.17236 11.4312 1.41044 11.3411C1.7544 11.1938 2.13003 11.1357 2.50242 11.1725C2.87481 11.2092 3.23187 11.3394 3.54044 11.5511L4.44044 12.1811C4.47527 12.21 4.50257 12.247 4.51998 12.2888C4.5374 12.3306 4.54442 12.376 4.54044 12.4211C4.53538 12.4661 4.51766 12.5088 4.48935 12.5442C4.46103 12.5796 4.42327 12.6063 4.38044 12.6211L2.58044 13.3011C1.93016 13.5026 1.38385 13.9493 1.0572 14.5466C0.730557 15.1439 0.649227 15.8449 0.830438 16.5011C0.958766 16.9428 1.20242 17.3424 1.53635 17.6588C1.87027 17.9751 2.28243 18.1968 2.73044 18.3011C2.78477 18.3146 2.84217 18.3079 2.89188 18.2821C2.94159 18.2563 2.98019 18.2133 3.00044 18.1611C3.24093 17.6312 3.63032 17.1828 4.12117 16.8703C4.61203 16.5578 5.18316 16.3948 5.765 16.4012C6.34684 16.4076 6.91427 16.583 7.39818 16.9061C7.88209 17.2292 8.26158 17.6861 8.49044 18.2211C8.50995 18.2658 8.54213 18.3039 8.583 18.3305C8.62387 18.3572 8.67165 18.3713 8.72044 18.3711H16.5004C16.5492 18.3713 16.597 18.3572 16.6379 18.3305C16.6787 18.3039 16.7109 18.2658 16.7304 18.2211C16.9536 17.6922 17.3238 17.2384 17.7972 16.9136C18.2706 16.5889 18.8272 16.4067 19.4009 16.3888C19.9747 16.3709 20.5416 16.518 21.0343 16.8127C21.5269 17.1073 21.9247 17.5371 22.1804 18.0511C22.2086 18.108 22.2573 18.152 22.3167 18.1743C22.3762 18.1966 22.4418 18.1955 22.5004 18.1711C22.9047 18.0017 23.2553 17.7257 23.5148 17.3725C23.7744 17.0194 23.9332 16.6023 23.9743 16.166C24.0154 15.7296 23.9372 15.2903 23.748 14.8949C23.5589 14.4996 23.2659 14.163 22.9004 13.9211H22.9104ZM15.0004 12.3711C15.0004 12.6363 14.8951 12.8907 14.7075 13.0782C14.52 13.2657 14.2657 13.3711 14.0004 13.3711H9.25044C9.16027 13.3724 9.07149 13.3489 8.99386 13.303C8.91622 13.2571 8.85275 13.1907 8.81044 13.1111C8.76362 13.0343 8.73886 12.9461 8.73886 12.8561C8.73886 12.7661 8.76362 12.6779 8.81044 12.6011L10.4904 10.0811C10.6329 9.86351 10.8272 9.68472 11.0558 9.56079C11.2845 9.43686 11.5404 9.37168 11.8004 9.3711H14.0004C14.2657 9.3711 14.52 9.47646 14.7075 9.66399C14.8951 9.85153 15.0004 10.1059 15.0004 10.3711V12.3711Z" fill="#6B7280"/>
<path opacity="0.8" d="M3.75008 19.3792C3.75008 19.9096 3.96079 20.4183 4.33586 20.7934C4.71094 21.1685 5.21965 21.3792 5.75008 21.3792C6.28051 21.3792 6.78922 21.1685 7.16429 20.7934C7.53937 20.4183 7.75008 19.9096 7.75008 19.3792C7.75008 18.8487 7.53937 18.34 7.16429 17.965C6.78922 17.5899 6.28051 17.3792 5.75008 17.3792C5.21965 17.3792 4.71094 17.5899 4.33586 17.965C3.96079 18.34 3.75008 18.8487 3.75008 19.3792ZM17.5001 19.3792C17.5001 19.9096 17.7108 20.4183 18.0859 20.7934C18.4609 21.1685 18.9696 21.3792 19.5001 21.3792C20.0305 21.3792 20.5392 21.1685 20.9143 20.7934C21.2894 20.4183 21.5001 19.9096 21.5001 19.3792C21.5001 18.8487 21.2894 18.34 20.9143 17.965C20.5392 17.5899 20.0305 17.3792 19.5001 17.3792C18.9696 17.3792 18.4609 17.5899 18.0859 17.965C17.7108 18.34 17.5001 18.8487 17.5001 19.3792ZM0.580078 6.36917C0.579924 6.65539 0.636393 6.93881 0.746232 7.20311C0.856071 7.46741 1.01711 7.70737 1.22008 7.90917C1.29015 7.97748 1.37307 8.03121 1.46404 8.06726C1.55502 8.1033 1.65224 8.12095 1.75008 8.11917C1.94711 8.11956 2.13679 8.0444 2.28008 7.90917C2.41877 7.76561 2.4963 7.57379 2.4963 7.37417C2.4963 7.17455 2.41877 6.98274 2.28008 6.83917C2.21683 6.77936 2.16645 6.70727 2.13201 6.62731C2.09758 6.54736 2.07982 6.46122 2.07982 6.37417C2.07982 6.28712 2.09758 6.20098 2.13201 6.12103C2.16645 6.04107 2.21683 5.96898 2.28008 5.90917C2.68255 5.49962 2.90807 4.94838 2.90807 4.37417C2.90807 3.79996 2.68255 3.24872 2.28008 2.83917C2.13819 2.69861 1.94627 2.62016 1.74654 2.6211C1.54682 2.62204 1.35564 2.70228 1.21508 2.84417C1.07451 2.98606 0.996072 3.17798 0.99701 3.37771C0.997947 3.57743 1.07819 3.76861 1.22008 3.90917C1.34282 4.0328 1.4117 4.19995 1.4117 4.37417C1.4117 4.54839 1.34282 4.71554 1.22008 4.83917C0.812584 5.24432 0.582422 5.79455 0.580078 6.36917ZM4.08008 6.36917C4.07992 6.65539 4.13639 6.93881 4.24623 7.20311C4.35607 7.46741 4.51711 7.70737 4.72008 7.90917C4.79015 7.97748 4.87307 8.03121 4.96404 8.06726C5.05502 8.1033 5.15224 8.12095 5.25008 8.11917C5.44711 8.11956 5.63679 8.0444 5.78008 7.90917C5.91877 7.76561 5.9963 7.57379 5.9963 7.37417C5.9963 7.17455 5.91877 6.98274 5.78008 6.83917C5.71683 6.77936 5.66645 6.70727 5.63202 6.62731C5.59758 6.54736 5.57982 6.46122 5.57982 6.37417C5.57982 6.28712 5.59758 6.20098 5.63202 6.12103C5.66645 6.04107 5.71683 5.96898 5.78008 5.90917C6.18255 5.49962 6.40807 4.94838 6.40807 4.37417C6.40807 3.79996 6.18255 3.24872 5.78008 2.83917C5.63819 2.69861 5.44627 2.62016 5.24654 2.6211C5.04682 2.62204 4.85564 2.70228 4.71508 2.84417C4.57451 2.98606 4.49607 3.17798 4.49701 3.37771C4.49795 3.57743 4.57819 3.76861 4.72008 3.90917C4.84282 4.0328 4.9117 4.19995 4.9117 4.37417C4.9117 4.54839 4.84282 4.71554 4.72008 4.83917C4.31258 5.24432 4.08242 5.79455 4.08008 6.36917Z" fill="#6B7280"/>
</svg>
