<svg width="24" height="24" viewBox="0 0 24 24" fill="none" xmlns="http://www.w3.org/2000/svg">
<path opacity="0.2" d="M23.25 11.25V15.75C23.25 15.9489 23.171 16.1397 23.0303 16.2803C22.8897 16.421 22.6989 16.5 22.5 16.5H21L17.4694 20.0306C17.3288 20.171 17.1383 20.2499 16.9397 20.25H9.68531C9.48666 20.2499 9.29617 20.171 9.15563 20.0306L5.46938 16.3444C5.32899 16.2038 5.25009 16.0133 5.25 15.8147V7.5C5.25 7.30109 5.32902 7.11032 5.46967 6.96967C5.61032 6.82902 5.80109 6.75 6 6.75H16.9397C17.1383 6.75009 17.3288 6.82899 17.4694 6.96937L21 10.5H22.5C22.6989 10.5 22.8897 10.579 23.0303 10.7197C23.171 10.8603 23.25 11.0511 23.25 11.25Z" fill="#6B7280"/>
<path opacity="0.8" d="M22.5 9.75H21.3103L18 6.43969C17.8612 6.29979 17.696 6.18888 17.514 6.1134C17.332 6.03792 17.1367 5.99937 16.9397 6H13.125V3.75H15.375C15.5739 3.75 15.7647 3.67098 15.9053 3.53033C16.046 3.38968 16.125 3.19891 16.125 3C16.125 2.80109 16.046 2.61032 15.9053 2.46967C15.7647 2.32902 15.5739 2.25 15.375 2.25H9.375C9.17609 2.25 8.98532 2.32902 8.84467 2.46967C8.70402 2.61032 8.625 2.80109 8.625 3C8.625 3.19891 8.70402 3.38968 8.84467 3.53033C8.98532 3.67098 9.17609 3.75 9.375 3.75H11.625V6H6C5.60218 6 5.22064 6.15804 4.93934 6.43934C4.65804 6.72064 4.5 7.10218 4.5 7.5V12.375H2.25V10.125C2.25 9.92609 2.17098 9.73532 2.03033 9.59467C1.88968 9.45402 1.69891 9.375 1.5 9.375C1.30109 9.375 1.11032 9.45402 0.96967 9.59467C0.829018 9.73532 0.75 9.92609 0.75 10.125V16.125C0.75 16.3239 0.829018 16.5147 0.96967 16.6553C1.11032 16.796 1.30109 16.875 1.5 16.875C1.69891 16.875 1.88968 16.796 2.03033 16.6553C2.17098 16.5147 2.25 16.3239 2.25 16.125V13.875H4.5V15.8147C4.49937 16.0117 4.53792 16.207 4.6134 16.389C4.68888 16.571 4.79979 16.7362 4.93969 16.875L8.625 20.5603C8.76378 20.7002 8.92899 20.8111 9.11102 20.8866C9.29304 20.9621 9.48826 21.0006 9.68531 21H16.9397C17.1367 21.0006 17.332 20.9621 17.514 20.8866C17.696 20.8111 17.8612 20.7002 18 20.5603L21.3103 17.25H22.5C22.8978 17.25 23.2794 17.092 23.5607 16.8107C23.842 16.5294 24 16.1478 24 15.75V11.25C24 10.8522 23.842 10.4706 23.5607 10.1893C23.2794 9.90804 22.8978 9.75 22.5 9.75ZM22.5 15.75H21C20.9015 15.7499 20.8039 15.7693 20.7129 15.8069C20.6218 15.8445 20.5391 15.8997 20.4694 15.9694L16.9397 19.5H9.68531L6 15.8147V7.5H16.9397L20.4694 11.0306C20.5391 11.1003 20.6218 11.1555 20.7129 11.1931C20.8039 11.2307 20.9015 11.2501 21 11.25H22.5V15.75Z" fill="#6B7280"/>
</svg>
