<svg width="24" height="24" viewBox="0 0 24 24" fill="none" xmlns="http://www.w3.org/2000/svg">
<path opacity="0.3" fill-rule="evenodd" clip-rule="evenodd" d="M14 22H10C6.229 22 4.343 22 3.172 20.828C2.001 19.656 2 17.771 2 14V10C2 6.229 2 4.343 3.172 3.172C4.344 2.001 6.239 2 10.03 2C10.636 2 11.121 2 11.53 2.017C11.5167 2.097 11.51 2.17833 11.51 2.261L11.5 5.095C11.5 6.192 11.5 7.162 11.605 7.943C11.719 8.79 11.98 9.637 12.672 10.329C13.362 11.019 14.21 11.281 15.057 11.395C15.838 11.5 16.808 11.5 17.905 11.5H21.957C22 12.034 22 12.69 22 13.563V14C22 17.771 22 19.657 20.828 20.828C19.656 21.999 17.771 22 14 22Z" fill="#6B7280"/>
<path d="M10.5602 15.4989C10.6302 15.4261 10.6849 15.34 10.7209 15.2456C10.7568 15.1512 10.7734 15.0505 10.7695 14.9496C10.7656 14.8486 10.7413 14.7495 10.6982 14.6582C10.6551 14.5669 10.5939 14.4852 10.5184 14.418C10.443 14.3509 10.3547 14.2997 10.2589 14.2676C10.1632 14.2354 10.0619 14.2229 9.96123 14.2308C9.86053 14.2387 9.76247 14.2669 9.67293 14.3137C9.58339 14.3604 9.50421 14.4248 9.44015 14.5029L7.33315 16.8729L6.56115 16.0029C6.42907 15.8541 6.2433 15.7638 6.0447 15.752C5.8461 15.7402 5.65094 15.8078 5.50215 15.9399C5.35336 16.0719 5.26314 16.2577 5.25133 16.4563C5.23951 16.6549 5.30707 16.8501 5.43915 16.9989L6.77315 18.4989C6.84351 18.5778 6.92978 18.641 7.02629 18.6843C7.1228 18.7276 7.22738 18.75 7.33315 18.75C7.43892 18.75 7.5435 18.7276 7.64001 18.6843C7.73652 18.641 7.82279 18.5778 7.89315 18.4989L10.5602 15.4989ZM11.5102 2.26086L11.5002 5.09586C11.5002 6.19286 11.5002 7.16186 11.6052 7.94386C11.7192 8.79086 11.9802 9.63786 12.6722 10.3289C13.3622 11.0199 14.2102 11.2819 15.0572 11.3959C15.8382 11.5009 16.8082 11.5009 17.9052 11.5009H21.9572C21.9705 11.6555 21.9798 11.8222 21.9852 12.0009H22.0002C22.0002 11.7329 22.0002 11.5989 21.9902 11.4409C21.9142 10.4904 21.5832 9.57799 21.0322 8.79986C20.9382 8.67186 20.8742 8.59586 20.7472 8.44286C19.9542 7.49486 18.9102 6.31286 18.0002 5.50086C17.1902 4.77686 16.0792 3.98586 15.1102 3.33986C14.2782 2.78386 13.8622 2.50586 13.2912 2.29986C13.1248 2.24111 12.956 2.18973 12.7852 2.14586C12.4012 2.05086 12.0272 2.01786 11.5002 2.00586L11.5102 2.26086Z" fill="#6B7280"/>
</svg>
