<svg width="20" height="20" viewBox="0 0 20 20" fill="none" xmlns="http://www.w3.org/2000/svg">
<path opacity="0.4" d="M2.91699 18.3334V4.16675C2.91699 2.50008 4.03366 1.66675 5.41699 1.66675H12.0837C13.467 1.66675 14.5837 2.50008 14.5837 4.16675V18.3334H2.91699Z" fill="#6B7280"/>
<path d="M15.8337 18.9583H1.66699C1.32533 18.9583 1.04199 18.6749 1.04199 18.3333C1.04199 17.9916 1.32533 17.7083 1.66699 17.7083H15.8337C16.1753 17.7083 16.4587 17.9916 16.4587 18.3333C16.4587 18.6749 16.1753 18.9583 15.8337 18.9583Z" fill="#6B7280"/>
<path d="M6.575 8.33341H10.9333C11.8 8.33341 12.5083 7.91675 12.5083 6.75842V5.73342C12.5 4.58342 11.7917 4.16675 10.925 4.16675H6.56667C5.70833 4.16675 5 4.58341 5 5.74175V6.76675C5 7.91675 5.70833 8.33341 6.575 8.33341Z" fill="#6B7280"/>
<path d="M7.91699 11.4583H5.41699C5.07533 11.4583 4.79199 11.1749 4.79199 10.8333C4.79199 10.4916 5.07533 10.2083 5.41699 10.2083H7.91699C8.25866 10.2083 8.54199 10.4916 8.54199 10.8333C8.54199 11.1749 8.25866 11.4583 7.91699 11.4583Z" fill="#6B7280"/>
<path d="M18.958 8.33343V13.3334C18.958 13.6751 18.683 13.9584 18.333 13.9584L14.583 13.9668V12.7168L17.708 12.7084V8.71676L16.383 8.05843C16.0747 7.90843 15.9497 7.53343 16.108 7.21677C16.258 6.90843 16.6413 6.79177 16.9497 6.94177L18.6163 7.7751C18.8247 7.88343 18.958 8.1001 18.958 8.33343Z" fill="#6B7280"/>
</svg>
