<svg width="27" height="24" viewBox="0 0 27 24" fill="none" xmlns="http://www.w3.org/2000/svg">
<path fill-rule="evenodd" clip-rule="evenodd" d="M14.1831 21.9533C5.01154 21.9765 5.01138 21.9517 4.96729 21.9415C4.5107 21.8358 4.55679 21.721 4.53669 21.2506C4.53387 21.1842 4.52429 5.87636 4.54018 5.18127C4.55418 4.56949 4.6642 4.49694 5.27824 4.48971C6.27263 4.47802 6.32062 4.4667 6.72353 4.8834C7.3771 5.55932 7.69717 5.38562 13.6077 5.38542C14.7678 5.38537 14.9696 5.4474 15.5486 4.8246C15.7791 4.57671 15.8993 4.42624 17.0638 4.47941C17.6165 4.50463 17.6879 4.74303 17.6959 5.17363C17.701 5.45017 17.7534 8.27714 17.6635 8.63105C17.5964 8.89497 17.4043 8.96101 17.3702 8.9727C17.2799 9.00371 17.2768 8.98762 16.2189 9.28805C15.3433 9.5367 11.0651 9.18551 10.7374 9.48035C10.4109 9.77407 10.6865 10.0404 10.7207 10.0734C10.9949 10.3384 14.0405 10.1318 14.1304 10.1803C14.164 10.1984 14.2046 10.5509 14.165 10.6192C14.1167 10.7026 14.0305 10.6255 13.3719 11.5257C13.2351 11.7128 13.0408 12.1779 12.4503 12.2302C12.3593 12.2382 12.3605 12.214 11.3082 12.2455C11.2617 12.2469 10.8468 12.2593 10.7372 12.3504C10.4798 12.5644 10.5689 12.913 10.6894 12.9745C11.1602 13.2151 12.282 13.0129 12.4727 13.1983C12.4808 13.2062 12.8343 13.7773 12.1513 13.9781C12.0859 13.9973 10.8901 13.9697 10.7457 14.0845C10.3851 14.3711 10.6672 14.6504 10.7014 14.6843C10.9711 14.9513 12.3008 14.6066 12.5382 15.1822C12.5752 15.272 12.5584 15.2765 12.8483 16.3557C13.0013 16.9251 12.7593 16.9413 12.1727 16.9351C11.5267 16.9282 10.7489 16.8717 10.6172 17.1761C10.4122 17.6499 10.9828 17.7348 11.0388 17.7432C11.5571 17.8203 13.2401 17.6684 13.5857 17.8529C13.6465 17.8854 14.3217 18.2459 14.0577 18.574C13.9061 18.7623 13.8531 18.6637 11.5987 18.6711C11.3923 18.6718 10.5341 18.5764 10.5681 19.1963C10.5854 19.5117 11.208 19.525 14.7565 19.4707C15.8624 19.4538 15.8901 19.6262 16.7651 19.8162C17.2718 19.9262 17.2796 19.8977 17.4115 19.9841C17.752 20.2072 17.6916 20.2687 17.6968 20.6731C17.6979 20.7611 17.8116 21.7753 17.3774 21.9132C17.0685 22.0114 14.4387 21.9584 14.1831 21.9533Z" fill="#F9FBFB"/>
<path fill-rule="evenodd" clip-rule="evenodd" d="M17.918 19.0556C16.7606 18.9925 15.5019 18.889 14.1074 16.9935C13.1432 15.6829 12.7506 12.3053 15.5718 10.5387C18.2005 8.89267 21.7837 10.442 22.3957 13.5263C22.8804 15.9693 21.5342 16.9801 21.6278 17.5218C21.7064 17.9765 22.4189 18.1192 22.5028 18.136C23.2723 18.2902 23.2039 18.4445 24.5851 19.739C25.4217 20.5231 26.0501 21.0321 25.7367 21.853C25.6416 22.1018 24.9499 23.0874 23.9646 22.3702C23.7931 22.2454 21.7493 20.2026 21.4867 19.7431C21.3449 19.4951 21.431 18.7225 21.0538 18.4012C20.7894 18.1761 20.5146 18.2825 20.4704 18.2996C19.9257 18.5104 19.8923 18.9206 17.918 19.0556Z" fill="#F5F9FC"/>
<path fill-rule="evenodd" clip-rule="evenodd" d="M19.7256 20.9573C19.7404 23.1609 19.9164 23.9466 17.9198 23.9927C16.8637 24.017 16.8647 23.9512 4.71459 23.9911C3.47959 23.9951 2.48325 24.0963 2.47751 22.107C2.47325 20.6378 2.42766 4.82637 2.50892 3.74297C2.62735 2.16417 4.12407 2.38621 5.28965 2.38514C5.35753 2.38509 6.11394 2.38437 6.13809 2.39134C6.47984 2.48978 6.51819 2.51121 6.55377 2.86193C6.61339 3.44941 6.25826 3.55272 6.19736 3.57046C5.83218 3.67674 4.18986 3.50755 3.88215 3.76927C3.56362 4.04018 3.6619 4.9304 3.65411 14.6432C3.64795 22.2945 3.60181 22.3714 3.89543 22.6338C4.22518 22.9286 4.75124 22.7557 9.30754 22.8361C10.607 22.859 15.9079 22.8306 16.4819 22.8276C18.1923 22.8184 18.4183 22.7937 18.5117 22.1086C18.5896 21.5376 18.4471 20.2641 18.6704 20.0085C18.7955 19.8652 19.7085 19.3361 19.7272 20.3785C19.7306 20.5714 19.7221 20.7644 19.7255 20.9573L19.7256 20.9573Z" fill="#F5FAFB"/>
<path fill-rule="evenodd" clip-rule="evenodd" d="M21.4854 14.3531C21.4392 15.7969 21.1227 16.733 19.7104 17.6176C18.7219 18.2366 16.242 18.5273 14.8421 16.3168C13.5606 14.2932 14.9127 10.9461 17.9251 10.8714C18.2693 10.8629 19.5877 11.0491 20.4158 11.8667C21.5136 12.9508 21.4695 14.1732 21.4854 14.3531Z" fill="#111E35"/>
<path fill-rule="evenodd" clip-rule="evenodd" d="M7.41848 2.8877C7.61822 2.06603 7.62012 1.88439 8.73499 1.74524C9.79947 1.61241 9.25843 0.828468 10.1708 0.296255C10.2453 0.252779 10.8843 -0.173154 11.5779 0.0796485C12.5505 0.434116 12.7295 1.2321 12.8294 1.39421C13.3162 2.184 14.7309 1.12429 14.8365 3.15804C14.885 4.09342 15.014 4.5069 13.9008 4.51028C13.4417 4.51167 9.11565 4.52479 8.16175 4.49706C7.6379 4.48183 7.52849 4.51469 7.38576 4.01324C7.3713 3.96238 7.41453 2.97773 7.41848 2.8877Z" fill="#F9FBFC"/>
<path fill-rule="evenodd" clip-rule="evenodd" d="M19.7133 4.60022C19.7228 7.2414 19.7237 7.2395 19.7239 7.46903C19.7245 8.18796 19.7741 8.97539 19.5689 9.1132C19.4302 9.2064 18.6329 9.15693 18.5545 8.60513C18.4621 7.95474 18.7206 4.27339 18.3645 3.83786C17.9977 3.38932 15.9963 3.84576 15.7548 3.37896C15.6117 3.10232 15.672 2.52161 15.9446 2.4325C16.0062 2.41236 18.2482 2.31049 18.806 2.48562C19.919 2.83511 19.7108 4.32681 19.7133 4.60022Z" fill="#F6FCFD"/>
<path fill-rule="evenodd" clip-rule="evenodd" d="M14.7553 7.60421C15.5663 7.62574 15.5611 7.62333 15.6311 7.62748C15.69 7.63092 16.2446 7.66347 16.2414 8.04132C16.2383 8.39958 15.6872 8.44352 15.6285 8.44818C15.5467 8.45469 11.4103 8.44931 11.3053 8.4468C11.2381 8.44521 10.5751 8.42937 10.5704 8.03922C10.564 7.52346 11.2902 7.60892 14.7553 7.60421Z" fill="#191F2F"/>
<path fill-rule="evenodd" clip-rule="evenodd" d="M6.72702 19.2378C6.28996 18.8489 6.28986 18.8497 6.27684 18.836C5.72335 18.2506 6.11514 17.8607 6.45366 17.949C6.78726 18.0361 6.71118 18.1935 7.04324 18.2758C7.52998 18.3965 8.22461 17.2019 8.75601 17.0253C8.97779 16.9517 9.21035 17.1981 9.21394 17.2564C9.22573 17.4455 9.23849 17.6503 7.75715 19.1245C7.15081 19.7279 6.7787 19.2569 6.72702 19.2378Z" fill="#151C29"/>
<path fill-rule="evenodd" clip-rule="evenodd" d="M6.65946 9.84894C6.60896 9.80259 6.11084 9.34528 6.07336 9.22383C5.86198 8.53863 6.38666 8.59831 6.44398 8.60482C6.55743 8.61774 6.54575 8.63988 6.78999 8.7943C7.55793 9.27976 7.97259 8.15453 8.48983 7.81334C8.89885 7.54351 9.36313 7.80965 9.07592 8.3597C9.01491 8.47654 8.03872 9.50693 7.82093 9.70687C7.08375 10.3836 6.92262 10.0258 6.65941 9.84899L6.65946 9.84894Z" fill="#101825"/>
<path fill-rule="evenodd" clip-rule="evenodd" d="M6.46967 14.315C6.07967 13.9208 6.06516 13.862 6.05265 13.8112C5.95063 13.3973 6.1455 13.3047 6.18462 13.2861C6.52391 13.1248 6.91037 13.6688 7.31831 13.5764C7.49067 13.5373 8.31485 12.5927 8.51039 12.4385C8.8263 12.1895 9.23225 12.3374 9.23809 12.6397C9.24025 12.7506 9.2428 12.8833 8.40309 13.7471C7.55665 14.6178 7.4027 15.0883 6.46967 14.315Z" fill="#131624"/>
<path fill-rule="evenodd" clip-rule="evenodd" d="M11.0424 0.980469C11.145 1.01492 11.2604 0.997541 11.363 1.03199C11.9122 1.21635 11.9707 2.1217 11.3073 2.26879C10.3844 2.47334 10.1997 1.36441 10.7047 1.10238C10.8109 1.04727 10.9362 1.03564 11.0424 0.980522V0.980469Z" fill="#181E30"/>
</svg>
