<svg width="27" height="24" viewBox="0 0 27 24" fill="none" xmlns="http://www.w3.org/2000/svg">
<path fill-rule="evenodd" clip-rule="evenodd" d="M14.1785 23.5411C14.1472 23.6147 14.1491 23.6997 14.1178 23.7733C13.9977 24.0561 13.9317 24.0049 13.6287 23.9787C12.1768 23.8533 12.1754 23.9206 5.32719 23.9546C4.31501 23.9596 2.62366 24.1432 2.47831 22.3755C2.45069 22.0398 2.46398 10.2578 2.46516 9.2041C2.47416 1.243 2.41673 1.16465 2.8334 0.677154C3.52183 -0.128453 4.01915 0.0322887 7.90608 0.0264583C13.024 0.0187869 13.7736 -0.0175261 13.9245 0.010398C14.2415 0.0691104 14.3421 0.315877 14.3589 0.357047C14.4333 0.539475 14.2757 3.32852 14.48 4.05322C14.9564 5.74329 16.2662 5.42958 19.0744 5.44186C19.1398 5.44217 19.7193 5.44467 19.8077 5.80395C19.8931 6.15116 19.8496 9.45598 19.8454 9.77353C19.8356 10.5199 19.5358 10.3921 18.7879 10.3389C18.7774 10.3381 11.5321 10.304 11.0558 10.3041C6.25937 10.3054 5.50118 10.1905 5.42385 10.661C5.30632 11.3763 6.61354 11.2446 7.33363 11.2433C13.8262 11.2309 13.8254 11.1801 13.9271 11.1794C14.2352 11.1773 14.3168 11.211 14.2705 11.5139C14.2345 11.7496 14.1413 11.6762 13.9493 11.8089C13.4407 12.1605 13.4508 12.1649 13.0156 12.597C12.4125 13.1959 12.2675 13.0872 10.4821 13.0875C5.86935 13.0881 5.85585 13.0756 5.60561 13.2002C5.52179 13.2419 4.89733 13.9794 6.47433 13.9853C11.4434 14.0036 11.4822 13.9582 11.6056 14.0942C11.8801 14.3964 11.3309 14.8572 11.0188 16.6449C10.7249 18.3278 11.5135 20.4588 11.8201 20.992C12.8405 22.767 13.6061 23.1234 14.1784 23.5411L14.1785 23.5411Z" fill="#FBFDFD"/>
<path fill-rule="evenodd" clip-rule="evenodd" d="M24.6311 17.5081C24.5608 19.7534 23.8876 20.6979 23.077 21.8004C22.8998 22.0413 21.3708 23.647 19.3718 23.8951C17.1154 24.1751 15.845 23.5034 15.5737 23.3599C15.2588 23.1934 13.946 22.6699 12.8378 20.9057C11.4821 18.7472 11.1475 14.2757 15.4113 11.8928C16.9378 11.0396 19.4988 10.9724 21.0524 11.8288C21.8824 12.2863 24.3891 13.5982 24.6311 17.5081Z" fill="#F5F9FB"/>
<path fill-rule="evenodd" clip-rule="evenodd" d="M16.8068 12.4575C17.3925 12.3269 17.5672 12.1378 17.7961 12.6937C17.8305 12.7774 17.8471 12.8686 17.8893 12.9486C17.9832 13.1272 18.3348 13.316 18.5886 13.0238C18.6484 12.9551 18.6357 12.9507 18.7587 12.6314C18.9981 12.01 19.7792 12.4058 20.8012 12.8931C21.9566 13.444 21.3178 13.8642 21.2686 14.042C21.2567 14.085 21.1535 14.4583 21.3901 14.5862C21.7195 14.7643 22.1056 14.2434 22.4774 14.4022C22.8314 14.5534 23.8795 16.7515 23.2955 17.136C23.2689 17.1536 22.5077 17.2947 22.6241 17.7562C22.7184 18.1305 23.5111 17.8582 23.4756 18.6599C23.4273 19.752 22.4863 20.8905 22.3515 21.0535C19.3087 24.7351 13.7522 22.7593 13.0215 18.6568C12.8691 17.8011 14.0451 18.2264 13.9083 17.5091C13.8583 17.2474 13.2389 17.1322 13.1751 17.0832C12.8442 16.8294 13.275 15.5439 13.6163 14.9258C14.2002 13.8679 14.6023 14.5057 14.7914 14.5936C15.116 14.7444 15.4743 14.4452 15.3193 14.0803C15.2695 13.963 15.1591 13.8794 15.1036 13.7647C14.8049 13.1474 15.8453 12.8344 16.8068 12.4574V12.4575Z" fill="#111D33"/>
<path fill-rule="evenodd" clip-rule="evenodd" d="M11.9208 8.4538C5.85761 8.45232 5.82509 8.47211 5.63913 8.32088C5.45946 8.17476 5.36613 7.64599 5.92205 7.55097C6.48539 7.45472 6.48852 7.51583 13.0658 7.50898C16.2088 7.50571 16.214 7.50673 16.4825 7.55848C16.5343 7.56851 16.9831 7.65509 16.9329 8.04123C16.8678 8.54222 16.3237 8.44029 11.9208 8.45375V8.4538Z" fill="#0D1627"/>
<path fill-rule="evenodd" clip-rule="evenodd" d="M18.7469 19.1945C18.5691 19.4619 18.566 19.4531 18.3943 19.7245C18.3111 19.856 17.875 20.6559 17.6409 20.5692C17.3439 20.4593 17.3567 20.3999 17.3977 20.086C17.4534 19.6597 18.1318 18.2046 17.3458 18.1292C17.1552 18.111 16.9612 18.1432 16.7716 18.1164C16.7218 18.1093 16.2587 18.0438 16.547 17.5293C16.6271 17.3863 16.6909 17.4319 17.7552 15.8741C18.0451 15.4496 18.0528 15.4604 18.3339 15.0245C18.9898 14.0074 19.14 14.8552 19.1394 14.9202C19.1391 14.9414 18.7134 16.5919 18.7171 16.6535C18.7555 17.3032 19.8624 16.8602 19.9629 17.1983C20.0661 17.5458 19.9898 17.5977 19.1268 18.6926C18.9306 18.9414 18.943 18.943 18.7469 19.1946V19.1945Z" fill="#F4F9FA"/>
<path fill-rule="evenodd" clip-rule="evenodd" d="M18.5115 3.47357C19.1894 4.07685 19.3428 4.02986 19.2811 4.32557C19.2335 4.55402 18.8284 4.53893 18.7853 4.5373C16.0743 4.43619 15.5085 4.73967 15.3625 3.47751C15.3049 2.9805 15.378 2.38749 15.3077 1.18445C15.3043 1.12477 15.2369 -0.0289194 15.9742 0.846141C16.318 1.25411 18.3062 3.26572 18.5115 3.47357Z" fill="#F8FBFB"/>
<path fill-rule="evenodd" clip-rule="evenodd" d="M8.7709 16.8156C6.49594 16.8241 5.83691 16.8581 5.61699 16.6588C5.58114 16.6263 5.29648 16.3683 5.59807 16.0543C5.77702 15.8679 6.7157 15.8768 8.20049 15.8876C8.29659 15.8884 9.14209 15.8945 9.39581 16.0095C9.58975 16.0974 9.66534 16.4181 9.5495 16.5908C9.38968 16.8289 9.32626 16.7251 8.7709 16.8156Z" fill="#11172A"/>
</svg>
