<svg width="27" height="24" viewBox="0 0 27 24" fill="none" xmlns="http://www.w3.org/2000/svg">
<path fill-rule="evenodd" clip-rule="evenodd" d="M8.02397 13.3516C8.02116 14.5044 7.93702 14.8462 8.42313 15.1924C8.65149 15.3551 8.66633 15.4252 12.2207 15.4135C12.2663 15.4133 12.9951 15.3928 13.0556 15.4229C13.2385 15.5138 13.1502 15.9017 13.1409 15.9427C13.0463 16.3589 12.8209 16.3051 12.6572 17.9167C12.4938 19.5256 12.8671 19.8155 12.2418 20.2539C11.2605 20.9419 11.0903 20.9102 9.99808 20.1283C8.21411 18.851 7.41473 17.9887 6.38965 16.5707C6.01809 16.0567 4.38576 13.7987 3.85528 9.05927C3.78926 8.46943 3.74959 6.76919 3.75 6.76699C3.82237 6.39286 4.00821 6.25422 4.47108 6.13845C6.36376 5.66488 6.40091 5.77866 8.18125 4.9757C9.20131 4.51564 10.5488 3.65976 10.7476 3.5335C11.4136 3.1105 11.7762 3.71488 12.7837 4.2016C13.775 4.68054 13.7361 4.75056 14.7535 5.16087C16.0256 5.67389 16.009 5.71488 17.3524 6.01669C17.4387 6.03609 18.2626 6.22116 18.4125 6.33007C18.5706 6.44497 18.727 6.55853 18.5687 8.76811C18.4027 11.0862 18.1712 11.2686 18.0019 11.4019C17.8075 11.555 16.6148 11.8854 15.5848 12.6755C14.9092 13.1937 14.9106 13.4661 14.4626 13.4145C14.3072 13.3966 14.3349 13.0868 14.3376 13.0566C14.3541 12.8727 14.4989 11.2577 14.2724 10.7494C14.0674 10.2892 13.6131 10.5151 13.5521 9.6353C13.5047 8.95292 13.5277 8.53095 12.9272 7.80189C11.5765 6.16184 9.09839 6.95062 8.88313 9.3467C8.85052 9.70982 8.95744 9.9974 8.587 10.3068C8.10796 10.7069 8.06435 10.7225 8.03631 11.3471C8.02909 11.5073 8.03749 11.5062 8.02413 13.3516H8.02397Z" fill="#FBFCFC"/>
<path fill-rule="evenodd" clip-rule="evenodd" d="M2.49986 3.72758C2.67382 3.69186 3.51808 3.52399 3.60663 3.50639C6.57377 2.91644 9.30042 1.33912 10.4392 0.376638C11.5955 -0.600639 11.7718 0.503875 13.9208 1.64129C15.1742 2.30468 15.1693 2.3034 16.4954 2.81433C18.8946 3.73874 20.5312 3.65046 21.0266 4.00355C21.83 4.5762 21.2911 9.19455 21.2388 9.64299C21.1124 10.7256 21.3344 11.1716 20.2475 11.1677C19.4872 11.165 19.1708 11.2235 19.2746 10.4726C19.5723 8.31738 19.6086 6.30285 19.4211 5.88092C19.1741 5.32511 17.4669 5.40735 15.1321 4.36809C11.7105 2.84499 11.8695 2.30785 11.0697 2.42142C10.5267 2.49855 8.56425 4.23518 5.35007 5.05861C3.25733 5.59472 3.00603 5.55424 2.88735 6.20166C2.84779 6.41744 2.89221 8.25433 2.9957 9.05887C3.5163 13.1061 4.2627 15.2224 6.13859 17.7004C7.81688 19.9173 10.1515 21.2836 10.2386 21.3398C11.8166 22.3575 12.1043 20.9677 12.7967 21.0807C13.0568 21.1231 13.578 22.2675 13.57 22.503C13.5589 22.8299 12.9745 23.0899 12.8375 23.1715C11.3853 24.0364 10.995 23.9389 10.2777 23.5475C7.85368 22.225 6.76411 21.1869 5.73284 20.1279C3.37929 17.7111 2.17738 14.3846 1.98075 13.6181C1.43328 11.4839 0.892871 10.3456 0.967951 5.32669C0.987707 4.00804 1.24806 3.95027 2.49986 3.72764V3.72758Z" fill="#F9FBFC"/>
<path fill-rule="evenodd" clip-rule="evenodd" d="M24.2449 18.2853C24.8436 18.2839 25.0398 18.2732 25.2117 18.3994C25.5827 18.6719 25.4695 18.7931 25.1419 19.1152C24.5251 19.7218 25.294 19.8659 25.1776 21.0904C24.9779 23.1912 25.4962 23.936 24.2519 23.9798C23.3363 24.012 23.3148 23.5331 23.2698 23.422C23.0828 22.9604 23.0422 22.8863 22.2457 22.8823C21.8583 22.8804 17.6486 22.8594 17.4027 22.919C16.836 23.0563 17.3841 24.1192 15.9383 23.9916C14.9746 23.9066 15.1853 23.1711 15.1972 21.9438C15.2032 21.3207 15.0277 20.8088 15.1437 20.2428C15.1955 19.9901 15.5314 19.4821 15.2514 19.1946C15.2042 19.1461 15.1252 19.1358 15.0807 19.0848C15.0476 19.0467 14.7471 18.7014 15.0193 18.4573C15.264 18.2378 16.0147 18.3376 16.1997 18.1647C16.4251 17.9542 16.3705 17.9212 16.4974 17.6423C17.0874 16.3463 17.6878 16.3285 19.955 16.3084C22.9178 16.2821 23.1751 16.3534 23.9298 17.9668C24.0669 18.2601 24.1463 18.1855 24.2449 18.2851V18.2853Z" fill="#F4F7F8"/>
<path fill-rule="evenodd" clip-rule="evenodd" d="M14.1679 17.06C13.6889 19.3989 14.0006 19.415 14.451 21.388C14.6228 22.141 14.2726 22.0169 14.226 21.9943C13.4513 21.617 11.2782 14.2941 18.545 11.9939C18.7549 11.9275 23.0794 10.8165 25.8852 14.8513C26.0607 15.1037 26.6188 16.2173 26.7731 16.8066C27.4352 19.3362 26.477 21.3431 26.3076 21.6978C26.088 22.1579 25.893 21.8339 25.8746 21.8033C25.5682 21.2942 27.1323 18.857 25.696 15.9282C23.6916 11.8408 18.5723 11.5168 15.7486 14.3063C15.3052 14.7443 15.3367 14.7676 14.9748 15.2726C14.4998 15.9355 14.3497 16.4775 14.1679 17.06Z" fill="#E6EDF3"/>
<path fill-rule="evenodd" clip-rule="evenodd" d="M23.5626 18.7167C23.5113 18.7445 23.4976 18.8198 23.4463 18.8476C23.1841 18.9898 23.1726 18.9785 19.6758 18.9843C19.4722 18.9846 17.2493 18.9883 17.1305 18.9454C16.7051 18.7918 16.7555 18.6591 16.947 18.2497C17.5479 16.965 17.7647 16.9807 19.6798 16.9674C22.0784 16.9508 22.6933 16.9091 23.0623 17.6889C23.192 17.9631 23.2218 17.9431 23.2596 18.0217C23.4254 18.3666 23.3976 18.3741 23.5626 18.7167Z" fill="#131F34"/>
<path fill-rule="evenodd" clip-rule="evenodd" d="M11.6444 10.2876C11.2278 10.2892 10.1193 10.335 9.92686 10.1936C9.54367 9.91192 9.65136 8.26281 10.7702 7.87574C11.2863 7.69722 12.6592 7.8912 12.6485 9.61984C12.6439 10.3511 12.3758 10.257 11.6444 10.2876Z" fill="#FCFDFD"/>
<path fill-rule="evenodd" clip-rule="evenodd" d="M24.3046 15.3667L23.981 15.5975C23.9169 15.5551 23.8296 15.5578 23.7654 15.5153C23.5174 15.3511 23.1992 14.8577 22.5233 14.5174C22.2321 14.3709 22.2661 14.3009 21.9471 14.2302C21.8813 14.2156 21.2515 14.0763 21.1784 13.8863C21.118 13.7296 21.2449 13.3727 21.6346 13.4639C21.711 13.4818 21.7004 13.5083 22.5522 13.8093C23.2143 14.0432 23.5542 14.4228 23.9764 14.7757C24.3404 15.08 24.2949 15.3423 24.3046 15.3667Z" fill="#CED6DE"/>
<path fill-rule="evenodd" clip-rule="evenodd" d="M10.7014 12.8225C10.6993 12.8175 10.3251 12.2601 10.749 11.8717C11.0707 11.577 11.6982 11.6833 11.8547 12.2253C11.9036 12.3947 11.6397 13.0646 11.605 13.3469C11.5936 13.4395 11.5976 13.5338 11.5827 13.626C11.499 14.1426 10.9513 14.146 10.8625 13.6264C10.7933 13.2219 10.8058 13.2255 10.7014 12.8225L10.7014 12.8225Z" fill="#EFF7FC"/>
<path fill-rule="evenodd" clip-rule="evenodd" d="M16.8261 20.415C16.8969 20.437 17.5649 20.6443 17.6707 20.7957C17.7176 20.8629 18.0783 21.4519 16.8019 21.3397C16.7311 21.3335 16.1417 21.2817 15.9537 21.0768C15.8189 20.9298 15.8451 20.4519 16.0079 20.3594C16.3045 20.191 16.3204 20.3186 16.8261 20.415Z" fill="#111828"/>
<path fill-rule="evenodd" clip-rule="evenodd" d="M23.7111 20.3444C23.7167 20.3444 24.1512 20.2253 24.3289 20.4475C24.5198 20.6862 24.3085 21.0659 24.2714 21.1014C24.0261 21.3366 22.6395 21.5827 22.5734 21.0812C22.5077 20.5825 23.4988 20.4076 23.7111 20.3444Z" fill="#090F1E"/>
<path fill-rule="evenodd" clip-rule="evenodd" d="M24.3002 15.3672C24.3233 15.393 24.5966 15.531 24.8134 15.9395C25.1608 16.5937 24.3764 16.7144 24.2373 16.2196C24.2107 16.1251 24.2396 16.0176 24.2015 15.927C24.1502 15.8045 24.0279 15.7205 23.9766 15.598L24.3002 15.3672Z" fill="#9EAAB6"/>
</svg>
