<svg width="22" height="22" viewBox="0 0 22 22" fill="none" xmlns="http://www.w3.org/2000/svg">
<g clip-path="url(#clip0_15044_22215)">
<path d="M8.01717 9.06699L13.9828 6.74691M7.88792 11.8509L14.1121 14.963M1.375 10.3127C1.375 11.2244 1.73716 12.0988 2.38182 12.7434C3.02648 13.3881 3.90082 13.7502 4.8125 13.7502C5.72418 13.7502 6.59852 13.3881 7.24318 12.7434C7.88784 12.0988 8.25 11.2244 8.25 10.3127C8.25 9.40106 7.88784 8.52672 7.24318 7.88206C6.59852 7.23741 5.72418 6.87524 4.8125 6.87524C3.90082 6.87524 3.02648 7.23741 2.38182 7.88206C1.73716 8.52672 1.375 9.40106 1.375 10.3127ZM13.75 5.50024C13.75 6.41193 14.1122 7.28627 14.7568 7.93092C15.4015 8.57558 16.2758 8.93774 17.1875 8.93774C18.0992 8.93774 18.9735 8.57558 19.6182 7.93092C20.2628 7.28627 20.625 6.41193 20.625 5.50024C20.625 4.58856 20.2628 3.71422 19.6182 3.06956C18.9735 2.42491 18.0992 2.06274 17.1875 2.06274C16.2758 2.06274 15.4015 2.42491 14.7568 3.06956C14.1122 3.71422 13.75 4.58856 13.75 5.50024ZM13.75 16.5002C13.75 17.4119 14.1122 18.2863 14.7568 18.9309C15.4015 19.5756 16.2758 19.9377 17.1875 19.9377C18.0992 19.9377 18.9735 19.5756 19.6182 18.9309C20.2628 18.2863 20.625 17.4119 20.625 16.5002C20.625 15.5886 20.2628 14.7142 19.6182 14.0696C18.9735 13.4249 18.0992 13.0627 17.1875 13.0627C16.2758 13.0627 15.4015 13.4249 14.7568 14.0696C14.1122 14.7142 13.75 15.5886 13.75 16.5002Z" stroke="white" stroke-width="1.83333" stroke-linecap="round" stroke-linejoin="round"/>
</g>
<defs>
<clipPath id="clip0_15044_22215">
<rect width="22" height="22" fill="white"/>
</clipPath>
</defs>
</svg>
