<svg width="27" height="24" viewBox="0 0 27 24" fill="none" xmlns="http://www.w3.org/2000/svg">
<path fill-rule="evenodd" clip-rule="evenodd" d="M17.1136 13.9815C17.3543 13.1679 17.3447 12.9124 18.3589 12.7556C19.9985 12.5021 20.0025 11.5269 21.0052 12.2037C21.8573 12.7789 21.9843 12.7073 22.3956 12.7836C23.8027 13.0445 23.2376 13.9218 24.0616 14.9033C25.0315 16.0585 24.2943 16.2101 24.0779 17.1572C23.8825 18.0126 24.3479 18.5775 23.1957 19.06C22.0437 19.5423 22.1537 20.2688 21.2442 20.1903C20.3701 20.1148 20.3724 20.0655 19.4957 20.1682C18.4072 20.2958 18.5555 19.6488 17.5482 19.1066C16.6299 18.6123 16.6477 18.4875 16.611 17.4484C16.567 16.2027 15.6754 16.0795 16.5149 15.0412C16.9012 14.5635 16.8716 14.5459 17.1137 13.9814L17.1136 13.9815Z" fill="#F8FAFB"/>
<path fill-rule="evenodd" clip-rule="evenodd" d="M15.3417 22.0689C15.3333 22.1055 15.0614 22.6748 15.4104 22.9988C15.8962 23.4496 17.0855 22.8417 17.2692 23.446C17.4244 23.9566 17.0023 23.9961 16.9514 24.0008C16.9119 24.0045 10.5639 23.9761 6.94053 23.9766C6.65687 23.9767 5.30872 23.9828 5.24264 23.9541C4.93481 23.8205 4.92005 23.7945 4.89465 23.4626C4.88703 23.3629 4.89127 20.9901 4.89873 20.8793C4.96461 19.8995 5.54132 20.1287 8.65577 20.1415C15.941 20.1716 16.0783 20.0487 16.1261 20.2958C16.176 20.5547 15.9011 20.8182 15.3418 22.0689H15.3417Z" fill="#FAFBFC"/>
<path fill-rule="evenodd" clip-rule="evenodd" d="M15.3669 9.45563C15.0719 10.6452 14.9183 11.0073 14.2245 11.8395C14.124 11.96 13.9909 12.3092 12.9246 12.8164C10.7611 13.8457 8.8802 12.106 8.33599 10.8819C7.62012 9.27154 7.59584 8.00777 7.88118 7.84254C8.02296 7.76041 8.07008 7.90264 9.83931 7.24267C12.1598 6.3771 13.9454 7.57289 14.9439 7.76173C15.1504 7.80078 15.1694 7.7485 15.3317 7.88792C15.5092 8.04043 15.5119 8.05357 15.5059 8.28979C15.4954 8.70709 15.4698 8.70162 15.3669 9.45563Z" fill="#FBFCFD"/>
<path fill-rule="evenodd" clip-rule="evenodd" d="M7.12475 2.52733C7.26013 2.22457 7.23687 2.21756 7.41667 1.94153C8.51914 0.248758 10.6883 -0.329845 13.2463 0.177306C14.3586 0.397839 15.8856 1.4814 16.2864 3.16088C16.7457 5.08542 16.2395 5.07044 16.0891 5.04888C15.984 5.0338 14.2952 4.19429 12.6431 4.09995C7.79396 3.82304 7.44259 5.45724 6.85316 4.93189C6.70586 4.80064 6.72533 4.63531 6.75579 4.28721C6.83491 3.38371 6.81278 3.37855 7.1247 2.52728L7.12475 2.52733Z" fill="#FAFCFC"/>
<path fill-rule="evenodd" clip-rule="evenodd" d="M15.36 16.264C15.82 17.3632 15.7347 17.3852 15.7634 18.0216C15.7905 18.6269 16.0134 19.047 15.9989 19.1454C15.9919 19.1931 15.9163 19.1956 15.8791 19.2261C15.6556 19.4097 15.622 19.3091 14.9532 19.3164C14.5983 19.3203 9.10228 19.2898 8.65615 19.3014C8.58705 19.3032 7.94267 19.32 7.80396 19.1587C7.67527 19.0091 7.70772 18.3184 7.70465 16.3033C7.70455 16.2327 7.70343 15.4857 7.71748 15.4213C7.80109 15.0383 8.27825 14.9136 8.61787 15.2056C8.64547 15.2294 9.12185 15.8726 10.0842 16.3071C11.8491 17.1037 13.4674 16.3912 14.3488 15.4162C14.6142 15.1227 14.5633 15.0319 14.9491 14.9527C15.3104 14.8785 15.3315 15.3884 15.3336 15.4379C15.3346 15.4614 15.316 15.4546 15.3055 15.7308C15.3038 15.7736 15.3095 15.7703 15.3601 16.264H15.36Z" fill="#FAFCFC"/>
<path fill-rule="evenodd" clip-rule="evenodd" d="M1.09621 22.8659C1.79318 19.0947 1.28904 18.6986 2.48999 17.2958C2.89058 16.8279 4.57818 16.1477 4.66757 16.1397C4.708 16.1361 5.02221 16.1078 5.1346 16.3383C5.21361 16.5005 5.19236 16.5064 5.18495 18.5923C5.18183 19.4645 4.86351 19.3244 4.41074 19.7906C3.83592 20.3825 4.10993 22.3993 4.04037 23.4533C4.03745 23.4977 4.01461 23.8436 3.74649 23.9262C3.53204 23.9922 1.68446 23.9861 1.50328 23.9591C1.44864 23.9509 1.05976 23.8929 1.03242 23.4536C1.02015 23.257 1.10857 23.0626 1.09631 22.8659H1.09621Z" fill="#FAFCFC"/>
<path fill-rule="evenodd" clip-rule="evenodd" d="M5.22422 9.71946C6.48185 11.5003 5.00245 12.1937 5.43008 13.1912C5.60835 13.607 5.65102 13.5832 5.82076 14.003C6.0601 14.5951 6.16712 14.7796 5.56869 15.0112C4.6768 15.3563 4.39293 15.3655 4.05066 14.5983C3.38952 13.1163 2.85109 13.6198 2.09356 13.1238C0.700695 12.2119 0.876458 10.494 1.14963 10.2093C1.66885 9.66836 1.90937 11.3643 2.4319 11.5845C3.05926 11.8488 4.90417 11.2993 3.86319 9.68435C3.01586 8.36984 4.25576 8.93321 4.31449 8.96705C4.83073 9.2644 4.81515 9.28029 5.22422 9.71936V9.71946Z" fill="#F8FAFC"/>
<path fill-rule="evenodd" clip-rule="evenodd" d="M21.9821 17.4647C21.9841 17.5079 22.0075 18.0046 22.0075 18.0046C21.9108 18.3473 21.9015 18.4023 21.5442 18.4304C20.9494 18.4771 20.9125 17.8365 19.798 18.2558C18.0263 18.9223 18.8658 17.5239 18.6655 16.8759C18.525 16.4215 17.0789 15.5188 18.6714 15.1488C19.3252 14.9969 19.4692 15.0165 19.7986 14.2892C20.3834 12.998 20.9568 14.4338 21.0316 14.5464C21.6839 15.5267 22.7057 14.9733 22.687 15.729C22.6772 16.1236 21.9487 16.5177 21.9391 17.1521C21.9376 17.2573 21.9836 17.3595 21.9821 17.4647Z" fill="#1B2231"/>
<path fill-rule="evenodd" clip-rule="evenodd" d="M13.4749 6.42814C13.267 6.37427 12.0412 5.94235 10.6366 6.20817C10.0903 6.31151 8.50995 6.8529 8.36807 6.88521C7.57614 7.06526 7.21367 6.20995 7.30209 6.01942C7.58651 5.40658 11.2331 4.20175 14.6878 5.34055C15.9029 5.74109 16.0626 6.08786 15.7412 6.52744C15.2489 7.20095 14.5453 6.77639 13.475 6.42814H13.4749Z" fill="#F7FBFC"/>
<path fill-rule="evenodd" clip-rule="evenodd" d="M12.0693 13.8978C12.6797 13.761 12.6745 13.764 13.2605 13.5362C13.4103 13.478 13.8909 13.2454 14.0159 13.7475C14.1748 14.3854 13.9585 14.6264 13.9373 14.6564C12.831 16.2207 10.4865 16.1696 9.32881 14.7852C8.99313 14.3837 8.9965 13.2029 9.7845 13.4628C10.65 13.7483 10.6211 13.95 12.0694 13.8978L12.0693 13.8978Z" fill="#F9FCFC"/>
<path fill-rule="evenodd" clip-rule="evenodd" d="M24.2707 21.5188C24.3447 21.6824 24.4575 21.8264 24.5315 21.99C24.5761 22.0889 24.6363 22.194 24.6246 22.3018C24.6185 22.3581 24.5298 22.3641 24.4868 22.4009C24.33 22.535 24.3167 22.5181 24.115 22.4945C23.5554 22.4289 23.5534 22.3752 23.3031 22.4501C23.0916 22.5133 22.9346 22.8133 22.9138 22.853C22.8514 22.9722 22.7986 23.0962 22.7397 23.2171C22.6375 23.4272 22.6303 23.4619 22.3935 23.4535C22.0371 23.4408 22.1364 23.288 21.9718 22.9726C21.66 22.3748 21.3434 21.8186 21.2869 21.7193C20.8474 20.9473 21.6453 21.0501 21.798 21.0245C22.752 20.8649 23.0514 19.5567 23.6004 20.254C23.6713 20.3439 23.6464 20.3578 24.2707 21.5188Z" fill="#F8FAFB"/>
<path fill-rule="evenodd" clip-rule="evenodd" d="M18.7023 22.9088C18.5748 23.0965 18.6016 23.1115 18.4485 23.2824C17.9792 23.8063 17.9479 22.4651 17.2261 22.3617C17.1377 22.349 16.4071 22.4163 16.3429 22.355C16.0877 22.1112 16.231 22.063 16.3848 21.7432C16.9961 20.4716 17.1784 19.9597 17.5061 20.09C17.8143 20.2126 18.2113 20.9566 18.9314 21.0122C19.3892 21.0476 19.6335 21.0037 19.4838 21.4408C19.4408 21.5667 19.4156 21.5537 18.7023 22.9088Z" fill="#F7FAFB"/>
<path fill-rule="evenodd" clip-rule="evenodd" d="M5.96322 17.1598C5.96485 16.464 5.8423 15.8659 6.4091 15.5469C6.93608 15.2503 6.94349 15.9585 6.9441 16.0154C6.9465 16.2444 6.97206 18.6812 6.94681 18.8785C6.87107 19.4703 6.17584 19.2787 6.07459 19.1674C5.93732 19.0166 5.9664 18.138 5.96328 17.1598L5.96322 17.1598Z" fill="#F1F8FC"/>
<path fill-rule="evenodd" clip-rule="evenodd" d="M21.1037 17.1389C20.6979 17.2609 20.7021 17.2689 20.6655 17.2707C20.5156 17.2782 20.5244 17.2289 20.3767 17.2244C19.7995 17.2065 19.8105 17.3065 19.7614 17.2991C19.4724 17.2559 19.5206 17.1661 19.5072 16.8757C19.4874 16.4443 19.3072 16.3182 19.2973 16.2731C19.2903 16.2418 19.375 15.9409 19.5667 15.8096C19.7842 15.6607 19.8122 15.6944 20.0525 15.4005C20.085 15.3608 20.1166 15.2025 20.3703 15.2201C20.5721 15.2341 20.5485 15.2845 20.6552 15.4529C20.8416 15.747 21.1696 15.8081 21.1814 15.8186C21.2324 15.8641 21.2303 15.9466 21.2621 16.0072C21.3007 16.0807 21.3906 16.1367 21.392 16.2197C21.3929 16.2804 21.1073 16.1462 21.0642 16.9035C21.0598 16.9829 21.1081 17.0594 21.1036 17.1388L21.1037 17.1389Z" fill="#F2F7FB"/>
<path fill-rule="evenodd" clip-rule="evenodd" d="M17.0377 8.31718C17.0141 8.36614 16.7758 8.86057 16.6774 8.89348C16.0399 9.10666 16.2438 8.66344 16.2717 7.99183C16.2736 7.94639 16.292 7.50139 16.3763 7.43306C16.408 7.4073 16.616 7.23848 16.8826 7.49863C17.0504 7.66248 17.0672 7.94956 17.0697 7.99168C17.076 8.10049 17.0313 8.20832 17.0377 8.31713L17.0377 8.31718Z" fill="#E0EDF3"/>
<path fill-rule="evenodd" clip-rule="evenodd" d="M6.23774 8.31792C6.24541 8.20829 6.21224 8.09841 6.21991 7.98878C6.22292 7.94605 6.24597 7.61676 6.40211 7.48531C6.66787 7.26161 6.84435 7.45577 6.8695 7.48342C6.99614 7.62274 7.00018 8.5015 7.00059 8.59068C7.00289 9.09099 6.73196 9.1998 6.42091 8.80723C6.42091 8.80723 6.25241 8.35707 6.23774 8.31792Z" fill="#E2E8F1"/>
<path fill-rule="evenodd" clip-rule="evenodd" d="M6.633 21.0059C6.70803 21.0956 6.87311 21.0705 6.94814 21.1602C7.18605 21.4448 6.91793 21.6452 6.88501 21.6699C6.67046 21.8302 6.11025 21.7212 6.07867 21.4535C6.04908 21.2028 6.09227 21.1985 6.30268 21.0644C6.32532 21.05 6.32707 21.0601 6.633 21.0059Z" fill="#24252A"/>
</svg>
