<svg width="20" height="20" viewBox="0 0 20 20" fill="none" xmlns="http://www.w3.org/2000/svg">
<path opacity="0.5" d="M2.88738 17.113C4.10777 18.3334 6.07195 18.3334 10.0003 18.3334C13.9287 18.3334 15.8929 18.3334 17.1133 17.113C18.3337 15.8926 18.3337 13.9285 18.3337 10.0001C18.3337 6.07171 18.3337 4.10752 17.1133 2.88714C15.8929 1.66675 13.9287 1.66675 10.0003 1.66675C6.07195 1.66675 4.10777 1.66675 2.88738 2.88714C1.66699 4.10752 1.66699 6.07171 1.66699 10.0001C1.66699 13.9285 1.66699 15.8926 2.88738 17.113Z" fill="#6B7280"/>
<path d="M6.66699 6.875C7.01217 6.875 7.29199 7.15482 7.29199 7.5V9.375H9.37533V7.5C9.37533 7.15482 9.65515 6.875 10.0003 6.875C10.3455 6.875 10.6253 7.15482 10.6253 7.5V9.375H10.8337C11.2305 9.375 11.4968 9.37466 11.703 9.36059C11.9036 9.3469 12.0013 9.32234 12.0656 9.29571C12.3209 9.18998 12.5236 8.9872 12.6294 8.73196C12.656 8.66767 12.6806 8.56999 12.6943 8.36938C12.7083 8.16316 12.7087 7.89684 12.7087 7.5C12.7087 7.15482 12.9885 6.875 13.3337 6.875C13.6788 6.875 13.9587 7.15482 13.9587 7.5V7.52105C13.9587 7.89143 13.9587 8.20063 13.9414 8.45447C13.9233 8.71872 13.8845 8.96833 13.7842 9.21032C13.5516 9.77184 13.1055 10.218 12.544 10.4506C12.302 10.5508 12.0524 10.5897 11.7881 10.6077C11.5343 10.625 11.2251 10.625 10.8547 10.625H10.6253V12.5C10.6253 12.8452 10.3455 13.125 10.0003 13.125C9.65515 13.125 9.37533 12.8452 9.37533 12.5V10.625H7.29199V12.5C7.29199 12.8452 7.01217 13.125 6.66699 13.125C6.32181 13.125 6.04199 12.8452 6.04199 12.5V7.5C6.04199 7.15482 6.32181 6.875 6.66699 6.875Z" fill="#6B7280"/>
</svg>
