<svg width="20" height="20" viewBox="0 0 20 20" fill="none" xmlns="http://www.w3.org/2000/svg">
<path d="M17.9667 8.94997L16.8334 7.6333C16.6167 7.3833 16.4417 6.91663 16.4417 6.5833V5.16663C16.4417 4.2833 15.7167 3.5583 14.8334 3.5583H13.4167C13.0917 3.5583 12.6167 3.3833 12.3667 3.16663L11.0501 2.0333C10.4751 1.54163 9.5334 1.54163 8.95007 2.0333L7.64173 3.17497C7.39173 3.3833 6.91673 3.5583 6.59173 3.5583H5.15006C4.26673 3.5583 3.54173 4.2833 3.54173 5.16663V6.59163C3.54173 6.91663 3.36673 7.3833 3.1584 7.6333L2.0334 8.9583C1.55007 9.5333 1.55007 10.4666 2.0334 11.0416L3.1584 12.3666C3.36673 12.6166 3.54173 13.0833 3.54173 13.4083V14.8333C3.54173 15.7166 4.26673 16.4416 5.15006 16.4416H6.59173C6.91673 16.4416 7.39173 16.6166 7.64173 16.8333L8.9584 17.9666C9.5334 18.4583 10.4751 18.4583 11.0584 17.9666L12.3751 16.8333C12.6251 16.6166 13.0917 16.4416 13.4251 16.4416H14.8417C15.7251 16.4416 16.4501 15.7166 16.4501 14.8333V13.4166C16.4501 13.0916 16.6251 12.6166 16.8417 12.3666L17.9751 11.05C18.4584 10.475 18.4584 9.52497 17.9667 8.94997ZM13.4667 8.42497L9.44173 12.45C9.32507 12.5666 9.16673 12.6333 9.00007 12.6333C8.8334 12.6333 8.67507 12.5666 8.5584 12.45L6.54173 10.4333C6.30007 10.1916 6.30007 9.79163 6.54173 9.54997C6.7834 9.3083 7.1834 9.3083 7.42507 9.54997L9.00007 11.125L12.5834 7.54163C12.8251 7.29997 13.2251 7.29997 13.4667 7.54163C13.7084 7.7833 13.7084 8.1833 13.4667 8.42497Z" fill="#002EC1"/>
</svg>
