<svg width="24" height="24" viewBox="0 0 24 24" fill="none" xmlns="http://www.w3.org/2000/svg">
<path opacity="0.3" d="M12 0C8.8173 0 5.7657 1.26444 3.5145 3.5145C1.2645 5.76567 0 8.8173 0 12C0 15.1827 1.26444 18.2343 3.5145 20.4855C5.76567 22.7355 8.8173 24 12 24C15.1827 24 18.2343 22.7356 20.4855 20.4855C22.7355 18.2343 24 15.1827 24 12C23.9965 8.8185 22.7309 5.769 20.481 3.519C18.2311 1.269 15.1818 0.0033 12 0ZM20.6637 11.2194C20.6871 11.4807 20.7 11.7386 20.7 11.9999C20.7 12.2612 20.7 12.4862 20.6731 12.7194C20.5629 14.0635 20.1399 15.3643 19.4367 16.515C18.225 18.506 16.2669 19.9311 13.998 20.4714C12.6832 20.7761 11.3168 20.7761 10.002 20.4714C8.31454 20.0706 6.78394 19.1753 5.60764 17.9015C5.21389 17.4773 4.86466 17.0132 4.56583 16.5175C3.86269 15.3679 3.43966 14.0694 3.33067 12.7264C3.30021 12.4862 3.30021 12.2424 3.30021 11.9998C3.30021 10.2854 3.80646 8.60832 4.75569 7.18122C5.70609 5.75271 7.05609 4.63824 8.63709 3.97482C10.7887 3.07482 13.2121 3.07482 15.3637 3.97482C16.6082 4.49748 17.7156 5.30022 18.6004 6.32091C18.7656 6.51896 18.9309 6.72285 19.0809 6.92091C19.8109 7.94397 20.3113 9.11232 20.5504 10.3463C20.5949 10.6405 20.6406 10.9322 20.6641 11.2194L20.6637 11.2194Z" fill="#6B7280"/>
<path d="M15.0604 11.0082C14.6374 9.6992 15.5374 8.10077 17.5331 6.57029C16.9307 5.95622 16.2288 5.4488 15.4565 5.07029C14.6163 7.43162 13.3776 8.78159 12.0005 8.78159C10.6234 8.78159 9.38486 7.43159 8.54451 5.05859C7.77225 5.4371 7.07027 5.94452 6.46793 6.55859C8.46245 8.08907 9.36245 9.68759 8.93942 10.9953C8.51637 12.3031 6.83942 13.0648 4.32812 13.1316H4.3293C4.45117 13.993 4.71837 14.8285 5.11797 15.6008C7.20039 14.1547 9.00027 13.8008 10.1103 14.6047C11.22 15.4086 11.4368 17.2355 10.7103 19.6531V19.6543C11.561 19.7914 12.4282 19.7914 13.279 19.6543C12.5595 17.2367 12.7751 15.4156 13.879 14.6059C14.9829 13.7949 16.8005 14.1547 18.883 15.6008C19.2803 14.8355 19.5463 14.0094 19.6717 13.1563C17.1522 13.0777 15.481 12.3008 15.0604 11.0082ZM12.0007 9.2621C12.1613 9.2621 12.3054 9.3582 12.3664 9.50703C12.4285 9.65585 12.3933 9.82578 12.2796 9.93828C12.166 10.052 11.9949 10.0848 11.8472 10.0227C11.6996 9.96054 11.6035 9.81523 11.6046 9.65467C11.6046 9.55037 11.6468 9.44959 11.7207 9.37576C11.7957 9.30194 11.8964 9.26093 12.0007 9.2621ZM9.62414 10.6332C9.70383 10.4926 9.85852 10.4141 10.0179 10.434C10.1773 10.4539 10.3097 10.5676 10.3519 10.7223C10.3941 10.8769 10.339 11.0422 10.2113 11.1406C10.0847 11.239 9.91126 11.2496 9.77182 11.1699C9.58432 11.0609 9.51868 10.8219 9.62414 10.6332ZM10.1679 13.516C9.97805 13.6227 9.73665 13.5594 9.62415 13.3719C9.54446 13.2336 9.55618 13.0601 9.65344 12.9336C9.75071 12.8059 9.91477 12.7508 10.0695 12.7906C10.2241 12.8317 10.339 12.9617 10.3601 13.1211C10.3812 13.2793 10.3062 13.4352 10.1679 13.516ZM12.0007 14.743C11.7816 14.743 11.6046 14.566 11.6046 14.3469C11.6046 14.1863 11.7007 14.0422 11.8495 13.9812C11.9972 13.9191 12.1671 13.9531 12.2808 14.0668C12.3945 14.1804 12.4285 14.3504 12.3663 14.498C12.3054 14.6468 12.1613 14.743 12.0007 14.743ZM12.0007 13.6566C11.3304 13.6566 10.7269 13.2535 10.4702 12.6348C10.2148 12.016 10.3566 11.3035 10.83 10.8301C11.3034 10.3567 12.0159 10.2148 12.6347 10.4703C13.2534 10.727 13.6565 11.3305 13.6565 12.0008C13.6565 12.4402 13.4819 12.861 13.1714 13.1715C12.8608 13.482 12.4402 13.6566 12.0007 13.6566ZM14.3773 13.3566C14.2648 13.5441 14.0234 13.6086 13.8335 13.5008C13.6976 13.4199 13.6238 13.2652 13.646 13.1082C13.6671 12.9523 13.7808 12.8234 13.9343 12.7836C14.0867 12.7426 14.2496 12.7976 14.3456 12.923C14.4429 13.0484 14.4546 13.2195 14.3773 13.3566ZM14.2308 11.1547H14.2296C14.0913 11.2332 13.9203 11.2203 13.7949 11.123C13.6695 11.0258 13.6144 10.8629 13.6566 10.7094C13.6988 10.5559 13.8289 10.4434 13.9859 10.4234C14.1441 10.4035 14.2976 10.4797 14.3773 10.618C14.4324 10.7105 14.4476 10.8207 14.4195 10.925C14.3914 11.0281 14.3234 11.1172 14.2296 11.1699L14.2308 11.1547Z" fill="#6B7280"/>
<path opacity="0.3" d="M12.7234 12.0007C12.7234 12.9651 11.2773 12.9651 11.2773 12.0007C11.2773 11.0362 12.7234 11.0362 12.7234 12.0007Z" fill="#6B7280"/>
<path opacity="0.3" d="M18.9382 8.51329C18.8807 8.40196 18.821 8.29181 18.7577 8.18281C18.6944 8.075 18.6616 8.01523 18.6112 7.93086C18.5597 7.84648 18.4765 7.72109 18.4038 7.63086C18.3323 7.54062 18.2983 7.47148 18.2362 7.39062L18.1495 7.2793C16.4726 8.5543 15.6534 9.82579 15.9476 10.7329C16.2417 11.6387 17.6784 12.179 19.7573 12.2329V12.0173C19.7573 11.7934 19.7479 11.5708 19.7303 11.3516L19.7127 11.0997C19.6952 10.9532 19.6741 10.7997 19.653 10.659C19.6377 10.5747 19.6143 10.4856 19.5991 10.4012C19.5838 10.3168 19.5452 10.1399 19.5065 10.011C19.4678 9.88208 19.4549 9.83403 19.4315 9.7438C19.408 9.65357 19.36 9.49771 19.312 9.37465C19.2639 9.25159 19.2463 9.1977 19.21 9.10746C19.1737 9.01723 19.1174 8.87661 19.0659 8.76294L18.9382 8.51329Z" fill="#6B7280"/>
<path opacity="0.3" d="M14.4379 15.3587C13.6703 15.9166 13.5859 17.4283 14.1953 19.4414C14.2586 19.4203 14.3219 19.4086 14.384 19.3875C14.4473 19.3664 14.5609 19.3278 14.6477 19.2949C14.7941 19.2434 14.9477 19.1895 15.0766 19.1274L15.3191 19.0219C15.4691 18.9469 15.6191 18.866 15.7574 18.7875C15.823 18.7489 15.8957 18.7184 15.9555 18.6797H15.9566C16.3691 18.4336 16.7594 18.1512 17.1226 17.8371L17.2902 17.6778C17.4098 17.5641 17.5269 17.4528 17.6383 17.3332C17.7039 17.2676 17.7613 17.195 17.8211 17.1258C17.8809 17.0567 18.0227 16.8973 18.1211 16.7813C18.2195 16.6641 18.2383 16.6278 18.2922 16.5528L18.4059 16.3875C17.2059 15.5508 16.1195 15.1067 15.3216 15.1067H15.3227C15.0087 15.0938 14.6992 15.183 14.4379 15.3587Z" fill="#6B7280"/>
<path opacity="0.3" d="M9.56096 15.36C8.78987 14.7987 7.32854 15.1865 5.59766 16.3889L5.71133 16.5541C5.76524 16.6303 5.82266 16.7053 5.88242 16.7791C5.975 16.8987 6.07461 17.0158 6.18242 17.133C6.24219 17.1963 6.29961 17.2678 6.36524 17.3346C6.47656 17.4541 6.59375 17.5655 6.7133 17.6791L6.88087 17.8385C7.06369 17.9944 7.25002 18.1385 7.4422 18.285C7.63439 18.428 7.83478 18.5592 8.0422 18.6787L8.25197 18.7901C8.39025 18.8697 8.53088 18.9447 8.67503 19.0151C8.7594 19.0572 8.84847 19.0901 8.93284 19.1264C9.06761 19.1897 9.20589 19.2436 9.34651 19.294L9.61605 19.3865C9.68167 19.4076 9.74261 19.4252 9.80472 19.4404C10.4129 17.4307 10.3285 15.918 9.56096 15.36Z" fill="#6B7280"/>
<path opacity="0.3" d="M12.0008 7.84758C12.9394 7.84758 13.9179 6.64758 14.5988 4.68828C14.5391 4.66484 14.4816 4.64023 14.4219 4.62265C14.3621 4.60508 14.2355 4.56289 14.1219 4.53594C14.0082 4.50898 13.8605 4.46445 13.7316 4.4375C13.6027 4.41055 13.516 4.38594 13.4047 4.36836C13.2934 4.35078 13.1563 4.32617 13.0355 4.31094C12.916 4.2957 12.8012 4.27812 12.691 4.26875C12.5352 4.25352 12.391 4.25117 12.2293 4.24531L11.7582 4.24414C11.6047 4.24414 11.4582 4.24414 11.2965 4.26758C11.1348 4.29102 11.068 4.29453 10.952 4.30977C10.8348 4.325 10.7059 4.34258 10.5828 4.36719C10.4598 4.39063 10.3637 4.40938 10.2559 4.43633C10.1481 4.46328 9.99454 4.4961 9.86562 4.53477C9.73672 4.57344 9.67344 4.58868 9.56562 4.62149C9.45781 4.6543 9.44844 4.66367 9.38867 4.68711C10.0836 6.64767 11.0621 7.84758 12.0008 7.84758Z" fill="#6B7280"/>
<path opacity="0.3" d="M8.05155 10.7212C8.35155 9.82118 7.52655 8.54267 5.84961 7.26758V7.26875C5.81914 7.30391 5.78984 7.34141 5.76289 7.38008C5.70195 7.45625 5.6457 7.53711 5.59414 7.61914C5.52266 7.72109 5.45352 7.82305 5.38672 7.91914C5.32109 8.01523 5.28477 8.08672 5.23672 8.17109C5.18867 8.25547 5.11719 8.39023 5.05977 8.50157L4.9332 8.7629C4.88164 8.87657 4.83711 8.99376 4.78906 9.11447C4.74101 9.234 4.71992 9.28791 4.68711 9.3758C4.6543 9.46252 4.60274 9.62189 4.56758 9.74495C4.53125 9.868 4.51367 9.9219 4.49258 10.0121C4.47148 10.1024 4.42695 10.2735 4.4 10.4024C4.37305 10.5313 4.36133 10.5758 4.34609 10.6602C4.325 10.8043 4.30391 10.9602 4.28633 11.1008L4.25938 11.3223C4.2418 11.5403 4.23242 11.7618 4.23242 11.988V12.2036C6.32069 12.1672 7.76355 11.613 8.05155 10.7212Z" fill="#6B7280"/>
</svg>
