<svg preserveAspectRatio="none" width="100%" height="100%" overflow="visible" style="display: block;" viewBox="0 0 20 20" fill="none" xmlns="http://www.w3.org/2000/svg">
<g id="duo-icons:car">
<path id="Vector" opacity="0.3" fill-rule="evenodd" clip-rule="evenodd" d="M4.6288 4.7137C4.83646 4.29852 5.15561 3.94937 5.5505 3.70534C5.94539 3.46131 6.40043 3.33205 6.86464 3.33203H13.138C13.6022 3.33205 14.0572 3.46131 14.4521 3.70534C14.847 3.94937 15.1661 4.29852 15.3738 4.7137L16.5288 7.02286C16.7321 6.93953 16.9321 6.84953 17.1288 6.75286C17.3266 6.65407 17.5556 6.6379 17.7653 6.70792C17.975 6.77793 18.1483 6.92839 18.2471 7.1262C18.3459 7.32401 18.3621 7.55296 18.2921 7.76268C18.2221 7.97241 18.0716 8.14574 17.8738 8.24453C17.6738 8.33342 17.4724 8.42009 17.2696 8.50453L18.0705 10.107C18.2446 10.4545 18.3346 10.8379 18.3346 11.2262V13.332C18.3346 13.6838 18.2604 14.0315 18.1168 14.3526C17.9732 14.6737 17.7635 14.9609 17.5013 15.1954V16.2487C17.5013 16.5802 17.3696 16.8982 17.1352 17.1326C16.9008 17.367 16.5828 17.4987 16.2513 17.4987C15.9198 17.4987 15.6018 17.367 15.3674 17.1326C15.133 16.8982 15.0013 16.5802 15.0013 16.2487V15.832H5.0013V16.2487C5.0013 16.5802 4.86961 16.8982 4.63519 17.1326C4.40077 17.367 4.08282 17.4987 3.7513 17.4987C3.41978 17.4987 3.10184 17.367 2.86742 17.1326C2.633 16.8982 2.5013 16.5802 2.5013 16.2487V15.1954C1.98964 14.737 1.66797 14.072 1.66797 13.332V11.2254C1.66797 10.837 1.7588 10.4545 1.93214 10.1079L2.7263 8.51786C2.52519 8.43342 2.32658 8.34259 2.13047 8.24536C1.93366 8.14529 1.78406 7.97188 1.71391 7.76253C1.64377 7.55318 1.65869 7.32465 1.75547 7.1262C1.80435 7.02822 1.87206 6.94084 1.95473 6.86904C2.0374 6.79725 2.13341 6.74245 2.23727 6.70778C2.34113 6.67311 2.4508 6.65925 2.56002 6.66698C2.66924 6.67472 2.77587 6.7039 2.8738 6.75286C3.07102 6.85009 3.27102 6.94009 3.4738 7.02286L4.6288 4.7137Z" fill="var(--fill-0, #6B7280)"/>
<path id="Vector_2" fill-rule="evenodd" clip-rule="evenodd" d="M6.11833 5.46083C6.18749 5.32243 6.29382 5.20602 6.42539 5.12463C6.55697 5.04324 6.70862 5.00008 6.86333 5H13.1367C13.4525 5 13.7408 5.17833 13.8817 5.46083L14.94 7.57583C13.65 7.9625 11.9117 8.33333 10 8.33333C8.08833 8.33333 6.35 7.9625 5.06083 7.575L6.11833 5.46083ZM13.75 13.3333C14.0815 13.3333 14.3995 13.2016 14.6339 12.9672C14.8683 12.7328 15 12.4149 15 12.0833C15 11.7518 14.8683 11.4339 14.6339 11.1994C14.3995 10.965 14.0815 10.8333 13.75 10.8333C13.4185 10.8333 13.1005 10.965 12.8661 11.1994C12.6317 11.4339 12.5 11.7518 12.5 12.0833C12.5 12.4149 12.6317 12.7328 12.8661 12.9672C13.1005 13.2016 13.4185 13.3333 13.75 13.3333ZM7.5 12.0833C7.5 12.4149 7.3683 12.7328 7.13388 12.9672C6.89946 13.2016 6.58152 13.3333 6.25 13.3333C5.91848 13.3333 5.60054 13.2016 5.36612 12.9672C5.1317 12.7328 5 12.4149 5 12.0833C5 11.7518 5.1317 11.4339 5.36612 11.1994C5.60054 10.965 5.91848 10.8333 6.25 10.8333C6.58152 10.8333 6.89946 10.965 7.13388 11.1994C7.3683 11.4339 7.5 11.7518 7.5 12.0833Z" fill="var(--fill-0, #6B7280)"/>
</g>
</svg>
