<svg preserveAspectRatio="none" width="100%" height="100%" overflow="visible" style="display: block;" viewBox="0 0 16 16" fill="none" xmlns="http://www.w3.org/2000/svg">
<g id="Frame 2087325465">
<path id="Vector" d="M15.7748 8.62334L15.0993 7.69771H12.0972H6.74331L4.71685 10.1244H11.897L11.3967 10.7248L9.14505 13.4266H7.99422C5.16717 13.4266 2.61533 11.1 2.4402 8.32314C2.34013 6.7971 2.86551 5.37113 3.91627 4.27038C4.94201 3.16963 6.36804 2.56923 7.86912 2.56923H8.01923C9.42025 2.56923 10.6211 3.1196 11.872 3.82008L10.0957 5.12096L11.1715 6.62198H14.1487L12.2223 3.97018L13.3981 1.91878C11.847 1.01817 10.1208 0.142578 8.01923 0.142578H7.86912C5.71757 0.142578 3.64107 1.04319 2.13998 2.61926C0.6389 4.22035 -0.111642 6.29676 0.0134485 8.47324C0.263629 12.526 3.84122 15.8532 7.9692 15.8532H10.2458L14.5239 10.7248L15.0243 10.1244L16 8.97358L15.7748 8.62334Z" fill="var(--fill-0, white)"/>
</g>
</svg>
