<svg width="313" height="109" viewBox="0 0 313 109" fill="none" xmlns="http://www.w3.org/2000/svg">
<g opacity="0.05">
<path d="M238.618 24.9532C238.618 24.9532 232.814 18.3034 224.985 15.0996L224.129 30.3085L237.637 29.8492C237.636 29.8481 241.613 27.9492 238.618 24.9532ZM238.618 24.9532C238.618 24.9532 232.814 18.3034 224.985 15.0996L224.129 30.3085L237.637 29.8492C237.636 29.8481 241.613 27.9492 238.618 24.9532ZM238.618 24.9532C238.618 24.9532 232.814 18.3034 224.985 15.0996L224.129 30.3085L237.637 29.8492C237.636 29.8481 241.613 27.9492 238.618 24.9532ZM238.618 24.9532C238.618 24.9532 232.814 18.3034 224.985 15.0996L224.129 30.3085L237.637 29.8492C237.636 29.8481 241.613 27.9492 238.618 24.9532ZM238.618 24.9532C238.618 24.9532 232.814 18.3034 224.985 15.0996L224.129 30.3085L237.637 29.8492C237.636 29.8481 241.613 27.9492 238.618 24.9532ZM238.618 24.9532C238.618 24.9532 232.814 18.3034 224.985 15.0996L224.129 30.3085L237.637 29.8492C237.636 29.8481 241.613 27.9492 238.618 24.9532ZM238.618 24.9532C238.618 24.9532 232.814 18.3034 224.985 15.0996L224.129 30.3085L237.637 29.8492C237.636 29.8481 241.613 27.9492 238.618 24.9532ZM238.618 24.9532C238.618 24.9532 232.814 18.3034 224.985 15.0996L224.129 30.3085L237.637 29.8492C237.636 29.8481 241.613 27.9492 238.618 24.9532ZM238.618 24.9532C238.618 24.9532 232.814 18.3034 224.985 15.0996L224.129 30.3085L237.637 29.8492C237.636 29.8481 241.613 27.9492 238.618 24.9532ZM238.618 24.9532C238.618 24.9532 232.814 18.3034 224.985 15.0996L224.129 30.3085L237.637 29.8492C237.636 29.8481 241.613 27.9492 238.618 24.9532ZM238.618 24.9532C238.618 24.9532 232.814 18.3034 224.985 15.0996L224.129 30.3085L237.637 29.8492C237.636 29.8481 241.613 27.9492 238.618 24.9532ZM238.618 24.9532C238.618 24.9532 232.814 18.3034 224.985 15.0996L224.129 30.3085L237.637 29.8492C237.636 29.8481 241.613 27.9492 238.618 24.9532ZM238.618 24.9532C238.618 24.9532 232.814 18.3034 224.985 15.0996L224.129 30.3085L237.637 29.8492C237.636 29.8481 241.613 27.9492 238.618 24.9532ZM238.618 24.9532C238.618 24.9532 232.814 18.3034 224.985 15.0996L224.129 30.3085L237.637 29.8492C237.636 29.8481 241.613 27.9492 238.618 24.9532ZM238.618 24.9532C238.618 24.9532 232.814 18.3034 224.985 15.0996L224.129 30.3085L237.637 29.8492C237.636 29.8481 241.613 27.9492 238.618 24.9532ZM238.618 24.9532C238.618 24.9532 232.814 18.3034 224.985 15.0996L224.129 30.3085L237.637 29.8492C237.636 29.8481 241.613 27.9492 238.618 24.9532ZM238.618 24.9532C238.618 24.9532 232.814 18.3034 224.985 15.0996L224.129 30.3085L237.637 29.8492C237.636 29.8481 241.613 27.9492 238.618 24.9532ZM238.618 24.9532C238.618 24.9532 232.814 18.3034 224.985 15.0996L224.129 30.3085L237.637 29.8492C237.636 29.8481 241.613 27.9492 238.618 24.9532ZM312.214 71.4691L312.695 58.535C312.695 58.535 309.667 56.2696 308.884 54.0983C308.206 52.2193 308.31 46.4882 307.851 44.4838C304.375 45.2887 299.03 44.9849 299.03 44.9849L294.593 38.1368C297.12 37.3654 305.544 31.5184 306.076 31.153C306.088 31.1426 306.098 31.1321 306.098 31.1321L304.971 28.2196L285.836 24.2527C285.836 24.2527 247.378 5.37869 224.245 2.42441C201.101 -0.540316 141.598 -2.71165 123.59 7.9885C105.583 18.6887 73.2212 33.3035 73.2212 33.3035C73.2212 33.3035 20.5033 39.045 6.67145 52.094C6.67145 52.094 1.36833 58.274 2.41225 61.9277C2.41225 61.9277 0.272231 63.9633 0.272231 64.9457C0.272231 65.9259 -0.552459 76.4496 0.668924 76.7106C1.89031 76.9716 7.53788 77.41 8.41477 79.143C9.28122 80.8863 18.332 88.4547 14.6783 88.8931C11.0246 89.3211 0.668924 86.8053 0.668924 86.8053C0.668924 86.8053 2.41225 88.7261 3.62319 88.9453C4.84458 89.1541 15.8057 91.7639 27.3723 92.3694C27.3723 92.3694 24.8565 62.6177 50.255 59.6634C75.6535 56.7092 81.395 87.6717 79.6621 92.3694L221.196 90.981C221.196 90.981 221.979 61.7513 246.908 58.6195C271.826 55.4878 276.002 81.3247 275.344 87.202C275.344 87.202 301.839 84.3208 307.706 80.8028L312.539 75.3222C312.537 75.3222 313.059 72.6498 312.214 71.4691ZM235.372 6.1627L284.175 25.3916L280.96 26.4356L233.9 7.64504L235.372 6.1627ZM60.692 43.3574C70.8911 42.5025 73.6366 36.2275 73.9707 35.3621C73.7097 36.3841 71.2356 44.5788 60.8173 44.6519C50.9105 44.7239 34.7612 47.4173 31.4311 47.982C34.7622 47.3035 50.9011 44.1717 60.692 43.3574ZM12.6719 60.5299L19.9793 53.139C17.9645 51.5731 9.27914 52.0951 9.27914 52.0951C17.714 49.6627 24.8544 51.4896 24.8544 51.4896C24.8544 51.4896 13.8933 64.5385 11.1895 62.5342C8.59017 60.603 4.926 61.6678 4.67546 61.7408C6.08579 59.747 12.6719 60.5299 12.6719 60.5299ZM51.2968 54.4439C29.6355 54.5691 23.372 76.3661 23.372 76.3661C23.372 76.3661 0.00916012 77.4936 1.55416 74.8002L21.7226 75.7606C21.7226 75.7606 27.6312 51.9176 51.0358 52.617C74.4404 53.3164 78.8353 69.5807 78.8353 69.5807C78.8353 69.5807 72.9581 54.3186 51.2968 54.4439ZM79.3792 52.0115H78.543C77.8655 52.0115 77.3112 51.4593 77.3112 50.7693C77.3112 50.0803 77.8645 49.527 78.543 49.527H79.3792C80.0567 49.527 80.6111 50.0803 80.6111 50.7693C80.6111 51.4593 80.0567 52.0115 79.3792 52.0115ZM86.8839 40.8093C86.4674 41.7185 81.8522 52.4907 85.9131 77.8996C85.6114 77.0447 78.1985 55.3406 86.8839 40.8093ZM205.974 76.3661C205.974 76.3661 217.802 78.788 215.369 80.8758C212.926 82.9741 85.9235 84.018 85.9235 84.018C85.9235 84.018 89.2223 80.1973 94.7968 80.0198C100.362 79.8424 205.974 76.3661 205.974 76.3661ZM145.073 46.959C145.073 46.3431 145.584 45.8315 146.211 45.8315H159.166C159.792 45.8315 160.304 46.3431 160.304 46.959C160.304 47.5853 159.792 48.0968 159.166 48.0968H146.211C145.584 48.0968 145.073 47.5843 145.073 46.959ZM162.735 74.7585C162.735 74.7585 158.173 53.139 164.165 39.9543C164.166 39.9543 162.078 63.1292 162.735 74.7585ZM217.406 44.9014C217.406 44.1915 217.99 43.608 218.7 43.608H231.258C231.969 43.608 232.542 44.1926 232.542 44.9014C232.542 45.6123 231.967 46.1854 231.258 46.1854H218.7C217.989 46.1865 217.406 45.6123 217.406 44.9014ZM241.635 35.1209C241.541 35.3089 241.437 35.5176 241.322 35.7473C241.113 36.1555 240.884 36.6033 240.633 37.1054C240.372 37.6274 240.08 38.2109 239.756 38.8268C239.506 39.3269 239.245 39.8488 238.973 40.3927C238.826 40.6641 238.69 40.946 238.545 41.2279C238.326 41.6663 238.096 42.1152 237.856 42.586C237.48 43.3366 237.084 44.1091 236.677 44.9233C236.51 45.2469 236.343 45.581 236.174 45.915C236.008 46.2397 235.851 46.5623 235.684 46.8859C233.879 50.477 231.853 54.4856 229.848 58.4942C229.556 59.0788 229.264 59.653 228.971 60.2376C228.898 60.3942 228.815 60.5508 228.742 60.7074C228.563 61.0519 228.397 61.3859 228.23 61.7304C227.947 62.2931 227.667 62.8578 227.384 63.4205C227.102 63.9853 226.82 64.5479 226.549 65.1012C225.995 66.2077 225.452 67.2934 224.93 68.3478C224.617 68.995 224.304 69.6308 223.991 70.2467C223.678 70.8636 223.385 71.4795 223.094 72.0631C222.802 72.6581 222.519 73.2427 222.238 73.796C221.56 75.1948 220.933 76.4789 220.38 77.6167C220.183 78.0239 220.005 78.4205 219.828 78.7859C219.703 79.0354 219.588 79.2766 219.483 79.5156C219.388 79.7046 219.306 79.8914 219.222 80.0689C219.139 80.2464 219.055 80.4134 218.982 80.5804C218.836 80.904 218.7 81.2068 218.575 81.4677C218.398 81.8644 218.25 82.1985 218.147 82.449C215.892 88.0235 208.752 88.1906 208.752 88.1906H83.1373C83.1373 88.1906 205.098 85.4137 209.107 85.4137C213.105 85.4137 215.695 82.971 215.695 82.971L241.97 34.4591C241.874 34.6512 241.76 34.8704 241.635 35.1209ZM243.378 33.0436L165.209 35.7786L86.9153 38.4406C116.803 9.21092 142.765 4.46112 184.271 4.59682C225.756 4.73253 238.941 20.1199 243.378 23.7736C247.814 27.4273 243.378 33.0436 243.378 33.0436ZM274.299 71.4075C268.036 54.1829 245.863 53.2747 245.863 53.2747C268.307 51.7088 275.865 65.9269 275.865 65.9269C278.872 67.0961 279.916 65.9269 279.916 65.9269C282.4 61.8766 290.877 61.8765 299.353 62.1479C307.84 62.3985 310.189 60.0601 310.189 60.0601C309.793 63.4842 298.445 65.2797 290.877 65.2797C283.308 65.2797 280.563 71.4075 280.563 71.4075C276.909 72.5871 274.299 71.4075 274.299 71.4075ZM306.451 79.7589C306.451 79.7589 281.741 86.1059 277.482 85.3229C277.482 85.3229 278.129 82.7862 276.866 79.738C276.866 79.738 302.797 79.4144 310.188 76.3661L306.451 79.7589ZM310.71 74.7167C300.532 77.8485 281.042 77.0655 281.042 77.0655C293.486 76.9716 310.71 72.3679 310.71 72.3679C312.975 72.7124 310.71 74.7167 310.71 74.7167ZM224.984 15.0986L224.128 30.3075L237.636 29.8481C237.636 29.8481 241.613 27.9492 238.617 24.9522C238.618 24.9532 232.813 18.3035 224.984 15.0986ZM238.618 24.9532C238.618 24.9532 232.814 18.3034 224.985 15.0996L224.129 30.3085L237.637 29.8492C237.636 29.8481 241.613 27.9492 238.618 24.9532ZM238.618 24.9532C238.618 24.9532 232.814 18.3034 224.985 15.0996L224.129 30.3085L237.637 29.8492C237.636 29.8481 241.613 27.9492 238.618 24.9532ZM238.618 24.9532C238.618 24.9532 232.814 18.3034 224.985 15.0996L224.129 30.3085L237.637 29.8492C237.636 29.8481 241.613 27.9492 238.618 24.9532ZM238.618 24.9532C238.618 24.9532 232.814 18.3034 224.985 15.0996L224.129 30.3085L237.637 29.8492C237.636 29.8481 241.613 27.9492 238.618 24.9532ZM238.618 24.9532C238.618 24.9532 232.814 18.3034 224.985 15.0996L224.129 30.3085L237.637 29.8492C237.636 29.8481 241.613 27.9492 238.618 24.9532ZM238.618 24.9532C238.618 24.9532 232.814 18.3034 224.985 15.0996L224.129 30.3085L237.637 29.8492C237.636 29.8481 241.613 27.9492 238.618 24.9532ZM238.618 24.9532C238.618 24.9532 232.814 18.3034 224.985 15.0996L224.129 30.3085L237.637 29.8492C237.636 29.8481 241.613 27.9492 238.618 24.9532ZM238.618 24.9532C238.618 24.9532 232.814 18.3034 224.985 15.0996L224.129 30.3085L237.637 29.8492C237.636 29.8481 241.613 27.9492 238.618 24.9532ZM238.618 24.9532C238.618 24.9532 232.814 18.3034 224.985 15.0996L224.129 30.3085L237.637 29.8492C237.636 29.8481 241.613 27.9492 238.618 24.9532ZM238.618 24.9532C238.618 24.9532 232.814 18.3034 224.985 15.0996L224.129 30.3085L237.637 29.8492C237.636 29.8481 241.613 27.9492 238.618 24.9532ZM238.618 24.9532C238.618 24.9532 232.814 18.3034 224.985 15.0996L224.129 30.3085L237.637 29.8492C237.636 29.8481 241.613 27.9492 238.618 24.9532ZM238.618 24.9532C238.618 24.9532 232.814 18.3034 224.985 15.0996L224.129 30.3085L237.637 29.8492C237.636 29.8481 241.613 27.9492 238.618 24.9532ZM238.618 24.9532C238.618 24.9532 232.814 18.3034 224.985 15.0996L224.129 30.3085L237.637 29.8492C237.636 29.8481 241.613 27.9492 238.618 24.9532ZM238.618 24.9532C238.618 24.9532 232.814 18.3034 224.985 15.0996L224.129 30.3085L237.637 29.8492C237.636 29.8481 241.613 27.9492 238.618 24.9532ZM238.618 24.9532C238.618 24.9532 232.814 18.3034 224.985 15.0996L224.129 30.3085L237.637 29.8492C237.636 29.8481 241.613 27.9492 238.618 24.9532ZM238.618 24.9532C238.618 24.9532 232.814 18.3034 224.985 15.0996L224.129 30.3085L237.637 29.8492C237.636 29.8481 241.613 27.9492 238.618 24.9532Z" fill="#125585"/>
<path d="M307.432 42.9798L306.898 39.9629C307.118 41.1331 307.316 42.2501 307.432 42.9798Z" fill="#125585"/>
<path d="M306.1 31.1328C306.1 31.1328 306.09 31.1433 306.078 31.1537C305.754 31.4356 305.629 32.0421 305.619 32.7196C305.619 32.7196 298.906 38.3891 297.664 38.8484L299.95 43.3571H307.497C307.549 43.6598 307.58 43.8373 307.58 43.8373C307.695 43.9312 307.779 44.1609 307.852 44.4845C307.977 44.4636 308.102 44.4323 308.227 44.401L306.1 31.1328ZM307.133 41.2369C307.205 41.6451 307.28 42.0303 307.332 42.3643L307.133 41.2369Z" fill="#125585"/>
<path d="M1.5802 78.5173C1.5802 78.5173 1.18872 82.7587 3.47281 85.76C3.47281 85.76 10.9076 87.8228 12.9338 87.2611C12.9338 87.2611 8.6684 81.9758 7.24554 80.8014C5.82164 79.627 4.77772 78.3868 1.5802 78.5173Z" fill="#125585"/>
<path d="M238.618 24.9532C238.618 24.9532 232.814 18.3034 224.985 15.0996L224.129 30.3084L237.637 29.8491C237.636 29.8481 241.613 27.9492 238.618 24.9532ZM238.618 24.9532C238.618 24.9532 232.814 18.3034 224.985 15.0996L224.129 30.3084L237.637 29.8491C237.636 29.8481 241.613 27.9492 238.618 24.9532ZM238.618 24.9532C238.618 24.9532 232.814 18.3034 224.985 15.0996L224.129 30.3084L237.637 29.8491C237.636 29.8481 241.613 27.9492 238.618 24.9532Z" fill="#125585"/>
<path d="M238.618 24.9532C238.618 24.9532 232.814 18.3034 224.985 15.0996L224.129 30.3084L237.637 29.8491C237.637 29.8491 241.613 27.9492 238.618 24.9532Z" fill="#125585"/>
<path d="M241.29 24.6927C237.918 19.1078 217.718 4.33636 170.648 6.16321C123.588 7.99007 108.013 23.8263 92.1875 35.9983L239.547 31.1337C239.547 31.1337 244.674 30.2767 241.29 24.6927ZM158.998 31.8227L104.715 33.7435C104.715 33.7435 112.544 21.0912 130.635 14.598C148.726 8.10384 164.907 7.81259 164.907 7.81259L158.998 31.8227ZM222.155 30.2568L172.569 31.3007L175.127 7.81259C194.752 5.55773 223.022 14.2536 223.022 14.2536L222.155 30.2568ZM237.636 29.8486L224.128 30.308L224.984 15.0991C232.814 18.3029 238.618 24.9527 238.618 24.9527C241.614 27.9498 237.636 29.8486 237.636 29.8486Z" fill="#125585"/>
<path d="M237.633 29.8472L224.125 30.3065L224.981 15.0977C232.81 18.3014 238.615 24.9512 238.615 24.9512C241.611 27.9483 237.633 29.8472 237.633 29.8472Z" fill="#125585"/>
<path d="M54.4942 88.4359L54.5046 88.4787L54.5129 88.4704C54.5129 88.4631 54.5046 88.4453 54.4942 88.4359ZM54.4942 88.4359L54.5046 88.4787L54.5129 88.4704C54.5129 88.4631 54.5046 88.4453 54.4942 88.4359ZM54.4942 88.4359L54.5046 88.4787L54.5129 88.4704C54.5129 88.4631 54.5046 88.4453 54.4942 88.4359ZM54.4942 88.4359L54.5046 88.4787L54.5129 88.4704C54.5129 88.4631 54.5046 88.4453 54.4942 88.4359ZM54.4942 88.4359L54.5046 88.4787L54.5129 88.4704C54.5129 88.4631 54.5046 88.4453 54.4942 88.4359ZM54.4942 88.4359L54.5046 88.4787L54.5129 88.4704C54.5129 88.4631 54.5046 88.4453 54.4942 88.4359ZM54.4942 88.4359L54.5046 88.4787L54.5129 88.4704C54.5129 88.4631 54.5046 88.4453 54.4942 88.4359ZM54.4942 88.4359L54.5046 88.4787L54.5129 88.4704C54.5129 88.4631 54.5046 88.4453 54.4942 88.4359ZM54.4942 88.4359L54.5046 88.4787L54.5129 88.4704C54.5129 88.4631 54.5046 88.4453 54.4942 88.4359ZM54.4942 88.4359L54.5046 88.4787L54.5129 88.4704C54.5129 88.4631 54.5046 88.4453 54.4942 88.4359ZM66.3478 74.1969C66.3478 75.65 65.2371 79.3852 55.7187 84.658C55.94 84.9993 56.0674 85.4013 56.0945 85.8293C66.6944 84.9378 69.8544 87.3701 70.773 88.6551C70.8931 87.7981 70.9651 86.9327 70.9651 86.0401C70.9661 81.474 69.2165 77.3098 66.3478 74.1969ZM50.996 85.0693C40.3512 80.2933 39.5902 76.4716 39.6518 75.3066C37.3259 78.2723 35.9511 81.9887 35.9511 86.0401C35.9511 87.5622 36.1431 89.0299 36.5106 90.4308C37.3071 89.0654 40.2374 86.371 50.8217 86.3272C50.8123 86.2301 50.8039 86.1341 50.8039 86.0401C50.8039 85.6988 50.8645 85.3657 50.996 85.0693ZM52.6423 88.5518C52.2383 88.4286 51.8802 88.2094 51.5816 87.9129C43.7189 95.2339 39.7311 95.1806 38.2602 94.7255C40.8408 99.231 45.3641 102.476 50.6818 103.324C49.7809 102.116 48.4593 98.4429 52.6423 88.5518ZM54.4942 88.4359L54.5046 88.4787L54.5129 88.4704C54.5129 88.4631 54.5046 88.4453 54.4942 88.4359ZM53.4628 68.5368C50.6463 68.5368 47.9874 69.2028 45.6355 70.3834C47.1387 70.8991 50.3665 73.2083 52.6318 83.5295C52.8938 83.4345 53.1768 83.3917 53.4628 83.3917C53.6131 83.3917 53.7613 83.399 53.9002 83.4241C56.3502 71.9222 59.9633 70.4524 61.0719 70.278C58.7732 69.1589 56.1937 68.5368 53.4628 68.5368ZM55.4828 87.7459C55.2218 88.0612 54.8908 88.3138 54.5129 88.4704C59.5509 97.4376 58.9026 101.391 58.1427 102.904C63.2579 101.487 67.4387 97.803 69.5203 93.003C68.3417 93.6325 64.5367 94.4551 55.4828 87.7459ZM66.3478 74.1969C66.3478 75.65 65.2371 79.3852 55.7187 84.658C55.94 84.9993 56.0674 85.4013 56.0945 85.8293C66.6944 84.9378 69.8544 87.3701 70.773 88.6551C70.8931 87.7981 70.9651 86.9327 70.9651 86.0401C70.9661 81.474 69.2165 77.3098 66.3478 74.1969ZM55.4828 87.7459C55.2218 88.0612 54.8908 88.3138 54.5129 88.4704C59.5509 97.4376 58.9026 101.391 58.1427 102.904C63.2579 101.487 67.4387 97.803 69.5203 93.003C68.3417 93.6325 64.5367 94.4551 55.4828 87.7459ZM53.4628 68.5368C50.6463 68.5368 47.9874 69.2028 45.6355 70.3834C47.1387 70.8991 50.3665 73.2083 52.6318 83.5295C52.8938 83.4345 53.1768 83.3917 53.4628 83.3917C53.6131 83.3917 53.7613 83.399 53.9002 83.4241C56.3502 71.9222 59.9633 70.4524 61.0719 70.278C58.7732 69.1589 56.1937 68.5368 53.4628 68.5368ZM54.4942 88.4359L54.5046 88.4787L54.5129 88.4704C54.5129 88.4631 54.5046 88.4453 54.4942 88.4359ZM52.6423 88.5518C52.2383 88.4286 51.8802 88.2094 51.5816 87.9129C43.7189 95.2339 39.7311 95.1806 38.2602 94.7255C40.8408 99.231 45.3641 102.476 50.6818 103.324C49.7809 102.116 48.4593 98.4429 52.6423 88.5518ZM50.996 85.0693C40.3512 80.2933 39.5902 76.4716 39.6518 75.3066C37.3259 78.2723 35.9511 81.9887 35.9511 86.0401C35.9511 87.5622 36.1431 89.0299 36.5106 90.4308C37.3071 89.0654 40.2374 86.371 50.8217 86.3272C50.8123 86.2301 50.8039 86.1341 50.8039 86.0401C50.8039 85.6988 50.8645 85.3657 50.996 85.0693ZM66.3478 74.1969C66.3478 75.65 65.2371 79.3852 55.7187 84.658C55.94 84.9993 56.0674 85.4013 56.0945 85.8293C66.6944 84.9378 69.8544 87.3701 70.773 88.6551C70.8931 87.7981 70.9651 86.9327 70.9651 86.0401C70.9661 81.474 69.2165 77.3098 66.3478 74.1969ZM50.996 85.0693C40.3512 80.2933 39.5902 76.4716 39.6518 75.3066C37.3259 78.2723 35.9511 81.9887 35.9511 86.0401C35.9511 87.5622 36.1431 89.0299 36.5106 90.4308C37.3071 89.0654 40.2374 86.371 50.8217 86.3272C50.8123 86.2301 50.8039 86.1341 50.8039 86.0401C50.8039 85.6988 50.8645 85.3657 50.996 85.0693ZM52.6423 88.5518C52.2383 88.4286 51.8802 88.2094 51.5816 87.9129C43.7189 95.2339 39.7311 95.1806 38.2602 94.7255C40.8408 99.231 45.3641 102.476 50.6818 103.324C49.7809 102.116 48.4593 98.4429 52.6423 88.5518ZM54.4942 88.4359L54.5046 88.4787L54.5129 88.4704C54.5129 88.4631 54.5046 88.4453 54.4942 88.4359ZM53.4628 68.5368C50.6463 68.5368 47.9874 69.2028 45.6355 70.3834C47.1387 70.8991 50.3665 73.2083 52.6318 83.5295C52.8938 83.4345 53.1768 83.3917 53.4628 83.3917C53.6131 83.3917 53.7613 83.399 53.9002 83.4241C56.3502 71.9222 59.9633 70.4524 61.0719 70.278C58.7732 69.1589 56.1937 68.5368 53.4628 68.5368ZM55.4828 87.7459C55.2218 88.0612 54.8908 88.3138 54.5129 88.4704C59.5509 97.4376 58.9026 101.391 58.1427 102.904C63.2579 101.487 67.4387 97.803 69.5203 93.003C68.3417 93.6325 64.5367 94.4551 55.4828 87.7459ZM66.3478 74.1969C66.3478 75.65 65.2371 79.3852 55.7187 84.658C55.94 84.9993 56.0674 85.4013 56.0945 85.8293C66.6944 84.9378 69.8544 87.3701 70.773 88.6551C70.8931 87.7981 70.9651 86.9327 70.9651 86.0401C70.9661 81.474 69.2165 77.3098 66.3478 74.1969ZM55.4828 87.7459C55.2218 88.0612 54.8908 88.3138 54.5129 88.4704C59.5509 97.4376 58.9026 101.391 58.1427 102.904C63.2579 101.487 67.4387 97.803 69.5203 93.003C68.3417 93.6325 64.5367 94.4551 55.4828 87.7459ZM53.4628 68.5368C50.6463 68.5368 47.9874 69.2028 45.6355 70.3834C47.1387 70.8991 50.3665 73.2083 52.6318 83.5295C52.8938 83.4345 53.1768 83.3917 53.4628 83.3917C53.6131 83.3917 53.7613 83.399 53.9002 83.4241C56.3502 71.9222 59.9633 70.4524 61.0719 70.278C58.7732 69.1589 56.1937 68.5368 53.4628 68.5368ZM54.4942 88.4359L54.5046 88.4787L54.5129 88.4704C54.5129 88.4631 54.5046 88.4453 54.4942 88.4359ZM52.6423 88.5518C52.2383 88.4286 51.8802 88.2094 51.5816 87.9129C43.7189 95.2339 39.7311 95.1806 38.2602 94.7255C40.8408 99.231 45.3641 102.476 50.6818 103.324C49.7809 102.116 48.4593 98.4429 52.6423 88.5518ZM50.996 85.0693C40.3512 80.2933 39.5902 76.4716 39.6518 75.3066C37.3259 78.2723 35.9511 81.9887 35.9511 86.0401C35.9511 87.5622 36.1431 89.0299 36.5106 90.4308C37.3071 89.0654 40.2374 86.371 50.8217 86.3272C50.8123 86.2301 50.8039 86.1341 50.8039 86.0401C50.8039 85.6988 50.8645 85.3657 50.996 85.0693ZM66.3478 74.1969C66.3478 75.65 65.2371 79.3852 55.7187 84.658C55.94 84.9993 56.0674 85.4013 56.0945 85.8293C66.6944 84.9378 69.8544 87.3701 70.773 88.6551C70.8931 87.7981 70.9651 86.9327 70.9651 86.0401C70.9661 81.474 69.2165 77.3098 66.3478 74.1969ZM50.996 85.0693C40.3512 80.2933 39.5902 76.4716 39.6518 75.3066C37.3259 78.2723 35.9511 81.9887 35.9511 86.0401C35.9511 87.5622 36.1431 89.0299 36.5106 90.4308C37.3071 89.0654 40.2374 86.371 50.8217 86.3272C50.8123 86.2301 50.8039 86.1341 50.8039 86.0401C50.8039 85.6988 50.8645 85.3657 50.996 85.0693ZM52.6423 88.5518C52.2383 88.4286 51.8802 88.2094 51.5816 87.9129C43.7189 95.2339 39.7311 95.1806 38.2602 94.7255C40.8408 99.231 45.3641 102.476 50.6818 103.324C49.7809 102.116 48.4593 98.4429 52.6423 88.5518ZM54.4942 88.4359L54.5046 88.4787L54.5129 88.4704C54.5129 88.4631 54.5046 88.4453 54.4942 88.4359ZM53.4628 68.5368C50.6463 68.5368 47.9874 69.2028 45.6355 70.3834C47.1387 70.8991 50.3665 73.2083 52.6318 83.5295C52.8938 83.4345 53.1768 83.3917 53.4628 83.3917C53.6131 83.3917 53.7613 83.399 53.9002 83.4241C56.3502 71.9222 59.9633 70.4524 61.0719 70.278C58.7732 69.1589 56.1937 68.5368 53.4628 68.5368ZM55.4828 87.7459C55.2218 88.0612 54.8908 88.3138 54.5129 88.4704C59.5509 97.4376 58.9026 101.391 58.1427 102.904C63.2579 101.487 67.4387 97.803 69.5203 93.003C68.3417 93.6325 64.5367 94.4551 55.4828 87.7459ZM66.3478 74.1969C66.3478 75.65 65.2371 79.3852 55.7187 84.658C55.94 84.9993 56.0674 85.4013 56.0945 85.8293C66.6944 84.9378 69.8544 87.3701 70.773 88.6551C70.8931 87.7981 70.9651 86.9327 70.9651 86.0401C70.9661 81.474 69.2165 77.3098 66.3478 74.1969ZM55.4828 87.7459C55.2218 88.0612 54.8908 88.3138 54.5129 88.4704C59.5509 97.4376 58.9026 101.391 58.1427 102.904C63.2579 101.487 67.4387 97.803 69.5203 93.003C68.3417 93.6325 64.5367 94.4551 55.4828 87.7459ZM53.4628 68.5368C50.6463 68.5368 47.9874 69.2028 45.6355 70.3834C47.1387 70.8991 50.3665 73.2083 52.6318 83.5295C52.8938 83.4345 53.1768 83.3917 53.4628 83.3917C53.6131 83.3917 53.7613 83.399 53.9002 83.4241C56.3502 71.9222 59.9633 70.4524 61.0719 70.278C58.7732 69.1589 56.1937 68.5368 53.4628 68.5368ZM54.4942 88.4359L54.5046 88.4787L54.5129 88.4704C54.5129 88.4631 54.5046 88.4453 54.4942 88.4359ZM52.6423 88.5518C52.2383 88.4286 51.8802 88.2094 51.5816 87.9129C43.7189 95.2339 39.7311 95.1806 38.2602 94.7255C40.8408 99.231 45.3641 102.476 50.6818 103.324C49.7809 102.116 48.4593 98.4429 52.6423 88.5518ZM50.996 85.0693C40.3512 80.2933 39.5902 76.4716 39.6518 75.3066C37.3259 78.2723 35.9511 81.9887 35.9511 86.0401C35.9511 87.5622 36.1431 89.0299 36.5106 90.4308C37.3071 89.0654 40.2374 86.371 50.8217 86.3272C50.8123 86.2301 50.8039 86.1341 50.8039 86.0401C50.8039 85.6988 50.8645 85.3657 50.996 85.0693ZM66.3478 74.1969C66.3478 75.65 65.2371 79.3852 55.7187 84.658C55.94 84.9993 56.0674 85.4013 56.0945 85.8293C66.6944 84.9378 69.8544 87.3701 70.773 88.6551C70.8931 87.7981 70.9651 86.9327 70.9651 86.0401C70.9661 81.474 69.2165 77.3098 66.3478 74.1969ZM50.996 85.0693C40.3512 80.2933 39.5902 76.4716 39.6518 75.3066C37.3259 78.2723 35.9511 81.9887 35.9511 86.0401C35.9511 87.5622 36.1431 89.0299 36.5106 90.4308C37.3071 89.0654 40.2374 86.371 50.8217 86.3272C50.8123 86.2301 50.8039 86.1341 50.8039 86.0401C50.8039 85.6988 50.8645 85.3657 50.996 85.0693ZM52.6423 88.5518C52.2383 88.4286 51.8802 88.2094 51.5816 87.9129C43.7189 95.2339 39.7311 95.1806 38.2602 94.7255C40.8408 99.231 45.3641 102.476 50.6818 103.324C49.7809 102.116 48.4593 98.4429 52.6423 88.5518ZM54.4942 88.4359L54.5046 88.4787L54.5129 88.4704C54.5129 88.4631 54.5046 88.4453 54.4942 88.4359ZM53.4628 68.5368C50.6463 68.5368 47.9874 69.2028 45.6355 70.3834C47.1387 70.8991 50.3665 73.2083 52.6318 83.5295C52.8938 83.4345 53.1768 83.3917 53.4628 83.3917C53.6131 83.3917 53.7613 83.399 53.9002 83.4241C56.3502 71.9222 59.9633 70.4524 61.0719 70.278C58.7732 69.1589 56.1937 68.5368 53.4628 68.5368ZM55.4828 87.7459C55.2218 88.0612 54.8908 88.3138 54.5129 88.4704C59.5509 97.4376 58.9026 101.391 58.1427 102.904C63.2579 101.487 67.4387 97.803 69.5203 93.003C68.3417 93.6325 64.5367 94.4551 55.4828 87.7459ZM66.3478 74.1969C66.3478 75.65 65.2371 79.3852 55.7187 84.658C55.94 84.9993 56.0674 85.4013 56.0945 85.8293C66.6944 84.9378 69.8544 87.3701 70.773 88.6551C70.8931 87.7981 70.9651 86.9327 70.9651 86.0401C70.9661 81.474 69.2165 77.3098 66.3478 74.1969ZM55.4828 87.7459C55.2218 88.0612 54.8908 88.3138 54.5129 88.4704C59.5509 97.4376 58.9026 101.391 58.1427 102.904C63.2579 101.487 67.4387 97.803 69.5203 93.003C68.3417 93.6325 64.5367 94.4551 55.4828 87.7459ZM53.4628 68.5368C50.6463 68.5368 47.9874 69.2028 45.6355 70.3834C47.1387 70.8991 50.3665 73.2083 52.6318 83.5295C52.8938 83.4345 53.1768 83.3917 53.4628 83.3917C53.6131 83.3917 53.7613 83.399 53.9002 83.4241C56.3502 71.9222 59.9633 70.4524 61.0719 70.278C58.7732 69.1589 56.1937 68.5368 53.4628 68.5368ZM54.4942 88.4359L54.5046 88.4787L54.5129 88.4704C54.5129 88.4631 54.5046 88.4453 54.4942 88.4359ZM52.6423 88.5518C52.2383 88.4286 51.8802 88.2094 51.5816 87.9129C43.7189 95.2339 39.7311 95.1806 38.2602 94.7255C40.8408 99.231 45.3641 102.476 50.6818 103.324C49.7809 102.116 48.4593 98.4429 52.6423 88.5518ZM50.996 85.0693C40.3512 80.2933 39.5902 76.4716 39.6518 75.3066C37.3259 78.2723 35.9511 81.9887 35.9511 86.0401C35.9511 87.5622 36.1431 89.0299 36.5106 90.4308C37.3071 89.0654 40.2374 86.371 50.8217 86.3272C50.8123 86.2301 50.8039 86.1341 50.8039 86.0401C50.8039 85.6988 50.8645 85.3657 50.996 85.0693ZM66.3478 74.1969C66.3478 75.65 65.2371 79.3852 55.7187 84.658C55.94 84.9993 56.0674 85.4013 56.0945 85.8293C66.6944 84.9378 69.8544 87.3701 70.773 88.6551C70.8931 87.7981 70.9651 86.9327 70.9651 86.0401C70.9661 81.474 69.2165 77.3098 66.3478 74.1969ZM50.996 85.0693C40.3512 80.2933 39.5902 76.4716 39.6518 75.3066C37.3259 78.2723 35.9511 81.9887 35.9511 86.0401C35.9511 87.5622 36.1431 89.0299 36.5106 90.4308C37.3071 89.0654 40.2374 86.371 50.8217 86.3272C50.8123 86.2301 50.8039 86.1341 50.8039 86.0401C50.8039 85.6988 50.8645 85.3657 50.996 85.0693ZM52.6423 88.5518C52.2383 88.4286 51.8802 88.2094 51.5816 87.9129C43.7189 95.2339 39.7311 95.1806 38.2602 94.7255C40.8408 99.231 45.3641 102.476 50.6818 103.324C49.7809 102.116 48.4593 98.4429 52.6423 88.5518ZM54.4942 88.4359L54.5046 88.4787L54.5129 88.4704C54.5129 88.4631 54.5046 88.4453 54.4942 88.4359ZM53.4628 68.5368C50.6463 68.5368 47.9874 69.2028 45.6355 70.3834C47.1387 70.8991 50.3665 73.2083 52.6318 83.5295C52.8938 83.4345 53.1768 83.3917 53.4628 83.3917C53.6131 83.3917 53.7613 83.399 53.9002 83.4241C56.3502 71.9222 59.9633 70.4524 61.0719 70.278C58.7732 69.1589 56.1937 68.5368 53.4628 68.5368ZM55.4828 87.7459C55.2218 88.0612 54.8908 88.3138 54.5129 88.4704C59.5509 97.4376 58.9026 101.391 58.1427 102.904C63.2579 101.487 67.4387 97.803 69.5203 93.003C68.3417 93.6325 64.5367 94.4551 55.4828 87.7459ZM66.3478 74.1969C66.3478 75.65 65.2371 79.3852 55.7187 84.658C55.94 84.9993 56.0674 85.4013 56.0945 85.8293C66.6944 84.9378 69.8544 87.3701 70.773 88.6551C70.8931 87.7981 70.9651 86.9327 70.9651 86.0401C70.9661 81.474 69.2165 77.3098 66.3478 74.1969ZM55.4828 87.7459C55.2218 88.0612 54.8908 88.3138 54.5129 88.4704C59.5509 97.4376 58.9026 101.391 58.1427 102.904C63.2579 101.487 67.4387 97.803 69.5203 93.003C68.3417 93.6325 64.5367 94.4551 55.4828 87.7459ZM53.4628 68.5368C50.6463 68.5368 47.9874 69.2028 45.6355 70.3834C47.1387 70.8991 50.3665 73.2083 52.6318 83.5295C52.8938 83.4345 53.1768 83.3917 53.4628 83.3917C53.6131 83.3917 53.7613 83.399 53.9002 83.4241C56.3502 71.9222 59.9633 70.4524 61.0719 70.278C58.7732 69.1589 56.1937 68.5368 53.4628 68.5368ZM54.4942 88.4359L54.5046 88.4787L54.5129 88.4704C54.5129 88.4631 54.5046 88.4453 54.4942 88.4359ZM52.6423 88.5518C52.2383 88.4286 51.8802 88.2094 51.5816 87.9129C43.7189 95.2339 39.7311 95.1806 38.2602 94.7255C40.8408 99.231 45.3641 102.476 50.6818 103.324C49.7809 102.116 48.4593 98.4429 52.6423 88.5518ZM50.996 85.0693C40.3512 80.2933 39.5902 76.4716 39.6518 75.3066C37.3259 78.2723 35.9511 81.9887 35.9511 86.0401C35.9511 87.5622 36.1431 89.0299 36.5106 90.4308C37.3071 89.0654 40.2374 86.371 50.8217 86.3272C50.8123 86.2301 50.8039 86.1341 50.8039 86.0401C50.8039 85.6988 50.8645 85.3657 50.996 85.0693ZM66.3478 74.1969C66.3478 75.65 65.2371 79.3852 55.7187 84.658C55.94 84.9993 56.0674 85.4013 56.0945 85.8293C66.6944 84.9378 69.8544 87.3701 70.773 88.6551C70.8931 87.7981 70.9651 86.9327 70.9651 86.0401C70.9661 81.474 69.2165 77.3098 66.3478 74.1969ZM50.996 85.0693C40.3512 80.2933 39.5902 76.4716 39.6518 75.3066C37.3259 78.2723 35.9511 81.9887 35.9511 86.0401C35.9511 87.5622 36.1431 89.0299 36.5106 90.4308C37.3071 89.0654 40.2374 86.371 50.8217 86.3272C50.8123 86.2301 50.8039 86.1341 50.8039 86.0401C50.8039 85.6988 50.8645 85.3657 50.996 85.0693ZM52.6423 88.5518C52.2383 88.4286 51.8802 88.2094 51.5816 87.9129C43.7189 95.2339 39.7311 95.1806 38.2602 94.7255C40.8408 99.231 45.3641 102.476 50.6818 103.324C49.7809 102.116 48.4593 98.4429 52.6423 88.5518ZM54.4942 88.4359L54.5046 88.4787L54.5129 88.4704C54.5129 88.4631 54.5046 88.4453 54.4942 88.4359ZM53.4628 68.5368C50.6463 68.5368 47.9874 69.2028 45.6355 70.3834C47.1387 70.8991 50.3665 73.2083 52.6318 83.5295C52.8938 83.4345 53.1768 83.3917 53.4628 83.3917C53.6131 83.3917 53.7613 83.399 53.9002 83.4241C56.3502 71.9222 59.9633 70.4524 61.0719 70.278C58.7732 69.1589 56.1937 68.5368 53.4628 68.5368ZM55.4828 87.7459C55.2218 88.0612 54.8908 88.3138 54.5129 88.4704C59.5509 97.4376 58.9026 101.391 58.1427 102.904C63.2579 101.487 67.4387 97.803 69.5203 93.003C68.3417 93.6325 64.5367 94.4551 55.4828 87.7459ZM66.3478 74.1969C66.3478 75.65 65.2371 79.3852 55.7187 84.658C55.94 84.9993 56.0674 85.4013 56.0945 85.8293C66.6944 84.9378 69.8544 87.3701 70.773 88.6551C70.8931 87.7981 70.9651 86.9327 70.9651 86.0401C70.9661 81.474 69.2165 77.3098 66.3478 74.1969ZM55.4828 87.7459C55.2218 88.0612 54.8908 88.3138 54.5129 88.4704C59.5509 97.4376 58.9026 101.391 58.1427 102.904C63.2579 101.487 67.4387 97.803 69.5203 93.003C68.3417 93.6325 64.5367 94.4551 55.4828 87.7459ZM61.0719 70.278C58.7732 69.1589 56.1937 68.5368 53.4628 68.5368C50.6463 68.5368 47.9874 69.2028 45.6355 70.3834C47.1387 70.8991 50.3665 73.2083 52.6318 83.5295C52.8938 83.4345 53.1768 83.3917 53.4628 83.3917C53.6131 83.3917 53.7613 83.399 53.9002 83.4241C56.3502 71.9222 59.9633 70.4524 61.0719 70.278ZM54.5046 88.4787L54.5129 88.4704C54.5129 88.462 54.5046 88.4453 54.4942 88.4359L54.5046 88.4787ZM51.5816 87.9129C43.7189 95.2339 39.7311 95.1806 38.2602 94.7255C40.8408 99.231 45.3641 102.476 50.6818 103.324C49.7809 102.116 48.4593 98.4429 52.6423 88.5518C52.2383 88.4286 51.8802 88.2094 51.5816 87.9129ZM50.8039 86.0401C50.8039 85.6988 50.8655 85.3647 50.9971 85.0682C40.3522 80.2923 39.5912 76.4705 39.6528 75.3055C37.327 78.2713 35.9521 81.9876 35.9521 86.0391C35.9521 87.5611 36.1442 89.0288 36.5117 90.4298C37.3082 89.0643 40.2384 86.37 50.8227 86.3261C50.8133 86.2311 50.8039 86.1351 50.8039 86.0401ZM66.3478 74.1969C66.3478 75.65 65.2371 79.3852 55.7187 84.658C55.94 84.9993 56.0674 85.4013 56.0945 85.8293C66.6944 84.9378 69.8544 87.3701 70.773 88.6551C70.8931 87.7981 70.9651 86.9327 70.9651 86.0401C70.9661 81.474 69.2165 77.3098 66.3478 74.1969ZM53.4628 63.0781C40.7813 63.0781 30.5039 73.3565 30.5039 86.0401C30.5039 98.7216 40.7813 109 53.4628 109C66.138 109 76.4248 98.7216 76.4248 86.0401C76.4248 73.3565 66.137 63.0781 53.4628 63.0781ZM53.4628 104.602C43.2105 104.602 34.8936 96.2914 34.8936 86.0411C34.8936 75.7899 43.2105 67.4709 53.4628 67.4709C63.7141 67.4709 72.0236 75.7899 72.0236 86.0411C72.0236 96.2914 63.7141 104.602 53.4628 104.602ZM55.4828 87.7459C55.2218 88.0612 54.8908 88.3138 54.5129 88.4704C59.5509 97.4376 58.9026 101.391 58.1427 102.904C63.2579 101.487 67.4387 97.803 69.5203 93.003C68.3417 93.6325 64.5367 94.4551 55.4828 87.7459ZM61.0719 70.278C58.7732 69.1589 56.1937 68.5368 53.4628 68.5368C50.6463 68.5368 47.9874 69.2028 45.6355 70.3834C47.1387 70.8991 50.3665 73.2083 52.6318 83.5295C52.8938 83.4345 53.1768 83.3917 53.4628 83.3917C53.6131 83.3917 53.7613 83.399 53.9002 83.4241C56.3502 71.9222 59.9633 70.4524 61.0719 70.278ZM54.5046 88.4787L54.5129 88.4704C54.5129 88.462 54.5046 88.4453 54.4942 88.4359L54.5046 88.4787ZM51.5816 87.9129C43.7189 95.2339 39.7311 95.1806 38.2602 94.7255C40.8408 99.231 45.3641 102.476 50.6818 103.324C49.7809 102.116 48.4593 98.4429 52.6423 88.5518C52.2383 88.4286 51.8802 88.2094 51.5816 87.9129ZM50.8039 86.0401C50.8039 85.6988 50.8655 85.3647 50.9971 85.0682C40.3522 80.2923 39.5912 76.4705 39.6528 75.3055C37.327 78.2713 35.9521 81.9876 35.9521 86.0391C35.9521 87.5611 36.1442 89.0288 36.5117 90.4298C37.3082 89.0643 40.2384 86.37 50.8227 86.3261C50.8133 86.2311 50.8039 86.1351 50.8039 86.0401ZM66.3478 74.1969C66.3478 75.65 65.2371 79.3852 55.7187 84.658C55.94 84.9993 56.0674 85.4013 56.0945 85.8293C66.6944 84.9378 69.8544 87.3701 70.773 88.6551C70.8931 87.7981 70.9651 86.9327 70.9651 86.0401C70.9661 81.474 69.2165 77.3098 66.3478 74.1969ZM50.996 85.0693C40.3512 80.2933 39.5902 76.4716 39.6518 75.3066C37.3259 78.2723 35.9511 81.9887 35.9511 86.0401C35.9511 87.5622 36.1431 89.0299 36.5106 90.4308C37.3071 89.0654 40.2374 86.371 50.8217 86.3272C50.8123 86.2301 50.8039 86.1341 50.8039 86.0401C50.8039 85.6988 50.8645 85.3657 50.996 85.0693ZM52.6423 88.5518C52.2383 88.4286 51.8802 88.2094 51.5816 87.9129C43.7189 95.2339 39.7311 95.1806 38.2602 94.7255C40.8408 99.231 45.3641 102.476 50.6818 103.324C49.7809 102.116 48.4593 98.4429 52.6423 88.5518ZM54.4942 88.4359L54.5046 88.4787L54.5129 88.4704C54.5129 88.4631 54.5046 88.4453 54.4942 88.4359ZM53.4628 68.5368C50.6463 68.5368 47.9874 69.2028 45.6355 70.3834C47.1387 70.8991 50.3665 73.2083 52.6318 83.5295C52.8938 83.4345 53.1768 83.3917 53.4628 83.3917C53.6131 83.3917 53.7613 83.399 53.9002 83.4241C56.3502 71.9222 59.9633 70.4524 61.0719 70.278C58.7732 69.1589 56.1937 68.5368 53.4628 68.5368ZM55.4828 87.7459C55.2218 88.0612 54.8908 88.3138 54.5129 88.4704C59.5509 97.4376 58.9026 101.391 58.1427 102.904C63.2579 101.487 67.4387 97.803 69.5203 93.003C68.3417 93.6325 64.5367 94.4551 55.4828 87.7459ZM66.3478 74.1969C66.3478 75.65 65.2371 79.3852 55.7187 84.658C55.94 84.9993 56.0674 85.4013 56.0945 85.8293C66.6944 84.9378 69.8544 87.3701 70.773 88.6551C70.8931 87.7981 70.9651 86.9327 70.9651 86.0401C70.9661 81.474 69.2165 77.3098 66.3478 74.1969ZM55.4828 87.7459C55.2218 88.0612 54.8908 88.3138 54.5129 88.4704C59.5509 97.4376 58.9026 101.391 58.1427 102.904C63.2579 101.487 67.4387 97.803 69.5203 93.003C68.3417 93.6325 64.5367 94.4551 55.4828 87.7459ZM53.4628 68.5368C50.6463 68.5368 47.9874 69.2028 45.6355 70.3834C47.1387 70.8991 50.3665 73.2083 52.6318 83.5295C52.8938 83.4345 53.1768 83.3917 53.4628 83.3917C53.6131 83.3917 53.7613 83.399 53.9002 83.4241C56.3502 71.9222 59.9633 70.4524 61.0719 70.278C58.7732 69.1589 56.1937 68.5368 53.4628 68.5368ZM54.4942 88.4359L54.5046 88.4787L54.5129 88.4704C54.5129 88.4631 54.5046 88.4453 54.4942 88.4359ZM52.6423 88.5518C52.2383 88.4286 51.8802 88.2094 51.5816 87.9129C43.7189 95.2339 39.7311 95.1806 38.2602 94.7255C40.8408 99.231 45.3641 102.476 50.6818 103.324C49.7809 102.116 48.4593 98.4429 52.6423 88.5518ZM50.996 85.0693C40.3512 80.2933 39.5902 76.4716 39.6518 75.3066C37.3259 78.2723 35.9511 81.9887 35.9511 86.0401C35.9511 87.5622 36.1431 89.0299 36.5106 90.4308C37.3071 89.0654 40.2374 86.371 50.8217 86.3272C50.8123 86.2301 50.8039 86.1341 50.8039 86.0401C50.8039 85.6988 50.8645 85.3657 50.996 85.0693ZM66.3478 74.1969C66.3478 75.65 65.2371 79.3852 55.7187 84.658C55.94 84.9993 56.0674 85.4013 56.0945 85.8293C66.6944 84.9378 69.8544 87.3701 70.773 88.6551C70.8931 87.7981 70.9651 86.9327 70.9651 86.0401C70.9661 81.474 69.2165 77.3098 66.3478 74.1969ZM50.996 85.0693C40.3512 80.2933 39.5902 76.4716 39.6518 75.3066C37.3259 78.2723 35.9511 81.9887 35.9511 86.0401C35.9511 87.5622 36.1431 89.0299 36.5106 90.4308C37.3071 89.0654 40.2374 86.371 50.8217 86.3272C50.8123 86.2301 50.8039 86.1341 50.8039 86.0401C50.8039 85.6988 50.8645 85.3657 50.996 85.0693ZM52.6423 88.5518C52.2383 88.4286 51.8802 88.2094 51.5816 87.9129C43.7189 95.2339 39.7311 95.1806 38.2602 94.7255C40.8408 99.231 45.3641 102.476 50.6818 103.324C49.7809 102.116 48.4593 98.4429 52.6423 88.5518ZM54.4942 88.4359L54.5046 88.4787L54.5129 88.4704C54.5129 88.4631 54.5046 88.4453 54.4942 88.4359ZM53.4628 68.5368C50.6463 68.5368 47.9874 69.2028 45.6355 70.3834C47.1387 70.8991 50.3665 73.2083 52.6318 83.5295C52.8938 83.4345 53.1768 83.3917 53.4628 83.3917C53.6131 83.3917 53.7613 83.399 53.9002 83.4241C56.3502 71.9222 59.9633 70.4524 61.0719 70.278C58.7732 69.1589 56.1937 68.5368 53.4628 68.5368ZM55.4828 87.7459C55.2218 88.0612 54.8908 88.3138 54.5129 88.4704C59.5509 97.4376 58.9026 101.391 58.1427 102.904C63.2579 101.487 67.4387 97.803 69.5203 93.003C68.3417 93.6325 64.5367 94.4551 55.4828 87.7459ZM66.3478 74.1969C66.3478 75.65 65.2371 79.3852 55.7187 84.658C55.94 84.9993 56.0674 85.4013 56.0945 85.8293C66.6944 84.9378 69.8544 87.3701 70.773 88.6551C70.8931 87.7981 70.9651 86.9327 70.9651 86.0401C70.9661 81.474 69.2165 77.3098 66.3478 74.1969ZM55.4828 87.7459C55.2218 88.0612 54.8908 88.3138 54.5129 88.4704C59.5509 97.4376 58.9026 101.391 58.1427 102.904C63.2579 101.487 67.4387 97.803 69.5203 93.003C68.3417 93.6325 64.5367 94.4551 55.4828 87.7459ZM53.4628 68.5368C50.6463 68.5368 47.9874 69.2028 45.6355 70.3834C47.1387 70.8991 50.3665 73.2083 52.6318 83.5295C52.8938 83.4345 53.1768 83.3917 53.4628 83.3917C53.6131 83.3917 53.7613 83.399 53.9002 83.4241C56.3502 71.9222 59.9633 70.4524 61.0719 70.278C58.7732 69.1589 56.1937 68.5368 53.4628 68.5368ZM54.4942 88.4359L54.5046 88.4787L54.5129 88.4704C54.5129 88.4631 54.5046 88.4453 54.4942 88.4359ZM52.6423 88.5518C52.2383 88.4286 51.8802 88.2094 51.5816 87.9129C43.7189 95.2339 39.7311 95.1806 38.2602 94.7255C40.8408 99.231 45.3641 102.476 50.6818 103.324C49.7809 102.116 48.4593 98.4429 52.6423 88.5518ZM50.996 85.0693C40.3512 80.2933 39.5902 76.4716 39.6518 75.3066C37.3259 78.2723 35.9511 81.9887 35.9511 86.0401C35.9511 87.5622 36.1431 89.0299 36.5106 90.4308C37.3071 89.0654 40.2374 86.371 50.8217 86.3272C50.8123 86.2301 50.8039 86.1341 50.8039 86.0401C50.8039 85.6988 50.8645 85.3657 50.996 85.0693ZM66.3478 74.1969C66.3478 75.65 65.2371 79.3852 55.7187 84.658C55.94 84.9993 56.0674 85.4013 56.0945 85.8293C66.6944 84.9378 69.8544 87.3701 70.773 88.6551C70.8931 87.7981 70.9651 86.9327 70.9651 86.0401C70.9661 81.474 69.2165 77.3098 66.3478 74.1969ZM50.996 85.0693C40.3512 80.2933 39.5902 76.4716 39.6518 75.3066C37.3259 78.2723 35.9511 81.9887 35.9511 86.0401C35.9511 87.5622 36.1431 89.0299 36.5106 90.4308C37.3071 89.0654 40.2374 86.371 50.8217 86.3272C50.8123 86.2301 50.8039 86.1341 50.8039 86.0401C50.8039 85.6988 50.8645 85.3657 50.996 85.0693ZM52.6423 88.5518C52.2383 88.4286 51.8802 88.2094 51.5816 87.9129C43.7189 95.2339 39.7311 95.1806 38.2602 94.7255C40.8408 99.231 45.3641 102.476 50.6818 103.324C49.7809 102.116 48.4593 98.4429 52.6423 88.5518ZM54.4942 88.4359L54.5046 88.4787L54.5129 88.4704C54.5129 88.4631 54.5046 88.4453 54.4942 88.4359ZM53.4628 68.5368C50.6463 68.5368 47.9874 69.2028 45.6355 70.3834C47.1387 70.8991 50.3665 73.2083 52.6318 83.5295C52.8938 83.4345 53.1768 83.3917 53.4628 83.3917C53.6131 83.3917 53.7613 83.399 53.9002 83.4241C56.3502 71.9222 59.9633 70.4524 61.0719 70.278C58.7732 69.1589 56.1937 68.5368 53.4628 68.5368ZM55.4828 87.7459C55.2218 88.0612 54.8908 88.3138 54.5129 88.4704C59.5509 97.4376 58.9026 101.391 58.1427 102.904C63.2579 101.487 67.4387 97.803 69.5203 93.003C68.3417 93.6325 64.5367 94.4551 55.4828 87.7459ZM66.3478 74.1969C66.3478 75.65 65.2371 79.3852 55.7187 84.658C55.94 84.9993 56.0674 85.4013 56.0945 85.8293C66.6944 84.9378 69.8544 87.3701 70.773 88.6551C70.8931 87.7981 70.9651 86.9327 70.9651 86.0401C70.9661 81.474 69.2165 77.3098 66.3478 74.1969ZM55.4828 87.7459C55.2218 88.0612 54.8908 88.3138 54.5129 88.4704C59.5509 97.4376 58.9026 101.391 58.1427 102.904C63.2579 101.487 67.4387 97.803 69.5203 93.003C68.3417 93.6325 64.5367 94.4551 55.4828 87.7459ZM53.4628 68.5368C50.6463 68.5368 47.9874 69.2028 45.6355 70.3834C47.1387 70.8991 50.3665 73.2083 52.6318 83.5295C52.8938 83.4345 53.1768 83.3917 53.4628 83.3917C53.6131 83.3917 53.7613 83.399 53.9002 83.4241C56.3502 71.9222 59.9633 70.4524 61.0719 70.278C58.7732 69.1589 56.1937 68.5368 53.4628 68.5368ZM54.4942 88.4359L54.5046 88.4787L54.5129 88.4704C54.5129 88.4631 54.5046 88.4453 54.4942 88.4359ZM52.6423 88.5518C52.2383 88.4286 51.8802 88.2094 51.5816 87.9129C43.7189 95.2339 39.7311 95.1806 38.2602 94.7255C40.8408 99.231 45.3641 102.476 50.6818 103.324C49.7809 102.116 48.4593 98.4429 52.6423 88.5518ZM50.996 85.0693C40.3512 80.2933 39.5902 76.4716 39.6518 75.3066C37.3259 78.2723 35.9511 81.9887 35.9511 86.0401C35.9511 87.5622 36.1431 89.0299 36.5106 90.4308C37.3071 89.0654 40.2374 86.371 50.8217 86.3272C50.8123 86.2301 50.8039 86.1341 50.8039 86.0401C50.8039 85.6988 50.8645 85.3657 50.996 85.0693ZM66.3478 74.1969C66.3478 75.65 65.2371 79.3852 55.7187 84.658C55.94 84.9993 56.0674 85.4013 56.0945 85.8293C66.6944 84.9378 69.8544 87.3701 70.773 88.6551C70.8931 87.7981 70.9651 86.9327 70.9651 86.0401C70.9661 81.474 69.2165 77.3098 66.3478 74.1969ZM50.996 85.0693C40.3512 80.2933 39.5902 76.4716 39.6518 75.3066C37.3259 78.2723 35.9511 81.9887 35.9511 86.0401C35.9511 87.5622 36.1431 89.0299 36.5106 90.4308C37.3071 89.0654 40.2374 86.371 50.8217 86.3272C50.8123 86.2301 50.8039 86.1341 50.8039 86.0401C50.8039 85.6988 50.8645 85.3657 50.996 85.0693ZM52.6423 88.5518C52.2383 88.4286 51.8802 88.2094 51.5816 87.9129C43.7189 95.2339 39.7311 95.1806 38.2602 94.7255C40.8408 99.231 45.3641 102.476 50.6818 103.324C49.7809 102.116 48.4593 98.4429 52.6423 88.5518ZM54.4942 88.4359L54.5046 88.4787L54.5129 88.4704C54.5129 88.4631 54.5046 88.4453 54.4942 88.4359ZM53.4628 68.5368C50.6463 68.5368 47.9874 69.2028 45.6355 70.3834C47.1387 70.8991 50.3665 73.2083 52.6318 83.5295C52.8938 83.4345 53.1768 83.3917 53.4628 83.3917C53.6131 83.3917 53.7613 83.399 53.9002 83.4241C56.3502 71.9222 59.9633 70.4524 61.0719 70.278C58.7732 69.1589 56.1937 68.5368 53.4628 68.5368ZM55.4828 87.7459C55.2218 88.0612 54.8908 88.3138 54.5129 88.4704C59.5509 97.4376 58.9026 101.391 58.1427 102.904C63.2579 101.487 67.4387 97.803 69.5203 93.003C68.3417 93.6325 64.5367 94.4551 55.4828 87.7459ZM66.3478 74.1969C66.3478 75.65 65.2371 79.3852 55.7187 84.658C55.94 84.9993 56.0674 85.4013 56.0945 85.8293C66.6944 84.9378 69.8544 87.3701 70.773 88.6551C70.8931 87.7981 70.9651 86.9327 70.9651 86.0401C70.9661 81.474 69.2165 77.3098 66.3478 74.1969ZM55.4828 87.7459C55.2218 88.0612 54.8908 88.3138 54.5129 88.4704C59.5509 97.4376 58.9026 101.391 58.1427 102.904C63.2579 101.487 67.4387 97.803 69.5203 93.003C68.3417 93.6325 64.5367 94.4551 55.4828 87.7459ZM53.4628 68.5368C50.6463 68.5368 47.9874 69.2028 45.6355 70.3834C47.1387 70.8991 50.3665 73.2083 52.6318 83.5295C52.8938 83.4345 53.1768 83.3917 53.4628 83.3917C53.6131 83.3917 53.7613 83.399 53.9002 83.4241C56.3502 71.9222 59.9633 70.4524 61.0719 70.278C58.7732 69.1589 56.1937 68.5368 53.4628 68.5368ZM54.4942 88.4359L54.5046 88.4787L54.5129 88.4704C54.5129 88.4631 54.5046 88.4453 54.4942 88.4359ZM52.6423 88.5518C52.2383 88.4286 51.8802 88.2094 51.5816 87.9129C43.7189 95.2339 39.7311 95.1806 38.2602 94.7255C40.8408 99.231 45.3641 102.476 50.6818 103.324C49.7809 102.116 48.4593 98.4429 52.6423 88.5518ZM50.996 85.0693C40.3512 80.2933 39.5902 76.4716 39.6518 75.3066C37.3259 78.2723 35.9511 81.9887 35.9511 86.0401C35.9511 87.5622 36.1431 89.0299 36.5106 90.4308C37.3071 89.0654 40.2374 86.371 50.8217 86.3272C50.8123 86.2301 50.8039 86.1341 50.8039 86.0401C50.8039 85.6988 50.8645 85.3657 50.996 85.0693ZM66.3478 74.1969C66.3478 75.65 65.2371 79.3852 55.7187 84.658C55.94 84.9993 56.0674 85.4013 56.0945 85.8293C66.6944 84.9378 69.8544 87.3701 70.773 88.6551C70.8931 87.7981 70.9651 86.9327 70.9651 86.0401C70.9661 81.474 69.2165 77.3098 66.3478 74.1969ZM50.996 85.0693C40.3512 80.2933 39.5902 76.4716 39.6518 75.3066C37.3259 78.2723 35.9511 81.9887 35.9511 86.0401C35.9511 87.5622 36.1431 89.0299 36.5106 90.4308C37.3071 89.0654 40.2374 86.371 50.8217 86.3272C50.8123 86.2301 50.8039 86.1341 50.8039 86.0401C50.8039 85.6988 50.8645 85.3657 50.996 85.0693ZM52.6423 88.5518C52.2383 88.4286 51.8802 88.2094 51.5816 87.9129C43.7189 95.2339 39.7311 95.1806 38.2602 94.7255C40.8408 99.231 45.3641 102.476 50.6818 103.324C49.7809 102.116 48.4593 98.4429 52.6423 88.5518ZM54.4942 88.4359L54.5046 88.4787L54.5129 88.4704C54.5129 88.4631 54.5046 88.4453 54.4942 88.4359ZM53.4628 68.5368C50.6463 68.5368 47.9874 69.2028 45.6355 70.3834C47.1387 70.8991 50.3665 73.2083 52.6318 83.5295C52.8938 83.4345 53.1768 83.3917 53.4628 83.3917C53.6131 83.3917 53.7613 83.399 53.9002 83.4241C56.3502 71.9222 59.9633 70.4524 61.0719 70.278C58.7732 69.1589 56.1937 68.5368 53.4628 68.5368ZM55.4828 87.7459C55.2218 88.0612 54.8908 88.3138 54.5129 88.4704C59.5509 97.4376 58.9026 101.391 58.1427 102.904C63.2579 101.487 67.4387 97.803 69.5203 93.003C68.3417 93.6325 64.5367 94.4551 55.4828 87.7459ZM66.3478 74.1969C66.3478 75.65 65.2371 79.3852 55.7187 84.658C55.94 84.9993 56.0674 85.4013 56.0945 85.8293C66.6944 84.9378 69.8544 87.3701 70.773 88.6551C70.8931 87.7981 70.9651 86.9327 70.9651 86.0401C70.9661 81.474 69.2165 77.3098 66.3478 74.1969ZM55.4828 87.7459C55.2218 88.0612 54.8908 88.3138 54.5129 88.4704C59.5509 97.4376 58.9026 101.391 58.1427 102.904C63.2579 101.487 67.4387 97.803 69.5203 93.003C68.3417 93.6325 64.5367 94.4551 55.4828 87.7459ZM53.4628 68.5368C50.6463 68.5368 47.9874 69.2028 45.6355 70.3834C47.1387 70.8991 50.3665 73.2083 52.6318 83.5295C52.8938 83.4345 53.1768 83.3917 53.4628 83.3917C53.6131 83.3917 53.7613 83.399 53.9002 83.4241C56.3502 71.9222 59.9633 70.4524 61.0719 70.278C58.7732 69.1589 56.1937 68.5368 53.4628 68.5368ZM54.4942 88.4359L54.5046 88.4787L54.5129 88.4704C54.5129 88.4631 54.5046 88.4453 54.4942 88.4359ZM52.6423 88.5518C52.2383 88.4286 51.8802 88.2094 51.5816 87.9129C43.7189 95.2339 39.7311 95.1806 38.2602 94.7255C40.8408 99.231 45.3641 102.476 50.6818 103.324C49.7809 102.116 48.4593 98.4429 52.6423 88.5518ZM50.996 85.0693C40.3512 80.2933 39.5902 76.4716 39.6518 75.3066C37.3259 78.2723 35.9511 81.9887 35.9511 86.0401C35.9511 87.5622 36.1431 89.0299 36.5106 90.4308C37.3071 89.0654 40.2374 86.371 50.8217 86.3272C50.8123 86.2301 50.8039 86.1341 50.8039 86.0401C50.8039 85.6988 50.8645 85.3657 50.996 85.0693ZM66.3478 74.1969C66.3478 75.65 65.2371 79.3852 55.7187 84.658C55.94 84.9993 56.0674 85.4013 56.0945 85.8293C66.6944 84.9378 69.8544 87.3701 70.773 88.6551C70.8931 87.7981 70.9651 86.9327 70.9651 86.0401C70.9661 81.474 69.2165 77.3098 66.3478 74.1969ZM50.996 85.0693C40.3512 80.2933 39.5902 76.4716 39.6518 75.3066C37.3259 78.2723 35.9511 81.9887 35.9511 86.0401C35.9511 87.5622 36.1431 89.0299 36.5106 90.4308C37.3071 89.0654 40.2374 86.371 50.8217 86.3272C50.8123 86.2301 50.8039 86.1341 50.8039 86.0401C50.8039 85.6988 50.8645 85.3657 50.996 85.0693ZM52.6423 88.5518C52.2383 88.4286 51.8802 88.2094 51.5816 87.9129C43.7189 95.2339 39.7311 95.1806 38.2602 94.7255C40.8408 99.231 45.3641 102.476 50.6818 103.324C49.7809 102.116 48.4593 98.4429 52.6423 88.5518ZM54.4942 88.4359L54.5046 88.4787L54.5129 88.4704C54.5129 88.4631 54.5046 88.4453 54.4942 88.4359ZM53.4628 68.5368C50.6463 68.5368 47.9874 69.2028 45.6355 70.3834C47.1387 70.8991 50.3665 73.2083 52.6318 83.5295C52.8938 83.4345 53.1768 83.3917 53.4628 83.3917C53.6131 83.3917 53.7613 83.399 53.9002 83.4241C56.3502 71.9222 59.9633 70.4524 61.0719 70.278C58.7732 69.1589 56.1937 68.5368 53.4628 68.5368ZM55.4828 87.7459C55.2218 88.0612 54.8908 88.3138 54.5129 88.4704C59.5509 97.4376 58.9026 101.391 58.1427 102.904C63.2579 101.487 67.4387 97.803 69.5203 93.003C68.3417 93.6325 64.5367 94.4551 55.4828 87.7459ZM66.3478 74.1969C66.3478 75.65 65.2371 79.3852 55.7187 84.658C55.94 84.9993 56.0674 85.4013 56.0945 85.8293C66.6944 84.9378 69.8544 87.3701 70.773 88.6551C70.8931 87.7981 70.9651 86.9327 70.9651 86.0401C70.9661 81.474 69.2165 77.3098 66.3478 74.1969ZM55.4828 87.7459C55.2218 88.0612 54.8908 88.3138 54.5129 88.4704C59.5509 97.4376 58.9026 101.391 58.1427 102.904C63.2579 101.487 67.4387 97.803 69.5203 93.003C68.3417 93.6325 64.5367 94.4551 55.4828 87.7459ZM53.4628 68.5368C50.6463 68.5368 47.9874 69.2028 45.6355 70.3834C47.1387 70.8991 50.3665 73.2083 52.6318 83.5295C52.8938 83.4345 53.1768 83.3917 53.4628 83.3917C53.6131 83.3917 53.7613 83.399 53.9002 83.4241C56.3502 71.9222 59.9633 70.4524 61.0719 70.278C58.7732 69.1589 56.1937 68.5368 53.4628 68.5368ZM54.4942 88.4359L54.5046 88.4787L54.5129 88.4704C54.5129 88.4631 54.5046 88.4453 54.4942 88.4359ZM52.6423 88.5518C52.2383 88.4286 51.8802 88.2094 51.5816 87.9129C43.7189 95.2339 39.7311 95.1806 38.2602 94.7255C40.8408 99.231 45.3641 102.476 50.6818 103.324C49.7809 102.116 48.4593 98.4429 52.6423 88.5518ZM50.996 85.0693C40.3512 80.2933 39.5902 76.4716 39.6518 75.3066C37.3259 78.2723 35.9511 81.9887 35.9511 86.0401C35.9511 87.5622 36.1431 89.0299 36.5106 90.4308C37.3071 89.0654 40.2374 86.371 50.8217 86.3272C50.8123 86.2301 50.8039 86.1341 50.8039 86.0401C50.8039 85.6988 50.8645 85.3657 50.996 85.0693ZM54.4942 88.4359L54.5046 88.4787L54.5129 88.4704C54.5129 88.4631 54.5046 88.4453 54.4942 88.4359ZM54.4942 88.4359L54.5046 88.4787L54.5129 88.4704C54.5129 88.4631 54.5046 88.4453 54.4942 88.4359ZM54.4942 88.4359L54.5046 88.4787L54.5129 88.4704C54.5129 88.4631 54.5046 88.4453 54.4942 88.4359ZM54.4942 88.4359L54.5046 88.4787L54.5129 88.4704C54.5129 88.4631 54.5046 88.4453 54.4942 88.4359ZM54.4942 88.4359L54.5046 88.4787L54.5129 88.4704C54.5129 88.4631 54.5046 88.4453 54.4942 88.4359ZM54.4942 88.4359L54.5046 88.4787L54.5129 88.4704C54.5129 88.4631 54.5046 88.4453 54.4942 88.4359ZM54.4942 88.4359L54.5046 88.4787L54.5129 88.4704C54.5129 88.4631 54.5046 88.4453 54.4942 88.4359ZM54.4942 88.4359L54.5046 88.4787L54.5129 88.4704C54.5129 88.4631 54.5046 88.4453 54.4942 88.4359ZM54.4942 88.4359L54.5046 88.4787L54.5129 88.4704C54.5129 88.4631 54.5046 88.4453 54.4942 88.4359ZM54.4942 88.4359L54.5046 88.4787L54.5129 88.4704C54.5129 88.4631 54.5046 88.4453 54.4942 88.4359Z" fill="#125585"/>
<path d="M50.806 86.0402C50.806 86.1352 50.8154 86.2312 50.8237 86.3273C40.2394 86.3711 37.3092 89.0655 36.5126 90.4309C36.1441 89.03 35.9531 87.5622 35.9531 86.0402C35.9531 81.9888 37.3269 78.2724 39.6538 75.3066C39.5922 76.4706 40.3532 80.2924 50.998 85.0693C50.8665 85.3658 50.806 85.6988 50.806 86.0402Z" fill="#125585"/>
<path d="M50.6794 103.325C45.3617 102.477 40.8384 99.2322 38.2578 94.7267C39.7287 95.1818 43.7165 95.234 51.5793 87.9141C51.8778 88.2105 52.2359 88.4298 52.6399 88.5529C48.4569 98.4441 49.7785 102.118 50.6794 103.325Z" fill="#125585"/>
<path d="M54.511 88.4719L54.5026 88.4803L54.4922 88.4375C54.5026 88.4459 54.511 88.4636 54.511 88.4719Z" fill="#125585"/>
<path d="M61.0692 70.2784C59.9595 70.4527 56.3476 71.9225 53.8975 83.4244C53.7587 83.3993 53.6104 83.392 53.4601 83.392C53.1741 83.392 52.8912 83.4348 52.6291 83.5298C50.3638 73.2086 47.1361 70.8995 45.6328 70.3838C47.9848 69.2031 50.6436 68.5371 53.4601 68.5371C56.191 68.5371 58.7705 69.1593 61.0692 70.2784Z" fill="#125585"/>
<path d="M69.524 93.0032C67.4425 97.8042 63.2616 101.487 58.1464 102.904C58.9063 101.391 59.5536 97.4378 54.5156 88.4706C54.8925 88.314 55.2255 88.0614 55.4865 87.7461C64.5393 94.4553 68.3444 93.6327 69.524 93.0032Z" fill="#125585"/>
<path d="M70.9652 86.0405C70.9652 86.932 70.8942 87.7985 70.7731 88.6555C69.8534 87.3705 66.6945 84.9381 56.0946 85.8296C56.0674 85.4016 55.9401 84.9997 55.7188 84.6584C65.2361 79.3845 66.3479 75.6494 66.3479 74.1973C69.2156 77.3102 70.9652 81.4744 70.9652 86.0405Z" fill="#125585"/>
<path d="M54.4962 88.4362L54.5066 88.4791L54.515 88.4707C54.515 88.4634 54.5066 88.4456 54.4962 88.4362ZM54.4962 88.4362L54.5066 88.4791L54.515 88.4707C54.515 88.4634 54.5066 88.4456 54.4962 88.4362ZM54.4962 88.4362L54.5066 88.4791L54.515 88.4707C54.515 88.4634 54.5066 88.4456 54.4962 88.4362ZM54.4962 88.4362L54.5066 88.4791L54.515 88.4707C54.515 88.4634 54.5066 88.4456 54.4962 88.4362ZM54.4962 88.4362L54.5066 88.4791L54.515 88.4707C54.515 88.4634 54.5066 88.4456 54.4962 88.4362ZM54.4962 88.4362L54.5066 88.4791L54.515 88.4707C54.515 88.4634 54.5066 88.4456 54.4962 88.4362ZM54.4962 88.4362L54.5066 88.4791L54.515 88.4707C54.515 88.4634 54.5066 88.4456 54.4962 88.4362ZM54.4962 88.4362L54.5066 88.4791L54.515 88.4707C54.515 88.4634 54.5066 88.4456 54.4962 88.4362ZM54.4962 88.4362L54.5066 88.4791L54.515 88.4707C54.515 88.4634 54.5066 88.4456 54.4962 88.4362ZM54.4962 88.4362L54.5066 88.4791L54.515 88.4707C54.515 88.4634 54.5066 88.4456 54.4962 88.4362ZM66.3499 74.1972C66.3499 75.6504 65.2391 79.3855 55.7207 84.6583C55.942 84.9997 56.0694 85.4016 56.0965 85.8296C66.6965 84.9381 69.8564 87.3704 70.7751 88.6555C70.8951 87.7984 70.9671 86.933 70.9671 86.0405C70.9682 81.4744 69.2186 77.3102 66.3499 74.1972ZM55.4848 87.7462C55.2238 88.0615 54.8929 88.3141 54.515 88.4707C59.5529 97.438 58.9047 101.391 58.1447 102.904C63.2599 101.487 67.4408 97.8033 69.5223 93.0034C68.3438 93.6329 64.5387 94.4555 55.4848 87.7462ZM53.4648 68.5371C50.6483 68.5371 47.9895 69.2031 45.6375 70.3838C47.1408 70.8995 50.3685 73.2086 52.6338 83.5298C52.8959 83.4348 53.1788 83.392 53.4648 83.392C53.6151 83.392 53.7634 83.3993 53.9022 83.4244C56.3523 71.9225 59.9653 70.4527 61.0739 70.2784C58.7752 69.1593 56.1957 68.5371 53.4648 68.5371ZM54.4962 88.4362L54.5066 88.4791L54.515 88.4707C54.515 88.4634 54.5066 88.4456 54.4962 88.4362ZM52.6443 88.5521C52.2403 88.4289 51.8822 88.2097 51.5837 87.9132C43.7209 95.2342 39.7331 95.181 38.2622 94.7258C40.8428 99.2314 45.3661 102.476 50.6838 103.325C49.7829 102.117 48.4613 98.4432 52.6443 88.5521ZM50.998 85.0696C40.3532 80.2937 39.5922 76.4719 39.6538 75.3069C37.3279 78.2727 35.9531 81.989 35.9531 86.0405C35.9531 87.5625 36.1452 89.0302 36.5126 90.4312C37.3092 89.0657 40.2394 86.3714 50.8237 86.3275C50.8143 86.2305 50.806 86.1344 50.806 86.0405C50.806 85.6991 50.8665 85.3661 50.998 85.0696ZM54.4962 88.4362L54.5066 88.4791L54.515 88.4707C54.515 88.4634 54.5066 88.4456 54.4962 88.4362ZM54.4962 88.4362L54.5066 88.4791L54.515 88.4707C54.515 88.4634 54.5066 88.4456 54.4962 88.4362ZM54.4962 88.4362L54.5066 88.4791L54.515 88.4707C54.515 88.4634 54.5066 88.4456 54.4962 88.4362ZM54.4962 88.4362L54.5066 88.4791L54.515 88.4707C54.515 88.4634 54.5066 88.4456 54.4962 88.4362ZM54.4962 88.4362L54.5066 88.4791L54.515 88.4707C54.515 88.4634 54.5066 88.4456 54.4962 88.4362ZM54.4962 88.4362L54.5066 88.4791L54.515 88.4707C54.515 88.4634 54.5066 88.4456 54.4962 88.4362ZM54.4962 88.4362L54.5066 88.4791L54.515 88.4707C54.515 88.4634 54.5066 88.4456 54.4962 88.4362ZM54.4962 88.4362L54.5066 88.4791L54.515 88.4707C54.515 88.4634 54.5066 88.4456 54.4962 88.4362ZM54.4962 88.4362L54.5066 88.4791L54.515 88.4707C54.515 88.4634 54.5066 88.4456 54.4962 88.4362ZM54.4962 88.4362L54.5066 88.4791L54.515 88.4707C54.515 88.4634 54.5066 88.4456 54.4962 88.4362Z" fill="#125585"/>
<path d="M56.114 86.0392C56.114 86.6687 55.8865 87.2543 55.5201 87.7105C55.5023 87.7282 55.494 87.7355 55.4846 87.7449C55.2236 88.0602 54.8916 88.3128 54.5137 88.4694C54.5137 88.4611 54.5053 88.4443 54.4949 88.435L54.5054 88.4778C54.1901 88.6103 53.832 88.6897 53.4635 88.6897C53.1838 88.6897 52.9134 88.6448 52.6618 88.5571C52.6503 88.5665 52.6503 88.5571 52.643 88.5498C52.239 88.4266 51.881 88.2074 51.5824 87.9109C51.5751 87.9026 51.5657 87.8848 51.549 87.8754C51.1648 87.4808 50.9007 86.9578 50.8308 86.3878C50.8224 86.3701 50.8224 86.344 50.8224 86.3262C50.813 86.2292 50.8047 86.1331 50.8047 86.0392C50.8047 85.6978 50.8663 85.3638 50.9978 85.0673C50.9978 85.0402 51.0155 85.0057 51.0239 84.9796C51.3204 84.3063 51.881 83.7801 52.5804 83.5453C52.5992 83.5265 52.6148 83.5265 52.6326 83.5265C52.8946 83.4315 53.1775 83.3887 53.4635 83.3887C53.6139 83.3887 53.7621 83.396 53.9009 83.421C53.927 83.4315 53.9542 83.4315 53.9803 83.4388C54.7068 83.5787 55.3269 84.0171 55.7027 84.6194C55.7111 84.6288 55.7205 84.6382 55.7205 84.6549C55.9418 84.9963 56.0692 85.3982 56.0963 85.8262C56.1047 85.8356 56.1047 85.8533 56.1047 85.8617V85.87C56.114 85.9348 56.114 85.9786 56.114 86.0392Z" fill="#125585"/>
<path d="M54.511 88.4719L54.5026 88.4803L54.4922 88.4375C54.5026 88.4459 54.511 88.4636 54.511 88.4719Z" fill="#125585"/>
<path d="M54.511 88.4719L54.5026 88.4803L54.4922 88.4375C54.5026 88.4459 54.511 88.4636 54.511 88.4719Z" fill="#125585"/>
<path d="M249.967 88.3265L249.977 88.3693L249.986 88.361C249.986 88.3526 249.977 88.3359 249.967 88.3265ZM249.967 88.3265L249.977 88.3693L249.986 88.361C249.986 88.3526 249.977 88.3359 249.967 88.3265ZM249.967 88.3265L249.977 88.3693L249.986 88.361C249.986 88.3526 249.977 88.3359 249.967 88.3265ZM249.967 88.3265L249.977 88.3693L249.986 88.361C249.986 88.3526 249.977 88.3359 249.967 88.3265ZM249.967 88.3265L249.977 88.3693L249.986 88.361C249.986 88.3526 249.977 88.3359 249.967 88.3265ZM249.967 88.3265L249.977 88.3693L249.986 88.361C249.986 88.3526 249.977 88.3359 249.967 88.3265ZM249.967 88.3265L249.977 88.3693L249.986 88.361C249.986 88.3526 249.977 88.3359 249.967 88.3265ZM249.967 88.3265L249.977 88.3693L249.986 88.361C249.986 88.3526 249.977 88.3359 249.967 88.3265ZM249.967 88.3265L249.977 88.3693L249.986 88.361C249.986 88.3526 249.977 88.3359 249.967 88.3265ZM249.967 88.3265L249.977 88.3693L249.986 88.361C249.986 88.3526 249.977 88.3359 249.967 88.3265ZM261.82 74.0865C261.82 75.5396 260.709 79.2747 251.191 84.5475C251.413 84.8889 251.54 85.2908 251.567 85.7188C262.167 84.8273 265.327 87.2597 266.246 88.5447C266.366 87.6877 266.438 86.8223 266.438 85.9297C266.439 81.3647 264.689 77.2005 261.82 74.0865ZM246.469 84.9589C235.824 80.1829 235.063 76.3611 235.124 75.1961C232.798 78.1619 231.424 81.8783 231.424 85.9297C231.424 87.4517 231.616 88.9195 231.983 90.3204C232.78 88.955 235.71 86.2606 246.294 86.2168C246.285 86.1197 246.276 86.0237 246.276 85.9297C246.277 85.5894 246.337 85.2553 246.469 84.9589ZM248.115 88.4414C247.711 88.3182 247.354 88.099 247.054 87.8025C239.191 95.1235 235.204 95.0702 233.733 94.6151C236.313 99.1206 240.837 102.365 246.153 103.214C245.254 102.006 243.932 98.3335 248.115 88.4414ZM249.967 88.3265L249.977 88.3693L249.986 88.361C249.986 88.3526 249.977 88.3359 249.967 88.3265ZM248.935 68.4263C246.119 68.4263 243.46 69.0924 241.108 70.273C242.611 70.7887 245.839 73.0979 248.104 83.4191C248.367 83.3241 248.648 83.2813 248.935 83.2813C249.086 83.2813 249.234 83.2886 249.373 83.3136C251.823 71.8118 255.436 70.3419 256.545 70.1676C254.246 69.0485 251.666 68.4263 248.935 68.4263ZM250.955 87.6365C250.694 87.9518 250.362 88.2044 249.985 88.361C255.022 97.3282 254.375 101.282 253.616 102.794C258.732 101.378 262.912 97.6936 264.994 92.8937C263.814 93.5221 260.009 94.3447 250.955 87.6365ZM261.82 74.0865C261.82 75.5396 260.709 79.2747 251.191 84.5475C251.413 84.8889 251.54 85.2908 251.567 85.7188C262.167 84.8273 265.327 87.2597 266.246 88.5447C266.366 87.6877 266.438 86.8223 266.438 85.9297C266.439 81.3647 264.689 77.2005 261.82 74.0865ZM250.955 87.6365C250.694 87.9518 250.362 88.2044 249.985 88.361C255.022 97.3282 254.375 101.282 253.616 102.794C258.732 101.378 262.912 97.6936 264.994 92.8937C263.814 93.5221 260.009 94.3447 250.955 87.6365ZM248.935 68.4263C246.119 68.4263 243.46 69.0924 241.108 70.273C242.611 70.7887 245.839 73.0979 248.104 83.4191C248.367 83.3241 248.648 83.2813 248.935 83.2813C249.086 83.2813 249.234 83.2886 249.373 83.3136C251.823 71.8118 255.436 70.3419 256.545 70.1676C254.246 69.0485 251.666 68.4263 248.935 68.4263ZM249.967 88.3265L249.977 88.3693L249.986 88.361C249.986 88.3526 249.977 88.3359 249.967 88.3265ZM248.115 88.4414C247.711 88.3182 247.354 88.099 247.054 87.8025C239.191 95.1235 235.204 95.0702 233.733 94.6151C236.313 99.1206 240.837 102.365 246.153 103.214C245.254 102.006 243.932 98.3335 248.115 88.4414ZM246.469 84.9589C235.824 80.1829 235.063 76.3611 235.124 75.1961C232.798 78.1619 231.424 81.8783 231.424 85.9297C231.424 87.4517 231.616 88.9195 231.983 90.3204C232.78 88.955 235.71 86.2606 246.294 86.2168C246.285 86.1197 246.276 86.0237 246.276 85.9297C246.277 85.5894 246.337 85.2553 246.469 84.9589ZM261.82 74.0865C261.82 75.5396 260.709 79.2747 251.191 84.5475C251.413 84.8889 251.54 85.2908 251.567 85.7188C262.167 84.8273 265.327 87.2597 266.246 88.5447C266.366 87.6877 266.438 86.8223 266.438 85.9297C266.439 81.3647 264.689 77.2005 261.82 74.0865ZM246.469 84.9589C235.824 80.1829 235.063 76.3611 235.124 75.1961C232.798 78.1619 231.424 81.8783 231.424 85.9297C231.424 87.4517 231.616 88.9195 231.983 90.3204C232.78 88.955 235.71 86.2606 246.294 86.2168C246.285 86.1197 246.276 86.0237 246.276 85.9297C246.277 85.5894 246.337 85.2553 246.469 84.9589ZM248.115 88.4414C247.711 88.3182 247.354 88.099 247.054 87.8025C239.191 95.1235 235.204 95.0702 233.733 94.6151C236.313 99.1206 240.837 102.365 246.153 103.214C245.254 102.006 243.932 98.3335 248.115 88.4414ZM249.967 88.3265L249.977 88.3693L249.986 88.361C249.986 88.3526 249.977 88.3359 249.967 88.3265ZM248.935 68.4263C246.119 68.4263 243.46 69.0924 241.108 70.273C242.611 70.7887 245.839 73.0979 248.104 83.4191C248.367 83.3241 248.648 83.2813 248.935 83.2813C249.086 83.2813 249.234 83.2886 249.373 83.3136C251.823 71.8118 255.436 70.3419 256.545 70.1676C254.246 69.0485 251.666 68.4263 248.935 68.4263ZM250.955 87.6365C250.694 87.9518 250.362 88.2044 249.985 88.361C255.022 97.3282 254.375 101.282 253.616 102.794C258.732 101.378 262.912 97.6936 264.994 92.8937C263.814 93.5221 260.009 94.3447 250.955 87.6365ZM261.82 74.0865C261.82 75.5396 260.709 79.2747 251.191 84.5475C251.413 84.8889 251.54 85.2908 251.567 85.7188C262.167 84.8273 265.327 87.2597 266.246 88.5447C266.366 87.6877 266.438 86.8223 266.438 85.9297C266.439 81.3647 264.689 77.2005 261.82 74.0865ZM250.955 87.6365C250.694 87.9518 250.362 88.2044 249.985 88.361C255.022 97.3282 254.375 101.282 253.616 102.794C258.732 101.378 262.912 97.6936 264.994 92.8937C263.814 93.5221 260.009 94.3447 250.955 87.6365ZM248.935 68.4263C246.119 68.4263 243.46 69.0924 241.108 70.273C242.611 70.7887 245.839 73.0979 248.104 83.4191C248.367 83.3241 248.648 83.2813 248.935 83.2813C249.086 83.2813 249.234 83.2886 249.373 83.3136C251.823 71.8118 255.436 70.3419 256.545 70.1676C254.246 69.0485 251.666 68.4263 248.935 68.4263ZM249.967 88.3265L249.977 88.3693L249.986 88.361C249.986 88.3526 249.977 88.3359 249.967 88.3265ZM248.115 88.4414C247.711 88.3182 247.354 88.099 247.054 87.8025C239.191 95.1235 235.204 95.0702 233.733 94.6151C236.313 99.1206 240.837 102.365 246.153 103.214C245.254 102.006 243.932 98.3335 248.115 88.4414ZM246.469 84.9589C235.824 80.1829 235.063 76.3611 235.124 75.1961C232.798 78.1619 231.424 81.8783 231.424 85.9297C231.424 87.4517 231.616 88.9195 231.983 90.3204C232.78 88.955 235.71 86.2606 246.294 86.2168C246.285 86.1197 246.276 86.0237 246.276 85.9297C246.277 85.5894 246.337 85.2553 246.469 84.9589ZM261.82 74.0865C261.82 75.5396 260.709 79.2747 251.191 84.5475C251.413 84.8889 251.54 85.2908 251.567 85.7188C262.167 84.8273 265.327 87.2597 266.246 88.5447C266.366 87.6877 266.438 86.8223 266.438 85.9297C266.439 81.3647 264.689 77.2005 261.82 74.0865ZM246.469 84.9589C235.824 80.1829 235.063 76.3611 235.124 75.1961C232.798 78.1619 231.424 81.8783 231.424 85.9297C231.424 87.4517 231.616 88.9195 231.983 90.3204C232.78 88.955 235.71 86.2606 246.294 86.2168C246.285 86.1197 246.276 86.0237 246.276 85.9297C246.277 85.5894 246.337 85.2553 246.469 84.9589ZM248.115 88.4414C247.711 88.3182 247.354 88.099 247.054 87.8025C239.191 95.1235 235.204 95.0702 233.733 94.6151C236.313 99.1206 240.837 102.365 246.153 103.214C245.254 102.006 243.932 98.3335 248.115 88.4414ZM249.967 88.3265L249.977 88.3693L249.986 88.361C249.986 88.3526 249.977 88.3359 249.967 88.3265ZM248.935 68.4263C246.119 68.4263 243.46 69.0924 241.108 70.273C242.611 70.7887 245.839 73.0979 248.104 83.4191C248.367 83.3241 248.648 83.2813 248.935 83.2813C249.086 83.2813 249.234 83.2886 249.373 83.3136C251.823 71.8118 255.436 70.3419 256.545 70.1676C254.246 69.0485 251.666 68.4263 248.935 68.4263ZM250.955 87.6365C250.694 87.9518 250.362 88.2044 249.985 88.361C255.022 97.3282 254.375 101.282 253.616 102.794C258.732 101.378 262.912 97.6936 264.994 92.8937C263.814 93.5221 260.009 94.3447 250.955 87.6365ZM261.82 74.0865C261.82 75.5396 260.709 79.2747 251.191 84.5475C251.413 84.8889 251.54 85.2908 251.567 85.7188C262.167 84.8273 265.327 87.2597 266.246 88.5447C266.366 87.6877 266.438 86.8223 266.438 85.9297C266.439 81.3647 264.689 77.2005 261.82 74.0865ZM250.955 87.6365C250.694 87.9518 250.362 88.2044 249.985 88.361C255.022 97.3282 254.375 101.282 253.616 102.794C258.732 101.378 262.912 97.6936 264.994 92.8937C263.814 93.5221 260.009 94.3447 250.955 87.6365ZM248.935 68.4263C246.119 68.4263 243.46 69.0924 241.108 70.273C242.611 70.7887 245.839 73.0979 248.104 83.4191C248.367 83.3241 248.648 83.2813 248.935 83.2813C249.086 83.2813 249.234 83.2886 249.373 83.3136C251.823 71.8118 255.436 70.3419 256.545 70.1676C254.246 69.0485 251.666 68.4263 248.935 68.4263ZM249.967 88.3265L249.977 88.3693L249.986 88.361C249.986 88.3526 249.977 88.3359 249.967 88.3265ZM248.115 88.4414C247.711 88.3182 247.354 88.099 247.054 87.8025C239.191 95.1235 235.204 95.0702 233.733 94.6151C236.313 99.1206 240.837 102.365 246.153 103.214C245.254 102.006 243.932 98.3335 248.115 88.4414ZM246.469 84.9589C235.824 80.1829 235.063 76.3611 235.124 75.1961C232.798 78.1619 231.424 81.8783 231.424 85.9297C231.424 87.4517 231.616 88.9195 231.983 90.3204C232.78 88.955 235.71 86.2606 246.294 86.2168C246.285 86.1197 246.276 86.0237 246.276 85.9297C246.277 85.5894 246.337 85.2553 246.469 84.9589ZM261.82 74.0865C261.82 75.5396 260.709 79.2747 251.191 84.5475C251.413 84.8889 251.54 85.2908 251.567 85.7188C262.167 84.8273 265.327 87.2597 266.246 88.5447C266.366 87.6877 266.438 86.8223 266.438 85.9297C266.439 81.3647 264.689 77.2005 261.82 74.0865ZM246.469 84.9589C235.824 80.1829 235.063 76.3611 235.124 75.1961C232.798 78.1619 231.424 81.8783 231.424 85.9297C231.424 87.4517 231.616 88.9195 231.983 90.3204C232.78 88.955 235.71 86.2606 246.294 86.2168C246.285 86.1197 246.276 86.0237 246.276 85.9297C246.277 85.5894 246.337 85.2553 246.469 84.9589ZM248.115 88.4414C247.711 88.3182 247.354 88.099 247.054 87.8025C239.191 95.1235 235.204 95.0702 233.733 94.6151C236.313 99.1206 240.837 102.365 246.153 103.214C245.254 102.006 243.932 98.3335 248.115 88.4414ZM249.967 88.3265L249.977 88.3693L249.986 88.361C249.986 88.3526 249.977 88.3359 249.967 88.3265ZM248.935 68.4263C246.119 68.4263 243.46 69.0924 241.108 70.273C242.611 70.7887 245.839 73.0979 248.104 83.4191C248.367 83.3241 248.648 83.2813 248.935 83.2813C249.086 83.2813 249.234 83.2886 249.373 83.3136C251.823 71.8118 255.436 70.3419 256.545 70.1676C254.246 69.0485 251.666 68.4263 248.935 68.4263ZM250.955 87.6365C250.694 87.9518 250.362 88.2044 249.985 88.361C255.022 97.3282 254.375 101.282 253.616 102.794C258.732 101.378 262.912 97.6936 264.994 92.8937C263.814 93.5221 260.009 94.3447 250.955 87.6365ZM261.82 74.0865C261.82 75.5396 260.709 79.2747 251.191 84.5475C251.413 84.8889 251.54 85.2908 251.567 85.7188C262.167 84.8273 265.327 87.2597 266.246 88.5447C266.366 87.6877 266.438 86.8223 266.438 85.9297C266.439 81.3647 264.689 77.2005 261.82 74.0865ZM250.955 87.6365C250.694 87.9518 250.362 88.2044 249.985 88.361C255.022 97.3282 254.375 101.282 253.616 102.794C258.732 101.378 262.912 97.6936 264.994 92.8937C263.814 93.5221 260.009 94.3447 250.955 87.6365ZM248.935 68.4263C246.119 68.4263 243.46 69.0924 241.108 70.273C242.611 70.7887 245.839 73.0979 248.104 83.4191C248.367 83.3241 248.648 83.2813 248.935 83.2813C249.086 83.2813 249.234 83.2886 249.373 83.3136C251.823 71.8118 255.436 70.3419 256.545 70.1676C254.246 69.0485 251.666 68.4263 248.935 68.4263ZM249.967 88.3265L249.977 88.3693L249.986 88.361C249.986 88.3526 249.977 88.3359 249.967 88.3265ZM248.115 88.4414C247.711 88.3182 247.354 88.099 247.054 87.8025C239.191 95.1235 235.204 95.0702 233.733 94.6151C236.313 99.1206 240.837 102.365 246.153 103.214C245.254 102.006 243.932 98.3335 248.115 88.4414ZM246.469 84.9589C235.824 80.1829 235.063 76.3611 235.124 75.1961C232.798 78.1619 231.424 81.8783 231.424 85.9297C231.424 87.4517 231.616 88.9195 231.983 90.3204C232.78 88.955 235.71 86.2606 246.294 86.2168C246.285 86.1197 246.276 86.0237 246.276 85.9297C246.277 85.5894 246.337 85.2553 246.469 84.9589ZM261.82 74.0865C261.82 75.5396 260.709 79.2747 251.191 84.5475C251.413 84.8889 251.54 85.2908 251.567 85.7188C262.167 84.8273 265.327 87.2597 266.246 88.5447C266.366 87.6877 266.438 86.8223 266.438 85.9297C266.439 81.3647 264.689 77.2005 261.82 74.0865ZM246.469 84.9589C235.824 80.1829 235.063 76.3611 235.124 75.1961C232.798 78.1619 231.424 81.8783 231.424 85.9297C231.424 87.4517 231.616 88.9195 231.983 90.3204C232.78 88.955 235.71 86.2606 246.294 86.2168C246.285 86.1197 246.276 86.0237 246.276 85.9297C246.277 85.5894 246.337 85.2553 246.469 84.9589ZM248.115 88.4414C247.711 88.3182 247.354 88.099 247.054 87.8025C239.191 95.1235 235.204 95.0702 233.733 94.6151C236.313 99.1206 240.837 102.365 246.153 103.214C245.254 102.006 243.932 98.3335 248.115 88.4414ZM249.967 88.3265L249.977 88.3693L249.986 88.361C249.986 88.3526 249.977 88.3359 249.967 88.3265ZM248.935 68.4263C246.119 68.4263 243.46 69.0924 241.108 70.273C242.611 70.7887 245.839 73.0979 248.104 83.4191C248.367 83.3241 248.648 83.2813 248.935 83.2813C249.086 83.2813 249.234 83.2886 249.373 83.3136C251.823 71.8118 255.436 70.3419 256.545 70.1676C254.246 69.0485 251.666 68.4263 248.935 68.4263ZM250.955 87.6365C250.694 87.9518 250.362 88.2044 249.985 88.361C255.022 97.3282 254.375 101.282 253.616 102.794C258.732 101.378 262.912 97.6936 264.994 92.8937C263.814 93.5221 260.009 94.3447 250.955 87.6365ZM261.82 74.0865C261.82 75.5396 260.709 79.2747 251.191 84.5475C251.413 84.8889 251.54 85.2908 251.567 85.7188C262.167 84.8273 265.327 87.2597 266.246 88.5447C266.366 87.6877 266.438 86.8223 266.438 85.9297C266.439 81.3647 264.689 77.2005 261.82 74.0865ZM250.955 87.6365C250.694 87.9518 250.362 88.2044 249.985 88.361C255.022 97.3282 254.375 101.282 253.616 102.794C258.732 101.378 262.912 97.6936 264.994 92.8937C263.814 93.5221 260.009 94.3447 250.955 87.6365ZM248.935 68.4263C246.119 68.4263 243.46 69.0924 241.108 70.273C242.611 70.7887 245.839 73.0979 248.104 83.4191C248.367 83.3241 248.648 83.2813 248.935 83.2813C249.086 83.2813 249.234 83.2886 249.373 83.3136C251.823 71.8118 255.436 70.3419 256.545 70.1676C254.246 69.0485 251.666 68.4263 248.935 68.4263ZM249.967 88.3265L249.977 88.3693L249.986 88.361C249.986 88.3526 249.977 88.3359 249.967 88.3265ZM248.115 88.4414C247.711 88.3182 247.354 88.099 247.054 87.8025C239.191 95.1235 235.204 95.0702 233.733 94.6151C236.313 99.1206 240.837 102.365 246.153 103.214C245.254 102.006 243.932 98.3335 248.115 88.4414ZM246.469 84.9589C235.824 80.1829 235.063 76.3611 235.124 75.1961C232.798 78.1619 231.424 81.8783 231.424 85.9297C231.424 87.4517 231.616 88.9195 231.983 90.3204C232.78 88.955 235.71 86.2606 246.294 86.2168C246.285 86.1197 246.276 86.0237 246.276 85.9297C246.277 85.5894 246.337 85.2553 246.469 84.9589ZM261.82 74.0865C261.82 75.5396 260.709 79.2747 251.191 84.5475C251.413 84.8889 251.54 85.2908 251.567 85.7188C262.167 84.8273 265.327 87.2597 266.246 88.5447C266.366 87.6877 266.438 86.8223 266.438 85.9297C266.439 81.3647 264.689 77.2005 261.82 74.0865ZM246.469 84.9589C235.824 80.1829 235.063 76.3611 235.124 75.1961C232.798 78.1619 231.424 81.8783 231.424 85.9297C231.424 87.4517 231.616 88.9195 231.983 90.3204C232.78 88.955 235.71 86.2606 246.294 86.2168C246.285 86.1197 246.276 86.0237 246.276 85.9297C246.277 85.5894 246.337 85.2553 246.469 84.9589ZM248.115 88.4414C247.711 88.3182 247.354 88.099 247.054 87.8025C239.191 95.1235 235.204 95.0702 233.733 94.6151C236.313 99.1206 240.837 102.365 246.153 103.214C245.254 102.006 243.932 98.3335 248.115 88.4414ZM249.967 88.3265L249.977 88.3693L249.986 88.361C249.986 88.3526 249.977 88.3359 249.967 88.3265ZM248.935 68.4263C246.119 68.4263 243.46 69.0924 241.108 70.273C242.611 70.7887 245.839 73.0979 248.104 83.4191C248.367 83.3241 248.648 83.2813 248.935 83.2813C249.086 83.2813 249.234 83.2886 249.373 83.3136C251.823 71.8118 255.436 70.3419 256.545 70.1676C254.246 69.0485 251.666 68.4263 248.935 68.4263ZM250.955 87.6365C250.694 87.9518 250.362 88.2044 249.985 88.361C255.022 97.3282 254.375 101.282 253.616 102.794C258.732 101.378 262.912 97.6936 264.994 92.8937C263.814 93.5221 260.009 94.3447 250.955 87.6365ZM261.82 74.0865C261.82 75.5396 260.709 79.2747 251.191 84.5475C251.413 84.8889 251.54 85.2908 251.567 85.7188C262.167 84.8273 265.327 87.2597 266.246 88.5447C266.366 87.6877 266.438 86.8223 266.438 85.9297C266.439 81.3647 264.689 77.2005 261.82 74.0865ZM250.955 87.6365C250.694 87.9518 250.362 88.2044 249.985 88.361C255.022 97.3282 254.375 101.282 253.616 102.794C258.732 101.378 262.912 97.6936 264.994 92.8937C263.814 93.5221 260.009 94.3447 250.955 87.6365ZM256.545 70.1676C254.246 69.0485 251.666 68.4263 248.935 68.4263C246.119 68.4263 243.46 69.0924 241.108 70.273C242.611 70.7887 245.839 73.0979 248.104 83.4191C248.367 83.3241 248.648 83.2813 248.935 83.2813C249.086 83.2813 249.234 83.2886 249.373 83.3136C251.822 71.8128 255.435 70.3419 256.545 70.1676ZM249.977 88.3693L249.986 88.361C249.986 88.3526 249.977 88.3359 249.967 88.3265L249.977 88.3693ZM247.054 87.8025C239.191 95.1235 235.204 95.0702 233.733 94.6151C236.313 99.1206 240.837 102.365 246.153 103.214C245.254 102.006 243.931 98.3325 248.114 88.4414C247.711 88.3182 247.353 88.099 247.054 87.8025ZM246.277 85.9308C246.277 85.5894 246.337 85.2553 246.469 84.9589C235.824 80.1829 235.063 76.3611 235.124 75.1961C232.798 78.1619 231.424 81.8783 231.424 85.9297C231.424 87.4517 231.616 88.9195 231.983 90.3204C232.78 88.955 235.71 86.2606 246.294 86.2168C246.285 86.1218 246.277 86.0257 246.277 85.9308ZM261.82 74.0865C261.82 75.5396 260.709 79.2747 251.191 84.5475C251.413 84.8889 251.54 85.2908 251.567 85.7188C262.167 84.8273 265.327 87.2597 266.246 88.5447C266.366 87.6877 266.438 86.8223 266.438 85.9297C266.439 81.3647 264.689 77.2005 261.82 74.0865ZM248.935 62.9688C236.254 62.9688 225.977 73.2472 225.977 85.9308C225.977 98.6123 236.254 108.891 248.935 108.891C261.611 108.891 271.897 98.6123 271.897 85.9308C271.897 73.2461 261.61 62.9688 248.935 62.9688ZM248.935 104.492C238.683 104.492 230.366 96.181 230.366 85.9308C230.366 75.6795 238.683 67.3605 248.935 67.3605C259.187 67.3605 267.496 75.6795 267.496 85.9308C267.496 96.181 259.187 104.492 248.935 104.492ZM250.955 87.6365C250.694 87.9518 250.362 88.2044 249.985 88.361C255.022 97.3282 254.375 101.282 253.616 102.794C258.732 101.378 262.912 97.6936 264.994 92.8937C263.814 93.5221 260.009 94.3447 250.955 87.6365ZM256.545 70.1676C254.246 69.0485 251.666 68.4263 248.935 68.4263C246.119 68.4263 243.46 69.0924 241.108 70.273C242.611 70.7887 245.839 73.0979 248.104 83.4191C248.367 83.3241 248.648 83.2813 248.935 83.2813C249.086 83.2813 249.234 83.2886 249.373 83.3136C251.822 71.8128 255.435 70.3419 256.545 70.1676ZM249.977 88.3693L249.986 88.361C249.986 88.3526 249.977 88.3359 249.967 88.3265L249.977 88.3693ZM247.054 87.8025C239.191 95.1235 235.204 95.0702 233.733 94.6151C236.313 99.1206 240.837 102.365 246.153 103.214C245.254 102.006 243.931 98.3325 248.114 88.4414C247.711 88.3182 247.353 88.099 247.054 87.8025ZM246.277 85.9308C246.277 85.5894 246.337 85.2553 246.469 84.9589C235.824 80.1829 235.063 76.3611 235.124 75.1961C232.798 78.1619 231.424 81.8783 231.424 85.9297C231.424 87.4517 231.616 88.9195 231.983 90.3204C232.78 88.955 235.71 86.2606 246.294 86.2168C246.285 86.1218 246.277 86.0257 246.277 85.9308ZM261.82 74.0865C261.82 75.5396 260.709 79.2747 251.191 84.5475C251.413 84.8889 251.54 85.2908 251.567 85.7188C262.167 84.8273 265.327 87.2597 266.246 88.5447C266.366 87.6877 266.438 86.8223 266.438 85.9297C266.439 81.3647 264.689 77.2005 261.82 74.0865ZM246.469 84.9589C235.824 80.1829 235.063 76.3611 235.124 75.1961C232.798 78.1619 231.424 81.8783 231.424 85.9297C231.424 87.4517 231.616 88.9195 231.983 90.3204C232.78 88.955 235.71 86.2606 246.294 86.2168C246.285 86.1197 246.276 86.0237 246.276 85.9297C246.277 85.5894 246.337 85.2553 246.469 84.9589ZM248.115 88.4414C247.711 88.3182 247.354 88.099 247.054 87.8025C239.191 95.1235 235.204 95.0702 233.733 94.6151C236.313 99.1206 240.837 102.365 246.153 103.214C245.254 102.006 243.932 98.3335 248.115 88.4414ZM249.967 88.3265L249.977 88.3693L249.986 88.361C249.986 88.3526 249.977 88.3359 249.967 88.3265ZM248.935 68.4263C246.119 68.4263 243.46 69.0924 241.108 70.273C242.611 70.7887 245.839 73.0979 248.104 83.4191C248.367 83.3241 248.648 83.2813 248.935 83.2813C249.086 83.2813 249.234 83.2886 249.373 83.3136C251.823 71.8118 255.436 70.3419 256.545 70.1676C254.246 69.0485 251.666 68.4263 248.935 68.4263ZM250.955 87.6365C250.694 87.9518 250.362 88.2044 249.985 88.361C255.022 97.3282 254.375 101.282 253.616 102.794C258.732 101.378 262.912 97.6936 264.994 92.8937C263.814 93.5221 260.009 94.3447 250.955 87.6365ZM261.82 74.0865C261.82 75.5396 260.709 79.2747 251.191 84.5475C251.413 84.8889 251.54 85.2908 251.567 85.7188C262.167 84.8273 265.327 87.2597 266.246 88.5447C266.366 87.6877 266.438 86.8223 266.438 85.9297C266.439 81.3647 264.689 77.2005 261.82 74.0865ZM250.955 87.6365C250.694 87.9518 250.362 88.2044 249.985 88.361C255.022 97.3282 254.375 101.282 253.616 102.794C258.732 101.378 262.912 97.6936 264.994 92.8937C263.814 93.5221 260.009 94.3447 250.955 87.6365ZM248.935 68.4263C246.119 68.4263 243.46 69.0924 241.108 70.273C242.611 70.7887 245.839 73.0979 248.104 83.4191C248.367 83.3241 248.648 83.2813 248.935 83.2813C249.086 83.2813 249.234 83.2886 249.373 83.3136C251.823 71.8118 255.436 70.3419 256.545 70.1676C254.246 69.0485 251.666 68.4263 248.935 68.4263ZM249.967 88.3265L249.977 88.3693L249.986 88.361C249.986 88.3526 249.977 88.3359 249.967 88.3265ZM248.115 88.4414C247.711 88.3182 247.354 88.099 247.054 87.8025C239.191 95.1235 235.204 95.0702 233.733 94.6151C236.313 99.1206 240.837 102.365 246.153 103.214C245.254 102.006 243.932 98.3335 248.115 88.4414ZM246.469 84.9589C235.824 80.1829 235.063 76.3611 235.124 75.1961C232.798 78.1619 231.424 81.8783 231.424 85.9297C231.424 87.4517 231.616 88.9195 231.983 90.3204C232.78 88.955 235.71 86.2606 246.294 86.2168C246.285 86.1197 246.276 86.0237 246.276 85.9297C246.277 85.5894 246.337 85.2553 246.469 84.9589ZM261.82 74.0865C261.82 75.5396 260.709 79.2747 251.191 84.5475C251.413 84.8889 251.54 85.2908 251.567 85.7188C262.167 84.8273 265.327 87.2597 266.246 88.5447C266.366 87.6877 266.438 86.8223 266.438 85.9297C266.439 81.3647 264.689 77.2005 261.82 74.0865ZM246.469 84.9589C235.824 80.1829 235.063 76.3611 235.124 75.1961C232.798 78.1619 231.424 81.8783 231.424 85.9297C231.424 87.4517 231.616 88.9195 231.983 90.3204C232.78 88.955 235.71 86.2606 246.294 86.2168C246.285 86.1197 246.276 86.0237 246.276 85.9297C246.277 85.5894 246.337 85.2553 246.469 84.9589ZM248.115 88.4414C247.711 88.3182 247.354 88.099 247.054 87.8025C239.191 95.1235 235.204 95.0702 233.733 94.6151C236.313 99.1206 240.837 102.365 246.153 103.214C245.254 102.006 243.932 98.3335 248.115 88.4414ZM249.967 88.3265L249.977 88.3693L249.986 88.361C249.986 88.3526 249.977 88.3359 249.967 88.3265ZM248.935 68.4263C246.119 68.4263 243.46 69.0924 241.108 70.273C242.611 70.7887 245.839 73.0979 248.104 83.4191C248.367 83.3241 248.648 83.2813 248.935 83.2813C249.086 83.2813 249.234 83.2886 249.373 83.3136C251.823 71.8118 255.436 70.3419 256.545 70.1676C254.246 69.0485 251.666 68.4263 248.935 68.4263ZM250.955 87.6365C250.694 87.9518 250.362 88.2044 249.985 88.361C255.022 97.3282 254.375 101.282 253.616 102.794C258.732 101.378 262.912 97.6936 264.994 92.8937C263.814 93.5221 260.009 94.3447 250.955 87.6365ZM261.82 74.0865C261.82 75.5396 260.709 79.2747 251.191 84.5475C251.413 84.8889 251.54 85.2908 251.567 85.7188C262.167 84.8273 265.327 87.2597 266.246 88.5447C266.366 87.6877 266.438 86.8223 266.438 85.9297C266.439 81.3647 264.689 77.2005 261.82 74.0865ZM250.955 87.6365C250.694 87.9518 250.362 88.2044 249.985 88.361C255.022 97.3282 254.375 101.282 253.616 102.794C258.732 101.378 262.912 97.6936 264.994 92.8937C263.814 93.5221 260.009 94.3447 250.955 87.6365ZM248.935 68.4263C246.119 68.4263 243.46 69.0924 241.108 70.273C242.611 70.7887 245.839 73.0979 248.104 83.4191C248.367 83.3241 248.648 83.2813 248.935 83.2813C249.086 83.2813 249.234 83.2886 249.373 83.3136C251.823 71.8118 255.436 70.3419 256.545 70.1676C254.246 69.0485 251.666 68.4263 248.935 68.4263ZM249.967 88.3265L249.977 88.3693L249.986 88.361C249.986 88.3526 249.977 88.3359 249.967 88.3265ZM248.115 88.4414C247.711 88.3182 247.354 88.099 247.054 87.8025C239.191 95.1235 235.204 95.0702 233.733 94.6151C236.313 99.1206 240.837 102.365 246.153 103.214C245.254 102.006 243.932 98.3335 248.115 88.4414ZM246.469 84.9589C235.824 80.1829 235.063 76.3611 235.124 75.1961C232.798 78.1619 231.424 81.8783 231.424 85.9297C231.424 87.4517 231.616 88.9195 231.983 90.3204C232.78 88.955 235.71 86.2606 246.294 86.2168C246.285 86.1197 246.276 86.0237 246.276 85.9297C246.277 85.5894 246.337 85.2553 246.469 84.9589ZM261.82 74.0865C261.82 75.5396 260.709 79.2747 251.191 84.5475C251.413 84.8889 251.54 85.2908 251.567 85.7188C262.167 84.8273 265.327 87.2597 266.246 88.5447C266.366 87.6877 266.438 86.8223 266.438 85.9297C266.439 81.3647 264.689 77.2005 261.82 74.0865ZM246.469 84.9589C235.824 80.1829 235.063 76.3611 235.124 75.1961C232.798 78.1619 231.424 81.8783 231.424 85.9297C231.424 87.4517 231.616 88.9195 231.983 90.3204C232.78 88.955 235.71 86.2606 246.294 86.2168C246.285 86.1197 246.276 86.0237 246.276 85.9297C246.277 85.5894 246.337 85.2553 246.469 84.9589ZM248.115 88.4414C247.711 88.3182 247.354 88.099 247.054 87.8025C239.191 95.1235 235.204 95.0702 233.733 94.6151C236.313 99.1206 240.837 102.365 246.153 103.214C245.254 102.006 243.932 98.3335 248.115 88.4414ZM249.967 88.3265L249.977 88.3693L249.986 88.361C249.986 88.3526 249.977 88.3359 249.967 88.3265ZM248.935 68.4263C246.119 68.4263 243.46 69.0924 241.108 70.273C242.611 70.7887 245.839 73.0979 248.104 83.4191C248.367 83.3241 248.648 83.2813 248.935 83.2813C249.086 83.2813 249.234 83.2886 249.373 83.3136C251.823 71.8118 255.436 70.3419 256.545 70.1676C254.246 69.0485 251.666 68.4263 248.935 68.4263ZM250.955 87.6365C250.694 87.9518 250.362 88.2044 249.985 88.361C255.022 97.3282 254.375 101.282 253.616 102.794C258.732 101.378 262.912 97.6936 264.994 92.8937C263.814 93.5221 260.009 94.3447 250.955 87.6365ZM261.82 74.0865C261.82 75.5396 260.709 79.2747 251.191 84.5475C251.413 84.8889 251.54 85.2908 251.567 85.7188C262.167 84.8273 265.327 87.2597 266.246 88.5447C266.366 87.6877 266.438 86.8223 266.438 85.9297C266.439 81.3647 264.689 77.2005 261.82 74.0865ZM250.955 87.6365C250.694 87.9518 250.362 88.2044 249.985 88.361C255.022 97.3282 254.375 101.282 253.616 102.794C258.732 101.378 262.912 97.6936 264.994 92.8937C263.814 93.5221 260.009 94.3447 250.955 87.6365ZM248.935 68.4263C246.119 68.4263 243.46 69.0924 241.108 70.273C242.611 70.7887 245.839 73.0979 248.104 83.4191C248.367 83.3241 248.648 83.2813 248.935 83.2813C249.086 83.2813 249.234 83.2886 249.373 83.3136C251.823 71.8118 255.436 70.3419 256.545 70.1676C254.246 69.0485 251.666 68.4263 248.935 68.4263ZM249.967 88.3265L249.977 88.3693L249.986 88.361C249.986 88.3526 249.977 88.3359 249.967 88.3265ZM248.115 88.4414C247.711 88.3182 247.354 88.099 247.054 87.8025C239.191 95.1235 235.204 95.0702 233.733 94.6151C236.313 99.1206 240.837 102.365 246.153 103.214C245.254 102.006 243.932 98.3335 248.115 88.4414ZM246.469 84.9589C235.824 80.1829 235.063 76.3611 235.124 75.1961C232.798 78.1619 231.424 81.8783 231.424 85.9297C231.424 87.4517 231.616 88.9195 231.983 90.3204C232.78 88.955 235.71 86.2606 246.294 86.2168C246.285 86.1197 246.276 86.0237 246.276 85.9297C246.277 85.5894 246.337 85.2553 246.469 84.9589ZM261.82 74.0865C261.82 75.5396 260.709 79.2747 251.191 84.5475C251.413 84.8889 251.54 85.2908 251.567 85.7188C262.167 84.8273 265.327 87.2597 266.246 88.5447C266.366 87.6877 266.438 86.8223 266.438 85.9297C266.439 81.3647 264.689 77.2005 261.82 74.0865ZM246.469 84.9589C235.824 80.1829 235.063 76.3611 235.124 75.1961C232.798 78.1619 231.424 81.8783 231.424 85.9297C231.424 87.4517 231.616 88.9195 231.983 90.3204C232.78 88.955 235.71 86.2606 246.294 86.2168C246.285 86.1197 246.276 86.0237 246.276 85.9297C246.277 85.5894 246.337 85.2553 246.469 84.9589ZM248.115 88.4414C247.711 88.3182 247.354 88.099 247.054 87.8025C239.191 95.1235 235.204 95.0702 233.733 94.6151C236.313 99.1206 240.837 102.365 246.153 103.214C245.254 102.006 243.932 98.3335 248.115 88.4414ZM249.967 88.3265L249.977 88.3693L249.986 88.361C249.986 88.3526 249.977 88.3359 249.967 88.3265ZM248.935 68.4263C246.119 68.4263 243.46 69.0924 241.108 70.273C242.611 70.7887 245.839 73.0979 248.104 83.4191C248.367 83.3241 248.648 83.2813 248.935 83.2813C249.086 83.2813 249.234 83.2886 249.373 83.3136C251.823 71.8118 255.436 70.3419 256.545 70.1676C254.246 69.0485 251.666 68.4263 248.935 68.4263ZM250.955 87.6365C250.694 87.9518 250.362 88.2044 249.985 88.361C255.022 97.3282 254.375 101.282 253.616 102.794C258.732 101.378 262.912 97.6936 264.994 92.8937C263.814 93.5221 260.009 94.3447 250.955 87.6365ZM261.82 74.0865C261.82 75.5396 260.709 79.2747 251.191 84.5475C251.413 84.8889 251.54 85.2908 251.567 85.7188C262.167 84.8273 265.327 87.2597 266.246 88.5447C266.366 87.6877 266.438 86.8223 266.438 85.9297C266.439 81.3647 264.689 77.2005 261.82 74.0865ZM250.955 87.6365C250.694 87.9518 250.362 88.2044 249.985 88.361C255.022 97.3282 254.375 101.282 253.616 102.794C258.732 101.378 262.912 97.6936 264.994 92.8937C263.814 93.5221 260.009 94.3447 250.955 87.6365ZM248.935 68.4263C246.119 68.4263 243.46 69.0924 241.108 70.273C242.611 70.7887 245.839 73.0979 248.104 83.4191C248.367 83.3241 248.648 83.2813 248.935 83.2813C249.086 83.2813 249.234 83.2886 249.373 83.3136C251.823 71.8118 255.436 70.3419 256.545 70.1676C254.246 69.0485 251.666 68.4263 248.935 68.4263ZM249.967 88.3265L249.977 88.3693L249.986 88.361C249.986 88.3526 249.977 88.3359 249.967 88.3265ZM248.115 88.4414C247.711 88.3182 247.354 88.099 247.054 87.8025C239.191 95.1235 235.204 95.0702 233.733 94.6151C236.313 99.1206 240.837 102.365 246.153 103.214C245.254 102.006 243.932 98.3335 248.115 88.4414ZM246.469 84.9589C235.824 80.1829 235.063 76.3611 235.124 75.1961C232.798 78.1619 231.424 81.8783 231.424 85.9297C231.424 87.4517 231.616 88.9195 231.983 90.3204C232.78 88.955 235.71 86.2606 246.294 86.2168C246.285 86.1197 246.276 86.0237 246.276 85.9297C246.277 85.5894 246.337 85.2553 246.469 84.9589ZM261.82 74.0865C261.82 75.5396 260.709 79.2747 251.191 84.5475C251.413 84.8889 251.54 85.2908 251.567 85.7188C262.167 84.8273 265.327 87.2597 266.246 88.5447C266.366 87.6877 266.438 86.8223 266.438 85.9297C266.439 81.3647 264.689 77.2005 261.82 74.0865ZM246.469 84.9589C235.824 80.1829 235.063 76.3611 235.124 75.1961C232.798 78.1619 231.424 81.8783 231.424 85.9297C231.424 87.4517 231.616 88.9195 231.983 90.3204C232.78 88.955 235.71 86.2606 246.294 86.2168C246.285 86.1197 246.276 86.0237 246.276 85.9297C246.277 85.5894 246.337 85.2553 246.469 84.9589ZM248.115 88.4414C247.711 88.3182 247.354 88.099 247.054 87.8025C239.191 95.1235 235.204 95.0702 233.733 94.6151C236.313 99.1206 240.837 102.365 246.153 103.214C245.254 102.006 243.932 98.3335 248.115 88.4414ZM249.967 88.3265L249.977 88.3693L249.986 88.361C249.986 88.3526 249.977 88.3359 249.967 88.3265ZM248.935 68.4263C246.119 68.4263 243.46 69.0924 241.108 70.273C242.611 70.7887 245.839 73.0979 248.104 83.4191C248.367 83.3241 248.648 83.2813 248.935 83.2813C249.086 83.2813 249.234 83.2886 249.373 83.3136C251.823 71.8118 255.436 70.3419 256.545 70.1676C254.246 69.0485 251.666 68.4263 248.935 68.4263ZM250.955 87.6365C250.694 87.9518 250.362 88.2044 249.985 88.361C255.022 97.3282 254.375 101.282 253.616 102.794C258.732 101.378 262.912 97.6936 264.994 92.8937C263.814 93.5221 260.009 94.3447 250.955 87.6365ZM261.82 74.0865C261.82 75.5396 260.709 79.2747 251.191 84.5475C251.413 84.8889 251.54 85.2908 251.567 85.7188C262.167 84.8273 265.327 87.2597 266.246 88.5447C266.366 87.6877 266.438 86.8223 266.438 85.9297C266.439 81.3647 264.689 77.2005 261.82 74.0865ZM250.955 87.6365C250.694 87.9518 250.362 88.2044 249.985 88.361C255.022 97.3282 254.375 101.282 253.616 102.794C258.732 101.378 262.912 97.6936 264.994 92.8937C263.814 93.5221 260.009 94.3447 250.955 87.6365ZM248.935 68.4263C246.119 68.4263 243.46 69.0924 241.108 70.273C242.611 70.7887 245.839 73.0979 248.104 83.4191C248.367 83.3241 248.648 83.2813 248.935 83.2813C249.086 83.2813 249.234 83.2886 249.373 83.3136C251.823 71.8118 255.436 70.3419 256.545 70.1676C254.246 69.0485 251.666 68.4263 248.935 68.4263ZM249.967 88.3265L249.977 88.3693L249.986 88.361C249.986 88.3526 249.977 88.3359 249.967 88.3265ZM248.115 88.4414C247.711 88.3182 247.354 88.099 247.054 87.8025C239.191 95.1235 235.204 95.0702 233.733 94.6151C236.313 99.1206 240.837 102.365 246.153 103.214C245.254 102.006 243.932 98.3335 248.115 88.4414ZM246.469 84.9589C235.824 80.1829 235.063 76.3611 235.124 75.1961C232.798 78.1619 231.424 81.8783 231.424 85.9297C231.424 87.4517 231.616 88.9195 231.983 90.3204C232.78 88.955 235.71 86.2606 246.294 86.2168C246.285 86.1197 246.276 86.0237 246.276 85.9297C246.277 85.5894 246.337 85.2553 246.469 84.9589ZM261.82 74.0865C261.82 75.5396 260.709 79.2747 251.191 84.5475C251.413 84.8889 251.54 85.2908 251.567 85.7188C262.167 84.8273 265.327 87.2597 266.246 88.5447C266.366 87.6877 266.438 86.8223 266.438 85.9297C266.439 81.3647 264.689 77.2005 261.82 74.0865ZM246.469 84.9589C235.824 80.1829 235.063 76.3611 235.124 75.1961C232.798 78.1619 231.424 81.8783 231.424 85.9297C231.424 87.4517 231.616 88.9195 231.983 90.3204C232.78 88.955 235.71 86.2606 246.294 86.2168C246.285 86.1197 246.276 86.0237 246.276 85.9297C246.277 85.5894 246.337 85.2553 246.469 84.9589ZM248.115 88.4414C247.711 88.3182 247.354 88.099 247.054 87.8025C239.191 95.1235 235.204 95.0702 233.733 94.6151C236.313 99.1206 240.837 102.365 246.153 103.214C245.254 102.006 243.932 98.3335 248.115 88.4414ZM249.967 88.3265L249.977 88.3693L249.986 88.361C249.986 88.3526 249.977 88.3359 249.967 88.3265ZM248.935 68.4263C246.119 68.4263 243.46 69.0924 241.108 70.273C242.611 70.7887 245.839 73.0979 248.104 83.4191C248.367 83.3241 248.648 83.2813 248.935 83.2813C249.086 83.2813 249.234 83.2886 249.373 83.3136C251.823 71.8118 255.436 70.3419 256.545 70.1676C254.246 69.0485 251.666 68.4263 248.935 68.4263ZM250.955 87.6365C250.694 87.9518 250.362 88.2044 249.985 88.361C255.022 97.3282 254.375 101.282 253.616 102.794C258.732 101.378 262.912 97.6936 264.994 92.8937C263.814 93.5221 260.009 94.3447 250.955 87.6365ZM261.82 74.0865C261.82 75.5396 260.709 79.2747 251.191 84.5475C251.413 84.8889 251.54 85.2908 251.567 85.7188C262.167 84.8273 265.327 87.2597 266.246 88.5447C266.366 87.6877 266.438 86.8223 266.438 85.9297C266.439 81.3647 264.689 77.2005 261.82 74.0865ZM250.955 87.6365C250.694 87.9518 250.362 88.2044 249.985 88.361C255.022 97.3282 254.375 101.282 253.616 102.794C258.732 101.378 262.912 97.6936 264.994 92.8937C263.814 93.5221 260.009 94.3447 250.955 87.6365ZM248.935 68.4263C246.119 68.4263 243.46 69.0924 241.108 70.273C242.611 70.7887 245.839 73.0979 248.104 83.4191C248.367 83.3241 248.648 83.2813 248.935 83.2813C249.086 83.2813 249.234 83.2886 249.373 83.3136C251.823 71.8118 255.436 70.3419 256.545 70.1676C254.246 69.0485 251.666 68.4263 248.935 68.4263ZM249.967 88.3265L249.977 88.3693L249.986 88.361C249.986 88.3526 249.977 88.3359 249.967 88.3265ZM248.115 88.4414C247.711 88.3182 247.354 88.099 247.054 87.8025C239.191 95.1235 235.204 95.0702 233.733 94.6151C236.313 99.1206 240.837 102.365 246.153 103.214C245.254 102.006 243.932 98.3335 248.115 88.4414ZM246.469 84.9589C235.824 80.1829 235.063 76.3611 235.124 75.1961C232.798 78.1619 231.424 81.8783 231.424 85.9297C231.424 87.4517 231.616 88.9195 231.983 90.3204C232.78 88.955 235.71 86.2606 246.294 86.2168C246.285 86.1197 246.276 86.0237 246.276 85.9297C246.277 85.5894 246.337 85.2553 246.469 84.9589ZM249.967 88.3265L249.977 88.3693L249.986 88.361C249.986 88.3526 249.977 88.3359 249.967 88.3265ZM249.967 88.3265L249.977 88.3693L249.986 88.361C249.986 88.3526 249.977 88.3359 249.967 88.3265ZM249.967 88.3265L249.977 88.3693L249.986 88.361C249.986 88.3526 249.977 88.3359 249.967 88.3265ZM249.967 88.3265L249.977 88.3693L249.986 88.361C249.986 88.3526 249.977 88.3359 249.967 88.3265ZM249.967 88.3265L249.977 88.3693L249.986 88.361C249.986 88.3526 249.977 88.3359 249.967 88.3265ZM249.967 88.3265L249.977 88.3693L249.986 88.361C249.986 88.3526 249.977 88.3359 249.967 88.3265ZM249.967 88.3265L249.977 88.3693L249.986 88.361C249.986 88.3526 249.977 88.3359 249.967 88.3265ZM249.967 88.3265L249.977 88.3693L249.986 88.361C249.986 88.3526 249.977 88.3359 249.967 88.3265ZM249.967 88.3265L249.977 88.3693L249.986 88.361C249.986 88.3526 249.977 88.3359 249.967 88.3265ZM249.967 88.3265L249.977 88.3693L249.986 88.361C249.986 88.3526 249.977 88.3359 249.967 88.3265Z" fill="#125585"/>
<path d="M246.278 85.9328C246.278 86.0278 246.287 86.1238 246.296 86.2199C235.712 86.2637 232.782 88.9581 231.985 90.3235C231.617 88.9226 231.426 87.4548 231.426 85.9328C231.426 81.8813 232.8 78.165 235.126 75.1992C235.065 76.3632 235.826 80.185 246.471 84.962C246.338 85.2574 246.278 85.5914 246.278 85.9328Z" fill="#125585"/>
<path d="M246.155 103.216C240.837 102.367 236.314 99.1228 233.734 94.6173C235.205 95.0714 239.193 95.1246 247.056 87.8047C247.354 88.1012 247.712 88.3204 248.116 88.4436C243.932 98.3347 245.254 102.007 246.155 103.216Z" fill="#125585"/>
<path d="M249.988 88.3626L249.979 88.3709L249.969 88.3281C249.979 88.3375 249.988 88.3542 249.988 88.3626Z" fill="#125585"/>
<path d="M256.546 70.167C255.436 70.3414 251.824 71.8112 249.374 83.3131C249.235 83.288 249.087 83.2807 248.937 83.2807C248.651 83.2807 248.368 83.3235 248.106 83.4185C245.84 73.0973 242.613 70.7882 241.109 70.2725C243.461 69.0918 246.12 68.4258 248.937 68.4258C251.668 68.4258 254.247 69.048 256.546 70.167Z" fill="#125585"/>
<path d="M264.994 92.8939C262.912 97.6948 258.731 101.378 253.616 102.794C254.375 101.282 255.023 97.3284 249.984 88.3612C250.361 88.2046 250.694 87.9509 250.955 87.6367C260.009 94.3449 263.814 93.5223 264.994 92.8939Z" fill="#125585"/>
<path d="M266.442 85.9311C266.442 86.8226 266.371 87.6891 266.25 88.5461C265.33 87.2611 262.171 84.8288 251.571 85.7203C251.544 85.2923 251.417 84.8903 251.195 84.549C260.713 79.2751 261.824 75.54 261.824 74.0879C264.692 77.2009 266.442 81.365 266.442 85.9311Z" fill="#125585"/>
<path d="M249.965 88.326L249.975 88.3688L249.984 88.3604C249.984 88.3521 249.975 88.3354 249.965 88.326ZM249.965 88.326L249.975 88.3688L249.984 88.3604C249.984 88.3521 249.975 88.3354 249.965 88.326ZM249.965 88.326L249.975 88.3688L249.984 88.3604C249.984 88.3521 249.975 88.3354 249.965 88.326ZM249.965 88.326L249.975 88.3688L249.984 88.3604C249.984 88.3521 249.975 88.3354 249.965 88.326ZM249.965 88.326L249.975 88.3688L249.984 88.3604C249.984 88.3521 249.975 88.3354 249.965 88.326ZM249.965 88.326L249.975 88.3688L249.984 88.3604C249.984 88.3521 249.975 88.3354 249.965 88.326ZM249.965 88.326L249.975 88.3688L249.984 88.3604C249.984 88.3521 249.975 88.3354 249.965 88.326ZM249.965 88.326L249.975 88.3688L249.984 88.3604C249.984 88.3521 249.975 88.3354 249.965 88.326ZM249.965 88.326L249.975 88.3688L249.984 88.3604C249.984 88.3521 249.975 88.3354 249.965 88.326ZM249.965 88.326L249.975 88.3688L249.984 88.3604C249.984 88.3521 249.975 88.3354 249.965 88.326ZM261.819 74.0859C261.819 75.539 260.707 79.2742 251.189 84.547C251.411 84.8883 251.538 85.2903 251.565 85.7183C262.165 84.8268 265.325 87.2591 266.244 88.5442C266.364 87.6871 266.436 86.8217 266.436 85.9291C266.437 81.3641 264.687 77.1999 261.819 74.0859ZM250.954 87.636C250.693 87.9512 250.361 88.2038 249.983 88.3604C255.021 97.3277 254.373 101.281 253.614 102.794C258.73 101.377 262.911 97.693 264.992 92.8931C263.812 93.5215 260.007 94.3442 250.954 87.636ZM248.934 68.4258C246.117 68.4258 243.458 69.0918 241.106 70.2725C242.61 70.7882 245.837 73.0973 248.103 83.4185C248.365 83.3235 248.646 83.2807 248.934 83.2807C249.084 83.2807 249.232 83.288 249.371 83.3131C251.821 71.8112 255.434 70.3414 256.543 70.167C254.244 69.048 251.664 68.4258 248.934 68.4258ZM249.965 88.326L249.975 88.3688L249.984 88.3604C249.984 88.3521 249.975 88.3354 249.965 88.326ZM248.113 88.4408C247.709 88.3176 247.352 88.0984 247.052 87.8019C239.19 95.1229 235.202 95.0697 233.731 94.6145C236.312 99.1201 240.835 102.365 246.152 103.213C245.252 102.005 243.93 98.333 248.113 88.4408ZM246.467 84.9583C235.822 80.1824 235.061 76.3606 235.123 75.1956C232.796 78.1613 231.422 81.8777 231.422 85.9291C231.422 87.4512 231.614 88.9189 231.981 90.3198C232.778 88.9544 235.708 86.26 246.292 86.2162C246.283 86.1191 246.274 86.0231 246.274 85.9291C246.275 85.5888 246.335 85.2548 246.467 84.9583ZM249.965 88.326L249.975 88.3688L249.984 88.3604C249.984 88.3521 249.975 88.3354 249.965 88.326ZM249.965 88.326L249.975 88.3688L249.984 88.3604C249.984 88.3521 249.975 88.3354 249.965 88.326ZM249.965 88.326L249.975 88.3688L249.984 88.3604C249.984 88.3521 249.975 88.3354 249.965 88.326ZM249.965 88.326L249.975 88.3688L249.984 88.3604C249.984 88.3521 249.975 88.3354 249.965 88.326ZM249.965 88.326L249.975 88.3688L249.984 88.3604C249.984 88.3521 249.975 88.3354 249.965 88.326ZM249.965 88.326L249.975 88.3688L249.984 88.3604C249.984 88.3521 249.975 88.3354 249.965 88.326ZM249.965 88.326L249.975 88.3688L249.984 88.3604C249.984 88.3521 249.975 88.3354 249.965 88.326ZM249.965 88.326L249.975 88.3688L249.984 88.3604C249.984 88.3521 249.975 88.3354 249.965 88.326ZM249.965 88.326L249.975 88.3688L249.984 88.3604C249.984 88.3521 249.975 88.3354 249.965 88.326ZM249.965 88.326L249.975 88.3688L249.984 88.3604C249.984 88.3521 249.975 88.3354 249.965 88.326Z" fill="#125585"/>
<path d="M251.588 85.9318C251.588 86.5612 251.36 87.1469 250.994 87.6031C250.976 87.6208 250.968 87.6281 250.958 87.6375C250.697 87.9528 250.365 88.2054 249.987 88.362C249.987 88.3536 249.979 88.3369 249.969 88.3275L249.979 88.3703C249.664 88.5029 249.307 88.5823 248.937 88.5823C248.657 88.5823 248.387 88.5374 248.135 88.4497C248.124 88.4591 248.124 88.4497 248.117 88.4424C247.713 88.3192 247.356 88.1 247.056 87.8035C247.049 87.7951 247.039 87.7774 247.023 87.768C246.639 87.3734 246.374 86.8504 246.304 86.2804C246.296 86.2627 246.296 86.2366 246.296 86.2188C246.287 86.1217 246.277 86.0257 246.277 85.9318C246.277 85.5904 246.339 85.2563 246.47 84.9599C246.47 84.9327 246.488 84.8983 246.497 84.8722C246.793 84.1988 247.354 83.6727 248.053 83.4378C248.072 83.419 248.087 83.419 248.105 83.419C248.367 83.324 248.649 83.2812 248.936 83.2812C249.087 83.2812 249.235 83.2886 249.374 83.3136C249.4 83.3241 249.427 83.324 249.453 83.3324C250.179 83.4723 250.8 83.9107 251.175 84.5131C251.184 84.5225 251.193 84.5319 251.193 84.5486C251.414 84.8899 251.542 85.2918 251.569 85.7198C251.577 85.7292 251.577 85.747 251.577 85.7553V85.7637C251.588 85.8263 251.588 85.8702 251.588 85.9318Z" fill="#125585"/>
<path d="M249.988 88.3626L249.979 88.3709L249.969 88.3281C249.979 88.3375 249.988 88.3542 249.988 88.3626Z" fill="#125585"/>
<path d="M249.988 88.3626L249.979 88.3709L249.969 88.3281C249.979 88.3375 249.988 88.3542 249.988 88.3626Z" fill="#125585"/>
</g>
</svg>
