<svg preserveAspectRatio="none" width="100%" height="100%" overflow="visible" style="display: block;" viewBox="0 0 116 15.4293" fill="none" xmlns="http://www.w3.org/2000/svg">
<g id="Group">
<path id="Vector" d="M0 7.81328C0 3.48935 2.7643 0.197266 7.53899 0.197266C12.3137 0.197266 15.078 3.29281 15.078 8.2555V9.0908H4.07106C4.42288 11.1054 5.62912 12.3338 7.53899 12.3338C9.19757 12.3338 10.253 11.695 10.8059 10.614H14.8267C13.8717 13.513 11.2582 15.4293 7.53899 15.4293C2.7643 15.4293 0 12.1372 0 7.81328ZM11.0069 6.33921C10.6049 4.47206 9.39862 3.29281 7.58926 3.29281C5.7799 3.29281 4.57366 4.42293 4.17158 6.33921H11.0069Z" fill="#1a1a1a"/>
<path id="Vector_2" d="M20.4552 0.246402V11.695C20.4552 12.2846 20.6562 12.5794 21.4101 12.5794H22.8174V15.0362H20.4049C18.5956 15.0362 16.8867 14.6431 16.8867 11.9898V0.197266H20.4552V0.246402Z" fill="#1a1a1a"/>
<path id="Vector_3" d="M23.875 7.66515C23.875 3.43949 26.6393 0 31.6653 0C35.7364 0 38.4001 2.30937 38.953 5.35578H35.083C34.6306 4.07825 33.4747 3.19381 31.6653 3.19381C28.901 3.19381 27.8455 5.25751 27.8455 7.66515C27.8455 10.0728 28.901 12.1365 31.6653 12.1365C33.4747 12.1365 34.5804 11.252 35.1835 9.67971H31.0622V6.78071H39.154V15.0846H36.4903V12.5296C35.4851 14.2985 33.7762 15.3303 31.0119 15.3303C26.589 15.3303 23.875 11.8908 23.875 7.66515Z" fill="#1a1a1a"/>
<path id="Vector_4" d="M50.9621 12.5791H44.8807L44.0263 15.085H40.1562L45.6346 0.246094H50.2082L55.8876 15.085H51.8668L50.9621 12.5791ZM49.9067 9.48358L47.8963 3.68558L45.9361 9.48358H49.9067Z" fill="#1a1a1a"/>
<path id="Vector_5" d="M57.0463 0.246094H64.334C68.1538 0.246094 69.8124 2.16238 69.8124 4.71743C69.8124 6.28977 68.9077 7.51816 67.5004 8.4026C68.8574 9.04136 69.36 10.0732 69.5611 11.3507L70.1139 15.085H66.1937L65.7413 11.8421C65.49 10.4172 64.8366 9.68013 63.4796 9.68013H60.8158V15.085H56.9961V0.246094H57.0463ZM63.5801 6.87939C65.0879 6.87939 65.8921 6.3389 65.8921 5.06138C65.8921 3.78386 65.0879 3.24336 63.5801 3.24336H60.8661V6.92853H63.5801V6.87939Z" fill="#1a1a1a"/>
<path id="Vector_6" d="M81.47 12.5791H75.3885L74.5341 15.085H70.6641L76.1424 0.246094H80.7161L86.3954 15.085H82.3746L81.47 12.5791ZM80.4145 9.48358L78.4041 3.68558L76.444 9.48358H80.4145Z" fill="#1a1a1a"/>
<path id="Vector_7" d="M86.8984 7.66515C86.8984 3.43949 89.6627 0 94.6887 0C98.7598 0 101.424 2.30937 101.976 5.35578H98.1064C97.6541 4.07825 96.4981 3.19381 94.6887 3.19381C91.9244 3.19381 90.869 5.25751 90.869 7.66515C90.869 10.0728 91.9244 12.1365 94.6887 12.1365C96.4981 12.1365 97.6038 11.252 98.2069 9.67971H94.0856V6.78071H102.177V15.0846H99.5137V12.5296C98.5085 14.2985 96.7996 15.3303 94.0353 15.3303C89.6627 15.3303 86.8984 11.8908 86.8984 7.66515Z" fill="#1a1a1a"/>
<path id="Vector_8" d="M104.289 0.246094H116V3.58731H108.109V5.99496H115.397V9.13963H108.109V11.7438H115.949V15.085H104.289V0.246094Z" fill="#1a1a1a"/>
</g>
</svg>
