<svg preserveAspectRatio="none" width="100%" height="100%" overflow="visible" style="display: block;" viewBox="0 0 36.1055 36" fill="none" xmlns="http://www.w3.org/2000/svg">
<g id="Frame 2087325464">
<path id="Vector" d="M35.4934 19.403L33.9735 17.3203H27.2187H15.1725L10.6129 22.7803H26.7683L25.6425 24.1312L20.5764 30.2103H17.987C11.6261 30.2103 5.88449 24.9755 5.49045 18.7275C5.26529 15.294 6.4474 12.0855 8.8116 9.60885C11.1195 7.13217 14.3281 5.78125 17.7055 5.78125H18.0433C21.1956 5.78125 23.8975 7.01959 26.712 8.59566L22.7154 11.5226L25.1359 14.8999H31.8345L27.5001 8.93339L30.1458 4.31775C26.6557 2.29138 22.7717 0.321289 18.0433 0.321289H17.7055C12.8645 0.321289 8.19241 2.34767 4.81497 5.89382C1.43753 9.49627 -0.251194 14.1682 0.0302591 19.0653C0.593166 28.184 8.64273 35.6703 17.9307 35.6703H23.0531L32.6788 24.1312L33.8047 22.7803L36 20.191L35.4934 19.403Z" fill="var(--fill-0, white)"/>
</g>
</svg>
