<svg preserveAspectRatio="none" width="100%" height="100%" overflow="visible" style="display: block;" viewBox="0 0 130.499 17.3567" fill="none" xmlns="http://www.w3.org/2000/svg">
<g id="Group">
<path id="Vector" d="M0 8.78872C0 3.9243 3.10984 0.220703 8.48137 0.220703C13.8529 0.220703 16.9627 3.70319 16.9627 9.28622V10.2259H4.57994C4.97574 12.4923 6.33276 13.8743 8.48137 13.8743C10.3473 13.8743 11.5347 13.1556 12.1566 11.9395H16.68C15.6057 15.2009 12.6655 17.3567 8.48137 17.3567C3.10984 17.3567 0 13.6531 0 8.78872ZM12.3828 7.13039C11.9305 5.02985 10.5734 3.70319 8.53791 3.70319C6.50239 3.70319 5.14537 4.97457 4.69303 7.13039H12.3828Z" fill="var(--fill-0, white)"/>
<path id="Vector_2" d="M23.0145 0.275982V13.1556C23.0145 13.819 23.2407 14.1506 24.0888 14.1506H25.672V16.9145H22.958C20.9224 16.9145 19 16.4723 19 13.4873V0.220703H23.0145V0.275982Z" fill="var(--fill-0, white)"/>
<path id="Vector_3" d="M26.8594 8.6233C26.8594 3.86943 29.9692 2.72478e-07 35.6235 2.72478e-07C40.2034 2.72478e-07 43.2001 2.59804 43.8221 6.02525H39.4683C38.9595 4.58803 37.659 3.59304 35.6235 3.59304C32.5136 3.59304 31.3262 5.9147 31.3262 8.6233C31.3262 11.3319 32.5136 13.6535 35.6235 13.6535C37.659 13.6535 38.9029 12.6586 39.5814 10.8897H34.9449V7.6283H44.0483V16.9702H41.0515V14.0958C39.9207 16.0858 37.9982 17.2466 34.8884 17.2466C29.9127 17.2466 26.8594 13.3772 26.8594 8.6233Z" fill="var(--fill-0, white)"/>
<path id="Vector_4" d="M57.3324 14.151H50.4908L49.5295 16.9702H45.1758L51.3389 0.276367H56.4843L62.8736 16.9702H58.3502L57.3324 14.151ZM56.145 10.6685L53.8833 4.14579L51.6782 10.6685H56.145Z" fill="var(--fill-0, white)"/>
<path id="Vector_5" d="M64.1737 0.276367H72.3724C76.6696 0.276367 78.5355 2.43219 78.5355 5.30662C78.5355 7.0755 77.5177 8.45744 75.9346 9.45244C77.4612 10.171 78.0266 11.3319 78.2528 12.7691L78.8748 16.9702H74.4644L73.9556 13.3219C73.6729 11.7188 72.9378 10.8897 71.4112 10.8897H68.4144V16.9702H64.1172V0.276367H64.1737ZM71.5242 7.73883C73.2205 7.73883 74.1252 7.13078 74.1252 5.69356C74.1252 4.25635 73.2205 3.6483 71.5242 3.6483H68.471V7.79411H71.5242V7.73883Z" fill="var(--fill-0, white)"/>
<path id="Vector_6" d="M91.6566 14.151H84.815L83.8538 16.9702H79.5L85.6631 0.276367H90.8085L97.1978 16.9702H92.6744L91.6566 14.151ZM90.4693 10.6685L88.2076 4.14579L86.0024 10.6685H90.4693Z" fill="var(--fill-0, white)"/>
<path id="Vector_7" d="M97.7619 8.6233C97.7619 3.86943 100.872 0 106.526 0C111.106 0 114.103 2.59804 114.725 6.02525H110.371C109.862 4.58803 108.561 3.59304 106.526 3.59304C103.416 3.59304 102.229 5.9147 102.229 8.6233C102.229 11.3319 103.416 13.6535 106.526 13.6535C108.561 13.6535 109.805 12.6586 110.484 10.8897H105.847V7.6283H114.951V16.9702H111.954V14.0958C110.823 16.0858 108.901 17.2466 105.791 17.2466C100.872 17.2466 97.7619 13.3772 97.7619 8.6233Z" fill="var(--fill-0, white)"/>
<path id="Vector_8" d="M117.324 0.276367H130.499V4.03524H121.621V6.74384H129.82V10.2816H121.621V13.2113H130.442V16.9702H117.324V0.276367Z" fill="var(--fill-0, white)"/>
</g>
</svg>
