<svg preserveAspectRatio="none" width="100%" height="100%" overflow="visible" style="display: block;" viewBox="0 0 32 32" fill="none" xmlns="http://www.w3.org/2000/svg">
<g id="Frame 2087325464">
<path id="Vector" d="M31.5497 16.9615L30.1987 15.1103H24.1944H13.4866L9.4337 19.9636H23.7941L22.7933 21.1644L18.2901 26.568H15.9884C10.3343 26.568 5.23066 21.9149 4.8804 16.3611C4.68026 13.309 5.73102 10.4571 7.83254 8.25561C9.88402 6.05411 12.7361 4.8533 15.7382 4.8533H16.0385C18.8405 4.8533 21.2422 5.95404 23.744 7.355L20.1915 9.95676L22.343 12.9588H28.2973L24.4445 7.6552L26.7962 3.55241C23.694 1.75119 20.2415 0 16.0385 0H15.7382C11.4351 0 7.28214 1.80122 4.27997 4.95337C1.2778 8.15554 -0.223284 12.3084 0.026897 16.6613C0.527258 24.7668 7.68243 31.4213 15.9384 31.4213H20.4917L29.0479 21.1644L30.0486 19.9636L32 17.662L31.5497 16.9615Z" fill="var(--fill-0, white)"/>
</g>
</svg>
