<svg width="32" height="32" viewBox="0 0 32 32" fill="none" xmlns="http://www.w3.org/2000/svg">
<rect x="0.363636" y="0.363636" width="31.2727" height="31.2727" rx="15.6364" stroke="white" stroke-opacity="0.12" stroke-width="0.727273"/>
<path d="M21.3327 12.6668V19.3335C21.3327 22.0002 20.666 22.6668 17.9993 22.6668H13.9993C11.3327 22.6668 10.666 22.0002 10.666 19.3335V12.6668C10.666 10.0002 11.3327 9.3335 13.9993 9.3335H17.9993C20.666 9.3335 21.3327 10.0002 21.3327 12.6668Z" stroke="white" stroke-linecap="round" stroke-linejoin="round"/>
<path d="M17.3327 11.667H14.666" stroke="white" stroke-linecap="round" stroke-linejoin="round"/>
<path d="M16.0001 20.7337C16.5708 20.7337 17.0335 20.271 17.0335 19.7003C17.0335 19.1296 16.5708 18.667 16.0001 18.667C15.4294 18.667 14.9668 19.1296 14.9668 19.7003C14.9668 20.271 15.4294 20.7337 16.0001 20.7337Z" stroke="white" stroke-linecap="round" stroke-linejoin="round"/>
</svg>
