<svg preserveAspectRatio="none" width="100%" height="100%" overflow="visible" style="display: block;" viewBox="0 0 16 16" fill="none" xmlns="http://www.w3.org/2000/svg">
<g id="gravity-ui:play">
<path id="Vector" d="M14.642 6.28463C15.936 7.06163 15.936 8.93763 14.642 9.71463L5.53 15.1826C4.238 15.9576 2.606 15.0806 2.505 13.6116L2.5 13.4676V2.53163L2.505 2.38863C2.605 0.918631 4.238 0.0426312 5.53 0.817631L14.642 6.28463ZM13.871 8.42863C13.9449 8.38418 14.0061 8.32136 14.0486 8.24627C14.091 8.17119 14.1133 8.08639 14.1133 8.00013C14.1133 7.91387 14.091 7.82908 14.0486 7.75399C14.0061 7.67891 13.9449 7.61608 13.871 7.57163L4.756 2.10363C4.68021 2.05846 4.59382 2.03414 4.50559 2.03315C4.41736 2.03217 4.33045 2.05454 4.25367 2.09801C4.17688 2.14148 4.11297 2.20449 4.06842 2.28065C4.02387 2.35681 4.00026 2.4434 4 2.53163V13.4676C3.99998 13.5561 4.02343 13.643 4.06797 13.7194C4.1125 13.7959 4.17651 13.8591 4.25348 13.9027C4.33044 13.9464 4.41761 13.9688 4.50606 13.9677C4.59452 13.9666 4.68111 13.9421 4.757 13.8966L13.871 8.42863Z" fill="var(--fill-0, white)"/>
</g>
</svg>
