<svg preserveAspectRatio="none" width="100%" height="100%" overflow="visible" style="display: block;" viewBox="0 0 20.6572 20.0376" fill="none" xmlns="http://www.w3.org/2000/svg">
<g id="Group">
<path id="Vector" d="M13.11 20.0376C15.7427 20.0376 17.8768 17.9035 17.8768 15.2711C17.8768 15.1269 17.8677 14.9849 17.8551 14.8439C19.5066 14.095 20.6572 12.4356 20.6572 10.5043C20.6572 8.76406 19.7215 7.24591 18.3287 6.41383C18.5183 5.89968 18.6271 5.34657 18.6271 4.76674C18.6271 2.13413 16.493 0 13.8604 0C12.4599 0 11.2007 0.603928 10.3286 1.56555C9.45656 0.603928 8.19709 0 6.79683 0C4.16422 0 2.03009 2.13413 2.03009 4.76674C2.03009 5.34657 2.13895 5.89988 2.32854 6.41383C0.935713 7.24591 0 8.76386 0 10.5043C0 12.4356 1.15081 14.095 2.80212 14.8439C2.78946 14.9849 2.78043 15.1269 2.78043 15.2711C2.78043 17.9035 4.91456 20.0376 7.54717 20.0376H13.11Z" fill="var(--fill-0, #0E2443)"/>
</g>
</svg>
