<svg preserveAspectRatio="none" width="100%" height="100%" overflow="visible" style="display: block;" viewBox="0 0 58.0094 73.4583" fill="none" xmlns="http://www.w3.org/2000/svg">
<g id="freepik--Clipboard--inject-2">
<path id="Vector" d="M3.08084 1.68211H7.10254L13.4775 73.4576H9.45578C8.54153 73.4405 7.66509 73.0896 6.99156 72.4711C6.31803 71.8527 5.89389 71.0093 5.79905 70.0998L0.0184975 5.04338C-0.0289926 4.61574 0.015217 4.18289 0.148173 3.77368C0.281129 3.36446 0.499781 2.98829 0.789555 2.67023C1.07933 2.35217 1.43357 2.09953 1.82866 1.92914C2.22376 1.75876 2.65064 1.67454 3.08084 1.68211Z" fill="var(--fill-0, #407BFF)"/>
<path id="Vector_2" d="M54.555 73.4577H10.6465C9.62154 73.443 8.63792 73.0514 7.8833 72.3577C7.12869 71.664 6.65593 70.7168 6.55524 69.6967L0.934575 5.4467C0.881631 4.96742 0.931462 4.48237 1.08075 4.02387C1.23003 3.56537 1.47534 3.14397 1.80032 2.78774C2.1253 2.43152 2.52247 2.14866 2.96538 1.95803C3.40828 1.7674 3.88674 1.67337 4.36884 1.68221H48.2739C49.2984 1.70143 50.2804 2.09489 51.0348 2.78838C51.7891 3.48187 52.2635 4.42744 52.3686 5.4467L57.9893 69.6967C58.0417 70.1757 57.9915 70.6604 57.842 71.1184C57.6924 71.5765 57.447 71.9975 57.1221 72.3533C56.7972 72.7092 56.4002 72.9917 55.9576 73.1821C55.5149 73.3725 55.0368 73.4665 54.555 73.4577Z" fill="var(--fill-0, #407BFF)"/>
<path id="Vector_3" opacity="0.5" d="M54.555 73.4577H10.6465C9.62154 73.443 8.63792 73.0514 7.8833 72.3577C7.12869 71.664 6.65593 70.7168 6.55524 69.6967L0.934575 5.4467C0.881631 4.96742 0.931462 4.48237 1.08075 4.02387C1.23003 3.56537 1.47534 3.14397 1.80032 2.78774C2.1253 2.43152 2.52247 2.14866 2.96538 1.95803C3.40828 1.7674 3.88674 1.67337 4.36884 1.68221H48.2739C49.2984 1.70143 50.2804 2.09489 51.0348 2.78838C51.7891 3.48187 52.2635 4.42744 52.3686 5.4467L57.9893 69.6967C58.0417 70.1757 57.9915 70.6604 57.842 71.1184C57.6924 71.5765 57.447 71.9975 57.1221 72.3533C56.7972 72.7092 56.4002 72.9917 55.9576 73.1821C55.5149 73.3725 55.0368 73.4665 54.555 73.4577Z" fill="var(--fill-0, white)"/>
<path id="Vector_4" opacity="0.2" d="M11.0883 65.2573H54.0966L48.6567 4.04883H5.64844L11.0883 65.2573Z" fill="var(--fill-0, black)"/>
<path id="Vector_5" d="M12.9688 64.4196H55.9771L48.6567 4.04883H5.64844L12.9688 64.4196Z" fill="var(--fill-0, #407BFF)"/>
<path id="Vector_6" opacity="0.8" d="M12.9688 64.4196H55.9771L48.6567 4.04883H5.64844L12.9688 64.4196Z" fill="var(--fill-0, white)"/>
<path id="Vector_7" d="M46.0159 20.7565H19.1118C18.9606 20.7531 18.8159 20.6948 18.7045 20.5924C18.5932 20.4901 18.523 20.3507 18.507 20.2003C18.4991 20.1293 18.5064 20.0574 18.5284 19.9895C18.5504 19.9215 18.5866 19.859 18.6346 19.8061C18.6825 19.7531 18.7412 19.711 18.8067 19.6825C18.8722 19.654 18.943 19.6397 19.0145 19.6407H45.9186C46.0709 19.6433 46.2169 19.7017 46.3291 19.8049C46.4412 19.908 46.5116 20.0487 46.5268 20.2003C46.5342 20.2713 46.5265 20.3431 46.504 20.4109C46.4816 20.4787 46.445 20.5409 46.3967 20.5935C46.3484 20.6461 46.2895 20.6878 46.2238 20.7159C46.1582 20.744 46.0873 20.7578 46.0159 20.7565Z" fill="var(--fill-0, #263238)"/>
<path id="Vector_8" d="M45.18 23.9246H14.6435C14.4916 23.9219 14.3459 23.8633 14.2344 23.7601C14.1229 23.6569 14.0532 23.5162 14.0387 23.3649C14.0302 23.294 14.0371 23.222 14.0589 23.154C14.0807 23.0859 14.1169 23.0234 14.165 22.9706C14.2132 22.9178 14.2722 22.876 14.338 22.8481C14.4037 22.8202 14.4748 22.8068 14.5462 22.8088H45.0827C45.2343 22.8107 45.3799 22.8685 45.4915 22.9711C45.6032 23.0737 45.6729 23.214 45.6875 23.3649C45.696 23.4361 45.6891 23.5082 45.6673 23.5764C45.6455 23.6446 45.6094 23.7073 45.5613 23.7604C45.5131 23.8134 45.4542 23.8555 45.3885 23.8839C45.3227 23.9122 45.2516 23.9261 45.18 23.9246Z" fill="var(--fill-0, #263238)"/>
<path id="Vector_9" d="M46.5722 27.0866H14.92C14.768 27.0848 14.6219 27.0271 14.5097 26.9245C14.3975 26.822 14.327 26.6817 14.3117 26.5304C14.3038 26.4591 14.3111 26.387 14.3333 26.3188C14.3555 26.2505 14.392 26.1879 14.4404 26.1349C14.4888 26.0819 14.5479 26.0399 14.6138 26.0116C14.6797 25.9833 14.7509 25.9694 14.8227 25.9708H46.4749C46.6269 25.9735 46.7725 26.0321 46.884 26.1353C46.9956 26.2385 47.0652 26.3792 47.0797 26.5304C47.0883 26.6014 47.0814 26.6733 47.0596 26.7414C47.0378 26.8094 47.0016 26.872 46.9534 26.9248C46.9052 26.9776 46.8462 27.0193 46.7805 27.0473C46.7147 27.0752 46.6437 27.0886 46.5722 27.0866Z" fill="var(--fill-0, #263238)"/>
<path id="Vector_10" d="M42.9387 30.2545H15.1969C15.0446 30.2519 14.8986 30.1934 14.7864 30.0903C14.6743 29.9871 14.6039 29.8464 14.5886 29.6949C14.5813 29.6241 14.589 29.5526 14.6112 29.4851C14.6334 29.4176 14.6697 29.3555 14.7176 29.303C14.7656 29.2504 14.8241 29.2086 14.8893 29.1803C14.9545 29.152 15.025 29.1378 15.0961 29.1387H42.8449C42.9963 29.1413 43.1415 29.1994 43.2529 29.3019C43.3644 29.4044 43.4344 29.5442 43.4497 29.6949C43.4576 29.7662 43.4502 29.8383 43.4281 29.9065C43.4059 29.9748 43.3693 30.0374 43.321 30.0904C43.2726 30.1434 43.2135 30.1854 43.1476 30.2137C43.0816 30.242 43.0104 30.2559 42.9387 30.2545Z" fill="var(--fill-0, #263238)"/>
<path id="Vector_11" d="M47.1244 33.4181H20.2204C20.068 33.4155 19.922 33.3571 19.8099 33.2539C19.6977 33.1508 19.6274 33.0101 19.6121 32.8585C19.6047 32.7873 19.6125 32.7154 19.6349 32.6474C19.6573 32.5794 19.6938 32.517 19.7421 32.4641C19.7904 32.4113 19.8492 32.3692 19.9149 32.3408C19.9805 32.3123 20.0515 32.298 20.123 32.2989H47.0167C47.169 32.3015 47.3151 32.3599 47.4272 32.4631C47.5393 32.5662 47.6097 32.7069 47.625 32.8585C47.6328 32.9289 47.6257 33.0002 47.6041 33.0677C47.5825 33.1351 47.5469 33.1973 47.4997 33.2501C47.4525 33.3029 47.3946 33.3452 47.33 33.3741C47.2653 33.4031 47.1953 33.4181 47.1244 33.4181Z" fill="var(--fill-0, #263238)"/>
<path id="Vector_12" d="M46.0047 36.5827H15.7637C15.6119 36.5802 15.4663 36.5222 15.3543 36.4198C15.2422 36.3173 15.1715 36.1775 15.1554 36.0265C15.1475 35.9552 15.1549 35.8831 15.1771 35.8149C15.1993 35.7466 15.2358 35.6839 15.2842 35.631C15.3325 35.578 15.3916 35.536 15.4576 35.5077C15.5235 35.4794 15.5947 35.4655 15.6664 35.4669H45.9074C46.0597 35.4695 46.2058 35.528 46.3179 35.6311C46.43 35.7343 46.5004 35.875 46.5157 36.0265C46.5231 36.0976 46.5153 36.1693 46.4929 36.2371C46.4705 36.3049 46.4339 36.3672 46.3856 36.4198C46.3373 36.4723 46.2783 36.5141 46.2127 36.5422C46.147 36.5702 46.0761 36.5841 46.0047 36.5827Z" fill="var(--fill-0, #263238)"/>
<path id="Vector_13" d="M47.6764 39.7482H16.045C15.8926 39.7456 15.7466 39.6871 15.6345 39.584C15.5224 39.4809 15.452 39.3402 15.4367 39.1886C15.4288 39.1176 15.4361 39.0457 15.4581 38.9777C15.4801 38.9098 15.5163 38.8473 15.5643 38.7943C15.6122 38.7414 15.6709 38.6993 15.7364 38.6708C15.8019 38.6423 15.8727 38.628 15.9442 38.6289H47.5964C47.7488 38.6316 47.8948 38.69 48.0069 38.7932C48.1191 38.8963 48.1894 39.037 48.2047 39.1886C48.2129 39.2614 48.2051 39.3351 48.1819 39.4046C48.1587 39.4741 48.1207 39.5377 48.0704 39.5909C48.0201 39.6442 47.9588 39.6859 47.8907 39.713C47.8227 39.7402 47.7495 39.7522 47.6764 39.7482Z" fill="var(--fill-0, #263238)"/>
<path id="Vector_14" d="M45.7209 42.9128H16.3037C16.152 42.9109 16.0064 42.8531 15.8948 42.7505C15.7832 42.6478 15.7134 42.5076 15.6988 42.3566C15.6904 42.2855 15.6972 42.2134 15.719 42.1452C15.7408 42.077 15.777 42.0142 15.8251 41.9612C15.8732 41.9081 15.9321 41.866 15.9979 41.8377C16.0636 41.8094 16.1347 41.7955 16.2063 41.797H45.627C45.7793 41.7996 45.9254 41.858 46.0375 41.9612C46.1496 42.0643 46.22 42.205 46.2353 42.3566C46.2433 42.4281 46.2359 42.5004 46.2135 42.5687C46.191 42.637 46.1541 42.6996 46.1053 42.7524C46.0565 42.8052 45.9969 42.8468 45.9306 42.8745C45.8642 42.9022 45.7927 42.9152 45.7209 42.9128Z" fill="var(--fill-0, #263238)"/>
<g id="Group" opacity="0.3">
<path id="Vector_15" d="M46.0159 20.7565H19.1118C18.9606 20.7531 18.8159 20.6948 18.7045 20.5924C18.5932 20.4901 18.523 20.3507 18.507 20.2003C18.4991 20.1293 18.5064 20.0574 18.5284 19.9895C18.5504 19.9215 18.5866 19.859 18.6346 19.8061C18.6825 19.7531 18.7412 19.711 18.8067 19.6825C18.8722 19.654 18.943 19.6397 19.0145 19.6407H45.9186C46.0709 19.6433 46.2169 19.7017 46.3291 19.8049C46.4412 19.908 46.5116 20.0487 46.5268 20.2003C46.5342 20.2713 46.5265 20.3431 46.504 20.4109C46.4816 20.4787 46.445 20.5409 46.3967 20.5935C46.3484 20.6461 46.2895 20.6878 46.2238 20.7159C46.1582 20.744 46.0873 20.7578 46.0159 20.7565Z" fill="var(--fill-0, white)"/>
<path id="Vector_16" d="M45.18 23.9246H14.6435C14.4916 23.9219 14.3459 23.8633 14.2344 23.7601C14.1229 23.6569 14.0532 23.5162 14.0387 23.3649C14.0302 23.294 14.0371 23.222 14.0589 23.154C14.0807 23.0859 14.1169 23.0234 14.165 22.9706C14.2132 22.9178 14.2722 22.876 14.338 22.8481C14.4037 22.8202 14.4748 22.8068 14.5462 22.8088H45.0827C45.2343 22.8107 45.3799 22.8685 45.4915 22.9711C45.6032 23.0737 45.6729 23.214 45.6875 23.3649C45.696 23.4361 45.6891 23.5082 45.6673 23.5764C45.6455 23.6446 45.6094 23.7073 45.5613 23.7604C45.5131 23.8134 45.4542 23.8555 45.3885 23.8839C45.3227 23.9122 45.2516 23.9261 45.18 23.9246Z" fill="var(--fill-0, white)"/>
<path id="Vector_17" d="M46.5722 27.0846H14.92C14.768 27.0829 14.6219 27.0252 14.5097 26.9226C14.3975 26.82 14.327 26.6797 14.3117 26.5285C14.3038 26.4572 14.3111 26.385 14.3333 26.3168C14.3555 26.2486 14.392 26.1859 14.4404 26.1329C14.4888 26.0799 14.5479 26.0379 14.6138 26.0096C14.6797 25.9813 14.7509 25.9674 14.8227 25.9689H46.4749C46.6269 25.9716 46.7725 26.0301 46.884 26.1333C46.9956 26.2365 47.0652 26.3772 47.0797 26.5285C47.0883 26.5994 47.0814 26.6714 47.0596 26.7394C47.0378 26.8075 47.0016 26.87 46.9534 26.9228C46.9052 26.9756 46.8462 27.0174 46.7805 27.0453C46.7147 27.0732 46.6437 27.0866 46.5722 27.0846Z" fill="var(--fill-0, white)"/>
<path id="Vector_18" d="M42.9426 30.2545H15.2008C15.0485 30.2519 14.9025 30.1934 14.7903 30.0903C14.6782 29.9871 14.6078 29.8464 14.5926 29.6949C14.5852 29.6241 14.5929 29.5526 14.6151 29.4851C14.6373 29.4176 14.6736 29.3555 14.7215 29.303C14.7695 29.2504 14.828 29.2086 14.8932 29.1803C14.9585 29.152 15.0289 29.1378 15.1 29.1387H42.8488C43.0002 29.1413 43.1454 29.1994 43.2568 29.3019C43.3683 29.4044 43.4383 29.5442 43.4536 29.6949C43.4615 29.7662 43.4542 29.8383 43.432 29.9065C43.4098 29.9748 43.3733 30.0374 43.3249 30.0904C43.2765 30.1434 43.2174 30.1854 43.1515 30.2137C43.0856 30.242 43.0143 30.2559 42.9426 30.2545Z" fill="var(--fill-0, white)"/>
<path id="Vector_19" d="M47.1283 33.4181H20.2243C20.0719 33.4155 19.9259 33.3571 19.8138 33.2539C19.7016 33.1508 19.6313 33.0101 19.616 32.8585C19.6086 32.7873 19.6164 32.7154 19.6388 32.6474C19.6612 32.5794 19.6977 32.517 19.746 32.4641C19.7943 32.4113 19.8531 32.3692 19.9188 32.3408C19.9844 32.3123 20.0554 32.298 20.1269 32.2989H47.0206C47.1729 32.3015 47.319 32.3599 47.4311 32.4631C47.5432 32.5662 47.6136 32.7069 47.6289 32.8585C47.6367 32.9289 47.6296 33.0002 47.608 33.0677C47.5864 33.1351 47.5508 33.1973 47.5036 33.2501C47.4564 33.3029 47.3986 33.3452 47.3339 33.3741C47.2692 33.4031 47.1992 33.4181 47.1283 33.4181Z" fill="var(--fill-0, white)"/>
<path id="Vector_20" d="M46.0087 36.5846H15.7676C15.6158 36.5821 15.4702 36.5242 15.3582 36.4217C15.2462 36.3193 15.1754 36.1794 15.1593 36.0285C15.1514 35.9572 15.1588 35.885 15.181 35.8168C15.2032 35.7486 15.2397 35.6859 15.2881 35.6329C15.3364 35.58 15.3955 35.5379 15.4615 35.5096C15.5274 35.4813 15.5986 35.4674 15.6703 35.4689H45.9113C46.0636 35.4715 46.2097 35.5299 46.3218 35.6331C46.4339 35.7362 46.5043 35.8769 46.5196 36.0285C46.527 36.0995 46.5192 36.1713 46.4968 36.2391C46.4744 36.3069 46.4378 36.3691 46.3895 36.4217C46.3412 36.4743 46.2822 36.516 46.2166 36.5441C46.1509 36.5722 46.08 36.586 46.0087 36.5846Z" fill="var(--fill-0, white)"/>
<path id="Vector_21" d="M47.6764 39.7482H16.045C15.8926 39.7456 15.7466 39.6871 15.6345 39.584C15.5224 39.4809 15.452 39.3402 15.4367 39.1886C15.4288 39.1176 15.4361 39.0457 15.4581 38.9777C15.4801 38.9098 15.5163 38.8473 15.5643 38.7943C15.6122 38.7414 15.6709 38.6993 15.7364 38.6708C15.8019 38.6423 15.8727 38.628 15.9442 38.6289H47.5964C47.7488 38.6316 47.8948 38.69 48.0069 38.7932C48.1191 38.8963 48.1894 39.037 48.2047 39.1886C48.2129 39.2614 48.2051 39.3351 48.1819 39.4046C48.1587 39.4741 48.1207 39.5377 48.0704 39.5909C48.0201 39.6442 47.9588 39.6859 47.8907 39.713C47.8227 39.7402 47.7495 39.7522 47.6764 39.7482Z" fill="var(--fill-0, white)"/>
<path id="Vector_22" d="M45.7209 42.9128H16.3037C16.152 42.9109 16.0064 42.8531 15.8948 42.7505C15.7832 42.6478 15.7134 42.5076 15.6988 42.3566C15.6904 42.2855 15.6972 42.2134 15.719 42.1452C15.7408 42.077 15.777 42.0142 15.8251 41.9612C15.8732 41.9081 15.9321 41.866 15.9979 41.8377C16.0636 41.8094 16.1347 41.7955 16.2063 41.797H45.627C45.7793 41.7996 45.9254 41.858 46.0375 41.9612C46.1496 42.0643 46.22 42.205 46.2353 42.3566C46.2433 42.4281 46.2359 42.5004 46.2135 42.5687C46.191 42.637 46.1541 42.6996 46.1053 42.7524C46.0565 42.8052 45.9969 42.8468 45.9306 42.8745C45.8642 42.9022 45.7927 42.9152 45.7209 42.9128Z" fill="var(--fill-0, white)"/>
</g>
<path id="Vector_23" d="M47.2627 60.0416H37.8219C37.6701 60.0391 37.5245 59.9811 37.4125 59.8787C37.3004 59.7763 37.2297 59.6364 37.2136 59.4854C37.2063 59.4143 37.2141 59.3423 37.2365 59.2744C37.2589 59.2064 37.2954 59.1439 37.3437 59.0911C37.3919 59.0382 37.4508 58.9962 37.5164 58.9677C37.5821 58.9392 37.653 58.9249 37.7246 58.9258H47.1654C47.3177 58.9285 47.4638 58.9869 47.5759 59.09C47.688 59.1932 47.7584 59.3339 47.7737 59.4854C47.7811 59.5565 47.7733 59.6283 47.7508 59.6961C47.7284 59.7638 47.6918 59.8261 47.6435 59.8787C47.5952 59.9313 47.5363 59.973 47.4706 60.0011C47.405 60.0292 47.3341 60.043 47.2627 60.0416Z" fill="var(--fill-0, #263238)"/>
<path id="Vector_24" d="M37.1376 58.1125C37.1187 58.0901 37.1044 58.0641 37.0958 58.0361C37.0871 58.0081 37.0841 57.9786 37.087 57.9494C37.0899 57.9203 37.0987 57.892 37.1127 57.8663C37.1268 57.8405 37.1459 57.8179 37.1689 57.7997C37.8363 57.3095 38.5593 56.7325 39.2545 56.1555C39.4676 55.0013 40.025 53.9386 40.8534 53.1071C41.3957 52.6378 41.7989 52.6934 42.0422 52.8255C42.1226 52.8658 42.192 52.9252 42.2441 52.9985C42.2962 53.0719 42.3296 53.1569 42.3411 53.2461C42.428 53.9413 41.0446 55.2761 39.682 56.4232C39.6545 56.611 39.6711 56.8026 39.7307 56.9828C39.7566 57.0528 39.8045 57.1126 39.8671 57.1533C39.9297 57.1939 40.0037 57.2134 40.0783 57.2087C40.843 57.2574 41.2601 56.8611 41.6598 56.4649C42.1152 56.0234 42.581 55.5715 43.4361 55.9887C44.1869 56.3606 44.2042 56.7325 44.1625 57.0523C44.156 57.0891 44.156 57.1268 44.1625 57.1635C44.3741 57.2658 44.6054 57.3204 44.8404 57.3234C45.2895 57.3741 45.7435 57.2885 46.1433 57.0778C46.5432 56.867 46.8704 56.5408 47.0824 56.1416C47.1117 56.0955 47.1578 56.0625 47.2109 56.0496C47.264 56.0366 47.3201 56.0447 47.3674 56.0721C47.3964 56.0854 47.4224 56.1045 47.4439 56.1282C47.4653 56.1519 47.4817 56.1797 47.4921 56.2099C47.5025 56.2401 47.5067 56.2722 47.5044 56.304C47.502 56.3359 47.4933 56.367 47.4786 56.3954C47.2275 56.8676 46.8396 57.253 46.3657 57.5011C45.8919 57.7492 45.3541 57.8484 44.823 57.7857C44.239 57.7128 43.9575 57.6119 43.808 57.4382C43.7605 57.3728 43.7278 57.2979 43.7122 57.2187C43.6966 57.1395 43.6985 57.0578 43.7176 56.9793C43.7419 56.7986 43.7593 56.6595 43.2692 56.4162C42.7791 56.1729 42.4628 56.3745 42.0005 56.8264C41.5382 57.2783 41.0515 57.7475 40.0956 57.6849C39.9292 57.6804 39.7679 57.6264 39.6324 57.5298C39.4968 57.4333 39.3931 57.2985 39.3344 57.1427C39.2919 57.0383 39.265 56.9282 39.2545 56.8159C38.5245 57.4103 37.8641 57.9178 37.4678 58.2063C37.44 58.2223 37.4094 58.2325 37.3776 58.2363C37.3459 58.2402 37.3137 58.2377 37.2829 58.229C37.2521 58.2202 37.2234 58.2054 37.1985 58.1854C37.1735 58.1654 37.1528 58.1406 37.1376 58.1125ZM41.7259 53.1836C41.519 53.2137 41.3276 53.31 41.1801 53.4582C40.5721 54.0675 40.1212 54.8154 39.8662 55.6376C41.0411 54.5948 41.9518 53.6528 41.8997 53.26C41.8997 53.2426 41.8997 53.2322 41.8649 53.2148C41.822 53.1927 41.7741 53.1819 41.7259 53.1836Z" fill="var(--fill-0, #263238)"/>
<g id="Group_2" opacity="0.3">
<path id="Vector_25" d="M47.2666 60.0397H37.8258C37.674 60.0371 37.5284 59.9792 37.4164 59.8767C37.3043 59.7743 37.2336 59.6344 37.2175 59.4835C37.2102 59.4123 37.218 59.3404 37.2404 59.2724C37.2628 59.2044 37.2993 59.142 37.3476 59.0891C37.3958 59.0363 37.4547 58.9942 37.5204 58.9658C37.586 58.9373 37.6569 58.923 37.7285 58.9239H47.1693C47.3216 58.9265 47.4677 58.9849 47.5798 59.0881C47.6919 59.1912 47.7623 59.3319 47.7776 59.4835C47.785 59.5545 47.7772 59.6263 47.7548 59.6941C47.7323 59.7619 47.6957 59.8241 47.6474 59.8767C47.5991 59.9293 47.5402 59.971 47.4745 59.9991C47.4089 60.0272 47.338 60.041 47.2666 60.0397Z" fill="var(--fill-0, white)"/>
<path id="Vector_26" d="M37.1374 58.1126C37.1185 58.0902 37.1043 58.0642 37.0956 58.0362C37.0869 58.0082 37.0839 57.9787 37.0869 57.9495C37.0898 57.9204 37.0985 57.8921 37.1126 57.8663C37.1266 57.8406 37.1457 57.818 37.1687 57.7997C37.8361 57.3096 38.5591 56.7326 39.2543 56.1556C39.4674 55.0014 40.0248 53.9387 40.8532 53.1072C41.3955 52.6379 41.7987 52.6935 42.042 52.8256C42.1225 52.8659 42.1918 52.9253 42.244 52.9986C42.2961 53.0719 42.3294 53.157 42.341 53.2462C42.4279 53.9414 41.0444 55.2762 39.6818 56.4232C39.6543 56.611 39.671 56.8027 39.7305 56.9829C39.7565 57.0529 39.8043 57.1126 39.8669 57.1533C39.9295 57.194 40.0036 57.2135 40.0781 57.2088C40.8428 57.2575 41.2599 56.8612 41.6597 56.465C42.115 56.0235 42.5808 55.5716 43.4359 55.9887C44.1867 56.3607 44.2041 56.7326 44.1624 57.0524C44.1559 57.0892 44.1559 57.1268 44.1624 57.1636C44.3739 57.2659 44.6053 57.3204 44.8402 57.3235C45.2893 57.3742 45.7433 57.2886 46.1432 57.0779C46.543 56.8671 46.8702 56.5409 47.0822 56.1417C47.1116 56.0956 47.1576 56.0626 47.2107 56.0497C47.2639 56.0367 47.3199 56.0448 47.3672 56.0722C47.3963 56.0855 47.4223 56.1046 47.4437 56.1283C47.4652 56.152 47.4816 56.1798 47.492 56.21C47.5024 56.2402 47.5065 56.2722 47.5042 56.3041C47.5019 56.336 47.4931 56.367 47.4785 56.3954C47.2273 56.8677 46.8394 57.2531 46.3656 57.5011C45.8917 57.7492 45.354 57.8485 44.8228 57.7858C44.2388 57.7128 43.9573 57.612 43.8078 57.4382C43.7603 57.3729 43.7277 57.298 43.7121 57.2188C43.6965 57.1395 43.6983 57.0579 43.7174 56.9794C43.7418 56.7986 43.7592 56.6596 43.269 56.4163C42.7789 56.173 42.4626 56.3746 42.0003 56.8265C41.538 57.2783 41.0514 57.7476 40.0955 57.685C39.9291 57.6805 39.7678 57.6265 39.6322 57.5299C39.4966 57.4333 39.3929 57.2986 39.3342 57.1428C39.2918 57.0383 39.2648 56.9283 39.2543 56.816C38.5243 57.4104 37.8639 57.9179 37.4676 58.2064C37.4399 58.2223 37.4092 58.2325 37.3775 58.2364C37.3457 58.2403 37.3135 58.2378 37.2828 58.2291C37.252 58.2203 37.2233 58.2055 37.1983 58.1855C37.1734 58.1655 37.1526 58.1407 37.1374 58.1126ZM41.7257 53.1836C41.5189 53.2137 41.3274 53.3101 41.18 53.4582C40.572 54.0676 40.1211 54.8155 39.8661 55.6377C41.0409 54.5949 41.9516 53.6529 41.8995 53.2601C41.8995 53.2427 41.8995 53.2323 41.8647 53.2149C41.8219 53.1927 41.774 53.182 41.7257 53.1836Z" fill="var(--fill-0, white)"/>
</g>
<path id="Vector_27" d="M18.8186 0.000281128H22.1868L22.7325 6.14581H19.3643C18.8041 6.13595 18.2669 5.9211 17.8544 5.5419C17.4419 5.1627 17.1826 4.64546 17.1258 4.08803L16.945 2.05806C16.9158 1.79634 16.9428 1.5314 17.024 1.28091C17.1053 1.03042 17.2391 0.80013 17.4163 0.605403C17.5936 0.410676 17.8104 0.255984 18.0522 0.151639C18.294 0.0472944 18.5553 -0.00430622 18.8186 0.000281128Z" fill="var(--fill-0, #263238)"/>
<path id="Vector_28" d="M33.8086 6.14573H20.2002C19.5729 6.13452 18.9715 5.89381 18.5096 5.46915C18.0478 5.04448 17.7577 4.46531 17.694 3.84116L17.5584 2.30478C17.5274 2.0116 17.559 1.71518 17.6509 1.43508C17.7429 1.15498 17.8932 0.897552 18.0919 0.679782C18.2906 0.462012 18.5332 0.288846 18.8038 0.171706C19.0743 0.0545654 19.3666 -0.00388872 19.6614 0.000200673H33.2733C33.9006 0.0114147 34.502 0.252118 34.9639 0.676782C35.4257 1.10145 35.7159 1.68063 35.7795 2.30478L35.9151 3.84116C35.9461 4.13463 35.9145 4.43135 35.8223 4.7117C35.7302 4.99205 35.5796 5.24964 35.3805 5.46747C35.1814 5.6853 34.9383 5.85839 34.6673 5.97531C34.3964 6.09223 34.1037 6.15032 33.8086 6.14573Z" fill="var(--fill-0, #263238)"/>
<path id="Vector_29" opacity="0.5" d="M33.8086 6.14573H20.2002C19.5729 6.13452 18.9715 5.89381 18.5096 5.46915C18.0478 5.04448 17.7577 4.46531 17.694 3.84116L17.5584 2.30478C17.5274 2.0116 17.559 1.71518 17.6509 1.43508C17.7429 1.15498 17.8932 0.897552 18.0919 0.679782C18.2906 0.462012 18.5332 0.288846 18.8038 0.171706C19.0743 0.0545654 19.3666 -0.00388872 19.6614 0.000200673H33.2733C33.9006 0.0114147 34.502 0.252118 34.9639 0.676782C35.4257 1.10145 35.7159 1.68063 35.7795 2.30478L35.9151 3.84116C35.9461 4.13463 35.9145 4.43135 35.8223 4.7117C35.7302 4.99205 35.5796 5.24964 35.3805 5.46747C35.1814 5.6853 34.9383 5.85839 34.6673 5.97531C34.3964 6.09223 34.1037 6.15032 33.8086 6.14573Z" fill="var(--fill-0, white)"/>
<path id="Vector_30" d="M33.7011 3.72015C33.7101 3.79702 33.7025 3.87492 33.6788 3.9486C33.6552 4.02229 33.616 4.09006 33.564 4.14735C33.5119 4.20464 33.4482 4.25014 33.3772 4.28078C33.3061 4.31141 33.2293 4.32648 33.1519 4.32497C32.9869 4.32245 32.8285 4.25949 32.7068 4.14802C32.5851 4.03655 32.5085 3.88432 32.4915 3.72015C32.4831 3.64309 32.4912 3.56513 32.5153 3.49144C32.5394 3.41776 32.5789 3.35005 32.6311 3.29283C32.6834 3.23561 32.7473 3.19018 32.8185 3.15957C32.8898 3.12897 32.9667 3.11388 33.0442 3.11533C33.2088 3.11794 33.3668 3.18102 33.4879 3.29255C33.6091 3.40409 33.685 3.55628 33.7011 3.72015Z" fill="var(--fill-0, #263238)"/>
<path id="Vector_31" d="M21.0918 3.72015C21.1007 3.79702 21.0931 3.87492 21.0694 3.9486C21.0458 4.02229 21.0066 4.09006 20.9546 4.14735C20.9026 4.20464 20.8389 4.25014 20.7678 4.28078C20.6967 4.31141 20.6199 4.32648 20.5426 4.32497C20.3775 4.32245 20.2192 4.25949 20.0975 4.14802C19.9757 4.03655 19.8991 3.88432 19.8821 3.72015C19.8737 3.64309 19.8818 3.56513 19.9059 3.49144C19.93 3.41776 19.9695 3.35005 20.0218 3.29283C20.0741 3.23561 20.1379 3.19018 20.2092 3.15957C20.2804 3.12897 20.3573 3.11388 20.4348 3.11533C20.5995 3.11794 20.7574 3.18102 20.8785 3.29255C20.9997 3.40409 21.0756 3.55628 21.0918 3.72015Z" fill="var(--fill-0, #263238)"/>
</g>
</svg>
