<svg preserveAspectRatio="none" width="100%" height="100%" overflow="visible" style="display: block;" viewBox="0 0 20.1381 23.3494" fill="none" xmlns="http://www.w3.org/2000/svg">
<g id="freepik--Backpack--inject-2">
<path id="Vector" d="M14.5195 4.14453C14.5195 4.14453 17.3861 6.28704 18.4093 11.1114C19.4325 15.9357 23.2927 26.5965 14.5195 22.3854L14.7486 21.388C14.7486 21.388 17.5449 23.7743 18.5644 22.1674C19.584 20.5605 19.0557 11.9388 14.9369 7.35829L14.5195 4.14453Z" fill="var(--fill-0, #263238)"/>
<path id="Vector_2" d="M8.61328 2.14968C8.61328 2.14968 9.65129 0.0515019 11.1991 0.00348029C12.7468 -0.0445413 13.2714 0.395039 13.1716 1.90587L12.4809 1.9539C12.4809 1.9539 13.1827 0.690559 11.5167 0.638844C11.0454 0.630061 10.5835 0.771823 10.1982 1.04353C9.81286 1.31523 9.52424 1.70271 9.37424 2.14968H8.61328Z" fill="var(--fill-0, #263238)"/>
<path id="Vector_3" d="M0.254573 23.2048C0.254573 23.2048 -1.09372 14.8601 2.41555 12.3297C2.41555 12.3297 1.85776 10.5788 4.68365 4.82725C5.85463 2.44095 6.84831 1.78343 7.8346 1.7391L14.6758 1.45835C15.0229 1.44323 15.3631 1.55836 15.6296 1.78116C15.8962 2.00396 16.0698 2.31834 16.1165 2.66259C16.5967 6.23097 17.7566 16.5741 16.1497 23.2048H0.254573Z" fill="var(--fill-0, #263238)"/>
<path id="Vector_4" opacity="0.1" d="M0.254573 23.2048C0.254573 23.2048 -1.09372 14.8601 2.41555 12.3297C2.41555 12.3297 1.85776 10.5788 4.68365 4.82725C5.85463 2.44095 6.84831 1.78343 7.8346 1.7391L14.6758 1.45835C15.0229 1.44323 15.3631 1.55836 15.6296 1.78116C15.8962 2.00396 16.0698 2.31834 16.1165 2.66259C16.5967 6.23097 17.7566 16.5741 16.1497 23.2048H0.254573Z" fill="var(--fill-0, white)"/>
<path id="Vector_5" d="M11.246 10.5807C11.4038 10.5868 11.5609 10.5566 11.7052 10.4923C11.8495 10.4281 11.977 10.3315 12.0781 10.2102C12.1791 10.0888 12.2509 9.94583 12.2879 9.7923C12.3249 9.63878 12.3261 9.47881 12.2914 9.32474C11.9738 7.96536 11.0872 5.978 8.61594 5.60861C5.95998 5.20966 4.28291 7.61074 3.50348 9.11788C3.43899 9.24157 3.40697 9.3796 3.41041 9.51905C3.41385 9.6585 3.45265 9.79479 3.52316 9.91515C3.59368 10.0355 3.6936 10.136 3.81356 10.2072C3.93353 10.2783 4.0696 10.3179 4.20903 10.3221L11.246 10.5807Z" fill="var(--fill-0, #263238)"/>
<path id="Vector_6" d="M1.37227 14.4261C1.54589 13.824 10.3856 14.1823 10.9766 14.4261C11.5676 14.6699 10.8547 20.8056 10.3302 21.3892C9.80561 21.9729 1.18388 21.585 0.526355 21.3892C-0.131172 21.1934 -0.0388224 19.3428 1.37227 14.4261Z" fill="var(--fill-0, #263238)"/>
<path id="Vector_7" opacity="0.2" d="M11.246 10.5807C11.4038 10.5868 11.5609 10.5566 11.7052 10.4923C11.8495 10.4281 11.977 10.3315 12.0781 10.2102C12.1791 10.0888 12.2509 9.94583 12.2879 9.7923C12.3249 9.63878 12.3261 9.47881 12.2914 9.32474C11.9738 7.96536 11.0872 5.978 8.61594 5.60861C5.95998 5.20966 4.28291 7.61074 3.50348 9.11788C3.43899 9.24157 3.40697 9.3796 3.41041 9.51905C3.41385 9.6585 3.45265 9.79479 3.52316 9.91515C3.59368 10.0355 3.6936 10.136 3.81356 10.2072C3.93353 10.2783 4.0696 10.3179 4.20903 10.3221L11.246 10.5807Z" fill="var(--fill-0, white)"/>
<path id="Vector_8" opacity="0.2" d="M1.37227 14.4261C1.54589 13.824 10.3856 14.1823 10.9766 14.4261C11.5676 14.6699 10.8547 20.8056 10.3302 21.3892C9.80561 21.9729 1.18388 21.585 0.526355 21.3892C-0.131172 21.1934 -0.0388224 19.3428 1.37227 14.4261Z" fill="var(--fill-0, white)"/>
<path id="Vector_9" d="M15.5461 16.6531H15.5239C15.4754 16.6466 15.4315 16.6212 15.4017 16.5825C15.372 16.5437 15.3588 16.4947 15.3651 16.4462C15.8379 12.8852 15.0843 4.22656 14.9292 3.60597C14.8847 3.33383 14.7453 3.08624 14.5357 2.90706C14.3261 2.72788 14.0598 2.62869 13.784 2.62707C13.0231 2.57905 6.93911 2.62707 6.88001 2.62707C6.83132 2.62612 6.78489 2.60635 6.75046 2.57192C6.71602 2.53749 6.69626 2.49106 6.69531 2.44237C6.69531 2.39338 6.71477 2.34641 6.74941 2.31177C6.78405 2.27713 6.83103 2.25767 6.88001 2.25767C7.1312 2.25767 13.0342 2.20965 13.8099 2.25767C14.1629 2.26754 14.502 2.39786 14.7708 2.62699C15.0396 2.85612 15.2219 3.17028 15.2875 3.51732C15.4352 4.10466 16.2295 12.7522 15.7308 16.4942C15.7245 16.5386 15.7023 16.5792 15.6683 16.6084C15.6343 16.6376 15.5909 16.6535 15.5461 16.6531Z" fill="var(--fill-0, #263238)"/>
<path id="Vector_10" d="M9.96233 15.7798H9.9254C7.79767 15.3513 1.66937 15.5877 1.60657 15.5877C1.55759 15.5877 1.51061 15.5682 1.47597 15.5336C1.44133 15.499 1.42188 15.452 1.42188 15.403C1.42188 15.354 1.44133 15.307 1.47597 15.2724C1.51061 15.2378 1.55759 15.2183 1.60657 15.2183C1.85776 15.2183 7.8383 14.9819 10.0104 15.4178C10.0579 15.4284 10.0994 15.4571 10.1263 15.4977C10.1532 15.5384 10.1632 15.5878 10.1544 15.6357C10.1448 15.6787 10.1202 15.7168 10.085 15.7432C10.0498 15.7696 10.0063 15.7826 9.96233 15.7798Z" fill="var(--fill-0, #263238)"/>
<path id="Vector_11" d="M11.6981 9.24912C11.6584 9.24996 11.6196 9.23776 11.5876 9.21441C11.5556 9.19105 11.5321 9.15782 11.5208 9.11982C11.1144 7.87496 10.1023 5.79525 7.8785 5.98365C5.59932 6.16835 4.62042 8.647 4.60934 8.67286C4.58933 8.71496 4.55415 8.74794 4.51084 8.76518C4.46753 8.78243 4.41931 8.78266 4.37584 8.76584C4.33236 8.74901 4.29687 8.71637 4.27646 8.67446C4.25605 8.63255 4.25224 8.58448 4.2658 8.53988C4.31012 8.42906 5.34074 5.81742 7.84895 5.61795C10.3572 5.41847 11.4321 7.65702 11.8717 9.00901C11.8868 9.05555 11.8829 9.10619 11.8607 9.14982C11.8386 9.19346 11.8 9.22652 11.7535 9.24173L11.6981 9.24912Z" fill="var(--fill-0, #263238)"/>
</g>
</svg>
