<svg preserveAspectRatio="none" width="100%" height="100%" overflow="visible" style="display: block;" viewBox="0 0 16.3621 6.32652" fill="none" xmlns="http://www.w3.org/2000/svg">
<g id="freepik--Stamp--inject-2">
<path id="Vector" d="M2.62633 6.32652C2.03603 6.31417 1.46761 6.10074 1.01507 5.72151C0.562527 5.34229 0.25295 4.81997 0.137526 4.24093L0.0540951 3.79253C-0.0131591 3.50258 -0.0175636 3.20159 0.0411642 2.9098C0.0998919 2.618 0.220399 2.34215 0.394586 2.10079C0.568772 1.85943 0.792597 1.65815 1.05103 1.51048C1.30946 1.36281 1.59652 1.27216 1.89289 1.24464L13.5061 0.0106667C14.1284 -0.0470919 14.7493 0.132996 15.2441 0.514683C15.754 0.895162 16.1045 1.4513 16.2278 2.0754L16.3147 2.5238C16.3767 2.81636 16.3779 3.11855 16.3181 3.41157C16.2583 3.70459 16.1388 3.98216 15.9671 4.22703C15.793 4.46499 15.5703 4.66332 15.3139 4.80892C15.0574 4.95452 14.773 5.04408 14.4794 5.07169L2.86964 6.30566C2.78969 6.32304 2.70628 6.32652 2.62633 6.32652ZM13.7877 0.417356C13.7205 0.413892 13.6532 0.413892 13.5861 0.417356L1.97284 1.65133C1.73175 1.67382 1.49822 1.74746 1.28783 1.86734C1.07744 1.98722 0.895032 2.15058 0.75277 2.34652C0.611826 2.54607 0.513469 2.77249 0.463834 3.0117C0.414199 3.2509 0.414353 3.49776 0.464269 3.73691L0.547689 4.18184C0.651121 4.6889 0.93584 5.14088 1.34854 5.45312C1.76124 5.76537 2.27361 5.91646 2.7897 5.87812L14.3995 4.64415C14.6408 4.62254 14.8746 4.54928 15.0852 4.42933C15.2957 4.30938 15.4779 4.14554 15.6195 3.94895C15.7607 3.74948 15.8594 3.52317 15.9097 3.28402C15.9599 3.04487 15.9605 2.79796 15.9115 2.55856L15.8281 2.11364C15.7252 1.60097 15.4368 1.14427 15.0182 0.830998C14.6609 0.571173 14.2294 0.433431 13.7877 0.438211V0.417356Z" fill="var(--fill-0, #407BFF)"/>
<path id="Vector_2" d="M2.64065 4.18838L1.75775 4.28223L1.65695 4.72021L1.41016 4.74454L1.84117 2.98917L2.07754 2.96484L3.15509 4.56032L2.90482 4.58812L2.64065 4.18838ZM2.52246 4.00416L2.00455 3.22206L1.80293 4.08063L2.52246 4.00416Z" fill="var(--fill-0, #407BFF)"/>
<path id="Vector_3" d="M4.26344 2.88836C4.33478 2.93362 4.39558 2.99366 4.44175 3.06441C4.48792 3.13517 4.51838 3.21501 4.53108 3.29854C4.55085 3.37617 4.5517 3.45741 4.53355 3.53543C4.51541 3.61346 4.4788 3.68599 4.42681 3.74693C4.2998 3.87366 4.12986 3.94809 3.9506 3.95549L3.54043 3.9972L3.63775 4.5047L3.40139 4.53251L3.07812 2.85361L3.72465 2.78757C3.9105 2.75782 4.10091 2.79344 4.26344 2.88836ZM4.22867 3.61485C4.26074 3.57418 4.28331 3.52685 4.29474 3.47634C4.30617 3.42582 4.30616 3.37338 4.29472 3.32286C4.2863 3.2685 4.26646 3.21655 4.2365 3.17042C4.20654 3.12428 4.16715 3.08502 4.12092 3.05522C4.01445 2.99858 3.89253 2.97785 3.77332 2.99612L3.37011 3.03784L3.51262 3.78865L3.91584 3.74693C4.02854 3.73782 4.13497 3.69134 4.21825 3.61485H4.22867Z" fill="var(--fill-0, #407BFF)"/>
<path id="Vector_4" d="M5.95875 2.70673C6.02979 2.75233 6.09037 2.81246 6.1365 2.88315C6.18263 2.95385 6.21327 3.03351 6.22639 3.1169C6.24616 3.19453 6.24701 3.27577 6.22887 3.3538C6.21072 3.43183 6.17411 3.50436 6.12212 3.5653C5.99633 3.69379 5.82565 3.76854 5.64591 3.77386L5.23575 3.81905L5.33308 4.32654L5.0967 4.35088L4.77344 2.67545L5.41998 2.60593C5.60582 2.57618 5.79623 2.61181 5.95875 2.70673ZM5.92399 3.43321C5.95605 3.39254 5.97862 3.34521 5.99005 3.29469C6.00148 3.24418 6.00147 3.19175 5.99003 3.14123C5.98158 3.08735 5.9617 3.0359 5.93172 2.99033C5.90174 2.94477 5.86237 2.90614 5.81623 2.87705C5.71016 2.81922 5.58822 2.79728 5.46863 2.81449L5.06542 2.8562L5.20793 3.61049L5.61115 3.5653C5.72642 3.55828 5.83572 3.51161 5.92052 3.43321H5.92399Z" fill="var(--fill-0, #407BFF)"/>
<path id="Vector_5" d="M7.88523 4.0575L7.42987 3.56738L7.3256 3.58476L6.91543 3.62995L7.01275 4.13745L6.77639 4.16525L6.45312 2.48635L7.09965 2.41683C7.28587 2.38984 7.47574 2.42659 7.63844 2.52111C7.70938 2.566 7.76993 2.62548 7.81608 2.69561C7.86224 2.76573 7.89292 2.84489 7.90608 2.9278C7.93372 3.04399 7.92274 3.16602 7.8748 3.2754C7.82618 3.37661 7.74383 3.45773 7.6419 3.50482L8.14592 4.02621L7.88523 4.0575ZM7.60367 3.25802C7.63574 3.21734 7.65831 3.17002 7.66974 3.1195C7.68117 3.06898 7.68116 3.01655 7.66972 2.96603C7.6613 2.91168 7.64146 2.85972 7.6115 2.81359C7.58154 2.76746 7.54215 2.72819 7.49592 2.69839C7.38945 2.64175 7.26753 2.62102 7.14832 2.63929L6.74511 2.68101L6.88762 3.43529L7.29431 3.39358C7.41002 3.3856 7.51937 3.33768 7.60367 3.25802Z" fill="var(--fill-0, #407BFF)"/>
<path id="Vector_6" d="M8.78307 3.86724C8.63642 3.80947 8.50713 3.7149 8.40765 3.59265C8.30685 3.47029 8.2387 3.3244 8.20953 3.16858C8.17734 3.018 8.18818 2.8614 8.24081 2.7167C8.28742 2.57643 8.37752 2.45468 8.49803 2.3691C8.62483 2.27823 8.77367 2.22301 8.92905 2.20921C9.08825 2.19113 9.24944 2.21351 9.39769 2.27427C9.54595 2.33503 9.67647 2.4322 9.77719 2.5568C9.87878 2.67998 9.94701 2.82721 9.97532 2.98435C10.0075 3.13493 9.99667 3.29152 9.94404 3.43623C9.89743 3.57649 9.80733 3.69825 9.68682 3.78382C9.56106 3.87364 9.4133 3.9277 9.25927 3.94025C9.09687 3.95859 8.93251 3.93339 8.78307 3.86724ZM9.5304 3.5996C9.61655 3.53608 9.68091 3.44743 9.71462 3.34585C9.75452 3.23433 9.76175 3.11374 9.73548 2.99825C9.71502 2.88091 9.66475 2.77079 9.58949 2.67847C9.51572 2.58908 9.42154 2.51875 9.31489 2.47338C9.20578 2.42524 9.08543 2.4084 8.96729 2.42472C8.85273 2.4331 8.74296 2.4741 8.65098 2.5429C8.56493 2.60729 8.49966 2.69552 8.46327 2.79665C8.42338 2.90817 8.41614 3.02876 8.44242 3.14424C8.46496 3.26093 8.51501 3.37057 8.58841 3.46404C8.66345 3.55357 8.75878 3.62388 8.86649 3.66912C8.97628 3.71481 9.09596 3.73156 9.21408 3.71778C9.3284 3.7083 9.43787 3.6674 9.5304 3.5996Z" fill="var(--fill-0, #407BFF)"/>
<path id="Vector_7" d="M11.566 1.95117L11.1698 3.70654L10.9334 3.73088L9.89062 2.13192L10.1478 2.10412L11.0099 3.41803L11.3575 1.9755L11.566 1.95117Z" fill="var(--fill-0, #407BFF)"/>
<path id="Vector_8" d="M13.2568 3.27002L13.2951 3.47859L12.0889 3.60719L11.7656 1.93178L12.9405 1.80664L12.9787 2.0152L12.0437 2.116L12.1445 2.63045L12.9753 2.54007L13.017 2.74516L12.1827 2.83206L12.287 3.37431L13.2568 3.27002Z" fill="var(--fill-0, #407BFF)"/>
<path id="Vector_9" d="M13.3672 1.76198L14.0624 1.68898C14.2279 1.66963 14.3956 1.68866 14.5525 1.7446C14.6971 1.79757 14.8253 1.88745 14.9244 2.00529C15.0266 2.12813 15.0948 2.27551 15.1226 2.43284C15.1541 2.58207 15.1445 2.73706 15.0947 2.88124C15.0472 3.02199 14.9559 3.1438 14.8341 3.22884C14.7001 3.31719 14.5457 3.36984 14.3856 3.38178L13.6905 3.45826L13.3672 1.76198ZM14.337 3.15237C14.4611 3.14354 14.5808 3.10283 14.6846 3.03419C14.7743 2.97496 14.8425 2.88843 14.8792 2.78739C14.9182 2.67569 14.9254 2.55536 14.9001 2.43979C14.8799 2.32171 14.8282 2.21125 14.7506 2.12C14.6776 2.02998 14.5815 1.9615 14.4725 1.92187C14.3546 1.87954 14.2285 1.86525 14.1041 1.88016L13.6557 1.92882L13.899 3.18713L14.337 3.15237Z" fill="var(--fill-0, #407BFF)"/>
</g>
</svg>
