<svg preserveAspectRatio="none" width="100%" height="100%" overflow="visible" style="display: block;" viewBox="0 0 118.462 60.8014" fill="none" xmlns="http://www.w3.org/2000/svg">
<g id="freepik--Car--inject-2">
<path id="Vector" d="M117.551 49.3689H53.293V29.3398H109.934L115.22 33.636C115.951 34.229 116.539 34.978 116.943 35.8282C117.346 36.6784 117.554 37.6081 117.551 38.5491V49.3689Z" fill="var(--fill-0, #407BFF)"/>
<path id="Vector_2" opacity="0.5" d="M117.551 49.3689H53.293V29.3398H109.934L115.22 33.636C115.951 34.229 116.539 34.978 116.943 35.8282C117.346 36.6784 117.554 37.6081 117.551 38.5491V49.3689Z" fill="var(--fill-0, black)"/>
<path id="Vector_3" d="M52.9247 47.5619C52.9247 40.2514 56.2493 34.3262 60.3128 34.3262H52.474C48.3847 34.3262 45.0859 40.2366 45.0859 47.5619C45.0859 54.8872 48.4106 60.8014 52.474 60.8014H60.3276C56.2309 60.8014 52.9247 54.8724 52.9247 47.5619Z" fill="var(--fill-0, #263238)"/>
<path id="Vector_4" d="M60.3286 60.7977C64.4171 60.7977 67.7315 54.8718 67.7315 47.5619C67.7315 40.252 64.4171 34.3262 60.3286 34.3262C56.2402 34.3262 52.9258 40.252 52.9258 47.5619C52.9258 54.8718 56.2402 60.7977 60.3286 60.7977Z" fill="var(--fill-0, #263238)"/>
<path id="Vector_5" d="M60.9211 57.8865C63.8202 57.8865 66.1703 53.2655 66.1703 47.5653C66.1703 41.8651 63.8202 37.2441 60.9211 37.2441C58.022 37.2441 55.6719 41.8651 55.6719 47.5653C55.6719 53.2655 58.022 57.8865 60.9211 57.8865Z" fill="var(--fill-0, white)"/>
<path id="Vector_6" d="M10.2567 47.5619C10.2567 40.2514 13.5814 34.3262 17.6448 34.3262H9.80606C5.71675 34.3262 2.41797 40.2366 2.41797 47.5619C2.41797 54.8872 5.74261 60.8014 9.80606 60.8014H17.6596C13.5703 60.8014 10.2567 54.8724 10.2567 47.5619Z" fill="var(--fill-0, #263238)"/>
<path id="Vector_7" d="M17.6607 60.7977C21.7492 60.7977 25.0635 54.8718 25.0635 47.5619C25.0635 40.252 21.7492 34.3262 17.6607 34.3262C13.5722 34.3262 10.2578 40.252 10.2578 47.5619C10.2578 54.8718 13.5722 60.7977 17.6607 60.7977Z" fill="var(--fill-0, #263238)"/>
<path id="Vector_8" d="M103.655 47.5618C103.655 40.2513 106.98 34.3261 111.043 34.3261H103.204C99.1189 34.3261 95.8164 40.2366 95.8164 47.5618C95.8164 54.8871 99.141 60.8013 103.204 60.8013H111.058C106.972 60.8013 103.655 54.8724 103.655 47.5618Z" fill="var(--fill-0, #263238)"/>
<path id="Vector_9" d="M111.059 60.7977C115.148 60.7977 118.462 54.8718 118.462 47.5619C118.462 40.252 115.148 34.3262 111.059 34.3262C106.971 34.3262 103.656 40.252 103.656 47.5619C103.656 54.8718 106.971 60.7977 111.059 60.7977Z" fill="var(--fill-0, #263238)"/>
<path id="Vector_10" d="M111.659 57.8865C114.558 57.8865 116.909 53.2655 116.909 47.5653C116.909 41.8651 114.558 37.2441 111.659 37.2441C108.76 37.2441 106.41 41.8651 106.41 47.5653C106.41 53.2655 108.76 57.8865 111.659 57.8865Z" fill="var(--fill-0, white)"/>
<path id="Vector_11" d="M44.1771 51.2573H34.6797L34.1478 50.7402C33.6014 50.1926 32.86 49.8843 32.0865 49.8831H8.3486C7.57508 49.8843 6.83369 50.1926 6.28733 50.7402L5.96225 51.0615H5.09785C4.42622 51.0615 3.7612 50.9288 3.14102 50.671C2.52084 50.4132 1.95771 50.0354 1.484 49.5593C1.01029 49.0832 0.635326 48.5182 0.380664 47.8967C0.126003 47.2752 -0.00334124 46.6095 6.55886e-05 45.9379V38.125H53.8666L49.5815 47.4414C49.1863 48.5585 48.4542 49.5254 47.4862 50.2089C46.5183 50.8923 45.3621 51.2587 44.1771 51.2573Z" fill="var(--fill-0, #407BFF)"/>
<path id="Vector_12" opacity="0.2" d="M44.1771 51.2573H34.6797L34.1478 50.7402C33.6014 50.1926 32.86 49.8843 32.0865 49.8831H8.3486C7.57508 49.8843 6.83369 50.1926 6.28733 50.7402L5.96225 51.0615H5.09785C4.42622 51.0615 3.7612 50.9288 3.14102 50.671C2.52084 50.4132 1.95771 50.0354 1.484 49.5593C1.01029 49.0832 0.635326 48.5182 0.380664 47.8967C0.126003 47.2752 -0.00334124 46.6095 6.55886e-05 45.9379V38.125H53.8666L49.5815 47.4414C49.1863 48.5585 48.4542 49.5254 47.4862 50.2089C46.5183 50.8923 45.3621 51.2587 44.1771 51.2573Z" fill="var(--fill-0, black)"/>
<path id="Vector_13" d="M100.251 4.81854C100.219 4.81918 100.186 4.81018 100.159 4.79268C100.138 4.78082 100.119 4.76484 100.104 4.74568C100.089 4.72652 100.079 4.70458 100.072 4.68115C100.066 4.65772 100.065 4.63329 100.068 4.6093C100.072 4.58531 100.08 4.56225 100.092 4.54148L102.678 0.108632C102.689 0.0850809 102.704 0.064029 102.724 0.0468312C102.743 0.0296334 102.766 0.0166753 102.79 0.00879499C102.815 0.000914718 102.841 -0.00171169 102.866 0.00108404C102.892 0.00387976 102.917 0.0120332 102.939 0.0250229C102.962 0.0380127 102.981 0.0555468 102.996 0.0764913C103.011 0.0974358 103.022 0.121328 103.027 0.146617C103.033 0.171906 103.033 0.19803 103.027 0.223304C103.022 0.248577 103.011 0.272432 102.996 0.293334L100.41 4.72619C100.394 4.7541 100.371 4.77732 100.343 4.79352C100.315 4.80972 100.283 4.81834 100.251 4.81854Z" fill="var(--fill-0, #263238)"/>
<path id="Vector_14" d="M113.889 26.8706V21.832C113.889 19.1833 110.04 6.68638 104.746 4.34436C99.4529 2.00233 86.6457 0.960615 78.5779 1.38912C70.5101 1.81763 59.7383 18.692 59.7383 18.692L60.9093 33.2022C62.5494 33.2022 67.7728 32.7072 68.5375 47.0623C68.5887 48.0743 69.0274 49.0278 69.7626 49.7252C70.4978 50.4225 71.4731 50.8103 72.4864 50.808H100.731C101.68 50.8073 102.596 50.4637 103.312 49.8406C104.027 49.2174 104.494 48.3566 104.625 47.4169C105.363 42.3007 107.292 33.1911 111.942 33.1911C115.204 33.1911 117.543 35.9838 117.543 39.1866C117.544 35.668 116.689 32.202 115.053 29.0871L113.889 26.8706Z" fill="var(--fill-0, #407BFF)"/>
<path id="Vector_15" d="M49.0241 1.38672C34.3329 1.38672 17.6875 18.6896 17.6875 18.6896H59.7516C59.7516 18.6896 70.5123 1.81892 78.5912 1.38672H49.0241Z" fill="var(--fill-0, #407BFF)"/>
<path id="Vector_16" opacity="0.4" d="M49.9272 1.38867C37.5521 1.38867 24.5713 13.6677 20.7849 17.5353C20.6908 17.631 20.6271 17.7524 20.6019 17.8842C20.5767 18.016 20.5911 18.1524 20.6433 18.276C20.6954 18.3996 20.783 18.5051 20.895 18.579C21.0069 18.653 21.1383 18.6921 21.2725 18.6916H55.206C56.5718 18.6954 57.9192 18.3769 59.1388 17.762C60.3584 17.1471 61.4156 16.2531 62.2246 15.1527C65.8744 10.1805 72.9041 1.69528 78.593 1.38867H49.9272Z" fill="var(--fill-0, white)"/>
<path id="Vector_17" d="M59.7512 18.6914L44.214 30.9519L2.40113 30.819C2.40113 30.819 0 34.3098 0 38.1258H53.8665C54.7494 35.7874 57.845 33.2016 60.9222 33.2016C60.9222 28.85 59.7512 18.6914 59.7512 18.6914Z" fill="var(--fill-0, #407BFF)"/>
<path id="Vector_18" opacity="0.2" d="M49.5811 27.338C49.5369 27.3376 49.4943 27.3213 49.4611 27.2922C49.4279 27.263 49.4062 27.2229 49.4 27.1792C49.3937 27.1313 49.4064 27.0828 49.4354 27.0441C49.4644 27.0054 49.5074 26.9796 49.5552 26.9723C53.2848 26.3677 56.7749 24.7441 59.6399 22.2809C60.2064 21.8045 60.5751 21.1342 60.6741 20.4007C60.7731 19.6672 60.5954 18.9231 60.1756 18.3135C60.1602 18.2937 60.1491 18.271 60.1428 18.2467C60.1365 18.2224 60.1352 18.1971 60.139 18.1724C60.1428 18.1476 60.1516 18.1239 60.1648 18.1026C60.1781 18.0813 60.1955 18.063 60.2161 18.0487C60.2367 18.0344 60.26 18.0244 60.2845 18.0194C60.3091 18.0143 60.3344 18.0144 60.359 18.0195C60.3835 18.0245 60.4068 18.0346 60.4273 18.0489C60.4478 18.0633 60.4653 18.0816 60.4785 18.1029C60.9493 18.7883 61.1484 19.6243 61.0371 20.4484C60.9259 21.2724 60.5121 22.0257 59.8763 22.5616C56.9612 25.0705 53.4078 26.7226 49.6106 27.3343L49.5811 27.338Z" fill="var(--fill-0, black)"/>
<path id="Vector_19" d="M2.40234 30.819C2.40234 30.819 9.7461 22.2599 17.6883 18.6914H59.7524L44.2152 30.9519L2.40234 30.819Z" fill="var(--fill-0, #407BFF)"/>
<path id="Vector_20" d="M34.9311 30.8184H7.34766V31.62H34.9311V30.8184Z" fill="var(--fill-0, #263238)"/>
<path id="Vector_21" d="M34.3574 29.2155L35.835 27.7379C36.1672 27.4061 36.5878 27.1766 37.0466 27.0767L48.2063 24.646C48.5986 24.5602 49.006 24.5729 49.3921 24.6829L49.9905 24.8492C50.389 24.9614 50.7525 25.1726 51.0473 25.4632C51.3421 25.7538 51.5586 26.1142 51.6766 26.5109C51.7945 26.9077 51.8102 27.3278 51.7221 27.7323C51.634 28.1367 51.445 28.5123 51.1726 28.824L48.7715 31.5687C48.3575 32.0409 47.7787 32.3369 47.1535 32.3961L36.3189 33.3787C35.961 33.4128 35.6 33.3676 35.2616 33.2463C34.9232 33.125 34.6157 32.9306 34.361 32.6769C33.9029 32.2177 33.6452 31.5957 33.6445 30.947C33.6438 30.2983 33.9001 29.6757 34.3574 29.2155Z" fill="var(--fill-0, white)"/>
<path id="Vector_22" d="M8.12351 29.999L6.90079 27.7124C6.72865 27.3922 6.47344 27.1242 6.16198 26.9367C5.86614 26.7592 5.52961 26.6609 5.18477 26.6512C4.83993 26.6415 4.4984 26.7207 4.19305 26.8813L3.26585 27.3689C2.81047 27.6097 2.46427 28.0154 2.29801 28.5029L1.73282 30.1763C1.63883 30.4519 1.60571 30.7445 1.63574 31.034C1.66578 31.3236 1.75825 31.6032 1.90678 31.8536C2.05532 32.1039 2.25638 32.3191 2.49611 32.4843C2.73584 32.6494 3.00854 32.7606 3.2954 32.8102L5.84798 33.2498C6.26433 33.3218 6.69279 33.2611 7.07268 33.0761C7.45257 32.8911 7.76463 32.5913 7.96467 32.2191L8.1346 31.9052C8.291 31.6114 8.37188 31.2834 8.36994 30.9507C8.36801 30.6179 8.28332 30.2909 8.12351 29.999Z" fill="var(--fill-0, white)"/>
<path id="Vector_23" opacity="0.4" d="M68.3419 19.1825H107.233C107.563 19.1827 107.888 19.1057 108.182 18.9577C108.477 18.8097 108.733 18.5949 108.93 18.3303C109.126 18.0657 109.258 17.7587 109.315 17.434C109.372 17.1092 109.352 16.7757 109.257 16.46C108.371 13.5047 106.671 8.88348 104.119 6.52668C103.835 6.26705 103.487 6.08843 103.11 6.00952C98.5259 5.03798 91.1563 4.39153 85.6891 4.01474C83.211 3.84517 80.7256 4.21435 78.4038 5.09691C76.082 5.97946 73.9789 7.35445 72.2391 9.12729C70.1589 11.2286 68.2803 13.5204 66.6279 15.9724C66.4208 16.283 66.3019 16.6441 66.2837 17.017C66.2655 17.3899 66.3488 17.7608 66.5247 18.0901C66.7005 18.4195 66.9624 18.695 67.2824 18.8874C67.6024 19.0797 67.9686 19.1817 68.3419 19.1825Z" fill="var(--fill-0, white)"/>
<path id="Vector_24" d="M43.2012 42.456C43.2012 43.6676 41.96 44.6539 40.4307 44.6539C38.9014 44.6539 37.6602 43.6676 37.6602 42.456C37.6602 41.2443 38.8977 40.2617 40.4307 40.2617C41.9637 40.2617 43.2012 41.2443 43.2012 42.456Z" fill="var(--fill-0, #263238)"/>
<path id="Vector_25" d="M20.8734 29.1426C21.7821 29.1426 22.2254 30.0735 21.8634 31.2186C21.5014 32.3638 20.4744 33.2984 19.562 33.2984C18.6496 33.2984 18.21 32.3675 18.572 31.2186C18.934 30.0698 19.9647 29.1426 20.8734 29.1426Z" fill="var(--fill-0, #263238)"/>
<path id="Vector_26" d="M2.23446 42.456C2.23446 43.6676 1.86505 44.6539 1.45501 44.6539C1.04497 44.6539 0.671875 43.6676 0.671875 42.456C0.671875 41.2443 1.04128 40.2617 1.45501 40.2617C1.86875 40.2617 2.23446 41.2443 2.23446 42.456Z" fill="var(--fill-0, #263238)"/>
<path id="Vector_27" d="M67.1445 18.8304V17.5855C67.1441 17.2283 67.2234 16.8755 67.3767 16.5528C67.5299 16.2301 67.7532 15.9456 68.0304 15.7202C68.3075 15.4947 68.6314 15.3339 68.9786 15.2496C69.3257 15.1652 69.6873 15.1593 70.037 15.2324L74.7727 16.2187C75.3134 16.3316 75.7988 16.6271 76.1472 17.0556C76.4957 17.4841 76.686 18.0195 76.6863 18.5719V18.8304C76.6863 19.4676 76.4334 20.0787 75.9832 20.5296C75.533 20.9805 74.9223 21.2343 74.2851 21.2353H69.5494C68.9116 21.2353 68.2999 20.9819 67.8489 20.5309C67.3979 20.0799 67.1445 19.4682 67.1445 18.8304Z" fill="var(--fill-0, #263238)"/>
<path id="Vector_28" d="M92.0645 4.52993C92.0645 4.52993 91.4329 4.46714 90.332 4.37109C95.2008 14.345 93.9596 19.1805 93.9596 19.1805H97.6758C97.7127 13.1075 92.0645 4.52993 92.0645 4.52993Z" fill="var(--fill-0, #263238)"/>
<path id="Vector_29" opacity="0.2" d="M51.0009 14.7138C50.9256 15.4977 50.5613 16.2255 49.9788 16.7554C49.3963 17.2853 48.6374 17.5794 47.8499 17.5804H28.7037C27.3073 17.5804 26.8012 16.0215 27.8134 14.8616C29.6398 12.7818 31.6231 10.8454 33.746 9.0693C37.3514 6.03279 41.8286 4.45543 46.0139 4.74726L47.595 4.86177C48.2774 4.91499 48.9243 5.18718 49.4395 5.63781C49.9547 6.08844 50.3106 6.6934 50.4542 7.36264C51.0129 9.7704 51.1973 12.2499 51.0009 14.7138Z" fill="var(--fill-0, #407BFF)"/>
<path id="Vector_30" opacity="0.2" d="M94.4035 48.1824C94.3545 48.1824 94.3075 48.163 94.2729 48.1283C94.2382 48.0937 94.2188 48.0467 94.2188 47.9977C94.2188 44.2593 96.1249 28.8441 96.6236 26.5353C97.1075 24.293 97.1075 21.7885 96.6236 20.1594C96.6099 20.1124 96.6154 20.0618 96.6389 20.0189C96.6625 19.9759 96.7021 19.9441 96.7492 19.9304C96.7962 19.9176 96.8463 19.9236 96.889 19.947C96.9317 19.9705 96.9637 20.0095 96.9782 20.056C97.4769 21.7405 97.4769 24.3152 96.9782 26.6129C96.4795 28.9106 94.5808 44.2741 94.5808 47.9977C94.5808 48.0455 94.5624 48.0913 94.5293 48.1258C94.4963 48.1602 94.4511 48.1805 94.4035 48.1824Z" fill="var(--fill-0, black)"/>
<path id="Vector_31" opacity="0.2" d="M93.907 26.7278H89.404C89.3186 26.7306 89.2336 26.7137 89.1558 26.6784C89.0779 26.6431 89.0092 26.5904 88.9549 26.5244C88.9007 26.4583 88.8623 26.3807 88.8428 26.2975C88.8233 26.2143 88.8232 26.1277 88.8425 26.0444L88.9349 25.5235C88.9721 25.3361 89.0715 25.1666 89.217 25.0426C89.3624 24.9186 89.5455 24.8473 89.7365 24.8401H94.2395C94.3249 24.8374 94.4099 24.8543 94.4877 24.8895C94.5656 24.9248 94.6343 24.9775 94.6886 25.0435C94.7428 25.1096 94.7812 25.1872 94.8007 25.2704C94.8202 25.3537 94.8203 25.4403 94.801 25.5235L94.7087 26.0444C94.6714 26.2319 94.572 26.4013 94.4265 26.5253C94.2811 26.6493 94.0981 26.7207 93.907 26.7278Z" fill="var(--fill-0, black)"/>
</g>
</svg>
