<svg preserveAspectRatio="none" width="100%" height="100%" overflow="visible" style="display: block;" viewBox="0 0 184.702 127.981" fill="none" xmlns="http://www.w3.org/2000/svg">
<g id="freepik--background-complete--inject-2">
<path id="Vector" d="M184.702 120.945H0V121.038H184.702V120.945Z" fill="var(--fill-0, #EBEBEB)"/>
<path id="Vector_2" d="M87.5472 104.468H16.2189C15.6601 104.467 15.1245 104.244 14.7298 103.848C14.335 103.453 14.1133 102.917 14.1133 102.358V2.09083C14.1181 1.53525 14.342 1.00403 14.7363 0.612553C15.1305 0.221073 15.6633 0.000951729 16.2189 0H87.5472C88.1066 0 88.6431 0.222229 89.0387 0.617799C89.4342 1.01337 89.6565 1.54988 89.6565 2.1093V102.358C89.6565 102.918 89.4342 103.454 89.0387 103.85C88.6431 104.245 88.1066 104.468 87.5472 104.468ZM16.2189 0.0738811C15.6846 0.0748597 15.1725 0.28779 14.7951 0.665935C14.4176 1.04408 14.2056 1.55654 14.2056 2.09083V102.358C14.2056 102.893 14.4176 103.405 14.7951 103.783C15.1725 104.161 15.6846 104.374 16.2189 104.375H87.5472C88.0818 104.374 88.5942 104.161 88.9723 103.783C89.3503 103.405 89.5631 102.893 89.5641 102.358V2.09083C89.5631 1.5562 89.3503 1.04375 88.9723 0.66571C88.5942 0.28767 88.0818 0.0748576 87.5472 0.0738811H16.2189Z" fill="var(--fill-0, #EBEBEB)"/>
<path id="Vector_3" d="M167.453 104.468H96.121C95.5619 104.467 95.026 104.244 94.6306 103.849C94.2352 103.453 94.0127 102.917 94.0117 102.358V2.09083C94.0175 1.53492 94.2422 1.0037 94.6371 0.612322C95.0319 0.220944 95.5651 0.000941349 96.121 0H167.453C168.008 0.00192256 168.54 0.222473 168.933 0.613849C169.327 1.00523 169.55 1.53589 169.555 2.09083V102.358C169.555 102.916 169.334 103.452 168.94 103.847C168.546 104.242 168.011 104.466 167.453 104.468ZM96.121 0.0738811C95.5864 0.0748576 95.0739 0.28767 94.6959 0.66571C94.3179 1.04375 94.105 1.5562 94.1041 2.09083V102.358C94.105 102.893 94.3179 103.405 94.6959 103.783C95.0739 104.161 95.5864 104.374 96.121 104.375H167.453C167.988 104.374 168.5 104.161 168.878 103.783C169.256 103.405 169.469 102.893 169.47 102.358V2.09083C169.469 1.5562 169.256 1.04375 168.878 0.66571C168.5 0.28767 167.988 0.0748576 167.453 0.0738811H96.121Z" fill="var(--fill-0, #EBEBEB)"/>
<path id="Vector_4" d="M166.194 126.889H156.59V126.981H166.194V126.889Z" fill="var(--fill-0, #EBEBEB)"/>
<path id="Vector_5" d="M131.517 127.889H114.883V127.981H131.517V127.889Z" fill="var(--fill-0, #EBEBEB)"/>
<path id="Vector_6" d="M156.222 123.461H133.766V123.553H156.222V123.461Z" fill="var(--fill-0, #EBEBEB)"/>
<path id="Vector_7" d="M26.4826 124.082H19.3789V124.174H26.4826V124.082Z" fill="var(--fill-0, #EBEBEB)"/>
<path id="Vector_8" d="M50.2017 124.082H29.7773V124.174H50.2017V124.082Z" fill="var(--fill-0, #EBEBEB)"/>
<path id="Vector_9" d="M90.1892 125.637H62.6797V125.729H90.1892V125.637Z" fill="var(--fill-0, #EBEBEB)"/>
<path id="Vector_10" d="M24.9095 93.834H17.0781V120.941H24.9095V93.834Z" fill="var(--fill-0, #FAFAFA)"/>
<path id="Vector_11" d="M31.7689 99.7832H23.9375V120.943H31.7689V99.7832Z" fill="var(--fill-0, #FAFAFA)"/>
<path id="Vector_12" d="M36.7767 82.3457H28.9453V120.941H36.7767V82.3457Z" fill="var(--fill-0, #FAFAFA)"/>
<path id="Vector_13" d="M41.9837 51.0527H34.1523V120.944H41.9837V51.0527Z" fill="var(--fill-0, #FAFAFA)"/>
<path id="Vector_14" d="M61.3553 56.4922H40.3398V120.942H61.3553V56.4922Z" fill="var(--fill-0, #FAFAFA)"/>
<path id="Vector_15" d="M143.065 120.945H152.012V102.394H143.065V120.945Z" fill="var(--fill-0, #FAFAFA)"/>
<path id="Vector_16" d="M135.225 120.945H144.172V106.465H135.225V120.945Z" fill="var(--fill-0, #FAFAFA)"/>
<path id="Vector_17" d="M129.506 120.945H138.453V94.5292H129.506V120.945Z" fill="var(--fill-0, #FAFAFA)"/>
<path id="Vector_18" d="M123.557 120.945H132.504V73.1111H123.557V120.945Z" fill="var(--fill-0, #FAFAFA)"/>
<path id="Vector_19" d="M128.368 62.5078H100.91V120.944H128.368V62.5078Z" fill="var(--fill-0, #F0F0F0)"/>
<path id="Vector_20" d="M125.753 64.9551H124.445V72.0661H125.753V64.9551Z" fill="var(--fill-0, #F5F5F5)"/>
<path id="Vector_21" d="M125.753 76.0762H124.445V83.1872H125.753V76.0762Z" fill="var(--fill-0, #F5F5F5)"/>
<path id="Vector_22" d="M125.753 87.1953H124.445V94.3063H125.753V87.1953Z" fill="var(--fill-0, #F5F5F5)"/>
<path id="Vector_23" d="M125.753 98.3164H124.445V105.427H125.753V98.3164Z" fill="var(--fill-0, #F5F5F5)"/>
<path id="Vector_24" d="M125.753 109.441H124.445V116.552H125.753V109.441Z" fill="var(--fill-0, #F5F5F5)"/>
<path id="Vector_25" d="M121.12 64.9551H119.812V72.0661H121.12V64.9551Z" fill="var(--fill-0, #F5F5F5)"/>
<path id="Vector_26" d="M121.12 76.0781H119.812V83.1892H121.12V76.0781Z" fill="var(--fill-0, #F5F5F5)"/>
<path id="Vector_27" d="M121.12 87.1953H119.812V94.3063H121.12V87.1953Z" fill="var(--fill-0, #F5F5F5)"/>
<path id="Vector_28" d="M121.12 98.3164H119.812V105.427H121.12V98.3164Z" fill="var(--fill-0, #F5F5F5)"/>
<path id="Vector_29" d="M121.12 109.439H119.812V116.55H121.12V109.439Z" fill="var(--fill-0, #F5F5F5)"/>
<path id="Vector_30" d="M116.487 64.9551H115.18V72.0661H116.487V64.9551Z" fill="var(--fill-0, #F5F5F5)"/>
<path id="Vector_31" d="M116.487 76.0781H115.18V83.1892H116.487V76.0781Z" fill="var(--fill-0, #F5F5F5)"/>
<path id="Vector_32" d="M116.487 87.1953H115.18V94.3063H116.487V87.1953Z" fill="var(--fill-0, #F5F5F5)"/>
<path id="Vector_33" d="M116.487 98.3164H115.18V105.427H116.487V98.3164Z" fill="var(--fill-0, #F5F5F5)"/>
<path id="Vector_34" d="M116.487 109.439H115.18V116.55H116.487V109.439Z" fill="var(--fill-0, #F5F5F5)"/>
<path id="Vector_35" d="M111.855 64.9551H110.547V72.0661H111.855V64.9551Z" fill="var(--fill-0, #F5F5F5)"/>
<path id="Vector_36" d="M111.855 76.0781H110.547V83.1892H111.855V76.0781Z" fill="var(--fill-0, #F5F5F5)"/>
<path id="Vector_37" d="M111.855 87.1953H110.547V94.3063H111.855V87.1953Z" fill="var(--fill-0, #F5F5F5)"/>
<path id="Vector_38" d="M111.855 98.3164H110.547V105.427H111.855V98.3164Z" fill="var(--fill-0, #F5F5F5)"/>
<path id="Vector_39" d="M111.855 109.439H110.547V116.55H111.855V109.439Z" fill="var(--fill-0, #F5F5F5)"/>
<path id="Vector_40" d="M107.222 64.9551H105.914V72.0661H107.222V64.9551Z" fill="var(--fill-0, #F5F5F5)"/>
<path id="Vector_41" d="M107.222 76.0781H105.914V83.1892H107.222V76.0781Z" fill="var(--fill-0, #F5F5F5)"/>
<path id="Vector_42" d="M107.222 87.1953H105.914V94.3063H107.222V87.1953Z" fill="var(--fill-0, #F5F5F5)"/>
<path id="Vector_43" d="M107.222 98.3164H105.914V105.427H107.222V98.3164Z" fill="var(--fill-0, #F5F5F5)"/>
<path id="Vector_44" d="M107.222 109.439H105.914V116.55H107.222V109.439Z" fill="var(--fill-0, #F5F5F5)"/>
<path id="Vector_45" opacity="0.5" d="M100.91 62.5078H106.566L109.026 120.944H100.91V62.5078Z" fill="var(--fill-0, #E0E0E0)"/>
<path id="Vector_46" d="M87.4141 39.9277L103.697 43.0086V120.942H87.4141V39.9277Z" fill="var(--fill-0, #F0F0F0)"/>
<path id="Vector_47" d="M87.4117 39.9277H74.3828V120.942H87.4117V39.9277Z" fill="var(--fill-0, #E6E6E6)"/>
<path id="Vector_48" d="M74.3831 47.0586L103.695 47.0586V46.6449L74.3831 46.6449V47.0586Z" fill="var(--fill-0, #E0E0E0)"/>
<path id="Vector_49" d="M74.3831 51.4688L103.695 51.4688V51.055L74.3831 51.055V51.4688Z" fill="var(--fill-0, #E0E0E0)"/>
<path id="Vector_50" d="M74.3831 55.877L103.695 55.877V55.4632L74.3831 55.4632V55.877Z" fill="var(--fill-0, #E0E0E0)"/>
<path id="Vector_51" d="M74.3831 60.2852L103.695 60.2852V59.8714L74.3831 59.8714V60.2852Z" fill="var(--fill-0, #E0E0E0)"/>
<path id="Vector_52" d="M74.3831 64.7051H103.695V64.2913H74.3831V64.7051Z" fill="var(--fill-0, #E0E0E0)"/>
<path id="Vector_53" d="M74.3831 69.1113H103.695V68.6976H74.3831V69.1113Z" fill="var(--fill-0, #E0E0E0)"/>
<path id="Vector_54" d="M74.3831 73.5215H103.695V73.1078H74.3831V73.5215Z" fill="var(--fill-0, #E0E0E0)"/>
<path id="Vector_55" d="M74.3831 77.9336H103.695V77.5199H74.3831V77.9336Z" fill="var(--fill-0, #E0E0E0)"/>
<path id="Vector_56" d="M74.3831 82.3457H103.695V81.932H74.3831V82.3457Z" fill="var(--fill-0, #E0E0E0)"/>
<path id="Vector_57" d="M74.3831 86.7559H103.695V86.3421H74.3831V86.7559Z" fill="var(--fill-0, #E0E0E0)"/>
<path id="Vector_58" d="M74.3831 91.168H103.695V90.7542H74.3831V91.168Z" fill="var(--fill-0, #E0E0E0)"/>
<path id="Vector_59" d="M74.3831 95.5762H103.695V95.1624H74.3831V95.5762Z" fill="var(--fill-0, #E0E0E0)"/>
<path id="Vector_60" d="M74.3831 99.9883H103.695V99.5746H74.3831V99.9883Z" fill="var(--fill-0, #E0E0E0)"/>
<path id="Vector_61" d="M74.3831 104.398H103.695V103.985H74.3831V104.398Z" fill="var(--fill-0, #E0E0E0)"/>
<path id="Vector_62" d="M74.3831 108.812H103.695V108.399H74.3831V108.812Z" fill="var(--fill-0, #E0E0E0)"/>
<path id="Vector_63" d="M74.3831 113.223H103.695V112.809H74.3831V113.223Z" fill="var(--fill-0, #E0E0E0)"/>
<path id="Vector_64" d="M74.3831 117.635H103.695V117.221H74.3831V117.635Z" fill="var(--fill-0, #E0E0E0)"/>
<path id="Vector_65" d="M67.2606 22.709H53.6406V120.941H67.2606V22.709Z" fill="var(--fill-0, #F0F0F0)"/>
<path id="Vector_66" d="M67.2606 22.7107H53.6406L58.6534 14.0371H78.158L67.2606 22.7107Z" fill="var(--fill-0, #FAFAFA)"/>
<path id="Vector_67" d="M67.2578 22.7107L78.1552 14.0371V120.943H67.2578V22.7107Z" fill="var(--fill-0, #EBEBEB)"/>
<path id="Vector_68" d="M78.158 27.2871H53.6406V27.8117H78.158V27.2871Z" fill="var(--fill-0, #E0E0E0)"/>
<path id="Vector_69" d="M78.158 32.8477H53.6406V33.3722H78.158V32.8477Z" fill="var(--fill-0, #E0E0E0)"/>
<path id="Vector_70" d="M78.158 38.4082H53.6406V38.9328H78.158V38.4082Z" fill="var(--fill-0, #E0E0E0)"/>
<path id="Vector_71" d="M78.158 43.9668H53.6406V44.4914H78.158V43.9668Z" fill="var(--fill-0, #E0E0E0)"/>
<path id="Vector_72" d="M78.158 49.5273H53.6406V50.0519H78.158V49.5273Z" fill="var(--fill-0, #E0E0E0)"/>
<path id="Vector_73" d="M78.158 55.0859H53.6406V55.6105H78.158V55.0859Z" fill="var(--fill-0, #E0E0E0)"/>
<path id="Vector_74" d="M78.158 60.6465H53.6406V61.171H78.158V60.6465Z" fill="var(--fill-0, #E0E0E0)"/>
<path id="Vector_75" d="M78.158 66.2051H53.6406V66.7296H78.158V66.2051Z" fill="var(--fill-0, #E0E0E0)"/>
<path id="Vector_76" d="M78.158 71.7676H53.6406V72.2921H78.158V71.7676Z" fill="var(--fill-0, #E0E0E0)"/>
<path id="Vector_77" d="M78.158 77.332H53.6406V77.8566H78.158V77.332Z" fill="var(--fill-0, #E0E0E0)"/>
<path id="Vector_78" d="M78.158 82.8926H53.6406V83.4171H78.158V82.8926Z" fill="var(--fill-0, #E0E0E0)"/>
<path id="Vector_79" d="M78.158 88.4492H53.6406V88.9738H78.158V88.4492Z" fill="var(--fill-0, #E0E0E0)"/>
<path id="Vector_80" d="M78.158 94.0098H53.6406V94.5343H78.158V94.0098Z" fill="var(--fill-0, #E0E0E0)"/>
<path id="Vector_81" d="M78.158 99.5684H53.6406V100.093H78.158V99.5684Z" fill="var(--fill-0, #E0E0E0)"/>
<path id="Vector_82" d="M78.158 105.129H53.6406V105.653H78.158V105.129Z" fill="var(--fill-0, #E0E0E0)"/>
<path id="Vector_83" d="M78.158 110.693H53.6406V111.218H78.158V110.693Z" fill="var(--fill-0, #E0E0E0)"/>
<path id="Vector_84" d="M78.158 116.252H53.6406V116.777H78.158V116.252Z" fill="var(--fill-0, #E0E0E0)"/>
<path id="Vector_85" d="M51.2748 70.2441H36.4062V120.941H51.2748V70.2441Z" fill="var(--fill-0, #F0F0F0)"/>
<path id="Vector_86" d="M41.7145 72.8652H39.3281V81.0032H41.7145V72.8652Z" fill="var(--fill-0, #E6E6E6)"/>
<path id="Vector_87" d="M47.5739 72.8652H45.1875V81.0032H47.5739V72.8652Z" fill="var(--fill-0, #E6E6E6)"/>
<path id="Vector_88" d="M41.7145 83.4023H39.3281V91.5403H41.7145V83.4023Z" fill="var(--fill-0, #E6E6E6)"/>
<path id="Vector_89" d="M47.5739 83.4023H45.1875V91.5403H47.5739V83.4023Z" fill="var(--fill-0, #E6E6E6)"/>
<path id="Vector_90" d="M41.7145 93.9395H39.3281V102.077H41.7145V93.9395Z" fill="var(--fill-0, #E6E6E6)"/>
<path id="Vector_91" d="M47.5739 93.9395H45.1875V102.077H47.5739V93.9395Z" fill="var(--fill-0, #E6E6E6)"/>
<path id="Vector_92" d="M41.7145 104.479H39.3281V112.616H41.7145V104.479Z" fill="var(--fill-0, #E6E6E6)"/>
<path id="Vector_93" d="M47.5739 104.479H45.1875V112.616H47.5739V104.479Z" fill="var(--fill-0, #E6E6E6)"/>
<path id="Vector_94" d="M51.2711 70.2455H36.4062L39.8934 66.7324H54.762L51.2711 70.2455Z" fill="var(--fill-0, white)"/>
<path id="Vector_95" d="M51.2695 70.2455L54.7604 66.7324L58.2476 70.2455V120.943H51.2695V70.2455Z" fill="var(--fill-0, #E6E6E6)"/>
</g>
</svg>
