<svg preserveAspectRatio="none" width="100%" height="100%" overflow="visible" style="display: block;" viewBox="0 0 184.699 127.981" fill="none" xmlns="http://www.w3.org/2000/svg">
<g id="freepik--background-complete--inject-2">
<path id="Vector" d="M184.699 120.939H0V121.032H184.699V120.939Z" fill="var(--fill-0, #EBEBEB)"/>
<path id="Vector_2" d="M166.191 126.885H153.957V126.977H166.191V126.885Z" fill="var(--fill-0, #EBEBEB)"/>
<path id="Vector_3" d="M122.355 127.889H119.145V127.981H122.355V127.889Z" fill="var(--fill-0, #EBEBEB)"/>
<path id="Vector_4" d="M153.585 123.457H146.496V123.549H153.585V123.457Z" fill="var(--fill-0, #EBEBEB)"/>
<path id="Vector_5" d="M35.3332 124.076H19.3789V124.169H35.3332V124.076Z" fill="var(--fill-0, #EBEBEB)"/>
<path id="Vector_6" d="M40.9633 124.076H38.625V124.169H40.9633V124.076Z" fill="var(--fill-0, #EBEBEB)"/>
<path id="Vector_7" d="M83.1715 125.635H48.5664V125.727H83.1715V125.635Z" fill="var(--fill-0, #EBEBEB)"/>
<path id="Vector_8" d="M87.5457 104.465H16.2188C15.6601 104.465 15.1245 104.242 14.7298 103.846C14.335 103.451 14.1133 102.915 14.1133 102.356V2.09079C14.1181 1.53522 14.342 1.00401 14.7362 0.612541C15.1305 0.221069 15.6633 0.00095171 16.2188 0H87.5457C88.1051 0 88.6416 0.222225 89.0372 0.617787C89.4328 1.01335 89.655 1.54985 89.655 2.10926V102.356C89.655 102.916 89.4328 103.452 89.0372 103.848C88.6416 104.243 88.1051 104.465 87.5457 104.465ZM16.2188 0.0738797C15.6846 0.0748582 15.1725 0.287784 14.7951 0.665922C14.4176 1.04406 14.2056 1.55651 14.2056 2.09079V102.356C14.2056 102.891 14.4176 103.403 14.7951 103.781C15.1725 104.159 15.6846 104.372 16.2188 104.373H87.5457C88.0803 104.372 88.5928 104.159 88.9708 103.781C89.3489 103.403 89.5617 102.891 89.5626 102.356V2.09079C89.5617 1.55617 89.3489 1.04373 88.9708 0.665697C88.5928 0.287664 88.0803 0.0748562 87.5457 0.0738797H16.2188Z" fill="var(--fill-0, #EBEBEB)"/>
<path id="Vector_9" d="M167.452 104.465H96.121C95.5619 104.465 95.0259 104.242 94.6306 103.847C94.2352 103.451 94.0127 102.915 94.0117 102.356V2.09079C94.0175 1.53489 94.2422 1.00368 94.6371 0.61231C95.0319 0.22094 95.565 0.000941331 96.121 0H167.452C168.006 0.00192253 168.538 0.222469 168.932 0.613837C169.325 1.00521 169.549 1.53586 169.553 2.09079V102.356C169.553 102.914 169.332 103.45 168.938 103.845C168.544 104.24 168.01 104.464 167.452 104.465ZM96.121 0.0738797C95.5864 0.0748562 95.0739 0.287664 94.6959 0.665697C94.3179 1.04373 94.105 1.55617 94.1041 2.09079V102.356C94.105 102.891 94.3179 103.403 94.6959 103.781C95.0739 104.159 95.5864 104.372 96.121 104.373H167.452C167.986 104.372 168.499 104.159 168.877 103.781C169.255 103.403 169.467 102.891 169.468 102.356V2.09079C169.467 1.55617 169.255 1.04373 168.877 0.665697C168.499 0.287664 167.986 0.0748562 167.452 0.0738797H96.121Z" fill="var(--fill-0, #EBEBEB)"/>
<path id="Vector_10" d="M149.976 115.446C150.057 114.478 149.928 113.229 148.798 112.86C146.884 112.228 145.75 110.747 145.813 109.074C145.876 107.4 143.863 105.768 142.355 107.337C140.848 108.907 141.044 106.13 139.031 105.454C137.018 104.778 135.311 106.418 135.861 107.914C136.412 109.41 134.428 110.344 132.049 109.074C129.67 107.803 127.051 110.115 127.554 111.929C128.056 113.743 127.646 113.942 126.139 113.336C124.924 112.849 122.933 113.872 122.711 115.453L149.976 115.446Z" fill="var(--fill-0, #E0E0E0)"/>
<path id="Vector_11" d="M48.2524 115.444C48.3484 114.68 48.3078 113.56 47.3548 113.246C45.8772 112.759 44.9906 111.606 45.0386 110.291C45.0867 108.976 43.5278 107.724 42.3531 108.947C41.1784 110.169 41.3373 108.008 39.7673 107.469C38.1974 106.93 36.8787 108.208 37.3072 109.379C37.7357 110.55 36.199 111.266 34.352 110.276C32.505 109.286 30.4733 111.085 30.8649 112.493C31.2564 113.9 30.9351 114.055 29.7567 113.601C28.7667 113.206 27.1192 114.1 27.0859 115.43L48.2524 115.444Z" fill="var(--fill-0, #E0E0E0)"/>
<path id="Vector_12" d="M50.7148 115.443H85.4751C85.9664 113.81 84.6994 111.856 83.3252 111.579C81.6297 111.242 79.9305 108.254 79.8492 106.366C79.7679 104.479 76.7241 98.6276 71.9847 102.24C67.2454 105.853 68.686 102.772 65.258 101.76C61.83 100.748 59.669 103.659 61.1725 105.823C61.1725 105.823 57.7297 104.959 56.3112 108.176C54.8927 111.394 56.3112 113.389 56.3112 113.389C56.3112 113.389 51.9597 113.282 50.7148 115.443Z" fill="var(--fill-0, #E0E0E0)"/>
<path id="Vector_13" d="M105.395 24.2073C105.395 23.7739 105.566 23.3583 105.873 23.0515C106.179 22.7447 106.594 22.5719 107.027 22.5709C107.186 22.5711 107.344 22.5947 107.496 22.6411C107.474 22.4745 107.463 22.3067 107.463 22.1387C107.463 21.2207 107.828 20.3403 108.477 19.6912C109.126 19.0421 110.006 18.6774 110.924 18.6774C111.138 18.6783 111.35 18.6981 111.56 18.7365C111.901 18.1751 112.415 17.7399 113.025 17.4965C113.635 17.2532 114.308 17.215 114.941 17.3877C115.575 17.5604 116.135 17.9347 116.538 18.4539C116.94 18.9731 117.162 19.6091 117.171 20.2658H117.223C117.962 20.2658 118.672 20.5597 119.195 21.0827C119.718 21.6057 120.012 22.3151 120.012 23.0548C120.012 23.7945 119.718 24.5038 119.195 25.0269C118.672 25.5499 117.962 25.8437 117.223 25.8437H106.983C106.557 25.8322 106.152 25.6546 105.856 25.3488C105.559 25.0431 105.393 24.6334 105.395 24.2073Z" fill="var(--fill-0, #F5F5F5)"/>
<path id="Vector_14" d="M47.7814 33.8459C47.7814 33.6312 47.8238 33.4186 47.906 33.2203C47.9883 33.0219 48.1089 32.8418 48.2609 32.6901C48.4129 32.5384 48.5934 32.4183 48.7919 32.3364C48.9904 32.2546 49.2031 32.2127 49.4178 32.2132C49.5768 32.214 49.7348 32.2376 49.887 32.2834C49.8617 32.1171 49.8493 31.9492 49.85 31.781C49.8495 31.3261 49.9387 30.8757 50.1124 30.4553C50.2862 30.0349 50.5411 29.6529 50.8625 29.3311C51.184 29.0093 51.5657 28.754 51.9859 28.5799C52.406 28.4057 52.8564 28.316 53.3113 28.316C53.5258 28.3163 53.7398 28.3373 53.9503 28.3789C54.2919 27.8164 54.8075 27.3807 55.419 27.1377C56.0305 26.8947 56.7045 26.8577 57.3389 27.0323C57.9733 27.2068 58.5335 27.5835 58.9346 28.1051C59.3357 28.6268 59.5558 29.265 59.5615 29.9229H59.6095C60.3492 29.9229 61.0586 30.2168 61.5816 30.7398C62.1046 31.2628 62.3985 31.9722 62.3985 32.7119C62.3985 33.4516 62.1046 34.1609 61.5816 34.684C61.0586 35.207 60.3492 35.5008 59.6095 35.5008H49.3698C48.9407 35.4892 48.5333 35.309 48.236 34.9993C47.9388 34.6896 47.7754 34.2752 47.7814 33.8459Z" fill="var(--fill-0, #F5F5F5)"/>
<path id="Vector_15" d="M84.8789 29.1051C84.8789 28.8357 84.9859 28.5773 85.1764 28.3868C85.367 28.1963 85.6253 28.0893 85.8948 28.0893C85.9934 28.0898 86.0916 28.1034 86.1866 28.1299C86.1716 28.0272 86.1642 27.9234 86.1644 27.8196C86.1639 27.537 86.2192 27.257 86.327 26.9957C86.4348 26.7345 86.5931 26.497 86.7928 26.297C86.9925 26.097 87.2296 25.9383 87.4907 25.83C87.7518 25.7218 88.0317 25.666 88.3143 25.666C88.4481 25.667 88.5816 25.6794 88.7133 25.703C88.9252 25.354 89.2451 25.0834 89.6245 24.9323C90.0038 24.7812 90.4221 24.7577 90.816 24.8653C91.2099 24.973 91.558 25.206 91.8078 25.529C92.0576 25.8521 92.1954 26.2477 92.2004 26.656H92.2299C92.4644 26.6452 92.6987 26.682 92.9185 26.7643C93.1383 26.8466 93.3392 26.9726 93.509 27.1347C93.6788 27.2968 93.8139 27.4917 93.9062 27.7075C93.9985 27.9233 94.0461 28.1556 94.0461 28.3903C94.0461 28.6251 93.9985 28.8574 93.9062 29.0732C93.8139 29.289 93.6788 29.4839 93.509 29.646C93.3392 29.8081 93.1383 29.9341 92.9185 30.0164C92.6987 30.0986 92.4644 30.1355 92.2299 30.1247H85.8652C85.6003 30.1169 85.3489 30.006 85.1646 29.8155C84.9804 29.6251 84.8778 29.3701 84.8789 29.1051Z" fill="var(--fill-0, #F5F5F5)"/>
<path id="Vector_16" d="M28.7383 27.1171C28.7383 26.8477 28.8453 26.5893 29.0358 26.3988C29.2263 26.2083 29.4847 26.1013 29.7541 26.1013C29.8531 26.1007 29.9516 26.1156 30.0459 26.1456C30.0311 26.0416 30.0237 25.9367 30.0238 25.8316C30.0248 25.2611 30.2521 24.7143 30.6559 24.3112C31.0596 23.9081 31.6068 23.6817 32.1774 23.6817C32.31 23.681 32.4424 23.6934 32.5726 23.7187C32.7844 23.3699 33.104 23.0995 33.483 22.9483C33.862 22.7971 34.2799 22.7733 34.6736 22.8805C35.0673 22.9877 35.4155 23.22 35.6655 23.5425C35.9156 23.865 36.0539 24.26 36.0597 24.668H36.093C36.5525 24.668 36.9931 24.8505 37.318 25.1754C37.6429 25.5004 37.8254 25.941 37.8254 26.4005C37.8254 26.86 37.6429 27.3006 37.318 27.6255C36.9931 27.9504 36.5525 28.133 36.093 28.133H29.7246C29.4603 28.1253 29.2095 28.0149 29.0253 27.8252C28.8411 27.6355 28.7382 27.3815 28.7383 27.1171Z" fill="var(--fill-0, #F5F5F5)"/>
<path id="Vector_17" d="M142.059 33.246C142.059 32.9766 142.166 32.7182 142.356 32.5277C142.547 32.3372 142.805 32.2302 143.074 32.2302C143.173 32.2299 143.272 32.2448 143.366 32.2745C143.351 32.1705 143.344 32.0656 143.344 31.9605C143.344 31.3903 143.571 30.8435 143.974 30.4403C144.377 30.0371 144.924 29.8106 145.494 29.8106C145.628 29.8097 145.762 29.8221 145.893 29.8476C146.105 29.4988 146.424 29.2284 146.803 29.0772C147.182 28.926 147.6 28.9022 147.994 29.0094C148.388 29.1166 148.736 29.3489 148.986 29.6714C149.236 29.9939 149.374 30.3889 149.38 30.7969H149.413C149.873 30.7969 150.313 30.9795 150.638 31.3044C150.963 31.6293 151.146 32.0699 151.146 32.5294C151.146 32.9889 150.963 33.4295 150.638 33.7544C150.313 34.0793 149.873 34.2619 149.413 34.2619H143.045C142.781 34.2542 142.53 34.1438 142.346 33.9541C142.161 33.7644 142.058 33.5104 142.059 33.246Z" fill="var(--fill-0, #F5F5F5)"/>
<path id="Vector_18" d="M54.1246 62.2431C54.0708 62.0352 54.0386 61.8223 54.0286 61.6078C53.951 60.289 52.6914 60.4996 51.6201 60.3186C50.7853 60.1819 52.998 58.0689 51.3135 57.3856C50.985 57.2956 50.697 57.0962 50.4971 56.8204C50.4123 56.6128 50.4028 56.382 50.4703 56.1681C50.5377 55.9543 50.6779 55.7707 50.8665 55.6494C51.2509 55.4169 51.6961 55.3049 52.1447 55.328C52.4217 54.9956 52.1964 54.4895 51.9304 54.1496C51.6644 53.8098 51.3394 53.4108 51.4391 52.9971C51.5906 52.3618 52.4808 52.3396 53.1236 52.4652C53.36 52.0958 53.3563 51.6008 53.4708 51.1612C53.5853 50.7216 53.9325 50.2673 54.3795 50.3227C54.8265 50.3781 55.0629 50.8509 55.4877 50.947C55.9679 51.0615 56.3816 50.6367 56.7621 50.3153C57.1426 49.9939 57.7964 49.7981 58.0587 50.2193C58.2138 50.4704 58.1178 50.8214 58.2803 51.0689C58.5611 51.4974 59.226 51.2314 59.6397 50.9285C60.0534 50.6256 60.7073 50.3485 60.9991 50.7697C61.0711 50.9086 61.1245 51.0564 61.1579 51.2092C61.3537 51.7744 61.9632 52.0552 62.4361 52.4172C62.9089 52.7792 63.2857 53.4958 62.883 53.9354C62.6872 54.1533 62.3363 54.242 62.2403 54.519C62.1184 54.8626 62.4693 55.1729 62.75 55.413C63.2155 55.8082 63.3004 56.994 62.6836 57.3191C62.425 57.4557 62.0482 57.4964 61.9817 57.7808C61.9152 58.0652 62.1849 58.2352 62.3511 58.431C62.4598 58.5704 62.5371 58.7318 62.5776 58.9039C62.6182 59.0761 62.621 59.2549 62.5859 59.4283C62.5508 59.6016 62.4786 59.7653 62.3744 59.9081C62.2701 60.051 62.1361 60.1696 61.9817 60.2558C61.8339 60.326 61.6529 60.3851 61.6123 60.5402C61.5899 60.6558 61.6028 60.7755 61.6492 60.8838C61.7095 61.0986 61.7295 61.3228 61.7083 61.545C61.7084 61.6217 61.6794 61.6957 61.6271 61.7518C61.5699 61.7916 61.5006 61.8099 61.4313 61.8035C60.5411 61.8442 60.1126 61.5302 59.5843 62.3059C59.5367 62.383 59.4738 62.4496 59.3996 62.5017C59.3234 62.5382 59.2403 62.5583 59.1558 62.5608C58.5426 62.6125 58.1437 62.2321 57.5859 62.1582C56.8101 62.0621 56.6439 62.4611 55.9605 62.7825C54.845 63.2885 54.3241 62.9745 54.1246 62.2431Z" fill="var(--fill-0, #EBEBEB)"/>
<path id="Vector_19" d="M64.3661 61.1346C64.3123 60.9266 64.2801 60.7137 64.2701 60.4992C64.1925 59.1841 62.9329 59.391 61.8653 59.2137C61.0268 59.0733 63.2432 56.9604 61.555 56.2585C61.2272 56.1692 60.9402 55.9696 60.7424 55.6933C60.6583 55.4856 60.6491 55.2551 60.7165 55.0414C60.784 54.8277 60.9237 54.6442 61.1118 54.5223C61.4988 54.2932 61.9442 54.1816 62.3936 54.201C62.6669 53.8685 62.4453 53.3661 62.1793 53.0226C61.9133 52.679 61.5846 52.2838 61.688 51.8738C61.8395 51.2384 62.7297 51.2125 63.3688 51.3381C63.6089 50.9687 63.6015 50.4738 63.716 50.0379C63.8305 49.602 64.1814 49.1402 64.6284 49.1956C65.0754 49.251 65.3081 49.7239 65.7366 49.8236C66.2168 49.9344 66.6342 49.5096 67.011 49.1919C67.3878 48.8743 68.049 48.6748 68.3076 49.0922C68.4628 49.3434 68.3704 49.6943 68.5329 49.9418C68.8137 50.374 69.4749 50.1044 69.8886 49.8014C70.3023 49.4985 70.9599 49.2215 71.248 49.6426C71.3216 49.7821 71.3751 49.9314 71.4068 50.0859C71.6026 50.6474 72.2121 50.9281 72.685 51.2901C73.1578 51.6521 73.5346 52.3688 73.1356 52.8083C72.9362 53.0263 72.5889 53.1149 72.4892 53.392C72.3673 53.7392 72.7219 54.0495 73.0026 54.2859C73.4681 54.6812 73.553 55.8669 72.9362 56.192C72.6776 56.3287 72.2971 56.3693 72.2343 56.6575C72.1715 56.9456 72.4375 57.1081 72.6037 57.3076C72.7124 57.4468 72.7896 57.6078 72.8301 57.7797C72.8706 57.9516 72.8734 58.1302 72.8383 58.3032C72.8032 58.4763 72.7311 58.6397 72.6268 58.7822C72.5225 58.9247 72.3886 59.0429 72.2343 59.1287C72.0865 59.1989 71.9055 59.258 71.8649 59.4132C71.8409 59.5284 71.8525 59.6482 71.8981 59.7567C71.9601 59.9713 71.9802 60.1958 71.9573 60.4179C71.957 60.4939 71.9294 60.5673 71.8797 60.6248C71.8217 60.663 71.7533 60.6824 71.6839 60.6802C70.7936 60.7208 70.3651 60.4031 69.8369 61.1789C69.7903 61.2568 69.7273 61.3236 69.6522 61.3747C69.5755 61.414 69.4909 61.4354 69.4047 61.4375C68.7952 61.4855 68.3926 61.105 67.8348 61.0348C67.059 60.9351 66.8965 61.334 66.2131 61.6554C65.0902 62.1799 64.5693 61.8697 64.3661 61.1346Z" fill="var(--fill-0, #EBEBEB)"/>
<path id="Vector_20" d="M65.359 54.6103C65.3033 54.4028 65.2711 54.1897 65.263 53.975C65.1817 52.6562 63.9257 52.8668 62.8545 52.6858C62.0196 52.5491 64.2323 50.4361 62.5442 49.7527C62.2171 49.6618 61.9306 49.4625 61.7315 49.1876C61.6467 48.98 61.6372 48.7492 61.7046 48.5353C61.7721 48.3215 61.9123 48.1379 62.1009 48.0166C62.4851 47.7836 62.9304 47.6717 63.379 47.6952C63.6561 47.3627 63.4307 46.8567 63.1648 46.5168C62.8988 46.177 62.5737 45.778 62.6735 45.3643C62.8249 44.7289 63.7152 44.7068 64.3579 44.8324C64.5943 44.463 64.5907 43.968 64.7052 43.5284C64.8197 43.0888 65.1669 42.6345 65.6139 42.6899C66.0609 42.7453 66.2936 43.2181 66.7221 43.3142C67.206 43.4287 67.6197 43.0039 67.9965 42.6825C68.3733 42.3611 69.0345 42.1653 69.2931 42.5864C69.4519 42.8376 69.3559 43.1886 69.5184 43.4361C69.7992 43.8646 70.4641 43.5986 70.8741 43.2957C71.2841 42.9928 71.9453 42.7157 72.2335 43.1368C72.3083 43.2749 72.363 43.4229 72.396 43.5764C72.5918 44.1416 73.1976 44.4223 73.6741 44.7844C74.1507 45.1464 74.5237 45.863 74.1211 46.3026C73.9216 46.5205 73.5744 46.6092 73.4783 46.8862C73.3528 47.2298 73.7074 47.5401 73.9881 47.7802C74.4536 48.1754 74.5385 49.3612 73.9216 49.6863C73.663 49.8229 73.2826 49.8636 73.2198 50.148C73.157 50.4324 73.4229 50.6024 73.5892 50.7981C73.6973 50.9378 73.7741 51.0992 73.8142 51.2712C73.8544 51.4433 73.8571 51.6219 73.822 51.7951C73.787 51.9682 73.715 52.1318 73.6111 52.2747C73.5072 52.4175 73.3737 52.5363 73.2198 52.623C73.072 52.6932 72.891 52.7523 72.8504 52.9074C72.826 53.0229 72.8389 53.1432 72.8873 53.2509C72.9457 53.4662 72.9657 53.69 72.9464 53.9122C72.9465 53.9889 72.9175 54.0629 72.8651 54.119C72.808 54.1588 72.7387 54.1771 72.6694 54.1707C71.7791 54.2114 71.3506 53.8974 70.8224 54.6731C70.7747 54.7502 70.7119 54.8168 70.6377 54.8689C70.5601 54.9054 70.4759 54.9255 70.3902 54.928C69.7807 54.9797 69.3817 54.5992 68.8202 54.5254C68.0445 54.4293 67.882 54.8283 67.1986 55.1496C66.0793 55.6557 65.5585 55.3417 65.359 54.6103Z" fill="var(--fill-0, #EBEBEB)"/>
<path id="Vector_21" d="M72.1087 57.8642C72.0533 57.6566 72.0211 57.4435 72.0126 57.2289C71.9314 55.9101 70.6754 56.1207 69.6042 55.9397C68.7693 55.7993 70.982 53.6863 69.2976 53.0067C68.9679 52.9171 68.6794 52.7161 68.4812 52.4378C68.3966 52.2307 68.3873 52.0006 68.4547 51.7873C68.5222 51.5741 68.6623 51.3912 68.8506 51.2705C69.2347 51.0375 69.6801 50.9256 70.1287 50.9491C70.4058 50.613 70.1804 50.1106 69.9145 49.7707C69.6485 49.4309 69.3234 49.0319 69.4232 48.6182C69.5746 47.9829 70.4649 47.9607 71.1076 48.0826C71.344 47.7132 71.3403 47.2182 71.4549 46.7823C71.5694 46.3464 71.9166 45.8884 72.3636 45.9438C72.8105 45.9992 73.0433 46.472 73.4718 46.5681C73.9557 46.6826 74.3694 46.2578 74.7462 45.9364C75.123 45.615 75.7842 45.4192 76.0428 45.8403C76.2016 46.0915 76.1056 46.4425 76.2681 46.69C76.5488 47.1185 77.2138 46.8525 77.6238 46.5496C78.0338 46.2467 78.695 45.9659 78.9832 46.3908C79.058 46.5288 79.1127 46.6768 79.1457 46.8303C79.3415 47.3955 79.9473 47.6763 80.4238 48.0346C80.9003 48.3929 81.2734 49.1132 80.8708 49.5565C80.6713 49.7744 80.3241 49.8594 80.228 50.1364C80.1024 50.4837 80.4571 50.794 80.7378 51.0341C81.2032 51.4293 81.2882 52.6151 80.6713 52.9402C80.4127 53.0768 80.0323 53.1175 79.9695 53.4019C79.9067 53.6863 80.1726 53.8563 80.3389 54.052C80.447 54.1918 80.5237 54.3531 80.5639 54.5251C80.6041 54.6972 80.6068 54.8758 80.5717 55.049C80.5367 55.2221 80.4647 55.3857 80.3608 55.5286C80.2569 55.6714 80.1234 55.7902 79.9695 55.8769C79.8217 55.9471 79.6407 56.0062 79.6001 56.1576C79.5757 56.2744 79.5886 56.3958 79.637 56.5048C79.6953 56.7188 79.7153 56.9414 79.6961 57.1624C79.6974 57.2393 79.6682 57.3137 79.6148 57.3692C79.5581 57.41 79.4888 57.4296 79.4191 57.4246C78.5288 57.4653 78.1003 57.1513 77.5721 57.9233C77.5246 58.0016 77.4617 58.0694 77.3874 58.1228C77.3098 58.1593 77.2256 58.1794 77.1399 58.1819C76.5304 58.2336 76.1314 57.8495 75.5699 57.7793C74.7942 57.6795 74.6317 58.0822 73.9483 58.4035C72.829 58.9059 72.3082 58.5956 72.1087 57.8642Z" fill="var(--fill-0, #EBEBEB)"/>
<path id="Vector_22" d="M78.9271 56.362C78.8738 56.1539 78.8416 55.9411 78.8311 55.7266C78.7535 54.4079 77.4938 54.6184 76.4226 54.4374C75.5878 54.297 77.8041 52.1841 76.116 51.5044C75.7876 51.4141 75.5006 51.2131 75.3033 50.9355C75.2172 50.7286 75.2071 50.498 75.2747 50.2844C75.3423 50.0707 75.4833 49.8879 75.6727 49.7682C76.0584 49.5358 76.5048 49.4239 76.9545 49.4468C77.2279 49.1107 77.0062 48.6083 76.7403 48.2648C76.4743 47.9212 76.1455 47.526 76.249 47.116C76.4004 46.4806 77.287 46.4584 77.9297 46.5803C78.1662 46.2109 78.1625 45.7159 78.277 45.28C78.3915 44.8442 78.7387 44.3861 79.1894 44.4378C79.64 44.4895 79.8691 44.9661 80.2976 45.0658C80.7778 45.1766 81.1952 44.7518 81.572 44.4341C81.9488 44.1164 82.61 43.917 82.8686 44.3344C83.0237 44.5893 82.9314 44.9365 83.0939 45.184C83.371 45.6162 84.0359 45.3502 84.4496 45.0436C84.8633 44.737 85.5172 44.4637 85.809 44.8885C85.881 45.0274 85.9344 45.1752 85.9678 45.3281C86.1636 45.8896 86.7731 46.1703 87.2459 46.5323C87.7188 46.8943 88.0955 47.6109 87.6966 48.0505C87.4971 48.2685 87.1499 48.3571 87.0501 48.6342C86.9282 48.9814 87.2829 49.2917 87.5599 49.5281C88.0291 49.9271 88.1103 51.1128 87.4971 51.4342C87.2385 51.5709 86.8581 51.6152 86.7953 51.8996C86.7325 52.1841 86.9984 52.354 87.1647 52.5498C87.2733 52.689 87.3506 52.85 87.3911 53.0219C87.4316 53.1937 87.4344 53.3724 87.3993 53.5454C87.3642 53.7185 87.292 53.8819 87.1878 54.0244C87.0835 54.1669 86.9496 54.2851 86.7953 54.3709C86.6475 54.4411 86.4628 54.5002 86.4259 54.6553C86.4018 54.7706 86.4134 54.8904 86.4591 54.9989C86.5193 55.2138 86.5394 55.4379 86.5182 55.6601C86.5191 55.737 86.4899 55.8112 86.437 55.867C86.3806 55.9056 86.3132 55.9251 86.2449 55.9224C85.3546 55.963 84.9261 55.6453 84.3979 56.4211C84.3499 56.4991 84.2857 56.5659 84.2095 56.6168C84.1343 56.6566 84.0508 56.6781 83.9657 56.6796C83.3525 56.7277 82.9535 56.3472 82.3957 56.277C81.62 56.1773 81.4575 56.5762 80.7741 56.8976C79.6511 57.4037 79.1303 57.0934 78.9271 56.362Z" fill="var(--fill-0, #EBEBEB)"/>
<path id="Vector_23" d="M79.0166 63.6563C78.9749 63.4918 78.9501 63.3235 78.9427 63.154C78.8799 62.1159 77.8899 62.2822 77.0477 62.1418C76.3865 62.031 78.13 60.3687 76.8039 59.8294C76.5447 59.7585 76.3178 59.6007 76.1612 59.3824C76.0915 59.2196 76.0826 59.0371 76.1362 58.8683C76.1897 58.6994 76.3022 58.5555 76.453 58.4626C76.7568 58.2807 77.1078 58.1932 77.4614 58.2114C77.6757 57.9491 77.5021 57.5502 77.2915 57.2805C77.081 57.0109 76.8261 56.708 76.9221 56.3755C77.044 55.8768 77.7422 55.8584 78.2483 55.9544C78.3871 55.6279 78.4791 55.2834 78.5216 54.9312C78.6103 54.5876 78.891 54.2256 79.2382 54.2699C79.5855 54.3143 79.7739 54.6837 80.0989 54.7612C80.4683 54.8499 80.8045 54.5174 81.1037 54.2663C81.4029 54.0151 81.9201 53.8562 82.1232 54.1887C82.2451 54.3845 82.1749 54.6615 82.3005 54.8573C82.5222 55.1934 83.0393 54.9866 83.3681 54.7465C83.6969 54.5064 84.2103 54.2884 84.4394 54.6209C84.4964 54.7305 84.5387 54.8473 84.5649 54.9681C84.7201 55.4114 85.2003 55.633 85.5734 55.9175C85.9465 56.2019 86.242 56.7671 85.9428 57.1143C85.7876 57.2842 85.5143 57.3544 85.4367 57.5724C85.3591 57.7903 85.6177 58.0895 85.8394 58.2779C86.2088 58.5882 86.2716 59.5228 85.7876 59.7777C85.5845 59.8848 85.2853 59.918 85.2336 60.1471C85.1818 60.3761 85.3924 60.5165 85.5291 60.6568C85.6148 60.7669 85.6756 60.8942 85.7073 61.03C85.739 61.1658 85.7409 61.3069 85.7128 61.4435C85.6847 61.5801 85.6273 61.709 85.5446 61.8212C85.4618 61.9335 85.3557 62.0265 85.2336 62.0938C85.119 62.1492 84.975 62.1935 84.9306 62.3154C84.913 62.4074 84.9233 62.5027 84.9602 62.5888C85.0063 62.757 85.0214 62.9323 85.0045 63.1059C85.006 63.1674 84.9835 63.227 84.9417 63.2722C84.8972 63.3023 84.8439 63.3166 84.7903 63.3128C84.0884 63.346 83.7486 63.0985 83.3127 63.708C83.2754 63.7699 83.2249 63.8229 83.1649 63.8632C83.105 63.8925 83.0395 63.9088 82.9728 63.9112C82.4926 63.9482 82.1749 63.6489 81.7354 63.5935C81.1259 63.516 80.9966 63.8299 80.4573 64.0811C79.5855 64.4764 79.1754 64.2326 79.0166 63.6563Z" fill="var(--fill-0, #EBEBEB)"/>
<path id="Vector_24" d="M82.8356 61.1346C82.7817 60.9266 82.7495 60.7137 82.7395 60.4992C82.6619 59.1841 81.4023 59.391 80.331 59.2137C79.4962 59.0733 81.7089 56.9604 80.0244 56.2585C79.6959 56.1685 79.4079 55.9692 79.2081 55.6933C79.1232 55.4857 79.1137 55.255 79.1812 55.0411C79.2487 54.8272 79.3889 54.6437 79.5775 54.5223C79.9634 54.2937 80.4074 54.1821 80.8556 54.201C81.1326 53.8685 80.9073 53.3661 80.6413 53.0226C80.3754 52.679 80.0503 52.2838 80.15 51.8738C80.3052 51.2384 81.1917 51.2125 81.8345 51.3381C82.0709 50.9687 82.0672 50.4738 82.1817 50.0379C82.2962 49.602 82.6435 49.1402 83.0904 49.1956C83.5374 49.251 83.7738 49.7239 84.1986 49.8236C84.6789 49.9344 85.0963 49.5096 85.4731 49.1919C85.8498 48.8743 86.5074 48.6748 86.7696 49.0922C86.9248 49.3434 86.8324 49.6943 86.9913 49.9418C87.272 50.374 87.9369 50.1044 88.3507 49.8014C88.7644 49.4985 89.4182 49.2215 89.71 49.6426C89.7821 49.7828 89.8355 49.9318 89.8689 50.0859C90.0647 50.6474 90.6742 50.9281 91.147 51.2901C91.6198 51.6521 91.9966 52.3688 91.594 52.8083C91.3982 53.0263 91.051 53.1149 90.9512 53.392C90.8293 53.7392 91.1802 54.0495 91.461 54.2859C91.9264 54.6812 92.0114 55.8669 91.3945 56.192C91.1359 56.3287 90.7591 56.3693 90.6963 56.6575C90.6335 56.9456 90.8958 57.1081 91.0657 57.3076C91.175 57.4465 91.2528 57.6076 91.2936 57.7796C91.3345 57.9516 91.3375 58.1304 91.3023 58.3036C91.2672 58.4769 91.1948 58.6404 91.0901 58.7829C90.9855 58.9253 90.8511 59.0434 90.6963 59.1287C90.5486 59.1989 90.3676 59.258 90.3269 59.4132C90.3043 59.5288 90.3172 59.6485 90.3639 59.7567C90.4241 59.9716 90.4441 60.1958 90.423 60.4179C90.4231 60.4947 90.394 60.5686 90.3417 60.6248C90.2842 60.664 90.2155 60.6834 90.1459 60.6802C89.2557 60.7208 88.8272 60.4031 88.2989 61.1789C88.2523 61.2568 88.1893 61.3236 88.1142 61.3747C88.0389 61.414 87.9555 61.4355 87.8704 61.4375C87.2572 61.4855 86.8583 61.105 86.3005 61.0348C85.5248 60.9351 85.3585 61.334 84.6752 61.6554C83.5559 62.1799 83.035 61.8697 82.8356 61.1346Z" fill="var(--fill-0, #EBEBEB)"/>
<path id="Vector_25" d="M72.109 49.8354C72.0533 49.6278 72.0211 49.4147 72.013 49.2C71.9317 47.8812 70.6757 48.0918 69.6045 47.9145C68.7696 47.7741 70.9823 45.6612 69.2979 44.9593C68.9694 44.8694 68.6814 44.67 68.4815 44.3941C68.3967 44.1865 68.3872 43.9558 68.4546 43.7419C68.5221 43.528 68.6623 43.3445 68.8509 43.2231C69.2358 42.9919 69.6806 42.88 70.129 42.9018C70.4061 42.5693 70.1807 42.0669 69.9148 41.7234C69.6488 41.3799 69.3237 40.9846 69.4235 40.5746C69.5749 39.9355 70.4652 39.9134 71.1079 40.0389C71.3443 39.6695 71.3406 39.1746 71.4552 38.735C71.5697 38.2954 71.9169 37.841 72.3639 37.8964C72.8109 37.9519 73.0436 38.4247 73.4721 38.5207C73.956 38.6352 74.3697 38.2104 74.7465 37.8928C75.1233 37.5751 75.7845 37.3719 76.0431 37.793C76.2019 38.0442 76.1059 38.3951 76.2684 38.6426C76.5492 39.0711 77.2141 38.8052 77.6241 38.5023C78.0341 38.1993 78.6953 37.9223 78.9835 38.3434C79.0588 38.4825 79.1136 38.6318 79.146 38.7867C79.3418 39.3482 79.9476 39.6289 80.4241 39.9909C80.9007 40.3529 81.2737 41.0696 80.8711 41.5091C80.6716 41.7271 80.3244 41.8157 80.2283 42.0928C80.1027 42.44 80.4574 42.7503 80.7381 42.9867C81.2036 43.382 81.2885 44.5678 80.6716 44.8928C80.413 45.0295 80.0326 45.0701 79.9698 45.3583C79.907 45.6464 80.1729 45.8089 80.3392 46.0084C80.4472 46.1478 80.524 46.3089 80.5641 46.4806C80.6043 46.6524 80.6069 46.8308 80.5719 47.0036C80.5368 47.1765 80.4649 47.3398 80.3609 47.4823C80.257 47.6248 80.1236 47.7433 79.9698 47.8295C79.822 47.8997 79.641 47.9588 79.6004 48.114C79.576 48.2295 79.5889 48.3498 79.6373 48.4575C79.6957 48.6727 79.7157 48.8966 79.6964 49.1187C79.6965 49.1955 79.6675 49.2694 79.6151 49.3256C79.5576 49.3648 79.4889 49.3842 79.4194 49.381C78.5291 49.4179 78.1006 49.1039 77.5724 49.8797C77.5258 49.9576 77.4628 50.0244 77.3877 50.0755C77.3113 50.1153 77.2263 50.1356 77.1402 50.1346C76.5307 50.1863 76.1317 49.8058 75.5702 49.7356C74.7945 49.6359 74.632 50.0348 73.9486 50.3562C72.8293 50.8808 72.3085 50.5668 72.109 49.8354Z" fill="var(--fill-0, #EBEBEB)"/>
<path id="Vector_26" d="M63.3394 50.2838C63.2878 50.0755 63.2557 49.8628 63.2433 49.6485C63.1658 48.3297 61.9098 48.5403 60.8385 48.3593C60 48.2189 62.2164 46.106 60.5283 45.4263C60.1999 45.336 59.9128 45.135 59.7156 44.8574C59.631 44.6503 59.6216 44.4202 59.6891 44.2069C59.7566 43.9937 59.8967 43.8108 60.085 43.6901C60.4691 43.4571 60.9145 43.3452 61.3631 43.3687C61.6401 43.0326 61.4148 42.5302 61.1488 42.1867C60.8829 41.8431 60.5578 41.4479 60.6575 41.0378C60.809 40.4025 61.6992 40.3803 62.342 40.5022C62.5784 40.1328 62.571 39.6378 62.6892 39.2019C62.8074 38.766 63.151 38.308 63.5979 38.3597C64.0449 38.4114 64.2776 38.8879 64.7061 38.9877C65.1864 39.0985 65.6038 38.6737 65.9806 38.356C66.3573 38.0383 67.0186 37.8388 67.2771 38.2563C67.4323 38.5112 67.3399 38.8584 67.5025 39.1059C67.7832 39.5381 68.4481 39.2721 68.8582 38.9655C69.2682 38.6589 69.9294 38.3856 70.2175 38.8104C70.2907 38.9491 70.3454 39.0969 70.3801 39.2499C70.5722 39.8114 71.1817 40.0922 71.6582 40.4542C72.1347 40.8162 72.5078 41.5328 72.1052 41.9724C71.9057 42.1903 71.5585 42.279 71.4624 42.556C71.3368 42.9033 71.6914 43.2136 71.9722 43.45C72.4376 43.8489 72.5226 45.0347 71.9057 45.3561C71.6471 45.4928 71.2666 45.5371 71.2038 45.8215C71.141 46.106 71.407 46.2759 71.5732 46.4717C71.6819 46.6108 71.7592 46.7719 71.7997 46.9438C71.8402 47.1156 71.843 47.2942 71.8079 47.4673C71.7728 47.6403 71.7006 47.8037 71.5963 47.9462C71.492 48.0887 71.3581 48.207 71.2038 48.2928C71.0561 48.363 70.8751 48.4221 70.8344 48.5772C70.8104 48.6925 70.822 48.8123 70.8677 48.9208C70.9291 49.1354 70.9503 49.3596 70.9305 49.582C70.9295 49.6585 70.9006 49.7321 70.8492 49.7888C70.7917 49.828 70.723 49.8475 70.6534 49.8443C69.7632 49.8849 69.3347 49.5672 68.8064 50.3429C68.7598 50.4208 68.6968 50.4877 68.6217 50.5387C68.545 50.578 68.4604 50.5995 68.3743 50.6015C67.7647 50.6495 67.3658 50.2691 66.8043 50.1989C66.0286 50.0991 65.866 50.4981 65.1827 50.8195C64.0634 51.344 63.5351 51.0152 63.3394 50.2838Z" fill="var(--fill-0, #EBEBEB)"/>
<path id="Vector_27" d="M58.0231 53.8696C57.9674 53.6621 57.9352 53.449 57.927 53.2343C57.8457 51.9192 56.5898 52.1261 55.5185 51.9488C54.6837 51.8084 56.8964 49.6954 55.212 49.012C54.8834 48.9221 54.5954 48.7227 54.3956 48.4469C54.3107 48.2393 54.3012 48.0085 54.3687 47.7946C54.4362 47.5808 54.5764 47.3972 54.765 47.2759C55.1498 47.0446 55.5946 46.9328 56.0431 46.9545C56.3201 46.6221 56.0948 46.1197 55.8288 45.7761C55.5629 45.4326 55.2378 45.0373 55.3375 44.6273C55.489 43.9882 56.3792 43.9661 57.022 44.0917C57.2584 43.7223 57.2547 43.2273 57.3692 42.7914C57.4837 42.3555 57.831 41.8938 58.2779 41.9492C58.7249 42.0046 58.9576 42.4774 59.3861 42.5735C59.87 42.688 60.2838 42.2632 60.6606 41.9455C61.0373 41.6278 61.6986 41.4246 61.9571 41.8457C62.116 42.0969 62.0199 42.4479 62.1825 42.6954C62.4632 43.1239 63.1281 42.8579 63.5382 42.555C63.9482 42.2521 64.6094 41.975 64.9012 42.3961C64.9738 42.5361 65.0272 42.6852 65.0601 42.8394C65.2559 43.4009 65.8617 43.6816 66.3382 44.0437C66.8147 44.4057 67.1878 45.1223 66.7852 45.5619C66.5894 45.7798 66.2385 45.8685 66.1424 46.1455C66.0168 46.4928 66.3714 46.8031 66.6522 47.0395C67.1176 47.4347 67.2026 48.6205 66.5857 48.9456C66.3271 49.0822 65.9503 49.1229 65.8838 49.411C65.8173 49.6991 66.087 49.8617 66.2532 50.0611C66.3613 50.2005 66.438 50.3616 66.4782 50.5334C66.5183 50.7051 66.521 50.8835 66.4859 51.0564C66.4509 51.2292 66.3789 51.3925 66.275 51.535C66.1711 51.6776 66.0377 51.796 65.8838 51.8823C65.7361 51.9525 65.5551 52.0116 65.5144 52.1667C65.4901 52.2822 65.503 52.4025 65.5514 52.5102C65.6098 52.7255 65.6298 52.9493 65.6105 53.1715C65.6106 53.2482 65.5815 53.3222 65.5292 53.3783C65.4717 53.4175 65.403 53.437 65.3334 53.4337C64.4432 53.4707 64.0147 53.1567 63.4864 53.9324C63.4398 54.0103 63.3768 54.0771 63.3017 54.1282C63.225 54.1675 63.1404 54.189 63.0543 54.191C62.4447 54.239 62.0458 53.8585 61.4843 53.7884C60.7123 53.6886 60.546 54.0876 59.8627 54.4089C58.736 54.915 58.2225 54.6047 58.0231 53.8696Z" fill="var(--fill-0, #EBEBEB)"/>
<path id="Vector_28" d="M59.6326 58.3998C59.6326 58.3998 61.849 61.547 62.6284 62.5444C63.4078 63.5418 67.2311 69.7624 67.7556 73.8775C67.8111 74.3171 67.8665 74.6939 67.9182 75.0226C66.267 85.9198 66.5292 105.852 66.5847 109.266H71.8153C71.8633 105.417 72.3066 70.2389 72.4728 69.164C72.6465 68.0299 74.8333 63.7006 78.2096 61.9238C81.5859 60.147 84.4893 54.2588 84.4893 54.2588H83.4144C83.4144 54.2588 81.4196 57.8678 78.579 59.8626C78.1704 60.1378 77.7433 60.3847 77.3009 60.6014C77.3069 58.4305 76.9241 56.2762 76.1705 54.2403L75.5906 54.7797C76.3737 57.9897 76.2702 60.051 76.0338 61.233C74.9542 61.7333 73.9575 62.396 73.0787 63.1982C70.1863 59.3823 68.5092 50.6055 68.5092 50.6055L67.7704 51.0192C67.9844 52.8279 68.31 54.6217 68.7456 56.3902C69.296 58.6583 70.9214 62.9286 71.6749 64.8642C70.7691 66.1752 70.0214 67.5888 69.4475 69.0753C69.3679 68.9501 69.2723 68.8358 69.163 68.7355C67.2422 66.9993 63.6221 58.8024 63.6221 58.8024C62.7503 56.8963 64.0838 51.8947 64.0838 51.8947H63.0754L62.6247 56.2683L60.0907 53.5052L59.6289 53.8746L62.3181 57.3285L63.7034 61.6874L60.0943 57.6942L59.6326 58.3998Z" fill="var(--fill-0, #E6E6E6)"/>
<path id="Vector_29" d="M149.257 73.9801C149.299 73.8205 149.324 73.6571 149.331 73.4925C149.394 72.4803 150.358 72.6392 151.178 72.5025C151.821 72.3954 150.122 70.7737 151.415 70.2529C151.666 70.183 151.887 70.0292 152.039 69.817C152.104 69.658 152.111 69.4815 152.06 69.3177C152.009 69.1539 151.902 69.0131 151.758 68.9193C151.463 68.741 151.121 68.6548 150.776 68.6718C150.565 68.4169 150.739 68.0291 150.942 67.7668C151.145 67.5045 151.396 67.209 151.311 66.884C151.193 66.3963 150.513 66.3779 150.018 66.4739C149.882 66.1561 149.792 65.8201 149.752 65.4765C149.664 65.1404 149.383 64.7895 149.054 64.8301C148.726 64.8707 148.533 65.2364 148.216 65.3103C147.898 65.3842 147.525 65.0739 147.237 64.8264C146.949 64.5789 146.443 64.4312 146.243 64.7525C146.121 64.9446 146.195 65.2143 146.07 65.4027C145.855 65.7351 145.331 65.5283 145.028 65.2955C144.725 65.0628 144.208 64.8523 143.986 65.1736C143.929 65.2802 143.888 65.3947 143.864 65.5135C143.713 65.9457 143.247 66.1599 142.882 66.437C142.516 66.714 142.232 67.2644 142.538 67.6043C142.69 67.7705 142.959 67.837 143.033 68.0512C143.107 68.2655 142.856 68.5536 142.642 68.7383C142.272 69.0412 142.22 69.9499 142.693 70.2159C142.889 70.3193 143.181 70.3526 143.229 70.5853C143.277 70.818 143.074 70.9325 142.944 71.084C142.861 71.1909 142.801 71.3147 142.77 71.4469C142.738 71.5791 142.736 71.7166 142.763 71.8497C142.79 71.9828 142.846 72.1085 142.926 72.218C143.007 72.3275 143.11 72.4183 143.229 72.484C143.343 72.5357 143.484 72.5801 143.524 72.6983C143.541 72.7876 143.532 72.8799 143.499 72.9642C143.451 73.1284 143.436 73.3003 143.454 73.4703C143.453 73.4994 143.458 73.5284 143.468 73.5557C143.478 73.583 143.493 73.608 143.513 73.6291C143.558 73.6595 143.611 73.6739 143.665 73.6698C144.348 73.703 144.677 73.4592 145.091 74.0392C145.128 74.099 145.177 74.1506 145.235 74.1906C145.293 74.2199 145.358 74.2363 145.423 74.2386C145.892 74.2756 146.199 73.9838 146.627 73.9284C147.222 73.8545 147.348 74.1611 147.872 74.4049C148.703 74.778 149.106 74.5416 149.257 73.9801Z" fill="var(--fill-0, #EBEBEB)"/>
<path id="Vector_30" d="M141.395 73.1383C141.436 72.9787 141.461 72.8153 141.469 72.6507C141.531 71.6385 142.495 71.7974 143.315 71.6607C143.958 71.5536 142.259 69.9319 143.552 69.4111C143.804 69.3412 144.024 69.1874 144.176 68.9752C144.241 68.8162 144.248 68.6397 144.197 68.4759C144.146 68.3121 144.039 68.1713 143.895 68.0775C143.6 67.8992 143.258 67.813 142.913 67.83C142.702 67.5752 142.872 67.1873 143.079 66.925C143.286 66.6627 143.533 66.3672 143.448 66.0422C143.33 65.5545 142.651 65.5361 142.156 65.6321C142.019 65.3143 141.93 64.9783 141.89 64.6347C141.801 64.2986 141.52 63.9477 141.191 63.9883C140.863 64.0289 140.671 64.3946 140.353 64.4685C140.035 64.5424 139.662 64.2321 139.374 63.9846C139.086 63.7371 138.58 63.5894 138.38 63.9107C138.258 64.1028 138.332 64.3725 138.207 64.5646C137.992 64.8933 137.468 64.6865 137.165 64.4537C136.862 64.221 136.345 64.0105 136.123 64.3318C136.066 64.4384 136.025 64.5529 136.001 64.6717C135.85 65.1039 135.385 65.3181 135.019 65.5952C134.653 65.8722 134.369 66.4226 134.675 66.7625C134.827 66.9287 135.096 66.9952 135.17 67.2094C135.244 67.4237 134.993 67.7118 134.779 67.8965C134.409 68.1994 134.358 69.1081 134.827 69.3741C135.026 69.4775 135.318 69.5108 135.366 69.7435C135.414 69.9762 135.211 70.0907 135.078 70.2422C134.995 70.3496 134.936 70.4736 134.905 70.6059C134.875 70.7381 134.873 70.8754 134.9 71.0084C134.928 71.1414 134.984 71.2668 135.064 71.3762C135.144 71.4856 135.247 71.5764 135.366 71.6422C135.481 71.6939 135.621 71.7383 135.662 71.8565C135.679 71.9458 135.67 72.0381 135.636 72.1224C135.588 72.2867 135.572 72.4583 135.588 72.6285C135.588 72.6874 135.611 72.7441 135.651 72.7873C135.695 72.8173 135.748 72.8328 135.802 72.8317C136.485 72.8612 136.814 72.6174 137.228 73.2011C137.264 73.2617 137.313 73.3134 137.372 73.3525C137.431 73.3818 137.495 73.3982 137.56 73.4005C138.029 73.4375 138.336 73.1457 138.765 73.0902C139.359 73.0164 139.485 73.323 140.009 73.5668C140.841 73.9288 141.239 73.6924 141.395 73.1383Z" fill="var(--fill-0, #EBEBEB)"/>
<path id="Vector_31" d="M140.638 68.1253C140.68 67.9659 140.705 67.8024 140.712 67.6377C140.775 66.6293 141.739 66.7881 142.559 66.6514C143.202 66.5443 141.503 64.9226 142.795 64.3981C143.047 64.3298 143.267 64.1772 143.42 63.9659C143.485 63.807 143.492 63.6304 143.441 63.4666C143.389 63.3028 143.283 63.162 143.139 63.0683C142.843 62.8899 142.501 62.8037 142.156 62.8208C141.946 62.5659 142.116 62.178 142.323 61.9157C142.53 61.6535 142.777 61.358 142.692 61.0329C142.574 60.5453 141.894 60.5268 141.399 60.6229C141.263 60.3048 141.174 59.969 141.133 59.6255C141.045 59.2893 140.764 58.9384 140.435 58.979C140.106 59.0197 139.914 59.3854 139.596 59.4593C139.279 59.5331 138.906 59.2191 138.618 58.9753C138.329 58.7315 137.823 58.5764 137.624 58.9015C137.502 59.0936 137.576 59.3632 137.45 59.5516C137.236 59.8804 136.712 59.6772 136.409 59.4445C136.106 59.2118 135.589 58.9975 135.367 59.3226C135.309 59.4291 135.268 59.5437 135.245 59.6624C135.094 60.0946 134.628 60.3089 134.262 60.5859C133.897 60.863 133.612 61.4134 133.919 61.7532C134.07 61.9194 134.336 61.9859 134.414 62.2002C134.491 62.4144 134.237 62.7026 134.022 62.8836C133.653 63.1902 133.597 64.0989 134.07 64.3612C134.27 64.4683 134.562 64.4978 134.61 64.7306C134.658 64.9633 134.454 65.0778 134.322 65.2292C134.239 65.3363 134.18 65.4601 134.149 65.592C134.118 65.724 134.117 65.8611 134.144 65.9937C134.172 66.1264 134.227 66.2516 134.308 66.3607C134.388 66.4697 134.491 66.5601 134.61 66.6256C134.724 66.681 134.865 66.7253 134.905 66.8435C134.922 66.9328 134.913 67.0251 134.879 67.1095C134.834 67.269 134.817 67.4354 134.831 67.6008C134.828 67.6291 134.831 67.6579 134.841 67.6847C134.851 67.7115 134.867 67.7356 134.888 67.755C134.909 67.7745 134.934 67.7887 134.961 67.7966C134.989 67.8044 135.018 67.8057 135.046 67.8002C135.725 67.8335 136.058 67.5897 136.471 68.1696C136.51 68.2287 136.558 68.2801 136.615 68.3211C136.674 68.3508 136.738 68.366 136.804 68.3654C137.273 68.4061 137.58 68.1142 138.008 68.0588C138.603 67.9812 138.728 68.2878 139.253 68.5353C140.084 68.9269 140.483 68.6868 140.638 68.1253Z" fill="var(--fill-0, #EBEBEB)"/>
<path id="Vector_32" d="M135.464 70.6179C135.505 70.4583 135.529 70.2948 135.534 70.1303C135.597 69.1218 136.561 69.2806 137.381 69.144C138.024 69.0368 136.325 67.4152 137.618 66.8906C137.869 66.8223 138.09 66.6698 138.242 66.4585C138.307 66.2995 138.314 66.123 138.263 65.9592C138.212 65.7954 138.105 65.6545 137.961 65.5608C137.666 65.3824 137.324 65.2963 136.979 65.3133C136.768 65.0584 136.942 64.6706 137.145 64.4083C137.348 64.146 137.599 63.8505 137.514 63.5254C137.396 63.0378 136.717 63.0194 136.222 63.1154C136.086 62.7974 135.996 62.4615 135.956 62.118C135.867 61.7819 135.586 61.431 135.257 61.4716C134.929 61.5122 134.737 61.8779 134.419 61.9518C134.101 62.0257 133.728 61.7117 133.44 61.4679C133.152 61.2241 132.646 61.0726 132.446 61.394C132.324 61.5861 132.398 61.8558 132.273 62.0442C132.058 62.3729 131.534 62.1698 131.231 61.937C130.928 61.7043 130.411 61.4901 130.189 61.8151C130.133 61.9223 130.092 62.0367 130.067 62.155C129.916 62.5872 129.45 62.8014 129.085 63.0785C128.719 63.3555 128.435 63.9059 128.741 64.2458C128.893 64.412 129.162 64.4785 129.236 64.6927C129.31 64.907 129.059 65.1951 128.845 65.3761C128.475 65.6827 128.424 66.5914 128.896 66.8537C129.092 66.9608 129.384 66.9904 129.432 67.2231C129.48 67.4558 129.277 67.5703 129.148 67.7218C129.064 67.8284 129.004 67.9519 128.973 68.0839C128.942 68.2158 128.94 68.3529 128.967 68.4858C128.994 68.6186 129.049 68.744 129.13 68.8532C129.21 68.9624 129.313 69.0528 129.432 69.1181C129.547 69.1735 129.687 69.2179 129.728 69.3361C129.746 69.4253 129.737 69.5181 129.702 69.602C129.654 69.7662 129.639 69.9381 129.657 70.1081C129.656 70.1372 129.661 70.1662 129.671 70.1935C129.681 70.2208 129.696 70.2458 129.716 70.2669C129.761 70.2971 129.814 70.3114 129.868 70.3076C130.551 70.3408 130.88 70.097 131.297 70.677C131.333 70.7367 131.381 70.7883 131.438 70.8284C131.496 70.8577 131.561 70.8741 131.626 70.8764C132.095 70.9134 132.402 70.6216 132.83 70.5662C133.425 70.4886 133.551 70.7952 134.075 71.0427C134.906 71.4195 135.309 71.1793 135.464 70.6179Z" fill="var(--fill-0, #EBEBEB)"/>
<path id="Vector_33" d="M130.226 69.4703C130.266 69.3104 130.29 69.1472 130.3 68.9827C130.359 67.9706 131.323 68.1294 132.147 67.9927C132.786 67.8856 131.087 66.2639 132.383 65.7431C132.634 65.6722 132.854 65.5186 133.008 65.3072C133.072 65.1478 133.079 64.971 133.027 64.8072C132.975 64.6434 132.868 64.5027 132.723 64.4096C132.428 64.2308 132.085 64.1446 131.741 64.1621C131.53 63.9072 131.704 63.5193 131.907 63.257C132.11 62.9948 132.361 62.6993 132.276 62.3742C132.162 61.8866 131.478 61.8718 130.987 61.9642C130.848 61.6471 130.757 61.3109 130.717 60.9668C130.629 60.6306 130.348 60.2797 130.019 60.3203C129.69 60.361 129.498 60.7267 129.181 60.8006C128.863 60.8744 128.494 60.5641 128.202 60.3166C127.91 60.0691 127.407 59.9214 127.208 60.2428C127.09 60.4349 127.16 60.7045 127.034 60.8966C126.82 61.2254 126.296 61.0185 125.996 60.7858C125.697 60.5531 125.176 60.3425 124.951 60.6639C124.897 60.7717 124.856 60.8859 124.829 61.0037C124.681 61.4359 124.212 61.6502 123.85 61.9272C123.488 62.2043 123.196 62.7547 123.503 63.0945C123.658 63.2607 123.924 63.3272 123.998 63.5415C124.072 63.7557 123.821 64.0439 123.606 64.2286C123.237 64.5315 123.185 65.4402 123.658 65.7061C123.858 65.8096 124.146 65.8428 124.197 66.0755C124.249 66.3083 124.042 66.4228 123.909 66.5742C123.826 66.6816 123.767 66.8057 123.737 66.9379C123.706 67.0702 123.704 67.2075 123.732 67.3404C123.759 67.4734 123.815 67.5989 123.895 67.7083C123.976 67.8177 124.079 67.9084 124.197 67.9742C124.308 68.026 124.449 68.0703 124.489 68.1885C124.51 68.2776 124.501 68.3711 124.463 68.4545C124.417 68.6189 124.402 68.7906 124.419 68.9605C124.418 68.9898 124.424 69.019 124.435 69.0462C124.445 69.0735 124.461 69.0984 124.482 69.1194C124.525 69.1493 124.577 69.1648 124.63 69.1637C125.313 69.1933 125.642 68.9495 126.059 69.5331C126.094 69.5935 126.142 69.6453 126.2 69.6846C126.259 69.713 126.323 69.7293 126.388 69.7326C126.857 69.7695 127.164 69.4777 127.592 69.4223C128.187 69.3484 128.331 69.655 128.837 69.8988C129.657 70.2682 130.071 70.0318 130.226 69.4703Z" fill="var(--fill-0, #EBEBEB)"/>
<path id="Vector_34" d="M130.16 75.0667C130.194 74.9463 130.214 74.8223 130.219 74.6973C130.267 73.9031 131.028 74.0287 131.675 73.9216C132.177 73.8367 130.84 72.5585 131.859 72.1485C132.058 72.094 132.231 71.9726 132.351 71.805C132.402 71.68 132.408 71.5409 132.368 71.4119C132.327 71.283 132.243 71.1723 132.129 71.0994C131.897 70.9588 131.628 70.8906 131.357 70.9036C131.191 70.7005 131.324 70.3976 131.486 70.1907C131.649 69.9838 131.856 69.7511 131.782 69.4962C131.689 69.1268 131.154 69.0973 130.766 69.1749C130.658 68.9242 130.587 68.6591 130.555 68.388C130.485 68.1221 130.275 67.845 130.005 67.8783C129.735 67.9115 129.595 68.1997 129.344 68.2477C129.093 68.2957 128.801 68.0593 128.575 67.8783C128.35 67.6973 127.947 67.5643 127.792 67.8192C127.696 67.9706 127.755 68.1886 127.656 68.3289C127.486 68.5912 127.087 68.4287 126.836 68.244C126.584 68.0593 126.189 67.8931 126.016 68.1516C125.97 68.2348 125.937 68.3245 125.919 68.4176C125.801 68.7574 125.432 68.9274 125.147 69.1564C124.863 69.3854 124.634 69.8065 124.874 70.0725C124.996 70.2055 125.207 70.2572 125.266 70.4419C125.325 70.6266 125.125 70.8371 124.955 70.9812C124.675 71.2213 124.623 71.938 124.996 72.1337C125.151 72.215 125.365 72.2409 125.421 72.4108C125.476 72.5807 125.299 72.6878 125.192 72.806C125.125 72.8907 125.077 72.9889 125.053 73.0938C125.028 73.1988 125.026 73.3079 125.048 73.4135C125.07 73.5191 125.115 73.6187 125.179 73.7052C125.243 73.7917 125.326 73.863 125.421 73.9142C125.509 73.9549 125.62 73.9918 125.654 74.0841C125.667 74.155 125.659 74.2282 125.631 74.2947C125.595 74.4243 125.582 74.5595 125.594 74.6937C125.595 74.7389 125.612 74.7823 125.642 74.8156C125.676 74.841 125.718 74.8528 125.761 74.8488C126.3 74.8747 126.559 74.6826 126.887 75.1517C126.914 75.1995 126.952 75.24 126.998 75.2699C127.044 75.2934 127.094 75.306 127.146 75.3068C127.515 75.3364 127.759 75.1074 128.095 75.0631C128.564 75.004 128.664 75.2478 129.074 75.4325C129.724 75.6984 130.031 75.51 130.16 75.0667Z" fill="var(--fill-0, #EBEBEB)"/>
<path id="Vector_35" d="M127.223 73.1383C127.264 72.9787 127.289 72.8153 127.297 72.6507C127.359 71.6385 128.324 71.7974 129.144 71.6607C129.786 71.5536 128.087 69.9319 129.38 69.4111C129.632 69.3412 129.852 69.1874 130.004 68.9752C130.069 68.8162 130.076 68.6397 130.025 68.4759C129.974 68.3121 129.867 68.1713 129.724 68.0775C129.428 67.8992 129.086 67.813 128.741 67.83C128.53 67.5752 128.7 67.1873 128.907 66.925C129.114 66.6627 129.362 66.3672 129.277 66.0422C129.158 65.5545 128.479 65.5361 127.984 65.6321C127.847 65.3143 127.758 64.9783 127.718 64.6347C127.629 64.2986 127.348 63.9477 127.02 63.9883C126.691 64.0289 126.499 64.3946 126.181 64.4685C125.863 64.5424 125.49 64.2321 125.202 63.9846C124.914 63.7371 124.408 63.5894 124.208 63.9107C124.087 64.1028 124.16 64.3725 124.035 64.5646C123.821 64.8933 123.296 64.6865 122.993 64.4537C122.69 64.221 122.173 64.0105 121.951 64.3318C121.894 64.4384 121.853 64.5529 121.83 64.6717C121.678 65.1039 121.213 65.3181 120.847 65.5952C120.481 65.8722 120.197 66.4226 120.503 66.7625C120.655 66.9287 120.925 66.9952 120.998 67.2094C121.072 67.4237 120.821 67.7118 120.607 67.8965C120.237 68.1994 120.186 69.1081 120.655 69.3741C120.854 69.4775 121.146 69.5108 121.194 69.7435C121.242 69.9762 121.039 70.0907 120.906 70.2422C120.823 70.3496 120.764 70.4736 120.733 70.6059C120.703 70.7381 120.701 70.8754 120.729 71.0084C120.756 71.1414 120.812 71.2668 120.892 71.3762C120.972 71.4856 121.075 71.5764 121.194 71.6422C121.309 71.6939 121.449 71.7383 121.49 71.8565C121.507 71.9458 121.498 72.0381 121.464 72.1224C121.416 72.2866 121.401 72.4585 121.42 72.6285C121.418 72.6576 121.423 72.6866 121.433 72.7139C121.443 72.7412 121.459 72.7662 121.479 72.7873C121.523 72.8173 121.576 72.8328 121.63 72.8317C122.313 72.8612 122.642 72.6174 123.056 73.2011C123.092 73.2617 123.141 73.3134 123.2 73.3525C123.259 73.3818 123.323 73.3982 123.388 73.4005C123.858 73.4375 124.164 73.1457 124.593 73.0902C125.187 73.0164 125.313 73.323 125.838 73.5668C126.669 73.9288 127.071 73.6924 127.223 73.1383Z" fill="var(--fill-0, #EBEBEB)"/>
<path id="Vector_36" d="M135.464 64.4616C135.505 64.302 135.529 64.1386 135.534 63.974C135.597 62.9656 136.561 63.1244 137.381 62.9877C138.024 62.8806 136.325 61.2589 137.618 60.7344C137.869 60.6661 138.09 60.5135 138.242 60.3022C138.307 60.1433 138.314 59.9667 138.263 59.8029C138.212 59.6391 138.105 59.4983 137.961 59.4046C137.666 59.2262 137.324 59.14 136.979 59.1571C136.768 58.9022 136.942 58.5143 137.145 58.2521C137.348 57.9898 137.599 57.6943 137.514 57.3692C137.396 56.8816 136.717 56.8631 136.222 56.9592C136.086 56.6411 135.996 56.3053 135.956 55.9618C135.867 55.6256 135.586 55.2747 135.257 55.3153C134.929 55.356 134.737 55.7217 134.419 55.7956C134.101 55.8694 133.728 55.5554 133.44 55.3116C133.152 55.0678 132.646 54.9164 132.446 55.2378C132.324 55.4299 132.398 55.6995 132.273 55.8879C132.058 56.2167 131.534 56.0135 131.231 55.7808C130.928 55.5481 130.411 55.3338 130.189 55.6589C130.133 55.7661 130.092 55.8804 130.067 55.9987C129.916 56.4309 129.45 56.6452 129.085 56.9222C128.719 57.1993 128.435 57.7497 128.741 58.0895C128.893 58.2557 129.162 58.3222 129.236 58.5365C129.31 58.7507 129.059 59.0389 128.845 59.2199C128.475 59.5265 128.424 60.4352 128.896 60.6975C129.092 60.8046 129.384 60.8341 129.432 61.0669C129.48 61.2996 129.277 61.4141 129.148 61.5655C129.064 61.6721 129.004 61.7957 128.973 61.9276C128.942 62.0595 128.94 62.1967 128.967 62.3295C128.994 62.4624 129.049 62.5877 129.13 62.6969C129.21 62.8061 129.313 62.8965 129.432 62.9619C129.547 63.0173 129.687 63.0616 129.728 63.1798C129.746 63.269 129.737 63.3619 129.702 63.4458C129.654 63.6099 129.639 63.7819 129.657 63.9518C129.656 63.9809 129.661 64.01 129.671 64.0373C129.681 64.0645 129.696 64.0895 129.716 64.1107C129.761 64.1408 129.814 64.1551 129.868 64.1513C130.551 64.1846 130.88 63.9408 131.297 64.5207C131.333 64.5804 131.381 64.632 131.438 64.6722C131.496 64.7015 131.561 64.7179 131.626 64.7202C132.095 64.7571 132.402 64.4653 132.83 64.4099C133.425 64.3323 133.551 64.6389 134.075 64.8864C134.906 65.2632 135.309 65.0157 135.464 64.4616Z" fill="var(--fill-0, #EBEBEB)"/>
<path id="Vector_37" d="M142.187 64.8015C142.227 64.6417 142.252 64.4784 142.261 64.3139C142.32 63.3054 143.284 63.4642 144.108 63.3276C144.751 63.2204 143.052 61.5988 144.344 61.0742C144.597 61.0058 144.818 60.8534 144.972 60.642C145.037 60.4827 145.044 60.3059 144.992 60.142C144.94 59.9782 144.832 59.8376 144.688 59.7444C144.392 59.566 144.05 59.4799 143.705 59.4969C143.495 59.242 143.668 58.8542 143.872 58.5919C144.075 58.3296 144.326 58.0341 144.241 57.709C144.123 57.2214 143.443 57.203 142.948 57.299C142.812 56.981 142.723 56.6451 142.682 56.3016C142.593 55.9655 142.313 55.6145 141.984 55.6552C141.655 55.6958 141.463 56.0615 141.145 56.1354C140.828 56.2093 140.458 55.8953 140.167 55.6515C139.875 55.4077 139.372 55.2562 139.173 55.5776C139.055 55.7697 139.125 56.0394 138.999 56.2277C138.785 56.5602 138.26 56.3533 137.958 56.1206C137.655 55.8879 137.137 55.6737 136.916 55.9987C136.861 56.1066 136.821 56.2207 136.794 56.3386C136.642 56.7708 136.177 56.985 135.811 57.2621C135.446 57.5391 135.161 58.0895 135.468 58.4294C135.619 58.5956 135.889 58.6621 135.963 58.8763C136.037 59.0906 135.785 59.3787 135.571 59.5634C135.202 59.8663 135.15 60.775 135.623 61.041C135.819 61.1444 136.111 61.174 136.159 61.4104C136.207 61.6468 136.003 61.7576 135.874 61.9091C135.791 62.0159 135.732 62.1395 135.701 62.2713C135.67 62.4031 135.668 62.54 135.695 62.6727C135.722 62.8053 135.778 62.9306 135.858 63.0398C135.938 63.149 136.04 63.2396 136.159 63.3054C136.273 63.3608 136.413 63.4051 136.454 63.5233C136.473 63.6125 136.464 63.7054 136.428 63.7893C136.38 63.9534 136.365 64.1254 136.384 64.2954C136.383 64.3245 136.387 64.3535 136.397 64.3808C136.408 64.4081 136.423 64.433 136.443 64.4542C136.488 64.4843 136.541 64.4986 136.594 64.4949C137.278 64.5281 137.607 64.2843 138.024 64.8643C138.06 64.924 138.108 64.9756 138.164 65.0157C138.223 65.045 138.287 65.0614 138.353 65.0637C138.822 65.1007 139.129 64.8088 139.557 64.7534C140.152 64.6759 140.277 64.9862 140.802 65.23C141.629 65.603 142.032 65.3814 142.187 64.8015Z" fill="var(--fill-0, #EBEBEB)"/>
<path id="Vector_38" d="M146.283 67.555C146.325 67.3956 146.35 67.2321 146.357 67.0674C146.416 66.0589 147.384 66.2178 148.204 66.0811C148.846 65.974 147.147 64.3523 148.44 63.8278C148.691 63.7594 148.912 63.6069 149.064 63.3956C149.129 63.2366 149.136 63.0601 149.085 62.8963C149.034 62.7325 148.927 62.5917 148.784 62.498C148.488 62.3196 148.146 62.2334 147.801 62.2505C147.59 61.9956 147.76 61.6077 147.963 61.3454C148.167 61.0832 148.418 60.7839 148.333 60.4626C148.218 59.975 147.535 59.9565 147.044 60.0525C146.908 59.7345 146.818 59.3986 146.778 59.0552C146.689 58.719 146.408 58.3681 146.08 58.4087C145.751 58.4494 145.555 58.8151 145.237 58.8889C144.92 58.9628 144.55 58.6488 144.262 58.405C143.974 58.1612 143.464 58.0061 143.265 58.3312C143.147 58.5232 143.217 58.7929 143.095 58.9813C142.881 59.3101 142.356 59.1069 142.053 58.8742C141.75 58.6414 141.233 58.4272 141.011 58.7523C140.954 58.8593 140.912 58.9737 140.886 59.0921C140.738 59.5243 140.269 59.7386 139.907 60.0156C139.545 60.2927 139.253 60.8431 139.563 61.1829C139.715 61.3491 139.981 61.4156 140.058 61.6299C140.136 61.8441 139.881 62.1322 139.667 62.3133C139.297 62.6199 139.242 63.5286 139.715 63.7908C139.914 63.898 140.206 63.9275 140.254 64.1602C140.302 64.393 140.099 64.5075 139.966 64.6589C139.883 64.766 139.824 64.8898 139.794 65.0217C139.763 65.1537 139.761 65.2907 139.789 65.4234C139.816 65.5561 139.872 65.6813 139.952 65.7903C140.033 65.8994 140.136 65.9898 140.254 66.0552C140.369 66.1107 140.505 66.155 140.55 66.2732C140.567 66.3628 140.557 66.4556 140.52 66.5392C140.476 66.7039 140.461 66.8752 140.476 67.0452C140.477 67.104 140.499 67.1604 140.539 67.2041C140.582 67.2342 140.634 67.2485 140.686 67.2447C141.37 67.2743 141.699 67.0341 142.116 67.6141C142.153 67.674 142.202 67.7256 142.26 67.7656C142.318 67.7953 142.383 67.8105 142.448 67.8099C142.918 67.8505 143.224 67.5587 143.653 67.5033C144.247 67.4257 144.373 67.7323 144.897 67.9798C145.714 68.3566 146.113 68.1165 146.283 67.555Z" fill="var(--fill-0, #EBEBEB)"/>
<path id="Vector_39" d="M145.029 71.0359C145.029 71.0359 143.323 73.448 142.732 74.2164C142.141 74.9847 139.2 79.7573 138.798 82.9046C138.757 83.2407 138.713 83.5326 138.672 83.7875C139.939 92.1469 139.74 107.429 139.695 110.059H135.684C135.647 107.104 135.314 80.1156 135.178 79.2919C135.041 78.4681 133.353 75.0992 130.767 73.7325C128.181 72.3657 125.965 67.8554 125.965 67.8554H126.792C126.792 67.8554 128.322 70.6221 130.486 72.1551C130.799 72.3701 131.126 72.5638 131.465 72.7351C131.46 71.0697 131.754 69.4168 132.333 67.8554L132.78 68.2654C132.178 70.733 132.256 72.3103 132.44 73.219C133.263 73.6037 134.021 74.112 134.69 74.7261C136.951 71.771 138.221 65.0664 138.221 65.0664L138.801 65.3804C138.639 66.7683 138.392 68.145 138.063 69.5029C137.638 71.2427 136.393 74.5193 135.813 76.0043C136.506 77.002 137.079 78.0783 137.52 79.2106C137.581 79.1143 137.654 79.0262 137.738 78.9484C139.215 77.6185 141.978 71.3277 141.978 71.3277C142.647 69.8501 141.609 66.0305 141.609 66.0305H142.381L142.728 69.3847L144.671 67.2643L145.041 67.5598L142.957 70.2084L141.897 73.5662L144.664 70.5039L145.029 71.0359Z" fill="var(--fill-0, #E6E6E6)"/>
<path id="Vector_40" d="M43.1623 116.061H45.7148L45.7148 33.8106H43.1623L43.1623 116.061Z" fill="var(--fill-0, #E6E6E6)"/>
<path id="Vector_41" d="M22.5373 116.094V120.874H157.197V116.094C157.208 115.901 157.179 115.709 157.113 115.528C157.047 115.347 156.945 115.182 156.813 115.041C156.681 114.901 156.522 114.789 156.346 114.712C156.169 114.635 155.979 114.595 155.786 114.594H23.9336C23.7423 114.597 23.5536 114.639 23.3789 114.717C23.2041 114.794 23.0468 114.907 22.9165 115.047C22.7861 115.187 22.6853 115.352 22.6202 115.531C22.555 115.711 22.5268 115.902 22.5373 116.094Z" fill="var(--fill-0, #E0E0E0)"/>
<path id="Vector_42" d="M149.519 114.594H141.145V120.874H149.519V114.594Z" fill="var(--fill-0, #F5F5F5)"/>
<path id="Vector_43" d="M133.465 114.594H125.441V120.874H133.465V114.594Z" fill="var(--fill-0, #F5F5F5)"/>
<path id="Vector_44" d="M117.769 114.594H109.395V120.874H117.769V114.594Z" fill="var(--fill-0, #F5F5F5)"/>
<path id="Vector_45" d="M101.719 114.594H93.6953V120.874H101.719V114.594Z" fill="var(--fill-0, #F5F5F5)"/>
<path id="Vector_46" d="M86.0194 114.594H77.9961V120.874H86.0194V114.594Z" fill="var(--fill-0, #F5F5F5)"/>
<path id="Vector_47" d="M70.3195 114.594H61.9453V120.874H70.3195V114.594Z" fill="var(--fill-0, #F5F5F5)"/>
<path id="Vector_48" d="M54.2694 114.594H46.2461V120.874H54.2694V114.594Z" fill="var(--fill-0, #F5F5F5)"/>
<path id="Vector_49" d="M38.5735 114.594H30.1992V120.874H38.5735V114.594Z" fill="var(--fill-0, #F5F5F5)"/>
<path id="Vector_50" d="M44.4391 46.6047C49.0416 46.6047 52.7727 42.8736 52.7727 38.2711C52.7727 33.6686 49.0416 29.9375 44.4391 29.9375C39.8365 29.9375 36.1055 33.6686 36.1055 38.2711C36.1055 42.8736 39.8365 46.6047 44.4391 46.6047Z" fill="var(--fill-0, #E0E0E0)"/>
<path id="Vector_51" d="M44.4402 45.0893C48.2062 45.0893 51.2592 42.0363 51.2592 38.2702C51.2592 34.5042 48.2062 31.4512 44.4402 31.4512C40.6741 31.4512 37.6211 34.5042 37.6211 38.2702C37.6211 42.0363 40.6741 45.0893 44.4402 45.0893Z" fill="var(--fill-0, #EBEBEB)"/>
<path id="Vector_52" d="M40.8867 41.557L41.5701 40.0388C42.4152 40.6232 43.4166 40.9399 44.444 40.9475C45.6372 40.9475 46.1248 40.5486 46.1248 40.013C46.1248 38.3839 41.0603 39.5032 41.0603 36.2673C41.0603 34.7897 42.2535 33.5559 44.7284 33.5559C45.7882 33.5343 46.834 33.8011 47.7538 34.3279L47.1295 35.8573C46.3977 35.4256 45.5668 35.1902 44.7174 35.1739C43.5242 35.1739 43.0625 35.6208 43.0625 36.1675C43.0625 37.7744 48.1269 36.6662 48.1269 39.8615C48.1269 41.3169 46.919 42.5581 44.4329 42.5581C43.0514 42.5618 41.6588 42.1518 40.8867 41.557Z" fill="var(--fill-0, #E0E0E0)"/>
</g>
</svg>
