<svg preserveAspectRatio="none" width="100%" height="100%" overflow="visible" style="display: block;" viewBox="0 0 173.799 120.429" fill="none" xmlns="http://www.w3.org/2000/svg">
<g id="freepik--background-complete--inject-2">
<path id="Vector" d="M156.387 119.399H144.875V119.485H156.387V119.399Z" fill="var(--fill-0, #EBEBEB)"/>
<path id="Vector_2" d="M115.134 120.342H112.113V120.429H115.134V120.342Z" fill="var(--fill-0, #EBEBEB)"/>
<path id="Vector_3" d="M144.526 116.17H137.855V116.257H144.526V116.17Z" fill="var(--fill-0, #EBEBEB)"/>
<path id="Vector_4" d="M33.251 116.756H18.2383V116.843H33.251V116.756Z" fill="var(--fill-0, #EBEBEB)"/>
<path id="Vector_5" d="M38.544 116.756H36.3438V116.843H38.544V116.756Z" fill="var(--fill-0, #EBEBEB)"/>
<path id="Vector_6" d="M78.2622 118.223H45.6992V118.31H78.2622V118.223Z" fill="var(--fill-0, #EBEBEB)"/>
<path id="Vector_7" d="M83.4512 90.496H21.6592C21.1746 90.496 20.7099 90.3035 20.3672 89.9608C20.0245 89.6182 19.832 89.1534 19.832 88.6688V1.8112C19.8363 1.32937 20.0306 0.868719 20.3728 0.529506C20.715 0.190292 21.1774 -1.84723e-05 21.6592 1.34482e-09H83.4512C83.6912 1.34482e-09 83.9288 0.0472615 84.1505 0.139087C84.3722 0.230912 84.5736 0.365503 84.7433 0.535175C84.9129 0.704846 85.0475 0.906275 85.1394 1.12796C85.2312 1.34965 85.2784 1.58725 85.2784 1.8272V88.6688C85.2784 88.9087 85.2312 89.1463 85.1394 89.368C85.0475 89.5897 84.9129 89.7912 84.7433 89.9608C84.5736 90.1305 84.3722 90.2651 84.1505 90.3569C83.9288 90.4487 83.6912 90.496 83.4512 90.496ZM21.6592 0.0640002C21.1961 0.0648461 20.7522 0.249197 20.4247 0.576677C20.0972 0.904158 19.9129 1.34807 19.912 1.8112V88.6688C19.9129 89.1319 20.0972 89.5758 20.4247 89.9033C20.7522 90.2308 21.1961 90.4151 21.6592 90.416H83.4512C83.9144 90.4151 84.3583 90.2308 84.6858 89.9033C85.0132 89.5758 85.1976 89.1319 85.1984 88.6688V1.8112C85.1976 1.34807 85.0132 0.904158 84.6858 0.576677C84.3583 0.249197 83.9144 0.0648461 83.4512 0.0640002H21.6592Z" fill="var(--fill-0, #EBEBEB)"/>
<path id="Vector_8" d="M158.051 98.3007H90.9301C90.4037 98.3007 89.8989 98.0916 89.5266 97.7193C89.1544 97.3471 88.9453 96.8423 88.9453 96.3159V1.9674C88.9499 1.44402 89.161 0.94364 89.5327 0.575172C89.9045 0.206703 90.4067 -2.00654e-05 90.9301 1.4608e-09H158.051C158.578 1.4608e-09 159.082 0.209111 159.455 0.58133C159.827 0.953549 160.036 1.45839 160.036 1.98478V96.3159C160.036 96.8423 159.827 97.3471 159.455 97.7193C159.082 98.0916 158.578 98.3007 158.051 98.3007ZM90.9301 0.0695198C90.427 0.0704387 89.9448 0.270688 89.5891 0.626412C89.2334 0.982135 89.0331 1.46434 89.0322 1.9674V96.3159C89.0331 96.8189 89.2334 97.3011 89.5891 97.6569C89.9448 98.0126 90.427 98.2128 90.9301 98.2138H158.051C158.554 98.2128 159.037 98.0126 159.392 97.6569C159.748 97.3011 159.948 96.8189 159.949 96.3159V1.9674C159.948 1.46434 159.748 0.982135 159.392 0.626412C159.037 0.270688 158.554 0.0704387 158.051 0.0695198H90.9301Z" fill="var(--fill-0, #EBEBEB)"/>
<path id="Vector_9" d="M173.799 113.803H0V113.89H173.799V113.803Z" fill="var(--fill-0, #EBEBEB)"/>
<path id="Vector_10" d="M140.242 57.0414C144.993 53.3395 151.118 52.7521 155.884 49.0467L149.505 42.6856C144.754 46.3875 138.632 46.975 133.863 50.6804L140.242 57.0414Z" fill="var(--fill-0, #F5F5F5)"/>
<path id="Vector_11" d="M136.681 49.7872C140.306 47.7468 144.516 47.0829 148.11 44.9903C148.884 45.3745 149.774 45.4503 150.602 45.2024L153.272 47.8684C153.077 48.1757 152.956 48.5242 152.919 48.8862C152.883 49.2482 152.931 49.6138 153.06 49.954C149.465 52.0396 145.253 52.707 141.631 54.7509C140.858 54.3633 139.966 54.2873 139.138 54.5388L136.469 51.8693C136.663 51.5623 136.783 51.2145 136.82 50.8532C136.857 50.4919 136.809 50.127 136.681 49.7872Z" fill="var(--fill-0, #E6E6E6)"/>
<path id="Vector_12" d="M142.708 50.6341C143.723 51.6491 145.506 52.1218 146.709 51.7047C147.912 51.2876 148.047 50.1092 147.032 49.0942C146.017 48.0792 144.251 47.6239 143.031 48.0271C141.811 48.4303 141.693 49.6191 142.708 50.6341Z" fill="var(--fill-0, #FAFAFA)"/>
<path id="Vector_13" d="M135.613 17.0018C138.856 19.7269 139.607 24.1762 137.268 26.943L136.454 27.9094C134.125 30.6902 129.614 30.6902 126.374 27.9789C123.134 25.2676 122.384 20.8045 124.719 18.0341L125.533 17.0643C127.862 14.3009 132.37 14.2766 135.613 17.0018Z" fill="var(--fill-0, #E0E0E0)"/>
<path id="Vector_14" d="M137.257 26.9346C139.585 24.1687 138.845 19.716 135.604 16.9894C132.364 14.2627 127.85 14.2945 125.523 17.0604C123.195 19.8262 123.935 24.2789 127.176 27.0055C130.416 29.7322 134.93 29.7004 137.257 26.9346Z" fill="var(--fill-0, #F5F5F5)"/>
<path id="Vector_15" d="M136.243 26.0807C138.167 23.7952 137.554 20.1147 134.875 17.8602C132.195 15.6056 128.464 15.6308 126.541 17.9164C124.618 20.202 125.231 23.8824 127.91 26.1369C130.589 28.3915 134.32 28.3663 136.243 26.0807Z" fill="var(--fill-0, #E0E0E0)"/>
<path id="Vector_16" d="M134.197 24.0625L134.893 24.8307L134.409 25.2686L133.714 24.5005C133.164 24.9583 132.473 25.2135 131.757 25.2235L131.396 24.3023C131.996 24.3063 132.581 24.1161 133.064 23.7601L131.82 22.3697C131 22.7694 130.082 23.1483 129.213 22.1889C128.58 21.4937 128.466 20.4787 129.293 19.5507L128.598 18.7686L129.081 18.3341L129.776 19.1023C130.228 18.7393 130.774 18.5126 131.351 18.4488L131.726 19.3769C131.263 19.4334 130.821 19.6003 130.436 19.8635L131.695 21.2539C132.515 20.8507 133.433 20.4544 134.305 21.4103C134.92 22.1125 135.025 23.1205 134.197 24.0625ZM131.048 21.5493L129.946 20.3154C129.795 20.4679 129.708 20.6728 129.704 20.8875C129.699 21.1023 129.777 21.3106 129.922 21.4694C130.224 21.8031 130.614 21.7301 131.048 21.5493ZM133.575 22.1576C133.276 21.81 132.88 21.883 132.418 22.0881L133.516 23.2978C133.864 22.8528 133.846 22.4566 133.579 22.1576H133.575Z" fill="var(--fill-0, #F5F5F5)"/>
<path id="Vector_17" d="M151.988 74.1122C154.189 78.5163 152.93 83.6121 149.159 85.4857L147.842 86.1391C144.081 88.0162 139.249 85.9619 137.066 81.5543C134.883 77.1468 136.128 72.051 139.899 70.1774L141.216 69.5205C144.963 67.6435 149.785 69.7047 151.988 74.1122Z" fill="var(--fill-0, #E0E0E0)"/>
<path id="Vector_18" d="M149.161 85.4881C152.923 83.6137 154.19 78.5201 151.993 74.1112C149.796 69.7024 144.966 67.6478 141.205 69.5222C137.444 71.3966 136.176 76.4902 138.373 80.899C140.57 85.3079 145.4 87.3625 149.161 85.4881Z" fill="var(--fill-0, #F5F5F5)"/>
<path id="Vector_19" d="M148.47 84.1072C151.579 82.5582 152.626 78.3482 150.81 74.704C148.994 71.0597 145.002 69.3612 141.894 70.9102C138.785 72.4592 137.738 76.6692 139.554 80.3134C141.37 83.9577 145.362 85.6562 148.47 84.1072Z" fill="var(--fill-0, #E0E0E0)"/>
<path id="Vector_20" d="M147.213 80.9927L147.599 82.1363L146.883 82.3796L146.501 81.243C145.698 81.4796 144.839 81.4317 144.068 81.1074L144.106 79.9569C144.744 80.2391 145.456 80.3074 146.136 80.1515L145.441 78.1042C144.398 78.1529 143.216 78.1285 142.74 76.7138C142.392 75.671 142.74 74.5448 144.043 73.933L143.657 72.779L144.374 72.5391L144.752 73.6758C145.402 73.4948 146.09 73.5056 146.734 73.7071L146.709 74.8681C146.19 74.7177 145.642 74.6916 145.11 74.7916L145.806 76.8598C146.869 76.8111 148.044 76.8146 148.524 78.2502C148.885 79.2547 148.531 80.3705 147.213 80.9927ZM145.03 76.8528L144.422 75.0314C144.191 75.1241 144.004 75.3018 143.9 75.5282C143.796 75.7545 143.782 76.0121 143.863 76.248C144.019 76.7486 144.467 76.8494 145.03 76.8528ZM147.446 78.6742C147.279 78.1772 146.828 78.059 146.24 78.0625L146.855 79.863C147.439 79.5502 147.596 79.1157 147.446 78.6708V78.6742Z" fill="var(--fill-0, #F5F5F5)"/>
<path id="Vector_21" d="M52.8593 22.1074L54.3539 22.8548C58.6363 24.9821 60.065 30.7626 57.5692 35.7646C55.0735 40.7665 49.5953 43.0954 45.3268 40.9785L43.8322 40.2381C39.5497 38.1108 38.1211 32.3303 40.6203 27.3284C43.1196 22.3264 48.5908 19.9801 52.8593 22.1074Z" fill="var(--fill-0, #E0E0E0)"/>
<path id="Vector_22" d="M56.0783 35.0233C58.5718 30.02 57.1319 24.239 52.8622 22.1111C48.5925 19.9833 43.1099 22.3143 40.6164 27.3177C38.1229 32.321 39.5628 38.102 43.8325 40.2299C48.1022 42.3577 53.5848 40.0267 56.0783 35.0233Z" fill="var(--fill-0, #F5F5F5)"/>
<path id="Vector_23" d="M54.7386 34.3536C56.7997 30.218 55.6096 25.4396 52.0804 23.6808C48.5513 21.922 44.0195 23.8488 41.9585 27.9845C39.8974 32.1201 41.0875 36.8985 44.6166 38.6573C48.1458 40.4161 52.6776 38.4893 54.7386 34.3536Z" fill="var(--fill-0, #E0E0E0)"/>
<path id="Vector_24" d="M46.834 35.3087L46.2292 36.5357L45.4575 36.1534L46.0658 34.9368C45.2364 34.4845 44.5883 33.7602 44.2305 32.8859L45.1864 31.9752C45.4739 32.7141 45.992 33.3406 46.6637 33.7619L47.7516 31.5685C46.8618 30.7552 45.9476 29.8027 46.7088 28.2803C47.265 27.161 48.4468 26.5423 49.9867 27.095L50.6054 25.8575L51.3736 26.2364L50.7479 27.4565C51.4138 27.8322 51.9569 28.3923 52.3121 29.0693L51.3597 29.9835C51.0632 29.4442 50.6441 28.9822 50.1362 28.6348L49.0343 30.8525C49.9276 31.6659 50.8661 32.6148 50.1083 34.1373C49.573 35.2496 48.3912 35.8648 46.834 35.3087ZM48.4051 30.2338L49.3784 28.2837C49.1184 28.172 48.8255 28.1645 48.5601 28.2629C48.2948 28.3612 48.0775 28.5579 47.9532 28.8121C47.6752 29.337 47.9671 29.7784 48.4051 30.2372V30.2338ZM48.8813 33.6333C49.1455 33.098 48.8813 32.6426 48.4051 32.1768L47.4527 34.113C48.1722 34.3319 48.645 34.113 48.8848 33.6333H48.8813Z" fill="var(--fill-0, #F5F5F5)"/>
<path id="Vector_25" d="M38.1832 72.5486L39.4102 72.1384C42.9279 70.9566 46.8836 73.3446 48.2566 77.4567C49.6296 81.5688 47.909 85.8546 44.3982 87.0295L43.1712 87.4397C39.6535 88.6215 35.7013 86.2335 34.3283 82.1214C32.9553 78.0094 34.6724 73.7235 38.1832 72.5486Z" fill="var(--fill-0, #E0E0E0)"/>
<path id="Vector_26" d="M43.1733 87.4414C46.6813 86.267 48.409 81.9813 47.0322 77.8689C45.6554 73.7566 41.6956 71.375 38.1876 72.5494C34.6797 73.7238 32.952 78.0096 34.3288 82.1219C35.7056 86.2342 39.6654 88.6159 43.1733 87.4414Z" fill="var(--fill-0, #F5F5F5)"/>
<path id="Vector_27" d="M42.7424 86.1516C45.6423 85.1807 47.0708 81.6385 45.9329 78.2398C44.7951 74.841 41.5218 72.8729 38.6219 73.8437C35.7219 74.8146 34.2935 78.3569 35.4314 81.7556C36.5692 85.1543 39.8425 87.1225 42.7424 86.1516Z" fill="var(--fill-0, #E0E0E0)"/>
<path id="Vector_28" d="M42.1251 83.0958L42.4727 84.1038L41.8435 84.3159L41.4959 83.3148C40.7919 83.5199 40.0388 83.4782 39.3617 83.1966L39.393 82.1851C39.9549 82.4321 40.5817 82.4906 41.1796 82.3519L40.5748 80.5514C39.6398 80.5931 38.6178 80.5722 38.1972 79.3243C37.8914 78.4032 38.1972 77.4126 39.3478 76.8912L39.0002 75.8727L39.6293 75.6641L39.9769 76.6652C40.5468 76.5077 41.1497 76.5161 41.7149 76.6896L41.6941 77.715C41.2354 77.5826 40.7523 77.5588 40.2828 77.6455L40.8946 79.4669C41.8296 79.4252 42.8655 79.4286 43.2861 80.68C43.5954 81.5594 43.2826 82.5466 42.1251 83.0958ZM40.2029 79.4495L39.6676 77.861C39.47 77.9418 39.3098 78.0936 39.2184 78.2866C39.1271 78.4795 39.1112 78.6997 39.174 78.9038C39.3096 79.3556 39.7058 79.446 40.2029 79.4495ZM42.3267 81.0519C42.1807 80.6139 41.7845 80.5097 41.2839 80.5166L41.8227 82.1017C42.3371 81.8271 42.4762 81.4412 42.3441 81.0589L42.3267 81.0519Z" fill="var(--fill-0, #F5F5F5)"/>
<path id="Vector_29" d="M28.1172 60.5115C36.8801 61.5995 43.839 67.3384 52.602 68.4263V55.2176C43.839 54.1296 36.8801 48.3908 28.1172 47.3028V60.5115Z" fill="var(--fill-0, #F5F5F5)"/>
<path id="Vector_30" d="M31.9492 49.3009C37.8236 50.9415 42.8742 54.6226 48.7729 56.1763C49.175 57.3782 50.0203 58.3814 51.1366 58.9815V64.5152C50.6208 64.6323 50.1391 64.867 49.7291 65.2011C49.3191 65.5351 48.9918 65.9595 48.7729 66.4409C42.8637 64.8837 37.8236 61.2061 31.9492 59.5654C31.5478 58.3621 30.7007 57.3583 29.582 56.7603V51.2266C30.0984 51.11 30.5808 50.8755 30.9915 50.5414C31.4021 50.2073 31.7299 49.7827 31.9492 49.3009Z" fill="var(--fill-0, #E6E6E6)"/>
<path id="Vector_31" d="M37.3164 56.4284C37.3164 58.5349 38.679 60.8707 40.3579 61.6841C42.0368 62.4975 43.3959 61.4199 43.3959 59.317C43.3959 57.214 42.0368 54.8747 40.3579 54.0613C38.679 53.2479 37.3164 54.322 37.3164 56.4284Z" fill="var(--fill-0, #FAFAFA)"/>
<path id="Vector_32" d="M61.2422 11.6732C64.9441 16.4249 65.5315 22.5495 69.2369 27.3151L75.6015 20.9506C71.8995 16.1989 71.3121 10.0742 67.6067 5.30868L61.2422 11.6732Z" fill="var(--fill-0, #F5F5F5)"/>
<path id="Vector_33" d="M68.4949 8.11446C70.5353 11.7364 71.1993 15.9493 73.2918 19.5435C72.9059 20.3168 72.8301 21.2083 73.0798 22.0358L70.4137 24.7018C70.1061 24.5075 69.7575 24.3875 69.3955 24.3513C69.0335 24.3151 68.6681 24.3637 68.3281 24.4933C66.2425 20.8991 65.5716 16.6862 63.5312 13.0608C63.9171 12.2874 63.993 11.3959 63.7433 10.5685L66.4128 7.90243C66.7198 8.0965 67.0676 8.21666 67.4289 8.25346C67.7902 8.29025 68.1552 8.24267 68.4949 8.11446Z" fill="var(--fill-0, #E6E6E6)"/>
<path id="Vector_34" d="M67.6478 14.1413C66.6329 15.1562 66.1601 16.922 66.5772 18.1386C66.9944 19.3552 68.1692 19.4804 69.1842 18.4654C70.1992 17.4504 70.6719 15.6846 70.2548 14.4645C69.8377 13.2445 68.6628 13.1228 67.6478 14.1413Z" fill="var(--fill-0, #FAFAFA)"/>
</g>
</svg>
