<svg preserveAspectRatio="none" width="100%" height="100%" overflow="visible" style="display: block;" viewBox="0 0 28.6363 84.3035" fill="none" xmlns="http://www.w3.org/2000/svg">
<g id="freepik--Character--inject-2">
<path id="Vector" d="M11.3164 82.0211L13.5476 81.9842L14.1904 76.8125L11.9629 76.8494L11.3164 82.0211Z" fill="var(--fill-0, #B55B52)"/>
<path id="Vector_2" d="M21.9657 81.8562L24.1304 81.195L22.7858 76.293L20.6211 76.9579L21.9657 81.8562Z" fill="var(--fill-0, #B55B52)"/>
<path id="Vector_3" d="M24.0622 80.5416L21.6463 81.7864C21.607 81.8075 21.5761 81.8413 21.5586 81.8822C21.5412 81.9232 21.5382 81.9689 21.5502 82.0118L22.0674 83.9733C22.0799 84.0209 22.1031 84.0651 22.1352 84.1024C22.1672 84.1398 22.2074 84.1694 22.2526 84.1889C22.2978 84.2085 22.3468 84.2175 22.396 84.2154C22.4452 84.2132 22.4932 84.1999 22.5365 84.1765C23.3086 83.7628 23.8516 83.4377 24.8305 82.9168C25.4327 82.6065 27.2797 81.7347 28.1108 81.3025C28.942 80.8703 28.628 79.9948 28.2512 80.0983C26.552 80.5526 25.163 80.6856 24.4463 80.4972C24.3173 80.4633 24.1801 80.4791 24.0622 80.5416Z" fill="var(--fill-0, #263238)"/>
<path id="Vector_4" d="M13.5916 81.7285L11.1572 81.7691C11.1134 81.77 11.0711 81.7859 11.0375 81.8141C11.0039 81.8423 10.981 81.8812 10.9725 81.9243L10.5625 83.9117C10.5517 83.9596 10.5521 84.0094 10.5636 84.0572C10.5751 84.105 10.5974 84.1495 10.6288 84.1874C10.6602 84.2252 10.6999 84.2553 10.7447 84.2754C10.7896 84.2955 10.8384 84.305 10.8876 84.3033C11.7668 84.2737 13.0338 84.2035 14.1383 84.1851C15.4275 84.1666 15.8043 84.2183 17.3189 84.1851C18.2313 84.1851 18.4714 83.2394 18.0873 83.1618C16.3363 82.7924 15.6529 82.7924 14.1346 81.8837C13.9701 81.7859 13.783 81.7325 13.5916 81.7285Z" fill="var(--fill-0, #263238)"/>
<path id="Vector_5" d="M16.9812 14.1738C17.4873 15.1897 18.0598 16.2647 18.6324 17.2879C19.205 18.3112 19.8108 19.3307 20.4573 20.2875C20.6235 20.5239 20.7787 20.7714 20.9486 20.9967L21.366 21.5656C21.451 21.6764 21.499 21.7281 21.5138 21.754C21.5286 21.7799 21.5359 21.8168 21.6431 21.8242C22.0353 21.7533 22.4 21.5742 22.6959 21.307C22.899 21.1519 23.1059 20.9746 23.3091 20.7862C23.5122 20.5978 23.7154 20.3798 23.8927 20.2062L25.3667 21.0263C25.2437 21.3525 25.098 21.6697 24.9308 21.9756C24.7658 22.2886 24.5756 22.5876 24.3619 22.8696C24.1346 23.1776 23.8745 23.4601 23.5861 23.7118C23.2435 24.0166 22.8462 24.2536 22.4151 24.41C21.8752 24.6071 21.2889 24.6392 20.7306 24.5024C20.2074 24.3741 19.7231 24.1205 19.3195 23.7636C19.2302 23.6883 19.1451 23.6081 19.0646 23.5234L18.9464 23.4015L18.8615 23.3055L18.5364 22.9361C18.3184 22.6886 18.119 22.4337 17.9121 22.1973C17.123 21.1827 16.3952 20.1218 15.7326 19.0204C15.4075 18.4737 15.0861 17.9122 14.7906 17.3618C14.4951 16.8114 14.207 16.2536 13.9336 15.6293L16.9812 14.1738Z" fill="var(--fill-0, #B55B52)"/>
<path id="Vector_6" d="M12.9806 14.188C12.3784 16.2345 16.6081 21.8088 16.6081 21.8088L20.8747 19.0642C20.0719 17.2911 19.0811 15.6094 17.9195 14.0477C16.1722 11.8201 13.6381 11.9384 12.9806 14.188Z" fill="var(--fill-0, #407BFF)"/>
<g id="Group" opacity="0.2">
<path id="Vector_7" d="M12.9806 14.1879C12.3784 16.2344 16.6081 21.8088 16.6081 21.8088L20.8747 19.0641C20.0719 17.2911 19.0811 15.6093 17.9195 14.0476C16.1722 11.8201 13.6381 11.9383 12.9806 14.1879Z" fill="var(--fill-0, black)"/>
</g>
<path id="Vector_8" opacity="0.2" d="M15.5825 16.5906C16.458 16.96 17.7509 19.0804 18.4232 20.6541L16.6131 21.8177C15.6002 20.4656 14.6901 19.0394 13.8906 17.5511C14.4632 16.9157 15.117 16.3948 15.5825 16.5906Z" fill="var(--fill-0, black)"/>
<path id="Vector_9" d="M23.6367 20.6026L25.1808 18.1055L26.5291 20.2591C26.2047 20.8337 25.6779 21.2669 25.0515 21.4744L23.6367 20.6026Z" fill="var(--fill-0, #B55B52)"/>
<path id="Vector_10" d="M27.3337 18.1326V18.9047C27.3338 19.1458 27.2503 19.3795 27.0973 19.5659L26.5358 20.2604L25.1875 18.1068L26.5802 17.6007C26.6653 17.5706 26.7565 17.5613 26.846 17.5737C26.9355 17.5861 27.0207 17.6197 27.0945 17.6718C27.1683 17.7239 27.2285 17.7929 27.2702 17.8731C27.3118 17.9533 27.3336 18.0423 27.3337 18.1326Z" fill="var(--fill-0, #B55B52)"/>
<path id="Vector_11" d="M25.8252 21.3258L23.3945 21.2889L24.7392 16.2539L27.1698 16.2908L25.8252 21.3258Z" fill="var(--fill-0, #407BFF)"/>
<path id="Vector_12" d="M26.0752 21.3258L23.6445 21.2889L24.9892 16.2539L27.4198 16.2908L26.0752 21.3258Z" fill="var(--fill-0, #263238)"/>
<path id="Vector_13" opacity="0.2" d="M14.1887 76.8145L13.8562 79.4779L11.625 79.5148L11.9575 76.8477L14.1887 76.8145Z" fill="var(--fill-0, black)"/>
<path id="Vector_14" opacity="0.2" d="M20.6211 76.9579L22.7895 76.293L23.4803 78.8197L21.3119 79.4846L20.6211 76.9579Z" fill="var(--fill-0, black)"/>
<path id="Vector_15" d="M3.56722 15.2656C5.38838 23.1044 4.99312 30.8803 5.19259 32.5574L17.0837 31.6709C18.2252 18.9301 15.5211 12.4618 15.5211 12.4618C15.5211 12.4618 14.7565 12.3141 13.7185 12.2069C13.3934 12.1737 13.0387 12.1441 12.673 12.1257C12.4699 12.1257 12.2667 12.1072 12.0561 12.1035C10.366 12.1298 8.6787 12.2531 7.00267 12.4729C6.68499 12.5136 6.36361 12.5579 6.04962 12.6096L5.20737 12.7647H5.17413C4.90199 12.8188 4.64355 12.9272 4.41423 13.0834C4.18491 13.2396 3.98942 13.4404 3.83943 13.6738C3.68945 13.9073 3.58804 14.1685 3.54127 14.442C3.4945 14.7155 3.50332 14.9956 3.56722 15.2656Z" fill="var(--fill-0, #407BFF)"/>
<g id="Group_2" opacity="0.2">
<path id="Vector_16" d="M3.56722 15.2656C5.38838 23.1044 4.99312 30.8803 5.19259 32.5574L17.0837 31.6709C18.2252 18.9301 15.5211 12.4618 15.5211 12.4618C15.5211 12.4618 14.7565 12.3141 13.7185 12.2069C13.3934 12.1737 13.0387 12.1441 12.673 12.1257C12.4699 12.1257 12.2667 12.1072 12.0561 12.1035C10.366 12.1298 8.6787 12.2531 7.00267 12.4729C6.68499 12.5136 6.36361 12.5579 6.04962 12.6096L5.20737 12.7647H5.17413C4.90199 12.8188 4.64355 12.9272 4.41423 13.0834C4.18491 13.2396 3.98942 13.4404 3.83943 13.6738C3.68945 13.9073 3.58804 14.1685 3.54127 14.442C3.4945 14.7155 3.50332 14.9956 3.56722 15.2656Z" fill="var(--fill-0, black)"/>
</g>
<path id="Vector_17" opacity="0.2" d="M5.58164 16.918L4.21484 18.6726C4.21666 18.6948 4.21666 18.717 4.21484 18.7391C4.40693 19.9286 4.5547 21.0922 4.66552 22.2152C5.9769 20.6009 5.78482 17.6863 5.58164 16.918Z" fill="var(--fill-0, black)"/>
<path id="Vector_18" d="M7.57933 9.00228C7.86377 10.1992 7.8453 11.529 6.98828 12.4821C7.93765 13.2948 9.16777 14.222 11.1035 14.1481C13.0391 14.0742 12.6069 12.7665 12.0417 12.1053C10.3905 11.8393 10.3868 10.7643 10.372 9.58225C10.3713 9.46263 10.3326 9.34632 10.2616 9.25006C10.1906 9.15381 10.0909 9.08257 9.97676 9.04661L8.1593 8.46295C8.08251 8.43843 8.00056 8.43476 7.92189 8.45235C7.84322 8.46994 7.77064 8.50815 7.71161 8.56304C7.65258 8.61794 7.60922 8.68755 7.58597 8.76474C7.56272 8.84193 7.56043 8.92391 7.57933 9.00228Z" fill="var(--fill-0, #B55B52)"/>
<path id="Vector_19" d="M12.8037 21.7912C11.8063 21.7912 10.8865 20.5944 10.7054 19.065C10.6347 18.6601 10.647 18.2449 10.7416 17.8449C10.8362 17.4448 11.0112 17.0681 11.2559 16.7378C11.3713 16.5985 11.5157 16.486 11.679 16.4081C11.8423 16.3303 12.0206 16.289 12.2015 16.2871C13.1952 16.2871 14.1187 17.484 14.2961 19.0133C14.3671 19.418 14.3553 19.833 14.2614 20.233C14.1674 20.633 13.9932 21.0098 13.7493 21.3406C13.6331 21.4789 13.4885 21.5908 13.3254 21.6685C13.1623 21.7463 12.9843 21.7881 12.8037 21.7912ZM12.2052 16.6565C12.0765 16.6588 11.9498 16.6894 11.8342 16.7462C11.7186 16.8031 11.617 16.8847 11.5366 16.9853C11.3285 17.2769 11.1808 17.6072 11.1021 17.9568C11.0235 18.3063 11.0155 18.668 11.0785 19.0207C11.23 20.3247 12.0205 21.4218 12.8074 21.4218C12.9368 21.4201 13.0642 21.3898 13.1804 21.3329C13.2967 21.2761 13.3989 21.1941 13.4797 21.0931C13.687 20.801 13.8343 20.4707 13.9129 20.1213C13.9915 19.7719 14 19.4103 13.9377 19.0576C13.7937 17.7536 13.0031 16.6565 12.22 16.6565H12.2052Z" fill="var(--fill-0, #407BFF)"/>
<path id="Vector_20" opacity="0.2" d="M10.3754 9.65234L8.54688 9.88876C8.58751 9.97003 8.63923 10.0476 8.68725 10.1252C9.03449 10.6793 9.79546 11.045 10.586 11.178C10.4148 10.6886 10.3432 10.1698 10.3754 9.65234Z" fill="var(--fill-0, black)"/>
<path id="Vector_21" d="M12.7422 4.91973C13.758 5.08966 15.6568 3.93711 15.2135 2.40039C14.6446 3.11334 12.7422 2.87323 12.7422 2.87323V4.91973Z" fill="var(--fill-0, #263238)"/>
<path id="Vector_22" d="M8.77668 6.54377C8.8875 7.57072 7.62045 9.39927 6.11328 8.86363C6.85209 8.33908 6.73388 6.42188 6.73388 6.42188L8.77668 6.54377Z" fill="var(--fill-0, #263238)"/>
<path id="Vector_23" d="M7.29233 4.55025C7.01897 6.74451 6.74561 8.01896 7.63588 9.35251C8.96942 11.3362 11.836 10.8301 12.7595 8.77254C13.5907 6.92552 13.8973 3.63413 11.932 2.37077C11.5016 2.09156 11.007 1.9267 10.4952 1.89177C9.98326 1.85684 9.47092 1.95299 9.00652 2.17114C8.54212 2.38929 8.141 2.72224 7.84106 3.13852C7.54112 3.5548 7.35227 4.04068 7.29233 4.55025Z" fill="var(--fill-0, #B55B52)"/>
<path id="Vector_24" d="M6.98489 6.76858C7.52053 7.33376 8.99445 5.02499 8.72478 4.18275C9.27889 4.42655 10.3428 3.9611 10.2763 3.04498C11.9349 3.93155 14.3397 4.63342 14.3767 3.04498C14.4136 1.45654 12.8991 0.255977 11.4214 0.130379C11.5988 0.606911 11.1296 0.810087 10.1655 0.606914C9.20131 0.403742 5.4851 -1.3066 5.89514 2.11039C4.50618 2.19166 4.32518 3.95002 6.98489 6.76858Z" fill="var(--fill-0, #263238)"/>
<path id="Vector_25" d="M5.90249 5.91479C5.97934 6.46591 6.2716 6.96408 6.71519 7.30005C7.30624 7.73964 7.67564 7.2742 7.73105 6.57972C7.78277 5.95173 7.73105 4.96911 7.02549 4.80288C6.87205 4.76942 6.71267 4.77485 6.56187 4.81869C6.41107 4.86252 6.27363 4.94337 6.16203 5.05386C6.05043 5.16435 5.96823 5.301 5.9229 5.45136C5.87757 5.60172 5.87056 5.76102 5.90249 5.91479Z" fill="var(--fill-0, #B55B52)"/>
<path id="Vector_26" d="M9.24936 32.2538L17.066 31.6738C17.066 31.6738 18.0781 47.7171 18.0006 54.5178C17.923 61.5956 14.6759 78.9465 14.6759 78.9465L10.9006 79.0056C10.9006 79.0056 11.1998 62.1756 11.1998 55.2271C11.1998 45.87 9.23828 32.2538 9.23828 32.2538" fill="var(--fill-0, #263238)"/>
<path id="Vector_27" opacity="0.2" d="M12.2734 48.9336C12.3769 49.3953 15.2841 62.4021 16.2224 69.9896C16.7211 66.8349 17.2345 63.2923 17.5818 60.1635L12.2734 48.9336Z" fill="var(--fill-0, black)"/>
<path id="Vector_28" d="M12.8489 31.9922C12.8489 31.9922 18.8 46.5689 20.141 52.9633C21.6186 59.9635 23.9643 77.669 23.9643 77.669L19.9267 78.297C19.9267 78.297 16.8718 65.0613 15.1614 58.3012C13.2184 50.5954 5.51258 38.394 5.1875 32.5611L12.8489 31.9922Z" fill="var(--fill-0, #263238)"/>
<path id="Vector_29" d="M24.4685 78.0139L19.452 79.1886L18.8203 77.2566L24.2986 76.3184L24.4685 78.0139Z" fill="var(--fill-0, #407BFF)"/>
<path id="Vector_30" d="M15.166 79.0328L10.6667 79.103L10.6445 77.6512L15.6684 77.4961L15.166 79.0328Z" fill="var(--fill-0, #407BFF)"/>
<path id="Vector_31" d="M10.3484 5.6881C10.3152 5.86541 10.3817 6.02425 10.4962 6.0575C10.6107 6.09075 10.7326 5.95407 10.7658 5.77676C10.7991 5.59944 10.7326 5.4406 10.6144 5.40735C10.4962 5.3741 10.3817 5.51078 10.3484 5.6881Z" fill="var(--fill-0, #263238)"/>
<path id="Vector_32" d="M12.532 6.15206C12.4988 6.32568 12.5653 6.48821 12.6798 6.52146C12.7943 6.55471 12.9162 6.41803 12.9494 6.24072C12.9827 6.0634 12.9162 5.90086 12.8017 5.87131C12.6872 5.84176 12.5653 5.97474 12.532 6.15206Z" fill="var(--fill-0, #263238)"/>
<path id="Vector_33" d="M11.8101 6.10742C11.9198 6.68711 12.1087 7.24895 12.3716 7.77713C12.2344 7.84066 12.085 7.87356 11.9338 7.87356C11.7827 7.87356 11.6333 7.84066 11.4961 7.77713L11.8101 6.10742Z" fill="var(--fill-0, #A02724)"/>
<path id="Vector_34" d="M11.1268 8.32308C10.929 8.28204 10.7417 8.20087 10.5766 8.0846C10.4114 7.96833 10.2718 7.81942 10.1664 7.64707C10.1597 7.63429 10.1584 7.61943 10.1625 7.60564C10.1666 7.59185 10.176 7.58021 10.1885 7.57319C10.2009 7.56765 10.2149 7.56685 10.2278 7.57093C10.2408 7.57502 10.2518 7.58371 10.2587 7.59536C10.3791 7.78406 10.5421 7.94186 10.7345 8.05607C10.927 8.17028 11.1436 8.23769 11.3669 8.25289C11.3788 8.25602 11.3892 8.26297 11.3967 8.27266C11.4041 8.28235 11.4082 8.29423 11.4082 8.30645C11.4082 8.31868 11.4041 8.33056 11.3967 8.34025C11.3892 8.34994 11.3788 8.35689 11.3669 8.36002C11.286 8.35461 11.2057 8.34226 11.1268 8.32308Z" fill="var(--fill-0, #263238)"/>
<path id="Vector_35" d="M10.1274 4.8994C10.1102 4.89175 10.094 4.8818 10.0794 4.86985C10.061 4.84893 10.0508 4.822 10.0508 4.79412C10.0508 4.76623 10.061 4.73931 10.0794 4.71839C10.2016 4.60324 10.3493 4.51875 10.5105 4.47187C10.6717 4.42499 10.8417 4.41705 11.0066 4.44872C11.0333 4.45649 11.0559 4.47431 11.0697 4.49843C11.0835 4.52256 11.0873 4.55109 11.0805 4.57802C11.0735 4.60441 11.0564 4.62699 11.0329 4.64083C11.0094 4.65467 10.9813 4.65865 10.9549 4.6519C10.8227 4.62811 10.6867 4.63613 10.5583 4.67532C10.4298 4.7145 10.3125 4.78372 10.2161 4.87724C10.2038 4.88724 10.1896 4.89441 10.1742 4.89824C10.1589 4.90207 10.1429 4.90247 10.1274 4.8994Z" fill="var(--fill-0, #263238)"/>
<path id="Vector_36" d="M13.7141 5.60397C13.6972 5.59845 13.682 5.5888 13.6697 5.5759C13.6574 5.563 13.6486 5.54726 13.644 5.53008C13.614 5.40123 13.5534 5.28152 13.4672 5.18117C13.381 5.08083 13.2718 5.00282 13.149 4.95381C13.1221 4.9453 13.0997 4.92659 13.0866 4.90171C13.0735 4.87682 13.0707 4.84777 13.0788 4.82083C13.0873 4.79401 13.106 4.77161 13.1309 4.75848C13.1558 4.74535 13.1848 4.74253 13.2118 4.75064C13.3697 4.81294 13.5101 4.91277 13.6208 5.04149C13.7315 5.17022 13.8092 5.32396 13.8471 5.48945C13.8516 5.50278 13.8532 5.51691 13.8518 5.53091C13.8505 5.5449 13.8461 5.55845 13.8392 5.57066C13.8322 5.58286 13.8227 5.59346 13.8113 5.60175C13.8 5.61003 13.787 5.61583 13.7732 5.61874C13.7524 5.62167 13.7312 5.61637 13.7141 5.60397Z" fill="var(--fill-0, #263238)"/>
<path id="Vector_37" d="M24.8961 80.5495C24.7195 80.6356 24.5336 80.7013 24.342 80.7453C24.3342 80.7516 24.3244 80.755 24.3143 80.755C24.3043 80.755 24.2945 80.7516 24.2866 80.7453C24.2806 80.7366 24.2773 80.7263 24.2773 80.7157C24.2773 80.7051 24.2806 80.6948 24.2866 80.6862C24.3346 80.6049 24.7705 79.8809 25.0476 79.8809C25.0789 79.8808 25.1096 79.8894 25.1363 79.9057C25.1631 79.922 25.1848 79.9454 25.1991 79.9732C25.228 80.0169 25.2458 80.067 25.251 80.1192C25.2561 80.1713 25.2485 80.2239 25.2286 80.2724C25.1505 80.3982 25.0339 80.4954 24.8961 80.5495ZM24.4418 80.6086C24.7125 80.5685 24.9581 80.4272 25.1289 80.2133C25.1419 80.18 25.1463 80.1439 25.1418 80.1084C25.1373 80.073 25.1239 80.0392 25.103 80.0102C25.0808 79.9732 25.0624 79.9695 25.0439 79.9695C24.8998 79.9695 24.6228 80.3278 24.4418 80.6086Z" fill="var(--fill-0, #407BFF)"/>
<path id="Vector_38" d="M24.3538 80.7443H24.3243C24.3147 80.7428 24.3057 80.739 24.298 80.7332C24.2902 80.7274 24.2841 80.7198 24.2799 80.7111C24.1457 80.4217 24.1019 80.0985 24.1543 79.7838C24.1698 79.746 24.1929 79.7117 24.2221 79.6831C24.2513 79.6545 24.2861 79.6322 24.3243 79.6176C24.3595 79.6 24.3998 79.5951 24.4382 79.6039C24.4766 79.6126 24.5107 79.6345 24.5348 79.6656C24.6937 79.8651 24.5348 80.5042 24.3723 80.7221C24.3709 80.7269 24.3685 80.7313 24.3653 80.7351C24.3621 80.7389 24.3582 80.742 24.3538 80.7443ZM24.3538 79.7358C24.3138 79.7562 24.2823 79.7903 24.2652 79.8319C24.221 80.0815 24.2519 80.3386 24.3538 80.5707C24.4757 80.3084 24.5607 79.8503 24.4683 79.7358C24.4683 79.7358 24.4388 79.6989 24.376 79.7358H24.3538Z" fill="var(--fill-0, #407BFF)"/>
<path id="Vector_39" d="M13.8177 82.0339C13.8081 82.03 13.7999 82.0234 13.7941 82.0148C13.7883 82.0063 13.7852 81.9962 13.7852 81.9858C13.7852 81.9755 13.7883 81.9654 13.7941 81.9568C13.7999 81.9483 13.8081 81.9417 13.8177 81.9378C13.9174 81.8824 14.8077 81.4133 15.081 81.5684C15.1062 81.5828 15.1274 81.6031 15.1428 81.6276C15.1583 81.6521 15.1675 81.6799 15.1697 81.7088C15.1753 81.7564 15.1695 81.8047 15.1528 81.8496C15.1361 81.8946 15.109 81.935 15.0737 81.9674C14.8336 82.1853 14.1945 82.1077 13.8325 82.0413L13.8177 82.0339ZM15.0219 81.646C14.6668 81.6665 14.322 81.7729 14.0172 81.9563C14.3479 82.0506 14.7013 82.0244 15.0146 81.8824C15.0381 81.8607 15.0558 81.8334 15.0662 81.8031C15.0765 81.7728 15.0791 81.7404 15.0737 81.7088C15.0741 81.6973 15.0712 81.686 15.0653 81.6761C15.0594 81.6663 15.0507 81.6584 15.0404 81.6534L15.0219 81.646Z" fill="var(--fill-0, #407BFF)"/>
<path id="Vector_40" d="M13.8152 82.031C13.808 82.0252 13.8023 82.0179 13.7984 82.0096C13.7946 82.0012 13.7927 81.9921 13.793 81.9829C13.8125 81.6675 13.9286 81.3657 14.1255 81.1185C14.2064 81.0495 14.3112 81.0151 14.4173 81.0225C14.5651 81.0225 14.6057 81.1111 14.6168 81.1702C14.6611 81.4214 14.1365 81.9091 13.878 82.0346C13.8685 82.041 13.8573 82.0441 13.8459 82.0434C13.8346 82.0428 13.8238 82.0384 13.8152 82.031ZM14.4469 81.1333C14.4299 81.1286 14.412 81.1286 14.3951 81.1333C14.3565 81.1288 14.3173 81.1328 14.2803 81.1449C14.2433 81.157 14.2094 81.177 14.1809 81.2035C14.017 81.3988 13.9176 81.6401 13.8964 81.8943C14.1698 81.728 14.5244 81.3402 14.4986 81.1924C14.4986 81.1702 14.4912 81.1481 14.4469 81.1333Z" fill="var(--fill-0, #407BFF)"/>
<path id="Vector_41" d="M7.1183 15.9573C6.3795 17.2687 5.64069 18.6688 4.97576 20.0466C4.306 21.3935 3.732 22.7859 3.25804 24.2135C3.20263 24.3871 3.16199 24.5571 3.11028 24.727C3.09181 24.8046 3.05856 24.9154 3.04747 24.9671C3.03547 25.0097 3.02561 25.0528 3.01793 25.0964C2.98612 25.3286 2.99235 25.5644 3.03639 25.7946C3.18507 26.4269 3.4279 27.0334 3.75673 27.5936C4.52344 28.8847 5.41689 30.0961 6.42383 31.21L5.35255 32.4956C3.92386 31.5509 2.6545 30.385 1.59202 29.0416C1.00006 28.2933 0.541461 27.4485 0.236311 26.5445C0.0604536 26.0048 -0.0183422 25.4382 0.00358483 24.8711C0.00358483 24.7196 0.033139 24.5608 0.0516092 24.4093C0.0700794 24.2578 0.0922374 24.1803 0.114402 24.0621C0.15873 23.8478 0.19937 23.6225 0.247393 23.4119C0.661237 21.7713 1.22255 20.1714 1.92448 18.6318C2.59795 17.119 3.3628 15.6485 4.21479 14.2285L7.1183 15.9573Z" fill="var(--fill-0, #B55B52)"/>
<path id="Vector_42" d="M4.80173 12.9293C2.74415 13.4945 0.738281 19.2756 0.738281 19.2756L5.69199 20.6498C6.55991 19.4327 7.25254 18.0996 7.74958 16.6898C8.7913 13.8786 7.29151 12.2496 4.80173 12.9293Z" fill="var(--fill-0, #407BFF)"/>
<g id="Group_3" opacity="0.2">
<path id="Vector_43" d="M4.80173 12.9292C2.74415 13.4944 0.738281 19.2756 0.738281 19.2756L5.69199 20.6497C6.55991 19.4326 7.25254 18.0996 7.74958 16.6897C8.7913 13.8786 7.29151 12.2495 4.80173 12.9292Z" fill="var(--fill-0, black)"/>
</g>
<path id="Vector_44" d="M5.47811 30.8301L7.73886 31.4248L6.84121 33.5489C6.84121 33.5489 4.81318 33.1204 4.82426 32.0159L5.47811 30.8301Z" fill="var(--fill-0, #B55B52)"/>
<path id="Vector_45" d="M8.6056 32.8665L7.93698 34.5473L6.83984 33.5499L7.73749 31.4258L8.6056 32.8665Z" fill="var(--fill-0, #B55B52)"/>
</g>
</svg>
