<svg preserveAspectRatio="none" width="100%" height="100%" overflow="visible" style="display: block;" viewBox="0 0 56.1104 111.435" fill="none" xmlns="http://www.w3.org/2000/svg">
<g id="freepik--Smartphone--inject-2">
<path id="Vector" d="M52.6786 0H5.56849C3.67318 0 2.13672 1.53645 2.13672 3.43177V107.999C2.13672 109.894 3.67318 111.431 5.56849 111.431H52.6786C54.5739 111.431 56.1104 109.894 56.1104 107.999V3.43177C56.1104 1.53645 54.5739 0 52.6786 0Z" fill="var(--fill-0, #407BFF)"/>
<path id="Vector_2" d="M50.5419 0H3.43177C1.53646 0 0 1.53645 0 3.43177V107.999C0 109.894 1.53646 111.431 3.43177 111.431H50.5419C52.4372 111.431 53.9737 109.894 53.9737 107.999V3.43177C53.9737 1.53645 52.4372 0 50.5419 0Z" fill="var(--fill-0, #407BFF)"/>
<path id="Vector_3" opacity="0.7" d="M50.5419 0H3.43177C1.53646 0 0 1.53645 0 3.43177V107.999C0 109.894 1.53646 111.431 3.43177 111.431H50.5419C52.4372 111.431 53.9737 109.894 53.9737 107.999V3.43177C53.9737 1.53645 52.4372 0 50.5419 0Z" fill="var(--fill-0, white)"/>
<g id="Group" opacity="0.9">
<path id="Vector_4" d="M10.8321 0H7.91016V111.431H10.8321V0Z" fill="var(--fill-0, white)"/>
<path id="Vector_5" d="M41.7486 0H39.957V111.431H41.7486V0Z" fill="var(--fill-0, white)"/>
<path id="Vector_6" d="M0 24.2044V27.1264L53.9737 23.7833V20.8613L0 24.2044Z" fill="var(--fill-0, white)"/>
<path id="Vector_7" d="M0.00390625 93.2362L0.00390625 96.1582H53.9776V93.2362H0.00390625Z" fill="var(--fill-0, white)"/>
<path id="Vector_8" d="M0 38.7926L0 40.3848H53.9737V38.7926H0Z" fill="var(--fill-0, white)"/>
<path id="Vector_9" d="M0 76.4626V79.8094L53.9737 61.546V58.1992L0 76.4626Z" fill="var(--fill-0, white)"/>
<path id="Vector_10" d="M18.9181 0H15.9961L23.8496 111.435H26.7716L18.9181 0Z" fill="var(--fill-0, white)"/>
</g>
</g>
</svg>
