<svg preserveAspectRatio="none" width="100%" height="100%" overflow="visible" style="display: block;" viewBox="0 0 13.8265 22.2228" fill="none" xmlns="http://www.w3.org/2000/svg">
<g id="freepik--trash-bin--inject-2">
<path id="Vector" d="M12.9591 2.62695H3.41016V9.30196H12.9591V2.62695Z" fill="var(--fill-0, #263238)"/>
<path id="Vector_2" d="M0.339844 1.11914V22.2228H13.5162V1.11914H0.339844ZM12.0793 7.35457H7.89032V4.81311C7.89032 4.53096 8.00241 4.26036 8.20192 4.06085C8.40143 3.86133 8.67203 3.74925 8.95418 3.74925H11.0154C11.2976 3.74925 11.5682 3.86133 11.7677 4.06085C11.9672 4.26036 12.0793 4.53096 12.0793 4.81311V7.35457Z" fill="var(--fill-0, #407BFF)"/>
<path id="Vector_3" opacity="0.6" d="M0.339844 1.11914V22.2228H13.5162V1.11914H0.339844ZM12.0793 7.35457H7.89032V4.81311C7.89032 4.53096 8.00241 4.26036 8.20192 4.06085C8.40143 3.86133 8.67203 3.74925 8.95418 3.74925H11.0154C11.2976 3.74925 11.5682 3.86133 11.7677 4.06085C11.9672 4.26036 12.0793 4.53096 12.0793 4.81311V7.35457Z" fill="var(--fill-0, white)"/>
<path id="Vector_4" opacity="0.4" d="M5.99162 1.11523H0.339844V22.2189H5.99162V1.11523Z" fill="var(--fill-0, white)"/>
<path id="Vector_5" d="M13.8265 0H0V2.03907H13.8265V0Z" fill="var(--fill-0, #407BFF)"/>
<path id="Vector_6" opacity="0.2" d="M6.37949 0H0V2.03907H6.37949V0Z" fill="var(--fill-0, white)"/>
</g>
</svg>
