<svg preserveAspectRatio="none" width="100%" height="100%" overflow="visible" style="display: block;" viewBox="0 0 75.6341 76.7447" fill="none" xmlns="http://www.w3.org/2000/svg">
<g id="freepik--Character--inject-2">
<path id="Vector" d="M50.8374 48.5782H48.1445V76.7447H50.8374V48.5782Z" fill="var(--fill-0, #263238)"/>
<path id="Vector_2" opacity="0.2" d="M50.8374 48.5782H48.1445V76.7447H50.8374V48.5782Z" fill="var(--fill-0, black)"/>
<path id="Vector_3" d="M70.1148 48.5781H67.4219V76.7447H70.1148V48.5781Z" fill="var(--fill-0, #263238)"/>
<path id="Vector_4" opacity="0.2" d="M70.1148 48.5781H67.4219V76.7447H70.1148V48.5781Z" fill="var(--fill-0, black)"/>
<path id="Vector_5" d="M25.1343 48.5781H22.4414V76.7447H25.1343V48.5781Z" fill="var(--fill-0, #263238)"/>
<path id="Vector_6" d="M5.84916 48.5781H3.15625V76.7447H5.84916V48.5781Z" fill="var(--fill-0, #263238)"/>
<path id="Vector_7" d="M75.6341 47.5333V49.6167C75.6345 49.6966 75.6192 49.7758 75.589 49.8497C75.5588 49.9236 75.5142 49.9909 75.4579 50.0475C75.4016 50.1042 75.3347 50.1491 75.2609 50.1798C75.1872 50.2104 75.1081 50.2262 75.0282 50.2262H0.609506C0.447855 50.2262 0.292825 50.162 0.178521 50.0477C0.0642165 49.9334 0 49.7784 0 49.6167V47.5333C0 47.3717 0.0642165 47.2167 0.178521 47.1023C0.292825 46.988 0.447855 46.9238 0.609506 46.9238H75.0282C75.1081 46.9238 75.1872 46.9396 75.2609 46.9703C75.3347 47.001 75.4016 47.0459 75.4579 47.1026C75.5142 47.1592 75.5588 47.2264 75.589 47.3004C75.6192 47.3743 75.6345 47.4535 75.6341 47.5333Z" fill="var(--fill-0, #263238)"/>
<path id="Vector_8" opacity="0.1" d="M75.6341 47.5333V49.6167C75.6345 49.6966 75.6192 49.7758 75.589 49.8497C75.5588 49.9236 75.5142 49.9909 75.4579 50.0475C75.4016 50.1042 75.3347 50.1491 75.2609 50.1798C75.1872 50.2104 75.1081 50.2262 75.0282 50.2262H0.609506C0.447855 50.2262 0.292825 50.162 0.178521 50.0477C0.0642165 49.9334 0 49.7784 0 49.6167V47.5333C0 47.3717 0.0642165 47.2167 0.178521 47.1023C0.292825 46.988 0.447855 46.9238 0.609506 46.9238H75.0282C75.1081 46.9238 75.1872 46.9396 75.2609 46.9703C75.3347 47.001 75.4016 47.0459 75.4579 47.1026C75.5142 47.1592 75.5588 47.2264 75.589 47.3004C75.6192 47.3743 75.6345 47.4535 75.6341 47.5333Z" fill="var(--fill-0, white)"/>
<path id="Vector_9" opacity="0.2" d="M21.0076 47.5333V49.6167C21.0081 49.6966 20.9928 49.7758 20.9626 49.8497C20.9323 49.9236 20.8878 49.9909 20.8315 50.0475C20.7752 50.1042 20.7082 50.1491 20.6345 50.1798C20.5608 50.2104 20.4817 50.2262 20.4018 50.2262H0.609506C0.447855 50.2262 0.292825 50.162 0.178521 50.0477C0.0642165 49.9334 0 49.7784 0 49.6167V47.5333C0 47.3717 0.0642165 47.2167 0.178521 47.1023C0.292825 46.988 0.447855 46.9238 0.609506 46.9238H20.4018C20.4817 46.9238 20.5608 46.9396 20.6345 46.9703C20.7082 47.001 20.7752 47.0459 20.8315 47.1026C20.8878 47.1592 20.9323 47.2264 20.9626 47.3004C20.9928 47.3743 21.0081 47.4535 21.0076 47.5333Z" fill="var(--fill-0, white)"/>
<g id="freepik--group--inject-2">
<path id="Vector_10" d="M41.6951 15.0098C41.6951 15.0098 43.0767 15.2905 43.073 15.5417C43.0693 15.7929 42.5337 17.7913 42.2862 18.0351C42.0289 18.2455 41.7488 18.4263 41.4513 18.5744L41.8207 21.7993L39.9331 22.2869L39.9072 18.8515C39.9072 18.8515 39.2423 17.8393 39.7189 16.8494C40.1954 15.8594 41.6951 15.0098 41.6951 15.0098Z" fill="var(--fill-0, #EBB376)"/>
<path id="Vector_11" opacity="0.2" d="M41.6951 15.0098C41.6951 15.0098 43.0767 15.2905 43.073 15.5417C43.0693 15.7929 42.5337 17.7913 42.2862 18.0351C42.0289 18.2455 41.7488 18.4263 41.4513 18.5744L41.8207 21.7993L39.9331 22.2869L39.9072 18.8515C39.9072 18.8515 39.2423 17.8393 39.7189 16.8494C40.1954 15.8594 41.6951 15.0098 41.6951 15.0098Z" fill="var(--fill-0, black)"/>
<path id="Vector_12" d="M36.6811 15.3809C37.9296 16.2748 38.4025 21.2136 38.8975 21.9303C39.3925 22.6469 39.5845 20.5672 39.5845 20.5672L42.1001 20.4453C42.1001 20.4453 42.4437 23.4005 40.9919 25.4728C39.5402 27.5451 36.8658 26.0121 35.3476 22.658C33.8293 19.3039 36.6811 15.3809 36.6811 15.3809Z" fill="var(--fill-0, #407BFF)"/>
<path id="Vector_13" opacity="0.2" d="M40.9917 25.4784C40.727 25.8963 40.3225 26.2066 39.8502 26.3539C38.3948 26.7713 36.5257 25.2457 35.351 22.6599C34.9983 21.8552 34.8498 20.9759 34.9188 20.1C35.0813 17.5881 36.6808 15.3828 36.6808 15.3828C37.9257 16.2768 38.4022 21.2156 38.8972 21.9322C39.3922 22.6489 39.5843 20.5691 39.5843 20.5691L42.0999 20.4472C42.0999 20.4472 42.4434 23.3876 40.9917 25.4784Z" fill="var(--fill-0, white)"/>
<path id="Vector_14" d="M53.0958 73.6193L55.5893 72.936L55.1423 66.8594L52.6562 67.5428L53.0958 73.6193Z" fill="var(--fill-0, #EBB376)"/>
<path id="Vector_15" d="M55.7378 72.6083L52.8454 72.8078C52.8213 72.8083 52.7976 72.8136 52.7756 72.8233C52.7535 72.8331 52.7337 72.8472 52.7172 72.8647C52.7006 72.8823 52.6878 72.9029 52.6794 72.9255C52.671 72.9481 52.6671 72.9721 52.6681 72.9962L52.6866 75.2938C52.6942 75.4138 52.749 75.5258 52.839 75.6054C52.929 75.685 53.0469 75.7257 53.1668 75.7187C54.1753 75.63 54.6444 75.5376 55.9225 75.4416C57.0571 75.4101 58.188 75.2966 59.3062 75.1018C60.359 74.858 60.0893 73.8237 59.6202 73.831C58.512 73.8532 56.9568 73.24 56.1885 72.7228C56.0558 72.6343 55.8967 72.5939 55.7378 72.6083Z" fill="var(--fill-0, #263238)"/>
<path id="Vector_16" d="M56.6809 72.98C56.4485 72.9911 56.2156 72.9763 55.9864 72.9356C55.9754 72.9341 55.9651 72.9294 55.9566 72.9223C55.9481 72.9151 55.9418 72.9056 55.9384 72.895C55.9367 72.8833 55.9374 72.8713 55.9406 72.8598C55.9438 72.8484 55.9493 72.8377 55.9569 72.8285C56.0345 72.7657 56.7326 72.219 57.0651 72.3188C57.1015 72.331 57.1342 72.3523 57.1601 72.3808C57.186 72.4092 57.2041 72.4438 57.2128 72.4813C57.2382 72.5366 57.2472 72.598 57.2387 72.6583C57.2302 72.7185 57.2045 72.775 57.1648 72.8211C57.0294 72.9335 56.8565 72.9902 56.6809 72.98ZM57.0208 72.4444C56.8471 72.3926 56.4371 72.6364 56.149 72.847C56.6144 72.9061 56.9543 72.8692 57.0688 72.7399C57.091 72.7093 57.105 72.6736 57.1095 72.6361C57.1141 72.5986 57.1089 72.5606 57.0946 72.5256C57.0904 72.5068 57.0814 72.4894 57.0685 72.4752C57.0555 72.4609 57.0391 72.4503 57.0208 72.4444Z" fill="var(--fill-0, #407BFF)"/>
<path id="Vector_17" d="M56.0024 72.9342H55.9765C55.9585 72.9236 55.9453 72.9064 55.9396 72.8862C55.9396 72.864 55.8288 72.1216 56.0689 71.8519C56.1005 71.8172 56.1394 71.7899 56.1829 71.772C56.2263 71.7541 56.2732 71.7461 56.3201 71.7485C56.3712 71.7471 56.4214 71.7627 56.4628 71.7928C56.5042 71.8228 56.5345 71.8657 56.5491 71.9147C56.6267 72.1917 56.2794 72.7569 56.0356 72.9268L56.0024 72.9342ZM56.2868 71.8851C56.2627 71.8863 56.239 71.8925 56.2174 71.9033C56.1958 71.9141 56.1766 71.9293 56.1612 71.9479C56.0346 72.2042 55.9957 72.4949 56.0504 72.7754C56.2672 72.5592 56.3985 72.2718 56.4198 71.9664C56.4198 71.9295 56.3866 71.8888 56.3016 71.8851H56.2868Z" fill="var(--fill-0, #407BFF)"/>
<path id="Vector_18" opacity="0.2" d="M52.6562 67.543L55.1423 66.8633L55.3972 70.3356L52.8964 70.8934L52.6562 67.543Z" fill="var(--fill-0, black)"/>
<path id="Vector_19" d="M49.8388 73.5284L47.4857 74.5997L46.8873 72.0767L46.082 68.6746L48.4277 67.5996L49.233 70.9981L49.8388 73.5284Z" fill="var(--fill-0, #EBB376)"/>
<path id="Vector_20" opacity="0.2" d="M49.233 70.9981L46.8873 72.0767L46.082 68.6746L48.4277 67.5996L49.233 70.9981Z" fill="var(--fill-0, black)"/>
<path id="Vector_21" d="M49.9338 73.1821L47.1116 73.8396C47.0637 73.8486 47.0213 73.8762 46.9936 73.9163C46.9659 73.9564 46.9552 74.0059 46.9639 74.0539L47.3333 76.322C47.3614 76.4385 47.4339 76.5396 47.5352 76.6037C47.6366 76.6678 47.7589 76.69 47.8763 76.6655C48.8589 76.418 49.3132 76.2518 50.5544 75.9526C51.6679 75.7381 52.7651 75.4468 53.8383 75.0808C54.8431 74.6707 54.4109 73.6881 53.9492 73.7731C52.7333 73.9009 51.5051 73.7113 50.3845 73.2227C50.2422 73.1624 50.0846 73.1482 49.9338 73.1821Z" fill="var(--fill-0, #263238)"/>
<path id="Vector_22" d="M50.9252 73.3983C50.6981 73.4464 50.4664 73.4687 50.2344 73.4648C50.2229 73.4652 50.2116 73.4623 50.2017 73.4564C50.1919 73.4505 50.184 73.4419 50.179 73.4315C50.1743 73.4211 50.1719 73.4097 50.1719 73.3983C50.1719 73.3868 50.1743 73.3755 50.179 73.365C50.2492 73.2912 50.8476 72.6263 51.1837 72.6854C51.2221 72.691 51.2583 72.7065 51.2888 72.7305C51.3193 72.7545 51.3429 72.7861 51.3574 72.822C51.3899 72.8734 51.4071 72.933 51.4071 72.9938C51.4071 73.0546 51.3899 73.1142 51.3574 73.1656C51.2473 73.2943 51.0932 73.3773 50.9252 73.3983ZM51.1764 72.8146C50.9953 72.7888 50.6297 73.0991 50.3785 73.3503C50.8513 73.3503 51.1764 73.2431 51.2687 73.0991C51.2878 73.0659 51.2979 73.0284 51.2979 72.9901C51.2979 72.9518 51.2878 72.9143 51.2687 72.8811C51.2606 72.8643 51.2487 72.8495 51.234 72.838C51.2192 72.8264 51.2021 72.8185 51.1837 72.8146H51.1764Z" fill="var(--fill-0, #407BFF)"/>
<path id="Vector_23" d="M50.2482 73.4647C50.2447 73.4663 50.241 73.4672 50.2371 73.4672C50.2333 73.4672 50.2295 73.4663 50.226 73.4647C50.2074 73.4579 50.1917 73.4449 50.1817 73.4277C50.1817 73.4056 49.949 72.6889 50.1448 72.3823C50.17 72.3433 50.2037 72.3104 50.2433 72.2861C50.283 72.2618 50.3275 72.2467 50.3738 72.242C50.4242 72.2305 50.4771 72.2367 50.5235 72.2595C50.57 72.2824 50.6071 72.3206 50.6287 72.3676C50.7506 72.6298 50.4994 73.243 50.2815 73.4499C50.2779 73.4553 50.2729 73.4596 50.267 73.4622C50.2611 73.4649 50.2546 73.4657 50.2482 73.4647ZM50.3627 72.386C50.3153 72.397 50.2742 72.4262 50.2482 72.4673C50.1673 72.741 50.1751 73.0332 50.2704 73.3021C50.4568 73.0558 50.5462 72.7494 50.5216 72.4415C50.5216 72.4082 50.4772 72.3713 50.3923 72.3823L50.3627 72.386Z" fill="var(--fill-0, #407BFF)"/>
<path id="Vector_24" d="M32.4003 39.0214L31.6393 30.625L17.6022 30.9538C17.6022 30.9538 15.9436 42.6563 17.1516 44.8062C19.3052 48.6442 33.442 46.4648 36.7481 46.7935C38.1001 47.5138 45.3255 71.4582 45.3255 71.4582L49.3704 69.8254C49.3704 69.8254 45.0189 49.6157 44.0289 45.8146C42.6621 40.499 37.0436 40.595 32.4003 39.0214Z" fill="var(--fill-0, #407BFF)"/>
<path id="Vector_25" opacity="0.6" d="M32.4003 39.0214L31.6393 30.625L17.6022 30.9538C17.6022 30.9538 15.9436 42.6563 17.1516 44.8062C19.3052 48.6442 33.442 46.4648 36.7481 46.7935C38.1001 47.5138 45.3255 71.4582 45.3255 71.4582L49.3704 69.8254C49.3704 69.8254 45.0189 49.6157 44.0289 45.8146C42.6621 40.499 37.0436 40.595 32.4003 39.0214Z" fill="var(--fill-0, white)"/>
<path id="Vector_26" d="M55.6398 69.4008L52.0714 69.7333C52.0714 69.7333 47.6903 47.4475 47.3542 47.3552C46.7447 47.1816 44.9716 46.9858 44.0296 46.7309C37.3989 45.0095 21.0938 41.8401 21.0938 41.8401L27.1038 36.0664C27.1038 36.0664 54.369 39.3393 54.9749 45.7372C55.263 48.7958 55.6398 69.4008 55.6398 69.4008Z" fill="var(--fill-0, #407BFF)"/>
<path id="Vector_27" opacity="0.6" d="M55.6398 69.4008L52.0714 69.7333C52.0714 69.7333 47.6903 47.4475 47.3542 47.3552C46.7447 47.1816 44.9716 46.9858 44.0296 46.7309C37.3989 45.0095 21.0938 41.8401 21.0938 41.8401L27.1038 36.0664C27.1038 36.0664 54.369 39.3393 54.9749 45.7372C55.263 48.7958 55.6398 69.4008 55.6398 69.4008Z" fill="var(--fill-0, white)"/>
<path id="Vector_28" opacity="0.2" d="M46.392 47.3691C45.7825 47.1955 44.9735 46.9812 44.0205 46.73C44.2864 46.8704 43.5181 43.4054 42.7534 42.5041C41.2389 40.7162 35.1475 39.7484 32.9607 39.3975C31.1359 39.1057 25.0039 38.5627 25.0039 38.5627C25.0039 38.5627 35.8272 37.6281 43.9835 39.8666C48.0137 40.9748 47.297 44.9311 46.392 47.3691Z" fill="var(--fill-0, black)"/>
<path id="Vector_29" d="M31.9608 32.3293C32.7809 27.6231 34.1772 21.3249 36.715 15.433C35.3721 14.8645 33.9893 14.3954 32.5777 14.0293C30.5115 13.4706 28.4148 13.0315 26.298 12.7143C24.8394 12.5592 23.3708 12.5185 21.9059 12.5924C21.9059 12.5924 18.7438 18.5027 17.1406 32.3293H31.9608Z" fill="var(--fill-0, #407BFF)"/>
<path id="Vector_30" d="M38.9971 16.1192C38.9882 16.1489 38.986 16.1803 38.9907 16.211C38.9953 16.2416 39.0067 16.2709 39.024 16.2967C39.0413 16.3225 39.0641 16.3441 39.0907 16.36C39.1173 16.376 39.1472 16.3858 39.1781 16.3889L41.5607 16.725C41.6271 16.7328 41.6941 16.7166 41.7496 16.6793C41.8051 16.6421 41.8456 16.5862 41.8636 16.5218L43.053 11.8933C43.0625 11.862 43.0655 11.8291 43.0618 11.7966C43.0581 11.7642 43.0478 11.7328 43.0315 11.7044C43.0153 11.6761 42.9934 11.6513 42.9672 11.6317C42.9411 11.6121 42.9112 11.5981 42.8794 11.5904L40.4968 11.2579C40.4258 11.2559 40.3563 11.2783 40.2999 11.3213C40.2434 11.3643 40.2034 11.4254 40.1865 11.4944L38.9971 16.1192Z" fill="var(--fill-0, #263238)"/>
<path id="Vector_31" opacity="0.5" d="M40.4529 11.4852L39.2487 16.1581C39.2374 16.1847 39.2327 16.2136 39.2349 16.2424C39.2371 16.2713 39.2462 16.2991 39.2614 16.3237C39.2766 16.3483 39.2974 16.3689 39.3222 16.3838C39.347 16.3987 39.375 16.4074 39.4038 16.4093L41.4244 16.6937C41.5611 16.7122 41.8197 16.6715 41.8529 16.5385L43.0609 11.8509C43.0941 11.7179 42.8762 11.5812 42.7432 11.5591L40.7226 11.2783C40.6599 11.2728 40.5974 11.2909 40.5475 11.3292C40.4975 11.3675 40.4638 11.4232 40.4529 11.4852Z" fill="var(--fill-0, white)"/>
<path id="Vector_32" d="M27.3958 16.6979C27.3958 16.6979 23.7018 13.7611 23.2512 12.025C22.8005 10.2888 24.9504 9.11783 27.9794 9.78644C31.0085 10.455 33.8085 12.3722 32.9146 14.5886C32.0206 16.805 30.4544 17.3443 30.4544 17.3443C30.4544 17.3443 29.8043 16.0736 27.3958 16.6979Z" fill="var(--fill-0, #407BFF)"/>
<path id="Vector_33" d="M35.0508 18.6449L37.1785 17.2486C37.1785 17.2486 38.0835 14.5225 38.2867 14.2565C38.4899 13.9905 40.7358 14.6 40.9833 14.6259C41.2308 14.6517 40.5733 17.4333 40.2741 17.6734C39.9748 17.9135 38.9959 17.9468 38.9959 17.9468L36.5764 20.0782L35.0508 18.6449Z" fill="var(--fill-0, #EBB376)"/>
<path id="Vector_34" opacity="0.2" d="M27.3958 16.6979C27.3958 16.6979 23.7018 13.7611 23.2512 12.025C22.8005 10.2888 24.9504 9.11783 27.9794 9.78644C31.0085 10.455 33.8085 12.3722 32.9146 14.5886C32.0206 16.805 30.4544 17.3443 30.4544 17.3443C30.4544 17.3443 29.8043 16.0736 27.3958 16.6979Z" fill="var(--fill-0, white)"/>
<path id="Vector_35" d="M29.8017 7.43555C29.2439 9.45615 27.9141 13.0061 26.0117 13.5934C26.0117 13.5934 27.4117 15.8837 29.5099 16.0757C30.8434 16.1976 31.5822 14.6942 31.5822 14.6942C30.2228 14.4393 30.7437 13.4419 31.8149 12.1897L29.8017 7.43555Z" fill="var(--fill-0, #EBB376)"/>
<path id="Vector_36" opacity="0.2" d="M30.6215 9.37305L31.8109 12.1879C31.5559 12.4759 31.3272 12.7862 31.1275 13.115C29.7903 13.2148 28.8299 11.0944 29.1587 10.2337C29.2769 9.87912 30.3851 9.66118 30.6215 9.37305Z" fill="var(--fill-0, black)"/>
<path id="Vector_37" d="M34.4265 4.21061C33.1521 4.73515 33.3959 6.12778 35.5089 8.66554C36.8128 7.55735 37.5184 4.99003 36.835 4.16997C36.1516 3.34991 35.5384 3.75255 34.4265 4.21061Z" fill="var(--fill-0, #263238)"/>
<path id="Vector_38" d="M29.1834 5.29624C28.7401 8.05563 28.3412 9.64774 29.4013 11.3544C30.9934 13.918 34.632 13.4267 35.8953 10.8557C37.022 8.54324 37.5613 4.42077 35.1565 2.72893C34.6245 2.35715 34.0063 2.12725 33.3606 2.06097C32.715 1.99468 32.063 2.0942 31.4665 2.35011C30.87 2.60602 30.3486 3.00987 29.9517 3.52346C29.5548 4.03704 29.2954 4.64339 29.1982 5.28515L29.1834 5.29624Z" fill="var(--fill-0, #EBB376)"/>
<path id="Vector_39" d="M33.0785 6.95363C33.0268 7.17527 33.1044 7.38213 33.2521 7.41537C33.3999 7.44862 33.5514 7.29347 33.5994 7.07183C33.6474 6.85019 33.5735 6.64703 33.4331 6.61378C33.2928 6.58054 33.1413 6.73938 33.0785 6.95363Z" fill="var(--fill-0, #263238)"/>
<path id="Vector_40" d="M35.5962 7.52126C35.5482 7.7429 35.6258 7.94976 35.7699 7.98301C35.9139 8.01625 36.0728 7.8648 36.1393 7.63947C36.2058 7.41414 36.1097 7.21097 35.9656 7.18142C35.8216 7.15187 35.6443 7.30332 35.5962 7.52126Z" fill="var(--fill-0, #263238)"/>
<path id="Vector_41" d="M34.7619 7.44727C34.875 8.1835 35.0888 8.90068 35.3973 9.57868C35.2208 9.65352 35.0301 9.68868 34.8386 9.68166C34.6471 9.67464 34.4595 9.62561 34.2891 9.53805L34.7619 7.44727Z" fill="var(--fill-0, #D58745)"/>
<path id="Vector_42" d="M32.5698 6.00805C32.5407 6.00414 32.5136 5.99122 32.4922 5.9711C32.4798 5.95875 32.47 5.94407 32.4633 5.92791C32.4566 5.91174 32.4531 5.89441 32.4531 5.87691C32.4531 5.8594 32.4566 5.84208 32.4633 5.82591C32.47 5.80975 32.4798 5.79507 32.4922 5.78271C32.6503 5.64084 32.8405 5.53948 33.0464 5.48736C33.2523 5.43524 33.4678 5.43392 33.6743 5.4835C33.7064 5.493 33.7337 5.51424 33.7509 5.543C33.768 5.57175 33.7736 5.60591 33.7667 5.63865C33.7549 5.67141 33.7313 5.69862 33.7006 5.715C33.6699 5.73138 33.6342 5.73577 33.6004 5.7273C33.4376 5.69103 33.2685 5.69424 33.1072 5.73665C32.9459 5.77906 32.7971 5.85945 32.6732 5.9711C32.6595 5.98408 32.6432 5.99406 32.6254 6.00042C32.6076 6.00678 32.5887 6.00938 32.5698 6.00805Z" fill="var(--fill-0, #263238)"/>
<path id="Vector_43" d="M36.9313 6.9313C36.9065 6.92592 36.8837 6.91373 36.8655 6.89612C36.8472 6.8785 36.8342 6.85615 36.8279 6.83156C36.7931 6.67011 36.7208 6.51911 36.6168 6.39077C36.5129 6.26242 36.3802 6.16034 36.2295 6.09277C36.213 6.08695 36.1978 6.07793 36.1848 6.06624C36.1718 6.05455 36.1612 6.04042 36.1537 6.02464C36.1461 6.00886 36.1417 5.99175 36.1408 5.97428C36.1399 5.95682 36.1424 5.93934 36.1482 5.92284C36.154 5.90635 36.1631 5.89117 36.1747 5.87816C36.1864 5.86515 36.2006 5.85457 36.2163 5.84702C36.2321 5.83947 36.2492 5.83511 36.2667 5.83417C36.2842 5.83324 36.3016 5.83575 36.3181 5.84158C36.5126 5.92605 36.684 6.05606 36.8177 6.22064C36.9514 6.38523 37.0436 6.57956 37.0865 6.78724C37.0943 6.82101 37.0887 6.85651 37.0708 6.88619C37.0528 6.91586 37.024 6.93735 36.9904 6.94607H36.9313V6.9313Z" fill="var(--fill-0, #263238)"/>
<path id="Vector_44" d="M30.8076 3.12935C31.9823 3.84968 31.5168 5.1869 29.0271 7.34787C27.9189 6.03281 27.6308 3.39902 28.4361 2.70455C29.2413 2.01008 29.7807 2.49768 30.8076 3.12935Z" fill="var(--fill-0, #263238)"/>
<path id="Vector_45" d="M27.3971 7.18388C27.417 7.53116 27.5052 7.8711 27.6567 8.18424C27.8082 8.49737 28.02 8.77754 28.2799 9.00871C28.9818 9.6219 29.7317 9.08997 29.872 8.22189C29.9976 7.43877 29.7871 6.17174 28.9227 5.89469C28.7326 5.83594 28.5308 5.82594 28.3359 5.86565C28.1409 5.90535 27.9591 5.99346 27.8071 6.12187C27.6552 6.25027 27.538 6.41485 27.4663 6.60044C27.3947 6.78603 27.3708 6.98667 27.3971 7.18388Z" fill="var(--fill-0, #EBB376)"/>
<path id="Vector_46" d="M28.643 2.55646C28.643 2.55646 28.3955 1.47413 30.3386 0.447203C32.2816 -0.579721 35.4252 0.288358 37.4679 1.76964C39.5107 3.25092 37.0246 5.09421 36.031 5.14593L36.308 4.80239C35.2437 4.85381 34.1809 4.67227 33.194 4.27046L33.8257 4.0636C33.8257 4.0636 29.8694 3.33958 28.643 2.55646Z" fill="var(--fill-0, #263238)"/>
<path id="Vector_47" d="M33.8184 10.1346C33.6298 10.4112 33.4619 10.7013 33.316 11.0026C33.2584 10.9888 33.2016 10.9716 33.1461 10.9509C32.3814 10.7145 32.1044 10.3488 32.0379 10.02C31.9977 9.76667 32.0418 9.50711 32.1635 9.28125C32.5701 9.6387 33.0488 9.90452 33.5672 10.0607C33.7187 10.1087 33.8184 10.1346 33.8184 10.1346Z" fill="var(--fill-0, #263238)"/>
<path id="Vector_48" d="M33.5579 10.049L33.4028 10.3001C32.6825 10.0748 32.2059 9.81993 32.0508 9.5318C32.0734 9.44015 32.1082 9.35194 32.1542 9.26953C32.5608 9.62698 33.0395 9.8928 33.5579 10.049Z" fill="var(--fill-0, white)"/>
<path id="Vector_49" d="M33.1473 10.9465C32.3826 10.7101 32.1056 10.3444 32.0391 10.0156C32.3284 10.1115 32.5986 10.2578 32.837 10.4478C32.9903 10.5772 33.0989 10.7518 33.1473 10.9465Z" fill="var(--fill-0, #A24E3F)"/>
<path id="Vector_50" d="M31.8073 24.7857C31.7952 24.7853 31.7833 24.7824 31.7723 24.7773C31.7612 24.7722 31.7513 24.765 31.7431 24.7561C31.7349 24.7472 31.7285 24.7367 31.7243 24.7253C31.7201 24.7139 31.7182 24.7018 31.7187 24.6897C32.029 20.1609 30.5144 17.2094 30.4997 17.1799C30.4938 17.1692 30.4901 17.1575 30.4888 17.1454C30.4875 17.1333 30.4886 17.1211 30.492 17.1094C30.4955 17.0977 30.5012 17.0868 30.5088 17.0774C30.5165 17.0679 30.5259 17.0601 30.5366 17.0543C30.5588 17.0437 30.5841 17.042 30.6075 17.0496C30.6308 17.0571 30.6504 17.0734 30.6622 17.0949C30.6622 17.1244 32.2174 20.1203 31.9034 24.7008C31.9015 24.7246 31.8904 24.7468 31.8725 24.7627C31.8546 24.7785 31.8312 24.7868 31.8073 24.7857Z" fill="var(--fill-0, white)"/>
<path id="Vector_51" d="M26.2197 23.1722C26.2039 23.1756 26.1875 23.1756 26.1717 23.1722C26.1514 23.1593 26.1369 23.1389 26.1314 23.1154C26.1258 23.092 26.1297 23.0673 26.1422 23.0466C27.8007 20.2244 27.3131 16.3975 27.3095 16.3679C27.3074 16.356 27.3077 16.3437 27.3106 16.332C27.3134 16.3202 27.3186 16.3091 27.3258 16.2994C27.3331 16.2897 27.3423 16.2816 27.3528 16.2756C27.3633 16.2696 27.375 16.2658 27.387 16.2645C27.411 16.2613 27.4352 16.2676 27.4546 16.2821C27.4739 16.2966 27.4868 16.3182 27.4905 16.342C27.4905 16.3827 27.9928 20.2651 26.301 23.139C26.2913 23.1508 26.2788 23.1601 26.2646 23.1659C26.2504 23.1717 26.235 23.1738 26.2197 23.1722Z" fill="var(--fill-0, white)"/>
<path id="Vector_52" d="M31.7471 24.6133C31.7471 24.6133 32.0426 24.6133 31.9909 25.1083L31.5587 25.0676C31.5587 25.0676 31.5107 24.6798 31.7471 24.6133Z" fill="var(--fill-0, white)"/>
<path id="Vector_53" d="M26.2468 22.9111C26.2468 22.9111 26.4906 23.0773 26.2025 23.4615L25.8516 23.2029C25.8516 23.2029 26.0141 22.8335 26.2468 22.9111Z" fill="var(--fill-0, white)"/>
<path id="Vector_54" d="M22.2721 12.5917C23.6943 12.9205 27.1038 18.8161 28.9213 19.9021C30.7387 20.9881 35.7847 17.4936 35.7847 17.4936L37.5097 19.6398C37.5097 19.6398 33.4279 23.2414 29.8558 23.3338C26.2838 23.4261 21.2193 18.3691 20.4658 16.5147C19.7122 14.6603 20.547 12.1928 22.2721 12.5917Z" fill="var(--fill-0, #407BFF)"/>
<path id="Vector_55" opacity="0.2" d="M22.2721 12.5917C23.6943 12.9205 27.1038 18.8161 28.9213 19.9021C30.7387 20.9881 35.7847 17.4936 35.7847 17.4936L37.5097 19.6398C37.5097 19.6398 33.4279 23.2414 29.8558 23.3338C26.2838 23.4261 21.2193 18.3691 20.4658 16.5147C19.7122 14.6603 20.547 12.1928 22.2721 12.5917Z" fill="var(--fill-0, white)"/>
</g>
</g>
</svg>
