<svg preserveAspectRatio="none" width="100%" height="100%" overflow="visible" style="display: block;" viewBox="0 0 64.1273 115.344" fill="none" xmlns="http://www.w3.org/2000/svg">
<g id="freepik--Device--inject-2">
<path id="Vector" d="M60.2856 0H3.84173C1.72 0 0 1.72 0 3.84173V111.503C0 113.624 1.72 115.344 3.84173 115.344H60.2856C62.4073 115.344 64.1273 113.624 64.1273 111.503V3.84173C64.1273 1.72 62.4073 0 60.2856 0Z" fill="var(--fill-0, #263238)"/>
<path id="Vector_2" d="M61.9628 3.86252V111.272C61.9628 111.48 61.9215 111.686 61.8412 111.878C61.7609 112.07 61.6433 112.244 61.4952 112.39C61.347 112.536 61.1713 112.651 60.9783 112.729C60.7853 112.807 60.5787 112.845 60.3707 112.842H3.58696C3.39776 112.845 3.21 112.809 3.03489 112.737C2.85977 112.666 2.7009 112.559 2.5678 112.425C2.43469 112.29 2.33007 112.13 2.26019 111.955C2.19031 111.779 2.15661 111.591 2.1611 111.401V3.74062C2.15467 3.57372 2.18121 3.40719 2.2392 3.25055C2.29719 3.09391 2.38549 2.95024 2.49905 2.82776C2.61262 2.70528 2.74921 2.60639 2.90102 2.53674C3.05283 2.4671 3.21689 2.42806 3.3838 2.42188H17.5797C17.7781 2.42554 17.9709 2.48831 18.1335 2.60215C18.296 2.71599 18.4209 2.87573 18.4921 3.06093L19.0795 4.50897C19.1526 4.69308 19.2786 4.85138 19.4417 4.96382C19.6048 5.07626 19.7975 5.1378 19.9956 5.14064H44.1615C44.3587 5.14016 44.5512 5.08084 44.7144 4.97028C44.8776 4.85972 45.0041 4.70295 45.0777 4.52005L45.665 3.06463C45.7361 2.87901 45.8608 2.71877 46.0233 2.6043C46.1858 2.48983 46.3787 2.42633 46.5774 2.42188H60.5702C60.9445 2.43249 61.2998 2.58917 61.5601 2.85841C61.8203 3.12765 61.9649 3.48806 61.9628 3.86252Z" fill="var(--fill-0, #407BFF)"/>
<path id="Vector_3" opacity="0.3" d="M61.9619 9.13086H2.16016V106.807H61.9619V9.13086Z" fill="var(--fill-0, white)"/>
<path id="Vector_4" opacity="0.6" d="M8.75339 6.74414H9.49219V5.75785H8.75339V6.74414Z" fill="var(--fill-0, white)"/>
<path id="Vector_5" opacity="0.6" d="M7.54636 6.74414H8.28516V5.42909H7.54636V6.74414Z" fill="var(--fill-0, white)"/>
<path id="Vector_6" opacity="0.6" d="M6.34324 6.74414H7.08203V5.10402H6.34324V6.74414Z" fill="var(--fill-0, white)"/>
<path id="Vector_7" opacity="0.6" d="M5.14011 6.74219H5.87891V4.7733H5.14011V6.74219Z" fill="var(--fill-0, white)"/>
<path id="Vector_8" opacity="0.6" d="M55.1974 5.40039H54.7578V6.38668H55.1974V5.40039Z" fill="var(--fill-0, white)"/>
<path id="Vector_9" opacity="0.6" d="M55.4934 6.74414H58.9805V5.04122H55.4934V6.74414Z" fill="var(--fill-0, white)"/>
<path id="Vector_10" opacity="0.4" d="M59.5065 18.1797H4.61036C3.71882 18.1797 2.99609 18.9024 2.99609 19.794V48.5737C2.99609 49.4652 3.71882 50.1879 4.61036 50.1879H59.5065C60.398 50.1879 61.1207 49.4652 61.1207 48.5737V19.794C61.1207 18.9024 60.398 18.1797 59.5065 18.1797Z" fill="var(--fill-0, white)"/>
<path id="Vector_11" d="M46.4242 19.0195H17.6962C16.9536 19.0195 16.3516 19.6215 16.3516 20.3641V48.0024C16.3516 48.745 16.9536 49.347 17.6962 49.347H46.4242C47.1668 49.347 47.7688 48.745 47.7688 48.0024V20.3641C47.7688 19.6215 47.1668 19.0195 46.4242 19.0195Z" fill="var(--fill-0, white)"/>
<path id="Vector_12" d="M11.6224 35.0006C11.6224 35.4017 11.5034 35.7938 11.2806 36.1273C11.0578 36.4608 10.741 36.7208 10.3705 36.8743C9.99991 37.0278 9.59215 37.0679 9.19876 36.9897C8.80537 36.9114 8.44401 36.7183 8.16039 36.4346C7.87678 36.151 7.68363 35.7897 7.60537 35.3963C7.52712 35.0029 7.56728 34.5951 7.72078 34.2246C7.87427 33.854 8.13421 33.5373 8.46771 33.3144C8.80121 33.0916 9.1933 32.9727 9.5944 32.9727C10.1323 32.9727 10.6481 33.1863 11.0284 33.5666C11.4087 33.947 11.6224 34.4628 11.6224 35.0006Z" fill="var(--fill-0, #263238)"/>
<path id="Vector_13" opacity="0.2" d="M10.8017 35.0024C10.8017 35.243 10.7304 35.4781 10.5966 35.678C10.4629 35.8779 10.2729 36.0337 10.0506 36.1256C9.82835 36.2175 9.5838 36.2413 9.34795 36.1941C9.1121 36.1469 8.89557 36.0308 8.72575 35.8605C8.55594 35.6901 8.44047 35.4732 8.394 35.2373C8.34752 35.0013 8.37212 34.7568 8.46467 34.5348C8.55722 34.3128 8.71357 34.1232 8.91391 33.9901C9.11426 33.857 9.34958 33.7864 9.59011 33.7871C9.91179 33.7881 10.22 33.9166 10.4471 34.1444C10.6742 34.3722 10.8017 34.6807 10.8017 35.0024Z" fill="var(--fill-0, black)"/>
<path id="Vector_14" d="M4.71484 31.9957L5.24308 31.2162C5.24308 31.2162 7.2489 31.46 8.12437 30.6289H10.7028L10.8247 30.7286L7.92491 32.9746L5.26154 32.6052L4.71484 31.9957Z" fill="var(--fill-0, #263238)"/>
<path id="Vector_15" d="M9.59375 32.408H10.5616L12.0466 34.7463H12.3864L11.3151 32.408V31.5547H10.4138L9.59375 32.408Z" fill="var(--fill-0, #263238)"/>
<path id="Vector_16" d="M2.99609 29.75L3.04781 29.9273L2.99609 30.1637V29.75Z" fill="var(--fill-0, #263238)"/>
<path id="Vector_17" d="M3.49108 28.451L3.26944 28.8537L3.61668 29.0199L3.70903 29.2711L3.5982 29.4004L3.9676 29.6811C3.97799 29.7057 3.98294 29.7323 3.9821 29.7589C3.98125 29.7856 3.97462 29.8118 3.96268 29.8357C3.95075 29.8595 3.93378 29.8805 3.91295 29.8972C3.89211 29.9139 3.86791 29.9259 3.84201 29.9323L3.36549 29.6811H2.99609V28.8167H3.15862L3.3581 28.3772C3.3581 28.3772 3.19556 27.9782 3.89003 27.7012L4.05256 27.8305V28.1777L3.83462 28.3772L3.49108 28.451Z" fill="var(--fill-0, #263238)"/>
<path id="Vector_18" d="M3.25098 30.4604L2.99609 30.8224V30.2129L3.25098 30.4604Z" fill="var(--fill-0, #407BFF)"/>
<path id="Vector_19" d="M12.0426 30.9442L11.3851 31.9158L11.3112 31.8567L11.1191 31.6978L9.87427 32.3553L9.76345 32.4071L7.24416 33.5744L7.41408 33.7849H8.72914L8.8769 34.0176L8.4521 34.5754L7.65788 35.6208L7.34391 36.0345H2.99609V32.4957C3.28852 32.7437 3.63947 32.9128 4.01563 32.987C4.03616 32.9929 4.0579 32.9929 4.07842 32.987C4.10376 32.974 4.12734 32.9579 4.14861 32.939H4.16709C4.18406 32.9224 4.19895 32.9038 4.21141 32.8836C4.21894 32.8733 4.22514 32.8622 4.22988 32.8503C4.24053 32.8294 4.248 32.807 4.25204 32.7838C4.26528 32.6697 4.23781 32.5546 4.17447 32.4588L4.7101 32.0229C7.70222 32.0968 8.53336 31.3432 8.53336 31.3432L10.7941 30.7559L12.0426 30.9442Z" fill="var(--fill-0, #407BFF)"/>
<path id="Vector_20" d="M8.8769 34.0204L8.4521 34.5782L7.65788 35.6236L7.3439 36.0373H2.99609V35.8489L3.76075 35.7197L3.61668 34.8922L5.53016 33.4922L6.29481 33.7877L7.24416 33.5771L7.41408 33.7877H8.72914L8.8769 34.0204Z" fill="var(--fill-0, #263238)"/>
<path id="Vector_21" d="M4.01996 32.9893C3.90376 33.0518 3.77944 33.0978 3.65056 33.126L3.00781 32.8046V32.498C3.29814 32.7449 3.64641 32.914 4.01996 32.9893Z" fill="var(--fill-0, #263238)"/>
<path id="Vector_22" opacity="0.2" d="M3.25098 30.4604L2.99609 30.8224V30.2129L3.25098 30.4604Z" fill="var(--fill-0, black)"/>
<path id="Vector_23" opacity="0.2" d="M5.0758 32.6013L3.9085 33.7871L2.99609 33.2736V32.4979C3.28852 32.7458 3.63947 32.915 4.01563 32.9892C4.03616 32.995 4.0579 32.995 4.07842 32.9892C4.10376 32.9762 4.12734 32.9601 4.14861 32.9411H4.16709C4.18406 32.9246 4.19895 32.9059 4.21141 32.8857C4.21894 32.8755 4.22514 32.8643 4.22988 32.8525C4.24053 32.8316 4.248 32.8091 4.25204 32.786C4.26528 32.6719 4.23781 32.5568 4.17447 32.4609L5.0758 32.6013Z" fill="var(--fill-0, black)"/>
<path id="Vector_24" opacity="0.2" d="M12.0426 30.9453L11.3851 31.9168L11.3112 31.8577L11.1191 31.6989L9.87427 32.3564L9.76345 32.4081L7.24416 33.5754L7.41408 33.786H8.72914L8.8769 34.0187L8.4521 34.5765L7.65788 35.6219L7.34391 36.0356H2.99609V33.5348L4.05258 34.1L5.49322 33.1469L6.94125 33.3316L7.70591 32.9474L8.37821 32.6039L10.3693 31.5991L10.4542 31.5548L10.9862 31.2852L12.0426 30.9453Z" fill="var(--fill-0, black)"/>
<path id="Vector_25" d="M20.8633 34.7103H42.787L42.3474 30.7836L36.0307 29.4316L30.161 30.4549L23.0907 31.1493L21.3361 33.1589L20.8633 34.7103Z" fill="var(--fill-0, #263238)"/>
<path id="Vector_26" opacity="0.2" d="M20.8633 34.7103H42.787L42.3474 30.7836L36.0307 29.4316L30.161 30.4549L23.0907 31.1493L21.3361 33.1589L20.8633 34.7103Z" fill="var(--fill-0, black)"/>
<path id="Vector_27" d="M26.9521 34.7104C26.9521 35.1693 26.8161 35.6178 26.5612 35.9993C26.3063 36.3808 25.944 36.6781 25.5201 36.8537C25.0962 37.0292 24.6297 37.0752 24.1797 36.9857C23.7297 36.8962 23.3164 36.6752 22.992 36.3508C22.6675 36.0264 22.4466 35.613 22.3571 35.163C22.2676 34.713 22.3135 34.2466 22.4891 33.8227C22.6647 33.3988 22.962 33.0365 23.3435 32.7816C23.725 32.5267 24.1735 32.3906 24.6323 32.3906C24.937 32.3906 25.2386 32.4506 25.5201 32.5672C25.8015 32.6838 26.0573 32.8547 26.2727 33.0701C26.4881 33.2855 26.659 33.5412 26.7755 33.8227C26.8921 34.1041 26.9521 34.4058 26.9521 34.7104Z" fill="var(--fill-0, #263238)"/>
<path id="Vector_28" opacity="0.2" d="M24.6413 36.2631C25.4982 36.2631 26.1928 35.5685 26.1928 34.7116C26.1928 33.8548 25.4982 33.1602 24.6413 33.1602C23.7845 33.1602 23.0898 33.8548 23.0898 34.7116C23.0898 35.5685 23.7845 36.2631 24.6413 36.2631Z" fill="var(--fill-0, black)"/>
<path id="Vector_29" d="M42.1006 34.7104C42.1006 35.1693 41.9645 35.6178 41.7096 35.9993C41.4547 36.3808 41.0924 36.6781 40.6685 36.8537C40.2446 37.0292 39.7782 37.0752 39.3282 36.9857C38.8782 36.8962 38.4648 36.6752 38.1404 36.3508C37.816 36.0264 37.595 35.613 37.5055 35.163C37.416 34.713 37.4619 34.2466 37.6375 33.8227C37.8131 33.3988 38.1104 33.0365 38.4919 32.7816C38.8734 32.5267 39.3219 32.3906 39.7808 32.3906C40.0854 32.3906 40.3871 32.4506 40.6685 32.5672C40.95 32.6838 41.2057 32.8547 41.4211 33.0701C41.6365 33.2855 41.8074 33.5412 41.924 33.8227C42.0406 34.1041 42.1006 34.4058 42.1006 34.7104Z" fill="var(--fill-0, #263238)"/>
<path id="Vector_30" opacity="0.2" d="M39.7897 36.2631C40.6466 36.2631 41.3412 35.5685 41.3412 34.7116C41.3412 33.8548 40.6466 33.1602 39.7897 33.1602C38.9329 33.1602 38.2383 33.8548 38.2383 34.7116C38.2383 35.5685 38.9329 36.2631 39.7897 36.2631Z" fill="var(--fill-0, black)"/>
<path id="Vector_31" d="M44.2829 32.6442L44.028 34.4579L42.6021 34.9086C42.6021 34.9086 42.5651 31.8426 39.4622 31.8426C36.3593 31.8426 36.7582 35.4959 36.7582 35.4959H36.2152L35.192 35.0563H28.4911L27.9075 35.5107H27.5122C27.5122 35.5107 27.841 31.8573 24.642 31.8573C21.443 31.8573 21.8494 35.5107 21.8494 35.5107L20.0209 34.7239L19.8398 32.8769L20.6045 32.4004L20.7892 31.2922C20.8705 31.2294 20.9554 31.1703 21.0404 31.1149C23.1792 29.6816 26.1048 29.4895 26.1048 29.4895C28.6204 26.9296 29.6399 26.5676 29.6399 26.5676C33.4002 26.3389 37.1727 26.4118 40.9213 26.7855L42.6021 28.9391L42.9973 29.2605L43.4074 29.5966C43.5622 30.3421 43.623 31.1041 43.5884 31.8647L44.2829 32.6442Z" fill="var(--fill-0, #407BFF)"/>
<path id="Vector_32" opacity="0.6" d="M22.63 31.2178L21.3482 32.3888H20.6094L20.7941 31.2806C20.8753 31.2178 20.9603 31.1587 21.0453 31.1033L21.9761 30.9629L22.63 31.2178Z" fill="var(--fill-0, white)"/>
<path id="Vector_33" opacity="0.6" d="M43.5764 31.8445L43.111 31.6709C43.0698 30.9855 42.87 30.3191 42.5273 29.7241L42.9854 29.2402L43.3954 29.5764C43.5502 30.3219 43.611 31.0839 43.5764 31.8445Z" fill="var(--fill-0, white)"/>
<path id="Vector_34" d="M42.6027 28.9176C39.5626 29.6564 26.1055 29.468 26.1055 29.468L26.3345 29.239C27.1819 28.3453 28.1175 27.5396 29.1271 26.8342C29.2871 26.7194 29.4593 26.6228 29.6406 26.5461C33.4008 26.3174 37.1734 26.3903 40.922 26.764L42.6027 28.9176Z" fill="var(--fill-0, #263238)"/>
<path id="Vector_35" opacity="0.6" d="M29.7526 26.8355L27.5584 29.2329H26.332C27.1794 28.3392 28.1151 27.5335 29.1247 26.8281L29.7526 26.8355Z" fill="var(--fill-0, white)"/>
<path id="Vector_36" opacity="0.6" d="M28.1797 29.2385L30.1153 26.8301H33.004L32.7824 29.2385H28.1797Z" fill="var(--fill-0, white)"/>
<path id="Vector_37" opacity="0.6" d="M33.4805 29.2329L33.7354 26.8281H37.7175L38.4119 29.0076C38.4119 29.0076 36.0035 29.2329 33.4805 29.2329Z" fill="var(--fill-0, white)"/>
<path id="Vector_38" opacity="0.6" d="M38.1836 26.832L38.9224 28.9524C38.9224 28.9524 41.2607 28.8083 41.5894 28.6606L40.6216 27.3381C40.5328 27.2319 40.4237 27.1444 40.3006 27.081C40.1776 27.0176 40.043 26.9794 39.905 26.9687C39.3349 26.8845 38.7598 26.8388 38.1836 26.832Z" fill="var(--fill-0, white)"/>
<path id="Vector_39" opacity="0.2" d="M44.2829 32.6461L44.028 34.4598L42.6021 34.9105C42.6021 34.9105 42.5651 31.8445 39.4622 31.8445C36.3593 31.8445 36.7582 35.4978 36.7582 35.4978H36.2152L35.192 35.0582H28.4911L27.9075 35.5126H27.5122C27.5122 35.5126 27.841 31.8592 24.642 31.8592C21.443 31.8592 21.8494 35.5126 21.8494 35.5126L20.0209 34.7258L19.8398 32.8788H21.347C21.7415 32.3166 22.2675 31.8595 22.8792 31.5472C23.4908 31.235 24.1696 31.077 24.8563 31.0872C27.2684 31.0872 28.0442 32.8788 28.0442 32.8788H35.7793C35.7793 32.8788 37.0944 31.0613 39.03 30.9653C40.1017 30.8756 41.1747 31.1222 42.0997 31.6708H43.1156L43.581 31.8445L44.2829 32.6461Z" fill="var(--fill-0, black)"/>
<path id="Vector_40" d="M61.1234 30.5859V35.5432H53.5508C53.5508 35.5432 54.0532 33.8477 54.4447 32.6952C54.5413 32.3295 54.6828 31.9771 54.8658 31.6461C55.8743 31.0994 58.2237 30.7706 61.1234 30.5859Z" fill="var(--fill-0, #263238)"/>
<path id="Vector_41" opacity="0.2" d="M61.1234 30.5859V35.5432H53.5508C53.5508 35.5432 54.0532 33.8477 54.4447 32.6952C54.5413 32.3295 54.6828 31.9771 54.8658 31.6461C55.8743 31.0994 58.2237 30.7706 61.1234 30.5859Z" fill="var(--fill-0, black)"/>
<path id="Vector_42" d="M57.7637 37.0254C58.9837 37.0254 59.9727 36.0364 59.9727 34.8164C59.9727 33.5964 58.9837 32.6074 57.7637 32.6074C56.5437 32.6074 55.5547 33.5964 55.5547 34.8164C55.5547 36.0364 56.5437 37.0254 57.7637 37.0254Z" fill="var(--fill-0, #263238)"/>
<path id="Vector_43" opacity="0.2" d="M57.7627 36.7715C58.8419 36.7715 59.7168 35.8966 59.7168 34.8174C59.7168 33.7382 58.8419 32.8633 57.7627 32.8633C56.6835 32.8633 55.8086 33.7382 55.8086 34.8174C55.8086 35.8966 56.6835 36.7715 57.7627 36.7715Z" fill="var(--fill-0, white)"/>
<path id="Vector_44" d="M58.2803 28.4899C59.3626 27.8287 60.2972 27.2894 61.121 26.8535V36.2103H60.4006L60.2787 35.5565L59.998 34.0457C59.9176 33.6077 59.6861 33.2119 59.3439 32.927C59.0017 32.6422 58.5704 32.4864 58.1252 32.4868H57.2423C56.8251 32.4833 56.4184 32.6169 56.0846 32.8672C55.7509 33.1175 55.5087 33.4706 55.3953 33.8721L54.9188 35.5565L54.7341 36.2103L51.7383 35.8225L52.1077 33.2773L52.1668 32.8747L52.7504 32.4868L53.8956 29.8567L54.9594 29.5243L58.2803 28.4899Z" fill="var(--fill-0, #407BFF)"/>
<path id="Vector_45" opacity="0.7" d="M55.5556 29.6945L54.1482 32.0808L52.7852 32.4723L53.9303 29.8422L54.9941 29.5098C55.3266 29.5984 55.5556 29.6945 55.5556 29.6945Z" fill="var(--fill-0, white)"/>
<path id="Vector_46" opacity="0.4" d="M61.1278 27.4961V28.922C60.3934 28.9415 59.6588 28.892 58.9336 28.7742C58.9336 28.7742 59.9901 28.1425 61.1278 27.4961Z" fill="var(--fill-0, black)"/>
<path id="Vector_47" opacity="0.2" d="M61.121 33.3229V36.1968H60.4006L60.2787 35.5429L59.998 34.0321C59.9176 33.5942 59.6861 33.1983 59.3439 32.9135C59.0017 32.6286 58.5704 32.4729 58.1252 32.4733H57.2423C56.8251 32.4697 56.4184 32.6034 56.0846 32.8537C55.7509 33.104 55.5087 33.457 55.3953 33.8585L54.9188 35.5429L54.7341 36.1968L51.7383 35.8089L52.1077 33.2638L54.3573 32.6062L54.4238 32.6949L54.8449 33.2527C54.8449 33.2527 55.5837 31.8379 58.0882 31.8379C60.1162 31.8379 60.8919 32.8981 61.121 33.3229Z" fill="var(--fill-0, black)"/>
<path id="Vector_48" d="M37.4287 46.4088H26.7162C26.4869 46.4088 26.2599 46.3635 26.0481 46.2757C25.8363 46.1878 25.644 46.0591 25.482 45.8968C25.3201 45.7345 25.1917 45.5418 25.1043 45.3299C25.0169 45.1179 24.9722 44.8908 24.9727 44.6615C24.9727 44.1991 25.1564 43.7556 25.4833 43.4286C25.8103 43.1017 26.2538 42.918 26.7162 42.918H37.4287C37.8912 42.918 38.3346 43.1017 38.6616 43.4286C38.9886 43.7556 39.1723 44.1991 39.1723 44.6615C39.1723 45.1243 38.9887 45.5681 38.6618 45.8957C38.335 46.2233 37.8915 46.4078 37.4287 46.4088Z" fill="var(--fill-0, #407BFF)"/>
<path id="Vector_49" d="M61.1207 10.5625H2.99609V17.2855H61.1207V10.5625Z" fill="var(--fill-0, #407BFF)"/>
<path id="Vector_50" opacity="0.6" d="M32.0503 2.55834C32.0503 2.72054 32.0022 2.87909 31.9121 3.01395C31.822 3.1488 31.6939 3.25391 31.544 3.31598C31.3942 3.37805 31.2293 3.39429 31.0702 3.36265C30.9112 3.33101 30.765 3.2529 30.6503 3.13821C30.5357 3.02353 30.4576 2.8774 30.4259 2.71833C30.3943 2.55925 30.4105 2.39437 30.4726 2.24452C30.5347 2.09467 30.6398 1.9666 30.7746 1.87649C30.9095 1.78638 31.068 1.73828 31.2302 1.73828C31.3379 1.73828 31.4446 1.75949 31.544 1.80071C31.6435 1.84192 31.7339 1.90232 31.8101 1.97847C31.8862 2.05462 31.9466 2.14503 31.9879 2.24452C32.0291 2.34401 32.0503 2.45065 32.0503 2.55834Z" fill="var(--fill-0, white)"/>
<path id="Vector_51" opacity="0.6" d="M33.7166 2.55775C33.7173 2.66238 33.687 2.76487 33.6294 2.85222C33.5718 2.93957 33.4896 3.00785 33.3931 3.0484C33.2966 3.08895 33.1903 3.09994 33.0876 3.07997C32.9849 3.06001 32.8904 3.01 32.8162 2.93627C32.7419 2.86254 32.6913 2.76843 32.6706 2.66586C32.6499 2.56329 32.6601 2.45689 32.7 2.36015C32.7399 2.26342 32.8076 2.1807 32.8945 2.12249C32.9815 2.06428 33.0837 2.03321 33.1884 2.0332C33.3278 2.0332 33.4616 2.08834 33.5606 2.18661C33.6596 2.28488 33.7156 2.41829 33.7166 2.55775Z" fill="var(--fill-0, white)"/>
<path id="Vector_52" opacity="0.2" d="M13.9805 33.53L15.7794 35.9274V31.1289L13.9805 33.53Z" fill="var(--fill-0, black)"/>
<path id="Vector_53" opacity="0.2" d="M50.1388 33.53L48.3398 31.1289V35.9274L50.1388 33.53Z" fill="var(--fill-0, black)"/>
<path id="Vector_54" d="M15.2383 14.6427L15.3934 14.2955C15.6237 14.4679 15.9036 14.5612 16.1913 14.5615C16.5607 14.5615 16.7233 14.4248 16.7233 14.2475C16.7233 13.7266 15.29 14.0665 15.29 13.1725C15.29 12.781 15.6003 12.4337 16.2615 12.4337C16.5445 12.4298 16.8232 12.5039 17.0668 12.648L16.9227 12.9989C16.7221 12.8768 16.4926 12.8105 16.2578 12.8068C15.8884 12.8068 15.7333 12.9509 15.7333 13.1356C15.7333 13.6491 17.1665 13.3166 17.1665 14.1995C17.1665 14.5873 16.8525 14.9383 16.1913 14.9383C15.8497 14.9477 15.5146 14.8437 15.2383 14.6427Z" fill="var(--fill-0, white)"/>
<path id="Vector_55" d="M19.4192 14.5232V14.8926H17.6055V12.4805H19.3712V12.8499H18.0561V13.4741H19.2197V13.8435H18.0561V14.5122L19.4192 14.5232Z" fill="var(--fill-0, white)"/>
<path id="Vector_56" d="M19.9336 12.4863H20.3806V14.5217H21.6439V14.8911H19.9336V12.4863Z" fill="var(--fill-0, white)"/>
<path id="Vector_57" d="M23.802 14.5232V14.8926H21.9883V12.4805H23.754V12.8499H22.4389V13.4741H23.6026V13.8435H22.4389V14.5122L23.802 14.5232Z" fill="var(--fill-0, white)"/>
<path id="Vector_58" d="M24.1172 13.6935C24.1293 13.4385 24.2159 13.1927 24.3663 12.9865C24.5168 12.7803 24.7245 12.6228 24.9636 12.5335C25.2027 12.4443 25.4628 12.4271 25.7116 12.4843C25.9604 12.5414 26.1869 12.6703 26.3631 12.855L26.075 13.1246C25.9936 13.0343 25.8938 12.9625 25.7822 12.9141C25.6707 12.8656 25.5501 12.8417 25.4285 12.8439C25.3125 12.8362 25.1961 12.8525 25.0866 12.8916C24.9771 12.9307 24.8768 12.9919 24.7919 13.0714C24.707 13.1509 24.6393 13.2469 24.5931 13.3536C24.5468 13.4603 24.5229 13.5754 24.5229 13.6917C24.5229 13.808 24.5468 13.923 24.5931 14.0297C24.6393 14.1364 24.707 14.2324 24.7919 14.3119C24.8768 14.3914 24.9771 14.4526 25.0866 14.4917C25.1961 14.5309 25.3125 14.5471 25.4285 14.5394C25.5505 14.5416 25.6714 14.5174 25.783 14.4682C25.8946 14.4191 25.9942 14.3464 26.075 14.255L26.3631 14.532C26.1869 14.7167 25.9604 14.8456 25.7116 14.9028C25.4628 14.9599 25.2027 14.9428 24.9636 14.8535C24.7245 14.7642 24.5168 14.6067 24.3663 14.4005C24.2159 14.1943 24.1293 13.9485 24.1172 13.6935Z" fill="var(--fill-0, white)"/>
<path id="Vector_59" d="M27.2549 12.8616H26.457V12.4922H28.5035V12.8616H27.6908V14.897H27.2402L27.2549 12.8616Z" fill="var(--fill-0, white)"/>
<path id="Vector_60" d="M30.8414 14.0489V14.8985H30.3907V14.0563L29.4414 12.4863H29.9105L30.6198 13.661L31.3327 12.4863H31.776L30.8414 14.0489Z" fill="var(--fill-0, white)"/>
<path id="Vector_61" d="M31.8021 13.6914C31.7903 13.432 31.8564 13.1751 31.992 12.9536C32.1275 12.7322 32.3262 12.5564 32.5625 12.4488C32.7988 12.3413 33.0619 12.3069 33.3179 12.3502C33.5739 12.3935 33.8111 12.5125 33.9989 12.6917C34.1867 12.871 34.3165 13.1024 34.3717 13.3561C34.4268 13.6098 34.4048 13.8742 34.3083 14.1153C34.2119 14.3563 34.0455 14.563 33.8306 14.7087C33.6156 14.8543 33.362 14.9323 33.1024 14.9326C32.9344 14.9411 32.7664 14.9153 32.6087 14.8567C32.451 14.7981 32.3069 14.708 32.1852 14.5918C32.0635 14.4757 31.9667 14.3359 31.9009 14.1811C31.835 14.0263 31.8014 13.8597 31.8021 13.6914ZM33.952 13.6914C33.9528 13.5232 33.9035 13.3586 33.8106 13.2184C33.7177 13.0782 33.5853 12.9687 33.4301 12.9038C33.2749 12.839 33.104 12.8216 32.9389 12.854C32.7739 12.8863 32.6221 12.967 32.503 13.0856C32.3838 13.2043 32.3025 13.3557 32.2694 13.5206C32.2363 13.6855 32.2529 13.8565 32.3171 14.012C32.3813 14.1675 32.4902 14.3004 32.63 14.3939C32.7698 14.4874 32.9342 14.5373 33.1024 14.5373C33.2146 14.5409 33.3264 14.5215 33.4308 14.4803C33.5353 14.4391 33.6302 14.377 33.7098 14.2977C33.7894 14.2185 33.8519 14.1239 33.8935 14.0196C33.9352 13.9153 33.9551 13.8037 33.952 13.6914Z" fill="var(--fill-0, white)"/>
<path id="Vector_62" d="M34.8594 13.8494V12.4863H35.3063V13.8309C35.3063 14.3259 35.5317 14.5402 35.9195 14.5402C36.3074 14.5402 36.5327 14.3259 36.5327 13.8309V12.4863H36.9723V13.8494C36.9723 14.1296 36.861 14.3983 36.6629 14.5964C36.4648 14.7946 36.1961 14.9059 35.9159 14.9059C35.6357 14.9059 35.3669 14.7946 35.1688 14.5964C34.9707 14.3983 34.8594 14.1296 34.8594 13.8494Z" fill="var(--fill-0, white)"/>
<path id="Vector_63" d="M39.1819 14.8963L38.687 14.1908H38.0368V14.8926H37.5898V12.4805H38.5835C39.2189 12.4805 39.6104 12.8018 39.6104 13.3375C39.6178 13.5031 39.5719 13.6666 39.4795 13.8042C39.3871 13.9419 39.253 14.0462 39.097 14.1021L39.6511 14.8926L39.1819 14.8963ZM38.5724 12.8609H38.0368V13.8251H38.5614C38.9566 13.8251 39.1598 13.6441 39.1598 13.3412C39.1598 13.0383 38.9677 12.8609 38.5724 12.8609Z" fill="var(--fill-0, white)"/>
<path id="Vector_64" d="M42.6552 14.8963L42.1639 14.1908H41.5249V14.8926H41.0742V12.4805H42.0679C42.7033 12.4805 43.0985 12.8018 43.0985 13.3375C43.105 13.5034 43.0583 13.667 42.9653 13.8046C42.8723 13.9421 42.7378 14.0464 42.5814 14.1021L43.1391 14.8926L42.6552 14.8963ZM42.0494 12.8609H41.5249V13.8251H42.0494C42.441 13.8251 42.6442 13.6441 42.6442 13.3412C42.6442 13.0383 42.441 12.8609 42.0494 12.8609Z" fill="var(--fill-0, white)"/>
<path id="Vector_65" d="M43.5977 12.4863H44.0446V14.8985H43.5977V12.4863Z" fill="var(--fill-0, white)"/>
<path id="Vector_66" d="M44.6875 12.486H45.744C45.9121 12.4699 46.0817 12.4891 46.2419 12.5423C46.4022 12.5956 46.5495 12.6818 46.6745 12.7954C46.7995 12.9089 46.8994 13.0474 46.9677 13.2018C47.036 13.3562 47.0713 13.5232 47.0713 13.6921C47.0713 13.861 47.036 14.028 46.9677 14.1824C46.8994 14.3368 46.7995 14.4753 46.6745 14.5888C46.5495 14.7024 46.4022 14.7886 46.2419 14.8418C46.0817 14.8951 45.9121 14.9143 45.744 14.8982H44.6875V12.486ZM45.7218 14.5214C45.8354 14.529 45.9493 14.5132 46.0565 14.4749C46.1637 14.4367 46.2619 14.3768 46.345 14.2991C46.4281 14.2213 46.4944 14.1273 46.5397 14.0229C46.585 13.9185 46.6083 13.8059 46.6083 13.6921C46.6083 13.5783 46.585 13.4657 46.5397 13.3613C46.4944 13.2569 46.4281 13.1629 46.345 13.0851C46.2619 13.0074 46.1637 12.9475 46.0565 12.9093C45.9493 12.871 45.8354 12.8552 45.7218 12.8628H45.1345V14.5214H45.7218Z" fill="var(--fill-0, white)"/>
<path id="Vector_67" d="M49.3606 14.5232V14.8926H47.5469V12.4805H49.3126V12.8499H48.0123V13.4741H49.1759V13.8435H48.0123V14.5122L49.3606 14.5232Z" fill="var(--fill-0, white)"/>
<path id="Vector_68" opacity="0.4" d="M59.259 51.373H4.85786C3.82964 51.373 2.99609 52.2066 2.99609 53.2348V90.0674C2.99609 91.0956 3.82964 91.9292 4.85786 91.9292H59.259C60.2872 91.9292 61.1207 91.0956 61.1207 90.0674V53.2348C61.1207 52.2066 60.2872 51.373 59.259 51.373Z" fill="var(--fill-0, white)"/>
<path id="Vector_69" opacity="0.4" d="M60.3117 92.9355H3.80507C3.35829 92.9355 2.99609 93.2977 2.99609 93.7445V104.56C2.99609 105.007 3.35829 105.369 3.80507 105.369H60.3117C60.7585 105.369 61.1207 105.007 61.1207 104.56V93.7445C61.1207 93.2977 60.7585 92.9355 60.3117 92.9355Z" fill="var(--fill-0, white)"/>
<path id="Vector_70" d="M7.21434 95.4708V95.9288H7.95313V96.1653H7.21434V96.7452H6.93359V95.2344H8.04179V95.4708H7.21434Z" fill="var(--fill-0, #263238)"/>
<path id="Vector_71" d="M9.29859 96.745L8.98828 96.3017H8.58934V96.7413H8.30859V95.2305H8.92919C9.32814 95.2305 9.57563 95.4336 9.57563 95.7661C9.57999 95.8704 9.55075 95.9733 9.49224 96.0598C9.43372 96.1462 9.34901 96.2116 9.25056 96.2463L9.60148 96.7413L9.29859 96.745ZM8.92919 95.4706H8.60042V96.0912H8.92919C9.17669 96.0912 9.29859 95.9803 9.29859 95.7883C9.29859 95.5962 9.1656 95.4706 8.91811 95.4706H8.92919Z" fill="var(--fill-0, #263238)"/>
<path id="Vector_72" d="M9.77802 95.9885C9.77139 95.8265 9.81336 95.6663 9.89853 95.5283C9.9837 95.3904 10.1082 95.281 10.256 95.2144C10.4038 95.1478 10.5681 95.1269 10.7279 95.1544C10.8876 95.1819 11.0355 95.2565 11.1525 95.3687C11.2695 95.481 11.3503 95.6256 11.3845 95.7841C11.4186 95.9426 11.4046 96.1076 11.3442 96.2581C11.2838 96.4085 11.1797 96.5375 11.0455 96.6283C10.9112 96.7192 10.7528 96.7678 10.5907 96.7679C10.4853 96.7735 10.3799 96.7574 10.281 96.7206C10.1821 96.6839 10.0918 96.6272 10.0156 96.5541C9.93946 96.4811 9.87909 96.3932 9.83822 96.2959C9.79736 96.1986 9.77687 96.094 9.77802 95.9885ZM11.1226 95.9885C11.1226 95.8833 11.0914 95.7804 11.033 95.693C10.9745 95.6055 10.8915 95.5373 10.7943 95.4971C10.6971 95.4568 10.5901 95.4463 10.4869 95.4668C10.3837 95.4873 10.289 95.538 10.2146 95.6124C10.1402 95.6868 10.0895 95.7815 10.069 95.8847C10.0485 95.9879 10.059 96.0949 10.0993 96.1921C10.1395 96.2893 10.2077 96.3723 10.2952 96.4308C10.3827 96.4892 10.4855 96.5204 10.5907 96.5204C10.6611 96.5225 10.7312 96.5101 10.7967 96.4841C10.8621 96.4581 10.9216 96.419 10.9714 96.3692C11.0212 96.3194 11.0603 96.2599 11.0863 96.1944C11.1123 96.129 11.1247 96.0589 11.1226 95.9885Z" fill="var(--fill-0, #263238)"/>
<path id="Vector_73" d="M13.0881 96.7452V95.7441L12.5895 96.5716H12.4639L11.9689 95.7552V96.7452H11.6992V95.2344H11.9319L12.5304 96.2354L13.1214 95.2344H13.3504V96.7452H13.0881Z" fill="var(--fill-0, #263238)"/>
<path id="Vector_74" d="M7.23697 101.262H6.73828V101.025H8.02009V101.262H7.51772V102.536H7.23697V101.262Z" fill="var(--fill-0, #263238)"/>
<path id="Vector_75" d="M8.11396 101.774C8.10733 101.612 8.1493 101.451 8.23447 101.313C8.31964 101.176 8.44412 101.066 8.59191 101C8.7397 100.933 8.90404 100.912 9.06381 100.94C9.22358 100.967 9.37148 101.042 9.48848 101.154C9.60548 101.266 9.68625 101.411 9.7204 101.569C9.75455 101.728 9.74051 101.893 9.6801 102.043C9.61969 102.194 9.51566 102.323 9.3814 102.413C9.24713 102.504 9.08876 102.553 8.92664 102.553C8.82126 102.559 8.71586 102.543 8.61695 102.506C8.51803 102.469 8.42771 102.412 8.35155 102.339C8.2754 102.266 8.21503 102.178 8.17416 102.081C8.13329 101.984 8.11281 101.879 8.11396 101.774ZM9.45857 101.774C9.45857 101.668 9.42737 101.566 9.36892 101.478C9.31047 101.391 9.2274 101.322 9.1302 101.282C9.033 101.242 8.92604 101.231 8.82286 101.252C8.71967 101.272 8.62489 101.323 8.5505 101.398C8.47611 101.472 8.42545 101.567 8.40492 101.67C8.3844 101.773 8.39493 101.88 8.43519 101.977C8.47545 102.074 8.54364 102.157 8.63112 102.216C8.71859 102.274 8.82143 102.306 8.92664 102.306C8.99613 102.306 9.065 102.293 9.12916 102.266C9.19332 102.239 9.25143 102.2 9.30005 102.15C9.34867 102.101 9.38679 102.042 9.41212 101.977C9.43745 101.912 9.44947 101.843 9.44748 101.774H9.45857Z" fill="var(--fill-0, #263238)"/>
<path id="Vector_76" d="M54.9125 94.0996H16.9348C16.4163 94.1218 15.9264 94.3435 15.5673 94.7182C15.2083 95.093 15.0078 95.592 15.0078 96.111C15.0078 96.63 15.2083 97.129 15.5673 97.5037C15.9264 97.8785 16.4163 98.1001 16.9348 98.1223H54.9125C55.4311 98.1001 55.921 97.8785 56.28 97.5037C56.6391 97.129 56.8395 96.63 56.8395 96.111C56.8395 95.592 56.6391 95.093 56.28 94.7182C55.921 94.3435 55.4311 94.1218 54.9125 94.0996Z" fill="var(--fill-0, white)"/>
<path id="Vector_77" d="M54.913 99.8867H16.9353C16.4023 99.8867 15.8912 100.098 15.5144 100.475C15.1375 100.852 14.9258 101.363 14.9258 101.896C14.9258 102.429 15.1375 102.94 15.5144 103.317C15.8912 103.694 16.4023 103.906 16.9353 103.906H54.913C55.446 103.906 55.9571 103.694 56.334 103.317C56.7108 102.94 56.9225 102.429 56.9225 101.896C56.9225 101.363 56.7108 100.852 56.334 100.475C55.9571 100.098 55.446 99.8867 54.913 99.8867Z" fill="var(--fill-0, white)"/>
<path id="Vector_78" d="M61.1244 64.8154C53.7106 67.1352 46.0567 69.54 38.7131 71.8598L45.425 84.3491L61.1392 84.8811V88.575L43.1606 87.9655L35.1262 72.9902L25.1932 76.1448L32.4149 91.9328H28.3515L21.6433 77.2752C14.0965 79.6799 7.60617 81.7781 2.99609 83.2926V79.4029C4.34809 78.9596 5.85891 78.4646 7.51381 77.9253C11.0231 76.7876 15.2305 75.4356 20.0955 73.8841L13.8416 60.2016L2.99978 63.6481V59.7731L12.2938 56.818L9.80408 51.373H13.8674L23.6306 72.7574C27.4797 71.5261 31.6835 70.1951 36.2418 68.7643L44.1506 66.2708L37.2983 51.373H41.3617L47.7079 65.1516L61.1133 60.9441L61.1244 64.8154Z" fill="var(--fill-0, #407BFF)"/>
<path id="Vector_79" opacity="0.4" d="M61.1208 53.2416V90.0705C61.1233 90.3146 61.0773 90.5568 60.9856 90.783C60.8938 91.0092 60.7582 91.215 60.5864 91.3885C60.4147 91.5619 60.2103 91.6996 59.985 91.7936C59.7597 91.8876 59.518 91.936 59.2738 91.936H4.86165C4.61599 91.9384 4.3723 91.8919 4.14486 91.799C3.91742 91.7061 3.71079 91.5688 3.53707 91.3951C3.36335 91.2214 3.22603 91.0147 3.13316 90.7873C3.04028 90.5599 2.99372 90.3162 2.99619 90.0705V53.2416C2.99617 52.9975 3.04456 52.7558 3.13853 52.5305C3.23251 52.3052 3.37021 52.1008 3.54368 51.929C3.71715 51.7573 3.92293 51.6216 4.14916 51.5299C4.37538 51.4382 4.61755 51.3922 4.86165 51.3946H59.2591C59.5029 51.3927 59.7446 51.439 59.9704 51.531C60.1962 51.6229 60.4016 51.7586 60.5746 51.9303C60.7477 52.102 60.8851 52.3063 60.9788 52.5314C61.0726 52.7564 61.1208 52.9978 61.1208 53.2416Z" fill="var(--fill-0, white)"/>
<path id="Vector_80" d="M31.1289 70.1201C30.4504 69.4417 29.5303 69.0605 28.5708 69.0605C27.6113 69.0605 26.6912 69.4417 26.0127 70.1201C25.3343 70.7986 24.9531 71.7187 24.9531 72.6782C24.9531 73.6377 25.3343 74.5578 26.0127 75.2363L28.5689 77.7925L31.1289 75.2363C31.8067 74.5575 32.1874 73.6375 32.1874 72.6782C32.1874 71.7189 31.8067 70.7989 31.1289 70.1201ZM29.8507 73.9582C29.5976 74.2113 29.2751 74.3837 28.924 74.4535C28.5729 74.5233 28.2089 74.4875 27.8782 74.3505C27.5475 74.2135 27.2648 73.9815 27.0659 73.6838C26.867 73.3861 26.7609 73.0362 26.7609 72.6782C26.7609 72.3202 26.867 71.9703 27.0659 71.6726C27.2648 71.375 27.5475 71.143 27.8782 71.006C28.2089 70.869 28.5729 70.8331 28.924 70.9029C29.2751 70.9728 29.5976 71.1451 29.8507 71.3983C30.1893 71.7382 30.3794 72.1984 30.3794 72.6782C30.3794 73.158 30.1893 73.6182 29.8507 73.9582Z" fill="var(--fill-0, #407BFF)"/>
</g>
</svg>
