<svg preserveAspectRatio="none" width="100%" height="100%" overflow="visible" style="display: block;" viewBox="0 0 96.0125 48.8177" fill="none" xmlns="http://www.w3.org/2000/svg">
<g id="freepik--Car--inject-2">
<path id="Vector" d="M3.08085 40.9128L24.8718 41.6253H73.0732L93.8699 40.5686V36.0255L91.2039 32.1742L83.953 29.6124L74.7521 32.1742L71.1023 35.6189L29.8285 36.0255L21.7434 30.1338L15.4241 27.8535L6.16057 30.2485L3.90118 34.3918L2.56641 38.563L3.08085 40.9128Z" fill="var(--fill-0, #263238)"/>
<path id="Vector_2" opacity="0.6" d="M3.08085 40.9128L24.8718 41.6253H73.0732L93.8699 40.5686V36.0255L91.2039 32.1742L83.953 29.6124L74.7521 32.1742L71.1023 35.6189L29.8285 36.0255L21.7434 30.1338L15.4241 27.8535L6.16057 30.2485L3.90118 34.3918L2.56641 38.563L3.08085 40.9128Z" fill="var(--fill-0, black)"/>
<path id="Vector_3" d="M4.3475 37.4671C5.13307 35.5657 8.21279 32.4026 10.1072 31.6101C11.9495 30.8384 16.3222 30.6924 18.1019 31.6101C19.979 32.5799 22.3531 36.4764 22.9961 38.496C23.2325 39.2399 23.163 41.0265 23.0865 42.2049L74.531 42.7471C74.4232 41.3185 74.3502 39.3476 74.6874 38.5238C75.466 36.6259 78.5527 33.4628 80.4471 32.6702C82.2894 31.8951 86.6621 31.7526 88.4419 32.6702C90.3189 33.6366 92.6964 37.5366 93.3395 39.5562C93.4945 40.3256 93.546 41.1124 93.4924 41.8955C93.8872 41.6052 94.2384 41.2599 94.5352 40.8701L95.0184 40.2166C95.6642 39.3472 96.0128 38.2929 96.0125 37.2099V35.531C96.0122 34.6056 95.7586 33.698 95.2791 32.9066L94.0416 30.8732V17.0527C94.0422 16.3729 93.905 15.7001 93.6384 15.0748L88.6956 3.45465C88.3193 2.56968 87.698 1.81064 86.9048 1.26689C86.1116 0.723127 85.1797 0.417291 84.2185 0.385362C78.9107 0.204612 68.4967 -0.108227 64.2664 0.0377646C58.1139 0.246323 41.6169 1.92869 36.6984 2.43966C35.7903 2.53454 34.937 2.91974 34.2652 3.53807L19.6661 16.9553L5.13307 23.2782C4.52651 23.545 3.99066 23.9498 3.56822 24.4603C3.14578 24.9709 2.84844 25.573 2.69989 26.2188L1.33035 32.128L0.874997 32.7224C0.201174 33.6055 -0.101832 34.7165 0.0303343 35.8195L0.311888 38.1206C0.445395 39.2112 0.996014 40.2078 1.84827 40.9014L2.02902 41.0474C2.65453 41.5581 3.41326 41.879 4.21541 41.972C4.09028 40.5399 3.986 38.3431 4.3475 37.4671Z" fill="var(--fill-0, #407BFF)"/>
<path id="Vector_4" d="M13.4352 48.8177C17.8026 48.8177 21.3431 45.2772 21.3431 40.9098C21.3431 36.5424 17.8026 33.002 13.4352 33.002C9.06781 33.002 5.52734 36.5424 5.52734 40.9098C5.52734 45.2772 9.06781 48.8177 13.4352 48.8177Z" fill="var(--fill-0, #263238)"/>
<path id="Vector_5" opacity="0.5" d="M13.4352 46.4192C16.478 46.4192 18.9446 43.9526 18.9446 40.9098C18.9446 37.867 16.478 35.4004 13.4352 35.4004C10.3924 35.4004 7.92578 37.867 7.92578 40.9098C7.92578 43.9526 10.3924 46.4192 13.4352 46.4192Z" fill="var(--fill-0, white)"/>
<g id="Group" opacity="0.5">
<path id="Vector_6" d="M11.3888 39.0982L11.0064 37.9511C10.9662 37.8284 10.8946 37.7185 10.7988 37.632C10.703 37.5456 10.5862 37.4857 10.4601 37.4583C10.334 37.4309 10.2029 37.4369 10.0798 37.4758C9.95679 37.5147 9.84603 37.5851 9.75855 37.6799C9.32877 38.1664 9.00026 38.7336 8.79223 39.3484C8.75328 39.472 8.74727 39.6035 8.7748 39.7301C8.80232 39.8567 8.86243 39.9739 8.94916 40.0701C9.0359 40.1664 9.14627 40.2383 9.26933 40.2787C9.39239 40.3192 9.52389 40.3268 9.6508 40.3008L10.8326 40.061C10.9358 40.0403 11.0334 39.9979 11.1189 39.9366C11.2044 39.8753 11.2758 39.7964 11.3284 39.7053C11.3811 39.6142 11.4137 39.5129 11.4241 39.4083C11.4345 39.3036 11.4224 39.1978 11.3888 39.0982Z" fill="var(--fill-0, black)"/>
<path id="Vector_7" d="M13.9907 38.2465L14.7901 37.3393C14.8765 37.2437 14.9363 37.1272 14.9635 37.0013C14.9908 36.8755 14.9846 36.7447 14.9456 36.6219C14.9065 36.4992 14.836 36.3888 14.7411 36.3019C14.6461 36.2149 14.53 36.1543 14.4043 36.1262C13.7648 35.9918 13.1043 35.9918 12.4647 36.1262C12.3396 36.1552 12.2243 36.2165 12.1301 36.3039C12.036 36.3912 11.9663 36.5017 11.928 36.6243C11.8898 36.7469 11.8842 36.8773 11.9118 37.0028C11.9395 37.1282 11.9995 37.2442 12.0858 37.3393L12.8888 38.2465C12.9579 38.3243 13.0428 38.3867 13.1377 38.4293C13.2327 38.472 13.3356 38.494 13.4397 38.494C13.5438 38.494 13.6468 38.472 13.7417 38.4293C13.8367 38.3867 13.9215 38.3243 13.9907 38.2465Z" fill="var(--fill-0, black)"/>
<path id="Vector_8" d="M16.0198 40.0512L17.2051 40.2911C17.3319 40.3174 17.4635 40.31 17.5866 40.2696C17.7097 40.2292 17.82 40.1572 17.9065 40.0608C17.9931 39.9644 18.0528 39.8469 18.0798 39.7202C18.1068 39.5935 18.1 39.4619 18.0602 39.3387C17.8536 38.7239 17.5263 38.1566 17.0973 37.6702C17.0099 37.5753 16.8991 37.5049 16.776 37.466C16.653 37.4272 16.5219 37.4211 16.3958 37.4485C16.2697 37.4759 16.1529 37.5358 16.0571 37.6223C15.9612 37.7087 15.8897 37.8187 15.8495 37.9413L15.4636 39.0884C15.4305 39.1881 15.419 39.2937 15.4296 39.3982C15.4403 39.5027 15.473 39.6037 15.5255 39.6947C15.5781 39.7856 15.6493 39.8644 15.7345 39.9259C15.8196 39.9874 15.9169 40.0301 16.0198 40.0512Z" fill="var(--fill-0, black)"/>
<path id="Vector_9" d="M15.4636 42.724L15.8495 43.8711C15.8897 43.9937 15.9612 44.1037 16.0571 44.1901C16.1529 44.2766 16.2697 44.3365 16.3958 44.3639C16.5219 44.3913 16.653 44.3852 16.776 44.3463C16.8991 44.3075 17.0099 44.2371 17.0973 44.1422C17.5263 43.6558 17.8536 43.0885 18.0602 42.4737C18.1 42.3505 18.1068 42.2189 18.0798 42.0922C18.0528 41.9654 17.9931 41.848 17.9065 41.7516C17.82 41.6552 17.7097 41.5832 17.5866 41.5428C17.4635 41.5024 17.3319 41.495 17.2051 41.5213L16.0198 41.7612C15.9169 41.7823 15.8196 41.825 15.7345 41.8865C15.6493 41.948 15.5781 42.0267 15.5255 42.1177C15.473 42.2087 15.4403 42.3097 15.4296 42.4142C15.419 42.5187 15.4305 42.6243 15.4636 42.724Z" fill="var(--fill-0, black)"/>
<path id="Vector_10" d="M12.8805 43.5759L12.088 44.4832C12.0016 44.579 11.9419 44.6957 11.9149 44.8218C11.8878 44.9479 11.8943 45.0789 11.9337 45.2017C11.9731 45.3245 12.044 45.4348 12.1394 45.5216C12.2348 45.6084 12.3513 45.6686 12.4773 45.6963C13.1168 45.8306 13.7773 45.8306 14.4169 45.6963C14.5425 45.6681 14.6587 45.6076 14.7536 45.5206C14.8486 45.4336 14.9191 45.3232 14.9581 45.2005C14.9972 45.0778 15.0034 44.947 14.9761 44.8211C14.9488 44.6952 14.889 44.5787 14.8027 44.4832L14.0032 43.5759C13.934 43.4946 13.848 43.4292 13.7511 43.3844C13.6542 43.3396 13.5486 43.3164 13.4419 43.3164C13.3351 43.3164 13.2296 43.3396 13.1326 43.3844C13.0357 43.4292 12.9497 43.4946 12.8805 43.5759Z" fill="var(--fill-0, black)"/>
<path id="Vector_11" d="M10.848 41.7596L9.66614 41.5198C9.53808 41.4929 9.40519 41.5003 9.28089 41.5412C9.1566 41.5821 9.04528 41.655 8.9582 41.7527C8.87111 41.8504 8.81133 41.9693 8.78488 42.0974C8.75844 42.2256 8.76626 42.3584 8.80757 42.4826C9.01561 43.0974 9.34411 43.6647 9.7739 44.1511C9.86137 44.246 9.97213 44.3163 10.0952 44.3552C10.2183 44.3941 10.3493 44.4001 10.4754 44.3727C10.6016 44.3453 10.7183 44.2854 10.8142 44.199C10.91 44.1126 10.9816 44.0026 11.0218 43.8799L11.4041 42.7329C11.4396 42.6326 11.453 42.5258 11.4434 42.4199C11.4339 42.3139 11.4016 42.2113 11.3489 42.1189C11.2961 42.0266 11.224 41.9467 11.1376 41.8846C11.0512 41.8226 10.9524 41.78 10.848 41.7596Z" fill="var(--fill-0, black)"/>
</g>
<g id="Group_2" opacity="0.5">
<path id="Vector_12" d="M12.7194 40.5662C12.9248 40.5662 13.0914 40.3997 13.0914 40.1943C13.0914 39.9889 12.9248 39.8223 12.7194 39.8223C12.514 39.8223 12.3475 39.9889 12.3475 40.1943C12.3475 40.3997 12.514 40.5662 12.7194 40.5662Z" fill="var(--fill-0, white)"/>
<path id="Vector_13" d="M14.5173 40.1942C14.5173 40.2678 14.4955 40.3397 14.4546 40.4008C14.4137 40.462 14.3557 40.5097 14.2877 40.5378C14.2197 40.566 14.145 40.5733 14.0728 40.559C14.0007 40.5446 13.9344 40.5092 13.8824 40.4572C13.8304 40.4052 13.7949 40.3389 13.7806 40.2668C13.7662 40.1946 13.7736 40.1198 13.8017 40.0519C13.8299 39.9839 13.8776 39.9258 13.9387 39.8849C13.9999 39.8441 14.0718 39.8223 14.1454 39.8223C14.244 39.8223 14.3386 39.8614 14.4084 39.9312C14.4781 40.0009 14.5173 40.0956 14.5173 40.1942Z" fill="var(--fill-0, white)"/>
<path id="Vector_14" d="M13.0915 41.6258C13.0915 41.6994 13.0697 41.7713 13.0288 41.8325C12.988 41.8936 12.9299 41.9413 12.8619 41.9695C12.794 41.9976 12.7192 42.005 12.647 41.9906C12.5749 41.9763 12.5086 41.9408 12.4566 41.8888C12.4046 41.8368 12.3692 41.7705 12.3548 41.6984C12.3405 41.6262 12.3478 41.5515 12.376 41.4835C12.4041 41.4155 12.4518 41.3575 12.513 41.3166C12.5741 41.2757 12.646 41.2539 12.7196 41.2539C12.8182 41.2539 12.9128 41.2931 12.9826 41.3628C13.0523 41.4326 13.0915 41.5272 13.0915 41.6258Z" fill="var(--fill-0, white)"/>
<path id="Vector_15" d="M14.5173 41.6258C14.5173 41.6994 14.4955 41.7713 14.4546 41.8325C14.4137 41.8936 14.3557 41.9413 14.2877 41.9695C14.2197 41.9976 14.145 42.005 14.0728 41.9906C14.0007 41.9763 13.9344 41.9408 13.8824 41.8888C13.8304 41.8368 13.7949 41.7705 13.7806 41.6984C13.7662 41.6262 13.7736 41.5515 13.8017 41.4835C13.8299 41.4155 13.8776 41.3575 13.9387 41.3166C13.9999 41.2757 14.0718 41.2539 14.1454 41.2539C14.244 41.2539 14.3386 41.2931 14.4084 41.3628C14.4781 41.4326 14.5173 41.5272 14.5173 41.6258Z" fill="var(--fill-0, white)"/>
</g>
<path id="Vector_16" d="M84.2946 48.8177C88.662 48.8177 92.2024 45.2772 92.2024 40.9098C92.2024 36.5424 88.662 33.002 84.2946 33.002C79.9272 33.002 76.3867 36.5424 76.3867 40.9098C76.3867 45.2772 79.9272 48.8177 84.2946 48.8177Z" fill="var(--fill-0, #263238)"/>
<path id="Vector_17" opacity="0.5" d="M84.2985 46.4192C87.3413 46.4192 89.8079 43.9526 89.8079 40.9098C89.8079 37.867 87.3413 35.4004 84.2985 35.4004C81.2557 35.4004 78.7891 37.867 78.7891 40.9098C78.7891 43.9526 81.2557 46.4192 84.2985 46.4192Z" fill="var(--fill-0, white)"/>
<g id="Group_3" opacity="0.5">
<path id="Vector_18" d="M82.2677 39.0982L81.8853 37.9511C81.8451 37.8284 81.7735 37.7185 81.6777 37.632C81.5819 37.5456 81.4651 37.4857 81.339 37.4583C81.2129 37.4309 81.0818 37.4369 80.9588 37.4758C80.8357 37.5147 80.7249 37.5851 80.6375 37.6799C80.2077 38.1664 79.8792 38.7336 79.6711 39.3484C79.6322 39.472 79.6262 39.6035 79.6537 39.7301C79.6812 39.8567 79.7413 39.9739 79.8281 40.0701C79.9148 40.1664 80.0252 40.2383 80.1482 40.2787C80.2713 40.3192 80.4028 40.3268 80.5297 40.3008L81.7115 40.061C81.8147 40.0403 81.9123 39.9979 81.9978 39.9366C82.0833 39.8753 82.1547 39.7964 82.2073 39.7053C82.26 39.6142 82.2926 39.5129 82.303 39.4083C82.3134 39.3036 82.3014 39.1978 82.2677 39.0982Z" fill="var(--fill-0, black)"/>
<path id="Vector_19" d="M84.8509 38.2465L85.6504 37.3393C85.7367 37.2437 85.7965 37.1272 85.8238 37.0013C85.851 36.8755 85.8448 36.7447 85.8058 36.6219C85.7668 36.4992 85.6963 36.3888 85.6013 36.3019C85.5063 36.2149 85.3902 36.1543 85.2645 36.1262C84.625 35.9918 83.9645 35.9918 83.3249 36.1262C83.199 36.1538 83.0825 36.2141 82.9871 36.3009C82.8917 36.3876 82.8207 36.4979 82.7813 36.6207C82.7419 36.7435 82.7354 36.8745 82.7625 37.0006C82.7896 37.1267 82.8493 37.2435 82.9356 37.3393L83.7386 38.2465C83.8077 38.3261 83.8932 38.3899 83.9891 38.4336C84.0851 38.4773 84.1893 38.5 84.2947 38.5C84.4002 38.5 84.5044 38.4773 84.6003 38.4336C84.6963 38.3899 84.7817 38.3261 84.8509 38.2465Z" fill="var(--fill-0, black)"/>
<path id="Vector_20" d="M86.8792 40.0495L88.0645 40.2893C88.1885 40.3114 88.316 40.3016 88.4351 40.2607C88.5542 40.2198 88.6609 40.1492 88.7451 40.0556C88.8293 39.962 88.8882 39.8485 88.9163 39.7258C88.9444 39.6031 88.9408 39.4752 88.9057 39.3543C88.6992 38.7395 88.3718 38.1723 87.9429 37.6858C87.8554 37.5909 87.7446 37.5206 87.6216 37.4817C87.4985 37.4428 87.3674 37.4367 87.2413 37.4641C87.1152 37.4915 86.9985 37.5514 86.9026 37.6379C86.8068 37.7243 86.7352 37.8343 86.695 37.9569L86.3092 39.104C86.2791 39.2036 86.2702 39.3084 86.2831 39.4116C86.296 39.5149 86.3304 39.6143 86.3842 39.7034C86.4379 39.7925 86.5097 39.8693 86.595 39.9289C86.6803 39.9886 86.7771 40.0296 86.8792 40.0495Z" fill="var(--fill-0, black)"/>
<path id="Vector_21" d="M86.3247 42.7233L86.7105 43.8704C86.7507 43.993 86.8223 44.103 86.9181 44.1895C87.0139 44.2759 87.1307 44.3358 87.2568 44.3632C87.3829 44.3906 87.514 44.3846 87.6371 44.3457C87.7601 44.3068 87.8709 44.2364 87.9584 44.1415C88.3811 43.657 88.7036 43.0935 88.9073 42.4835C88.9471 42.3602 88.9539 42.2286 88.9269 42.1019C88.8999 41.9752 88.8402 41.8578 88.7537 41.7614C88.6671 41.665 88.5568 41.593 88.4337 41.5526C88.3106 41.5122 88.1791 41.5047 88.0522 41.5311L86.8669 41.7709C86.7665 41.7939 86.6719 41.8375 86.5892 41.899C86.5065 41.9605 86.4375 42.0384 86.3865 42.128C86.3355 42.2175 86.3037 42.3167 86.293 42.4192C86.2824 42.5217 86.2932 42.6252 86.3247 42.7233Z" fill="var(--fill-0, black)"/>
<path id="Vector_22" d="M83.7386 43.5757L82.9356 44.483C82.8493 44.5788 82.7896 44.6955 82.7625 44.8216C82.7354 44.9477 82.7419 45.0787 82.7813 45.2015C82.8207 45.3243 82.8917 45.4346 82.9871 45.5214C83.0825 45.6082 83.199 45.6684 83.3249 45.6961C83.9645 45.8304 84.625 45.8304 85.2645 45.6961C85.3902 45.6679 85.5063 45.6074 85.6013 45.5204C85.6963 45.4334 85.7668 45.323 85.8058 45.2003C85.8448 45.0776 85.851 44.9468 85.8238 44.8209C85.7965 44.695 85.7367 44.5785 85.6504 44.483L84.8509 43.5757C84.7817 43.4962 84.6963 43.4323 84.6003 43.3886C84.5044 43.3449 84.4002 43.3223 84.2947 43.3223C84.1893 43.3223 84.0851 43.3449 83.9891 43.3886C83.8932 43.4323 83.8077 43.4962 83.7386 43.5757Z" fill="var(--fill-0, black)"/>
<path id="Vector_23" d="M81.7115 41.7608L80.5297 41.521C80.4028 41.495 80.2713 41.5026 80.1482 41.5431C80.0252 41.5835 79.9148 41.6554 79.8281 41.7517C79.7413 41.8479 79.6812 41.9651 79.6537 42.0917C79.6262 42.2183 79.6322 42.3498 79.6711 42.4734C79.8792 43.0882 80.2077 43.6554 80.6375 44.1418C80.7249 44.2367 80.8357 44.3071 80.9588 44.346C81.0818 44.3849 81.2129 44.3909 81.339 44.3635C81.4651 44.3361 81.5819 44.2762 81.6777 44.1898C81.7735 44.1033 81.8451 43.9933 81.8853 43.8707L82.2677 42.7236C82.3014 42.624 82.3134 42.5182 82.303 42.4136C82.2926 42.3089 82.26 42.2076 82.2073 42.1165C82.1547 42.0254 82.0833 41.9465 81.9978 41.8852C81.9123 41.8239 81.8147 41.7815 81.7115 41.7608Z" fill="var(--fill-0, black)"/>
</g>
<g id="Group_4" opacity="0.5">
<path id="Vector_24" d="M83.9511 40.1943C83.9511 40.2678 83.9292 40.3397 83.8884 40.4009C83.8475 40.4621 83.7894 40.5097 83.7215 40.5379C83.6535 40.566 83.5787 40.5734 83.5066 40.5591C83.4344 40.5447 83.3681 40.5093 83.3161 40.4573C83.2641 40.4053 83.2287 40.339 83.2143 40.2668C83.2 40.1947 83.2074 40.1199 83.2355 40.0519C83.2637 39.984 83.3113 39.9259 83.3725 39.885C83.4337 39.8442 83.5056 39.8223 83.5791 39.8223C83.6778 39.8223 83.7724 39.8615 83.8421 39.9313C83.9119 40.001 83.9511 40.0956 83.9511 40.1943Z" fill="var(--fill-0, white)"/>
<path id="Vector_25" d="M85.0087 40.5661C85.2141 40.5661 85.3806 40.3996 85.3806 40.1942C85.3806 39.9888 85.2141 39.8223 85.0087 39.8223C84.8032 39.8223 84.6367 39.9888 84.6367 40.1942C84.6367 40.3996 84.8032 40.5661 85.0087 40.5661Z" fill="var(--fill-0, white)"/>
<path id="Vector_26" d="M83.9509 41.6258C83.9509 41.6994 83.9291 41.7713 83.8882 41.8325C83.8473 41.8936 83.7893 41.9413 83.7213 41.9695C83.6533 41.9976 83.5786 42.005 83.5064 41.9906C83.4343 41.9763 83.368 41.9408 83.316 41.8888C83.264 41.8368 83.2285 41.7705 83.2142 41.6984C83.1998 41.6262 83.2072 41.5515 83.2353 41.4835C83.2635 41.4155 83.3112 41.3575 83.3723 41.3166C83.4335 41.2757 83.5054 41.2539 83.579 41.2539C83.6776 41.2539 83.7722 41.2931 83.842 41.3628C83.9117 41.4326 83.9509 41.5272 83.9509 41.6258Z" fill="var(--fill-0, white)"/>
<path id="Vector_27" d="M85.3806 41.6258C85.3806 41.6994 85.3588 41.7713 85.3179 41.8325C85.277 41.8936 85.2189 41.9413 85.151 41.9695C85.083 41.9976 85.0082 42.005 84.9361 41.9906C84.8639 41.9763 84.7977 41.9408 84.7456 41.8888C84.6936 41.8368 84.6582 41.7705 84.6439 41.6984C84.6295 41.6262 84.6369 41.5515 84.665 41.4835C84.6932 41.4155 84.7408 41.3575 84.802 41.3166C84.8632 41.2757 84.9351 41.2539 85.0086 41.2539C85.1073 41.2539 85.2019 41.2931 85.2716 41.3628C85.3414 41.4326 85.3806 41.5272 85.3806 41.6258Z" fill="var(--fill-0, white)"/>
</g>
<path id="Vector_28" d="M33.81 5.78791C34.0792 5.54086 34.2404 5.19777 34.2586 4.83285C34.2768 4.46794 34.1506 4.11052 33.9074 3.83789L19.6281 16.9528L19.2109 17.1335C19.2387 17.1683 19.2596 17.203 19.2909 17.2378C19.5403 17.5092 19.8873 17.6704 20.2556 17.6861C20.6239 17.7017 20.9833 17.5705 21.2548 17.3212L33.81 5.78791Z" fill="var(--fill-0, #263238)"/>
<path id="Vector_29" opacity="0.5" d="M3.23863 33.0004C3.21641 33.0005 3.19441 32.9959 3.17405 32.987C3.15368 32.9781 3.1354 32.9651 3.12035 32.9488C3.10531 32.9324 3.09383 32.9131 3.08667 32.8921C3.0795 32.871 3.0768 32.8487 3.07873 32.8266L3.74264 26.0693C3.7451 26.0456 3.75283 26.0227 3.76528 26.0024C3.77772 25.982 3.79455 25.9647 3.81455 25.9517C3.83454 25.9387 3.85719 25.9303 3.88084 25.9272C3.90449 25.9241 3.92853 25.9263 3.9512 25.9337L4.55602 26.1353C4.92137 26.2505 5.23065 26.4978 5.42347 26.8288C5.6163 27.1598 5.67881 27.5508 5.59881 27.9255L4.76458 31.7838C4.69053 32.132 4.4979 32.4436 4.21958 32.6655C3.94126 32.8874 3.59453 33.0058 3.23863 33.0004Z" fill="var(--fill-0, white)"/>
<g id="Group_5" opacity="0.2">
<path id="Vector_30" d="M7.00011 28.5386C6.99872 28.4701 7.01085 28.402 7.03578 28.3382C7.06071 28.2744 7.09796 28.2162 7.14542 28.1668C7.19287 28.1174 7.24958 28.0779 7.31232 28.0504C7.37507 28.0229 7.4426 28.0081 7.51108 28.0067L90.1247 26.4043C90.2624 26.4033 90.3951 26.4562 90.4945 26.5517C90.5938 26.6471 90.6519 26.7776 90.6565 26.9153C90.6583 27.0539 90.6053 27.1876 90.5089 27.2873C90.4125 27.3869 90.2806 27.4444 90.142 27.4471L7.53193 29.0495C7.46334 29.0514 7.39506 29.0396 7.33107 29.0148C7.26707 28.9901 7.20864 28.9528 7.15916 28.9053C7.10967 28.8577 7.07013 28.8008 7.04283 28.7379C7.01553 28.6749 7.001 28.6072 7.00011 28.5386Z" fill="var(--fill-0, white)"/>
</g>
<path id="Vector_31" d="M59.1542 18.774L74.5284 18.5063C74.921 18.4997 75.3076 18.4093 75.6625 18.2414C76.0173 18.0734 76.3323 17.8316 76.5862 17.5322C76.8402 17.2329 77.0274 16.8827 77.1353 16.5052C77.2432 16.1277 77.2693 15.7316 77.2119 15.3432L75.6964 4.99867C75.6522 4.70549 75.5059 4.43731 75.2834 4.24144C75.0608 4.04557 74.7762 3.93459 74.4798 3.92807C71.8137 3.8655 69.1407 3.82031 67.0168 3.82031C65.9741 3.82031 65.0946 3.82031 64.389 3.85507C62.9986 3.90374 60.8053 4.06015 58.2365 4.27566C57.9375 4.30001 57.6571 4.43099 57.4466 4.64473C57.236 4.85847 57.1093 5.14075 57.0895 5.44012L56.3699 15.8229C56.3435 16.2031 56.3961 16.5847 56.5245 16.9436C56.6528 17.3025 56.8541 17.631 57.1157 17.9082C57.3773 18.1855 57.6935 18.4055 58.0443 18.5545C58.3951 18.7035 58.773 18.7783 59.1542 18.774Z" fill="var(--fill-0, #263238)"/>
<path id="Vector_32" d="M90.0041 16.3555L85.1377 4.9543C85.0468 4.73875 84.896 4.55379 84.7032 4.42134C84.5103 4.28888 84.2836 4.21449 84.0497 4.20696C83.1981 4.17915 82.1136 4.14092 80.8901 4.10616C80.7063 4.10007 80.5234 4.13447 80.3543 4.20691C80.1853 4.27935 80.0342 4.38808 79.9118 4.52538C79.7895 4.66267 79.6988 4.82519 79.6462 5.00143C79.5936 5.17766 79.5803 5.36331 79.6074 5.54522L81.1543 15.9732C81.2571 16.6343 81.5949 17.2363 82.1057 17.6685C82.6164 18.1008 83.266 18.3343 83.935 18.3264L88.6763 18.2464C88.9902 18.2485 89.2961 18.1477 89.5472 17.9594C89.7983 17.771 89.9808 17.5056 90.0667 17.2036C90.1349 16.9213 90.113 16.6247 90.0041 16.3555Z" fill="var(--fill-0, #263238)"/>
<path id="Vector_33" d="M51.8143 4.8491C46.1833 5.37745 40.4687 5.96837 38.0356 6.23949C37.2479 6.32108 36.5078 6.65517 35.9256 7.19191L27.3991 15.0233C27.0343 15.3627 26.7809 15.8047 26.6724 16.291C26.5639 16.7773 26.6054 17.2851 26.7914 17.7474C26.9773 18.2097 27.299 18.6047 27.7141 18.8804C28.1291 19.1561 28.618 19.2996 29.1162 19.2918L49.7809 18.9442C50.4715 18.9327 51.1327 18.6624 51.6335 18.1867C52.1343 17.711 52.4383 17.0646 52.4852 16.3754L53.1804 6.1943C53.1943 6.01229 53.1683 5.82943 53.1043 5.65849C53.0403 5.48755 52.9397 5.33264 52.8097 5.20456C52.6796 5.07648 52.5232 4.97832 52.3513 4.91693C52.1793 4.85554 51.9961 4.83239 51.8143 4.8491Z" fill="var(--fill-0, #263238)"/>
<path id="Vector_34" d="M75.4142 21.4669L71.8235 21.5364C71.687 21.5392 71.557 21.5953 71.4615 21.6928C71.366 21.7903 71.3125 21.9213 71.3125 22.0578C71.3125 22.1272 71.3263 22.1958 71.3532 22.2598C71.38 22.3237 71.4194 22.3817 71.4689 22.4302C71.5184 22.4788 71.5771 22.517 71.6416 22.5426C71.7061 22.5681 71.775 22.5806 71.8443 22.5792L75.435 22.5097C75.5715 22.507 75.7014 22.4508 75.797 22.3533C75.8925 22.2559 75.946 22.1248 75.946 21.9883C75.946 21.9189 75.9322 21.8503 75.9053 21.7863C75.8785 21.7224 75.8391 21.6644 75.7896 21.6159C75.7401 21.5673 75.6814 21.5291 75.6169 21.5036C75.5524 21.478 75.4835 21.4655 75.4142 21.4669Z" fill="var(--fill-0, #263238)"/>
<path id="Vector_35" d="M50.2194 22.4824C50.2194 22.4131 50.2056 22.3444 50.1788 22.2805C50.1519 22.2165 50.1126 22.1586 50.063 22.11C50.0135 22.0615 49.9548 22.0233 49.8903 21.9977C49.8259 21.9721 49.7569 21.9597 49.6876 21.961L46.0969 22.0306C45.9604 22.0333 45.8305 22.0894 45.7349 22.1869C45.6394 22.2844 45.5859 22.4155 45.5859 22.552C45.5859 22.6213 45.5997 22.69 45.6266 22.7539C45.6534 22.8179 45.6928 22.8758 45.7423 22.9244C45.7918 22.9729 45.8506 23.0111 45.915 23.0367C45.9795 23.0623 46.0484 23.0747 46.1178 23.0734L49.7084 23.0038C49.8452 23.002 49.9757 22.9462 50.0714 22.8485C50.1671 22.7508 50.2203 22.6192 50.2194 22.4824Z" fill="var(--fill-0, #263238)"/>
<g id="Group_6" opacity="0.2">
<path id="Vector_36" d="M4.34713 37.4688C4.73005 36.6529 5.22879 35.8966 5.8279 35.2233L1.47945 35.3068C1.18586 35.3111 0.897912 35.2259 0.653892 35.0626C0.409873 34.8993 0.221349 34.6656 0.113391 34.3926C0.00629563 34.8609 -0.0195713 35.3441 0.0369189 35.8212L0.318475 38.1223C0.451982 39.213 1.0026 40.2096 1.85486 40.9031L2.03561 41.0491C2.66112 41.5598 3.41984 41.8807 4.222 41.9737C4.08991 40.5416 3.98563 38.3448 4.34713 37.4688Z" fill="var(--fill-0, black)"/>
<path id="Vector_37" d="M74.529 42.7469C74.4213 41.3182 74.3483 39.3473 74.6854 38.5235C75.2451 37.154 77.0109 35.1275 78.6585 33.8066L21.1797 34.9224C21.9264 36.036 22.5357 37.2358 22.9941 38.4957C23.2305 39.2396 23.161 41.0263 23.0845 42.2046L74.529 42.7469Z" fill="var(--fill-0, black)"/>
<path id="Vector_38" d="M93.3321 39.5588C93.4872 40.3282 93.5386 41.115 93.4851 41.8981C93.8798 41.6078 94.231 41.2625 94.5279 40.8727L95.011 40.2192C95.6568 39.3498 96.0054 38.2955 96.0052 37.2125V35.5336C96.0048 34.6082 95.7512 33.7006 95.2717 32.9092L94.8164 32.1758C94.7933 32.533 94.6382 32.8689 94.3812 33.1182C94.1242 33.3675 93.7838 33.5123 93.426 33.5245L89.6406 33.5975C91.2533 35.3208 92.508 37.3471 93.3321 39.5588Z" fill="var(--fill-0, black)"/>
</g>
<g id="Group_7" opacity="0.2">
<path id="Vector_39" d="M26.2344 37.8821C26.2344 37.6977 26.3076 37.5209 26.438 37.3905C26.5684 37.2602 26.7452 37.1869 26.9296 37.1869L71.1753 36.3145C71.3597 36.3145 71.5365 36.3877 71.6669 36.5181C71.7973 36.6484 71.8705 36.8253 71.8705 37.0096C71.8705 37.194 71.7973 37.3709 71.6669 37.5012C71.5365 37.6316 71.3597 37.7048 71.1753 37.7048L26.9087 38.5634C26.7304 38.5581 26.5609 38.4844 26.4353 38.3576C26.3098 38.2308 26.2379 38.0605 26.2344 37.8821Z" fill="var(--fill-0, white)"/>
</g>
<path id="Vector_40" opacity="0.6" d="M29.8282 12.7773L27.395 15.0089C27.0248 15.3475 26.7667 15.791 26.6553 16.2801C26.5439 16.7693 26.5844 17.2808 26.7714 17.7463C26.9585 18.2118 27.2831 18.6092 27.702 18.8853C28.1209 19.1613 28.6141 19.303 29.1156 19.2913H29.8351L29.8282 12.7773Z" fill="var(--fill-0, black)"/>
<path id="Vector_41" d="M33.1532 13.3575H31.9262C31.6312 13.3575 31.3483 13.4747 31.1397 13.6833C30.9311 13.8919 30.8139 14.1748 30.8139 14.4698V16.18L28.77 16.5763C28.6464 16.5998 28.5349 16.6659 28.4549 16.763C28.3749 16.8602 28.3314 16.9822 28.332 17.1081V17.5912C28.3315 17.6794 28.3527 17.7662 28.3936 17.8443C28.4345 17.9224 28.4939 17.9892 28.5666 18.0389C28.6394 18.0887 28.7232 18.1198 28.8108 18.1297C28.8984 18.1395 28.987 18.1277 29.0689 18.0953L31.019 17.341C31.1428 17.5261 31.3193 17.6697 31.5256 17.7534C31.732 17.8371 31.9587 17.8569 32.1765 17.8102L33.334 17.553C33.509 17.513 33.6654 17.415 33.7777 17.2749C33.8901 17.1348 33.9517 16.9609 33.9527 16.7813V14.1465C33.9527 14.042 33.932 13.9386 33.8916 13.8422C33.8513 13.7457 33.7923 13.6583 33.7179 13.5849C33.6435 13.5115 33.5553 13.4536 33.4584 13.4145C33.3614 13.3755 33.2577 13.3561 33.1532 13.3575Z" fill="var(--fill-0, #407BFF)"/>
</g>
</svg>
