<svg preserveAspectRatio="none" width="100%" height="100%" overflow="visible" style="display: block;" viewBox="0 0 31.5415 33.1302" fill="none" xmlns="http://www.w3.org/2000/svg">
<g id="freepik--Keys--inject-2">
<path id="Vector" d="M21.7938 27.8398L21.4775 27.2315C21.3611 27.0094 21.3242 26.7542 21.3728 26.5082C21.4215 26.2622 21.5529 26.0403 21.7452 25.8793L22.3118 25.4031C22.5039 25.242 22.6352 25.02 22.6837 24.774L23.1634 22.3582C23.213 22.1124 23.1761 21.857 23.0591 21.6352L22.5516 20.6758C22.4352 20.4537 22.3982 20.1985 22.4469 19.9525C22.4956 19.7065 22.627 19.4846 22.8192 19.3237L23.7717 18.5242C23.9664 18.3641 24.1002 18.142 24.1505 17.895L24.9292 13.988L22.204 13.4388L19.4893 12.8966L18.728 16.8036C18.6801 17.0494 18.7169 17.3043 18.8323 17.5266L19.4058 18.6319C19.521 18.8543 19.5572 19.1092 19.5086 19.3548C19.46 19.6005 19.3294 19.8223 19.1382 19.9841L18.3005 20.6793C18.1092 20.8397 17.9781 21.0603 17.9285 21.305L17.4489 23.7381C17.3996 23.9836 17.4352 24.2385 17.5497 24.4611L17.8973 25.1181C18.0137 25.3402 18.0506 25.5954 18.0019 25.8414C17.9532 26.0874 17.8219 26.3093 17.6296 26.4703L17.1047 26.9117C16.9125 27.0727 16.7811 27.2946 16.7324 27.5406C16.6837 27.7866 16.7207 28.0418 16.8371 28.2639L17.0491 28.674C17.1655 28.8961 17.2025 29.1513 17.1538 29.3973C17.1051 29.6433 16.9737 29.8652 16.7815 30.0262C16.5892 30.1871 16.4575 30.4088 16.4082 30.6546C16.3589 30.9004 16.395 31.1557 16.5103 31.3783L17.1777 32.661L18.3596 32.8939L19.5414 33.1302L20.6468 32.1987C20.839 32.0378 20.9707 31.8161 21.02 31.5703C21.0693 31.3244 21.0333 31.0691 20.9179 30.8465C20.8015 30.6244 20.7645 30.3692 20.8132 30.1232C20.8619 29.8773 20.9933 29.6553 21.1855 29.4944L21.5331 29.1989C21.7248 29.0359 21.8551 28.8123 21.9025 28.5652C21.9499 28.3181 21.9116 28.0622 21.7938 27.8398Z" fill="var(--fill-0, #263238)"/>
<path id="Vector_2" opacity="0.6" d="M21.7938 27.8398L21.4775 27.2315C21.3611 27.0094 21.3242 26.7542 21.3728 26.5082C21.4215 26.2622 21.5529 26.0403 21.7452 25.8793L22.3118 25.4031C22.5039 25.242 22.6352 25.02 22.6837 24.774L23.1634 22.3582C23.213 22.1124 23.1761 21.857 23.0591 21.6352L22.5516 20.6758C22.4352 20.4537 22.3982 20.1985 22.4469 19.9525C22.4956 19.7065 22.627 19.4846 22.8192 19.3237L23.7717 18.5242C23.9664 18.3641 24.1002 18.142 24.1505 17.895L24.9292 13.988L22.204 13.4388L19.4893 12.8966L18.728 16.8036C18.6801 17.0494 18.7169 17.3043 18.8323 17.5266L19.4058 18.6319C19.521 18.8543 19.5572 19.1092 19.5086 19.3548C19.46 19.6005 19.3294 19.8223 19.1382 19.9841L18.3005 20.6793C18.1092 20.8397 17.9781 21.0603 17.9285 21.305L17.4489 23.7381C17.3996 23.9836 17.4352 24.2385 17.5497 24.4611L17.8973 25.1181C18.0137 25.3402 18.0506 25.5954 18.0019 25.8414C17.9532 26.0874 17.8219 26.3093 17.6296 26.4703L17.1047 26.9117C16.9125 27.0727 16.7811 27.2946 16.7324 27.5406C16.6837 27.7866 16.7207 28.0418 16.8371 28.2639L17.0491 28.674C17.1655 28.8961 17.2025 29.1513 17.1538 29.3973C17.1051 29.6433 16.9737 29.8652 16.7815 30.0262C16.5892 30.1871 16.4575 30.4088 16.4082 30.6546C16.3589 30.9004 16.395 31.1557 16.5103 31.3783L17.1777 32.661L18.3596 32.8939L19.5414 33.1302L20.6468 32.1987C20.839 32.0378 20.9707 31.8161 21.02 31.5703C21.0693 31.3244 21.0333 31.0691 20.9179 30.8465C20.8015 30.6244 20.7645 30.3692 20.8132 30.1232C20.8619 29.8773 20.9933 29.6553 21.1855 29.4944L21.5331 29.1989C21.7248 29.0359 21.8551 28.8123 21.9025 28.5652C21.9499 28.3181 21.9116 28.0622 21.7938 27.8398Z" fill="var(--fill-0, white)"/>
<path id="Vector_3" opacity="0.2" d="M23.7802 18.5131C23.9703 18.3546 24.1014 18.1366 24.1521 17.8944L24.9307 13.9874L23.5716 13.7197L22.2125 13.4486L19.4978 12.9063L18.9173 15.8088L21.6355 16.351L18.3438 32.8932L19.5256 33.1296L20.6309 32.198C20.8232 32.0371 20.9549 31.8154 21.0042 31.5696C21.0535 31.3238 21.0175 31.0685 20.9021 30.8459C20.7856 30.6238 20.7487 30.3686 20.7974 30.1226C20.8461 29.8766 20.9775 29.6547 21.1697 29.4937L21.5173 29.1982C21.7091 29.037 21.8403 28.8153 21.8896 28.5696C21.9389 28.324 21.9032 28.0688 21.7884 27.8461L21.4721 27.2378C21.3557 27.0157 21.3188 26.7605 21.3675 26.5145C21.4161 26.2685 21.5475 26.0466 21.7398 25.8856L22.3064 25.4094C22.4985 25.2483 22.6298 25.0263 22.6783 24.7803L23.158 22.3645C23.2072 22.119 23.1717 21.8641 23.0572 21.6415L22.5532 20.6751C22.4367 20.4531 22.3998 20.1978 22.4485 19.9519C22.4972 19.7059 22.6286 19.484 22.8208 19.323L23.7802 18.5131Z" fill="var(--fill-0, black)"/>
<path id="Vector_4" d="M30.5449 8.64728C29.8254 7.79219 26.6449 6.2141 24.9382 5.89083C23.2315 5.56757 19.6929 5.77612 18.7023 6.29057C16.502 7.43069 15.1324 11.4663 17.3119 13.2947C18.1913 14.0316 21.563 14.8658 23.082 15.2308C24.601 15.5958 28.0283 15.9746 29.1545 15.6479C31.9353 14.8484 32.13 10.5417 30.5449 8.64728ZM26.8395 8.99488L21.9732 8.02856C21.6256 7.95904 21.5734 7.52107 21.9175 7.43417C22.9603 7.17347 24.0275 7.04485 24.6636 7.16999C25.2997 7.29512 26.2347 7.82348 27.0968 8.46653C27.3887 8.67857 27.1802 9.0644 26.8256 8.99488H26.8395Z" fill="var(--fill-0, #263238)"/>
<path id="Vector_5" opacity="0.6" d="M30.5449 8.64728C29.8254 7.79219 26.6449 6.2141 24.9382 5.89083C23.2315 5.56757 19.6929 5.77612 18.7023 6.29057C16.502 7.43069 15.1324 11.4663 17.3119 13.2947C18.1913 14.0316 21.563 14.8658 23.082 15.2308C24.601 15.5958 28.0283 15.9746 29.1545 15.6479C31.9353 14.8484 32.13 10.5417 30.5449 8.64728ZM26.8395 8.99488L21.9732 8.02856C21.6256 7.95904 21.5734 7.52107 21.9175 7.43417C22.9603 7.17347 24.0275 7.04485 24.6636 7.16999C25.2997 7.29512 26.2347 7.82348 27.0968 8.46653C27.3887 8.67857 27.1802 9.0644 26.8256 8.99488H26.8395Z" fill="var(--fill-0, black)"/>
<path id="Vector_6" d="M29.3476 8.41378C28.6281 7.56216 25.4476 5.99797 23.7374 5.6608C22.0272 5.32363 18.4922 5.54609 17.5015 6.05706C15.3012 7.19718 13.9352 11.2328 16.1111 13.0612C16.994 13.8015 20.3657 14.6323 21.8847 14.9973C23.4037 15.3623 26.8276 15.7411 27.9573 15.4179C30.7415 14.6149 30.9431 10.3082 29.3476 8.41378ZM25.6388 8.76137L20.8106 7.81591C20.463 7.74291 20.4109 7.30494 20.7515 7.22151C21.7943 6.95734 22.8649 6.82873 23.501 6.95734C24.1372 7.08595 25.0687 7.60735 25.9342 8.25041C26.2054 8.44506 25.9968 8.83089 25.6388 8.76137Z" fill="var(--fill-0, #263238)"/>
<path id="Vector_7" d="M22.4981 8.57688C21.9006 9.99367 20.7784 11.1246 19.3663 11.733C17.9541 12.3415 16.3614 12.3805 14.9213 11.8418C13.4811 11.303 12.3049 10.2283 11.6388 8.84247C10.9727 7.4566 10.8682 5.86685 11.3472 4.40571C12.4978 1.01315 16.3909 -0.867352 19.4428 0.394428L19.9085 0.589087C20.0152 0.633678 20.0999 0.718626 20.1442 0.825414C20.1885 0.932202 20.1887 1.05217 20.1449 1.15915C20.1003 1.2658 20.0154 1.35051 19.9086 1.39478C19.8018 1.43906 19.6818 1.43932 19.5748 1.39551L19.1091 1.20086C16.5438 0.137208 13.2659 1.71183 12.2162 4.55865C11.7635 5.80727 11.8173 7.18342 12.366 8.3929C12.9148 9.60238 13.9149 10.5492 15.1526 11.0309C16.3903 11.5127 17.7673 11.4911 18.9893 10.9708C20.2112 10.4505 21.1812 9.47276 21.6917 8.24667C22.8944 5.38246 20.7741 3.29687 18.605 2.40354L17.9655 2.1359C17.8588 2.09131 17.7741 2.00635 17.7298 1.89956C17.6856 1.79278 17.6853 1.67282 17.7291 1.56584C17.7511 1.51303 17.7834 1.46511 17.824 1.4248C17.8646 1.38449 17.9128 1.3526 17.9657 1.33096C18.0187 1.30932 18.0754 1.29836 18.1327 1.2987C18.1899 1.29904 18.2465 1.31068 18.2992 1.33295L18.9422 1.59712C22.234 2.94927 23.6626 5.76482 22.4981 8.57688Z" fill="var(--fill-0, #263238)"/>
<g id="Group" opacity="0.5">
<path id="Vector_8" d="M22.4983 8.5768C21.9007 9.99359 20.7786 11.1245 19.3664 11.733C17.9543 12.3414 16.3616 12.3804 14.9214 11.8417C13.4812 11.3029 12.3051 10.2283 11.639 8.84239C10.9729 7.45652 10.8684 5.86677 11.3474 4.40563C12.4979 1.01307 16.391 -0.867434 19.4429 0.394346L19.9087 0.589006C20.0154 0.633597 20.1001 0.718545 20.1443 0.825333C20.1886 0.93212 20.1889 1.05209 20.1451 1.15907C20.1005 1.26572 20.0155 1.35043 19.9087 1.3947C19.802 1.43898 19.682 1.43924 19.575 1.39543L19.1092 1.20078C16.544 0.137127 13.2661 1.71175 12.2164 4.55857C11.7637 5.80719 11.8175 7.18334 12.3662 8.39282C12.9149 9.6023 13.915 10.5491 15.1527 11.0308C16.3904 11.5126 17.7675 11.491 18.9894 10.9707C20.2114 10.4504 21.1813 9.47268 21.6919 8.24659C22.8946 5.38238 20.7742 3.29679 18.6052 2.40346L17.9656 2.13582C17.859 2.09122 17.7743 2.00627 17.73 1.89948C17.6857 1.7927 17.6855 1.67274 17.7293 1.56575C17.7513 1.51295 17.7835 1.46502 17.8242 1.42472C17.8648 1.38441 17.9129 1.35252 17.9659 1.33088C18.0189 1.30924 18.0756 1.29828 18.1328 1.29862C18.19 1.29896 18.2466 1.3106 18.2993 1.33286L18.9424 1.59704C22.2341 2.94919 23.6628 5.76474 22.4983 8.5768Z" fill="var(--fill-0, white)"/>
</g>
<path id="Vector_9" d="M18.3802 14.621C18.1508 12.883 15.7454 9.75466 14.136 9.08727C12.5266 8.41988 8.60574 8.9378 7.2223 9.99798C4.14953 12.3547 0.131305 20.6136 1.29576 24.3051C1.76849 25.7998 4.84125 27.4335 6.23512 28.1634C7.62899 28.8934 11.0424 29.606 12.4536 28.9282C15.947 27.2458 18.8981 18.4585 18.3802 14.621ZM15.4777 12.3338L10.9138 10.4429C10.8363 10.4176 10.7701 10.3659 10.7268 10.2968C10.6836 10.2277 10.666 10.1455 10.6772 10.0647C10.6884 9.98396 10.7276 9.90968 10.788 9.8549C10.8484 9.80013 10.9262 9.76834 11.0076 9.76509C12.1165 9.64343 13.2045 9.67819 13.7884 9.92498C14.3724 10.1718 15.1788 10.9191 15.874 11.7881C15.9238 11.8475 15.9523 11.9219 15.955 11.9993C15.9577 12.0768 15.9344 12.1529 15.8889 12.2156C15.8434 12.2784 15.7782 12.3241 15.7037 12.3455C15.6292 12.3669 15.5496 12.3628 15.4777 12.3338Z" fill="var(--fill-0, #263238)"/>
<path id="Vector_10" opacity="0.6" d="M18.3802 14.621C18.1508 12.883 15.7454 9.75466 14.136 9.08727C12.5266 8.41988 8.60574 8.9378 7.2223 9.99798C4.14953 12.3547 0.131305 20.6136 1.29576 24.3051C1.76849 25.7998 4.84125 27.4335 6.23512 28.1634C7.62899 28.8934 11.0424 29.606 12.4536 28.9282C15.947 27.2458 18.8981 18.4585 18.3802 14.621ZM15.4777 12.3338L10.9138 10.4429C10.8363 10.4176 10.7701 10.3659 10.7268 10.2968C10.6836 10.2277 10.666 10.1455 10.6772 10.0647C10.6884 9.98396 10.7276 9.90968 10.788 9.8549C10.8484 9.80013 10.9262 9.76834 11.0076 9.76509C12.1165 9.64343 13.2045 9.67819 13.7884 9.92498C14.3724 10.1718 15.1788 10.9191 15.874 11.7881C15.9238 11.8475 15.9523 11.9219 15.955 11.9993C15.9577 12.0768 15.9344 12.1529 15.8889 12.2156C15.8434 12.2784 15.7782 12.3241 15.7037 12.3455C15.6292 12.3669 15.5496 12.3628 15.4777 12.3338Z" fill="var(--fill-0, black)"/>
<path id="Vector_11" d="M17.2784 14.1598C17.0525 12.4218 14.6436 9.2934 13.0343 8.62949C11.4249 7.96557 7.50399 8.47654 6.12055 9.53672C3.05126 11.8934 -0.97045 20.1524 0.211383 23.8438C0.684116 25.3385 3.76036 26.9722 5.15075 27.7057C6.54114 28.4391 9.95803 29.1447 11.3693 28.4669C14.8418 26.7845 17.7825 17.9973 17.2784 14.1598ZM14.3656 11.8726L9.79813 9.98164C9.7206 9.95638 9.65441 9.90466 9.61116 9.83552C9.5679 9.76639 9.55033 9.68426 9.56151 9.60348C9.5727 9.5227 9.61193 9.44842 9.67234 9.39364C9.73275 9.33887 9.8105 9.30708 9.89199 9.30383C11.0008 9.18217 12.0888 9.21693 12.6728 9.46372C13.2567 9.71052 14.0632 10.4579 14.7584 11.3268C14.8073 11.3861 14.8351 11.4599 14.8377 11.5366C14.8402 11.6134 14.8173 11.6888 14.7724 11.7512C14.7275 11.8135 14.6633 11.8592 14.5897 11.8812C14.5161 11.9032 14.4373 11.9001 14.3656 11.8726Z" fill="var(--fill-0, #263238)"/>
<path id="Vector_12" d="M14.0871 18.8331L5.09471 15.1173C4.43006 16.2127 3.86247 17.3642 3.39844 18.5585L12.874 22.4829C13.385 21.3044 13.791 20.083 14.0871 18.8331Z" fill="var(--fill-0, #407BFF)"/>
<path id="Vector_13" d="M3.04476 19.5333C2.56855 21.0071 2.34956 22.3523 2.62416 23.1865C2.65544 23.2561 3.05171 24.0208 6.13838 25.6197C7.23678 26.1898 9.61436 26.5096 10.1427 26.2628C10.9178 25.8874 11.7243 24.7959 12.4264 23.4194L3.04476 19.5333Z" fill="var(--fill-0, #407BFF)"/>
<path id="Vector_14" d="M14.3001 17.7856C14.4495 17.0165 14.4893 16.2301 14.4183 15.4498C14.2932 14.5113 12.5586 12.2484 11.6862 11.8869C10.8137 11.5254 7.98426 11.8869 7.23345 12.4709C6.63573 12.9736 6.11257 13.5588 5.67969 14.2088L14.3001 17.7856Z" fill="var(--fill-0, #407BFF)"/>
<path id="Vector_15" d="M9.86538 18.9577L8.01562 18.1915L7.45694 19.5403L9.3067 20.3065L9.86538 18.9577Z" fill="var(--fill-0, white)"/>
<path id="Vector_16" d="M9.48497 19.1754L9.2347 19.0712L9.5093 18.4073C9.5397 18.3502 9.55778 18.2873 9.56238 18.2228C9.56698 18.1583 9.55799 18.0936 9.536 18.0327C9.51401 17.9719 9.4795 17.9164 9.43471 17.8697C9.38991 17.8231 9.33583 17.7864 9.27595 17.7619C9.21607 17.7375 9.15173 17.7259 9.08709 17.7279C9.02245 17.7298 8.95894 17.7454 8.90067 17.7734C8.8424 17.8015 8.79066 17.8415 8.74881 17.8908C8.70696 17.9401 8.67591 17.9976 8.65768 18.0597L8.38308 18.7236L8.13281 18.6193L8.40741 17.9554C8.43939 17.86 8.49063 17.7723 8.55796 17.6976C8.62528 17.6229 8.70725 17.5628 8.79877 17.5211C8.89029 17.4794 8.9894 17.457 9.08995 17.4553C9.1905 17.4535 9.29034 17.4725 9.38326 17.5109C9.47618 17.5494 9.5602 17.6065 9.63009 17.6788C9.69999 17.7511 9.75427 17.837 9.78956 17.9312C9.82485 18.0254 9.8404 18.1258 9.83524 18.2262C9.83008 18.3267 9.80432 18.425 9.75957 18.515L9.48497 19.1754Z" fill="var(--fill-0, white)"/>
<path id="Vector_17" d="M8.01382 23.4206L6.16406 22.6544L5.60538 24.0032L7.45514 24.7694L8.01382 23.4206Z" fill="var(--fill-0, white)"/>
<path id="Vector_18" d="M6.53542 23.1791L6.28516 23.0748L6.55976 22.4144C6.59173 22.319 6.64298 22.2313 6.7103 22.1566C6.77763 22.0819 6.8596 22.0218 6.95112 21.9801C7.04264 21.9384 7.14175 21.916 7.2423 21.9143C7.34285 21.9125 7.44268 21.9314 7.5356 21.9699C7.62852 22.0084 7.71254 22.0655 7.78244 22.1378C7.85233 22.2101 7.90661 22.296 7.94191 22.3902C7.9772 22.4844 7.99275 22.5848 7.98759 22.6852C7.98243 22.7856 7.95667 22.8839 7.91191 22.974L7.65817 22.8697C7.68444 22.8134 7.69902 22.7524 7.70102 22.6903C7.70302 22.6283 7.6924 22.5664 7.6698 22.5086C7.6472 22.4507 7.61309 22.3981 7.56954 22.3538C7.52599 22.3095 7.4739 22.2746 7.41643 22.251C7.35896 22.2275 7.29731 22.2158 7.23522 22.2168C7.17312 22.2178 7.11187 22.2313 7.05517 22.2567C6.99847 22.282 6.94751 22.3186 6.90538 22.3643C6.86324 22.4099 6.8308 22.4636 6.81003 22.5221L6.53542 23.1791Z" fill="var(--fill-0, white)"/>
<path id="Vector_19" d="M12.5186 14.4017L11.7504 14.0819L11.1074 13.0391L10.1445 15.3646L11.3368 15.0795L12.105 15.3993L12.5186 14.4017Z" fill="var(--fill-0, white)"/>
<path id="Vector_20" d="M9.15376 14.9172C8.97951 14.493 8.98002 14.0171 9.15516 13.5932C9.33031 13.1693 9.6659 12.8319 10.0888 12.6544L10.2278 13.002C10.0617 13.0709 9.91068 13.1718 9.78353 13.2991C9.65638 13.4264 9.55555 13.5774 9.48679 13.7437C9.41804 13.9099 9.38271 14.0881 9.38282 14.2679C9.38293 14.4478 9.41849 14.626 9.48745 14.7921L9.15376 14.9172Z" fill="var(--fill-0, white)"/>
<path id="Vector_21" d="M9.94563 14.5925C9.8568 14.3776 9.85666 14.1363 9.94525 13.9214C10.0338 13.7064 10.2039 13.5353 10.4184 13.4454L10.5574 13.793C10.4315 13.847 10.3317 13.948 10.2793 14.0745C10.2534 14.1368 10.2401 14.2035 10.2401 14.2709C10.2401 14.3384 10.2534 14.4051 10.2793 14.4673L9.94563 14.5925Z" fill="var(--fill-0, white)"/>
</g>
</svg>
