<svg preserveAspectRatio="none" width="100%" height="100%" overflow="visible" style="display: block;" viewBox="0 0 29.4981 64.1723" fill="none" xmlns="http://www.w3.org/2000/svg">
<g id="freepik--Character--inject-2">
<path id="Vector" d="M12.5891 12.0276C11.8939 11.4367 11.1987 10.8319 10.5035 10.2166L8.44572 8.37434C8.07313 8.05707 7.8265 7.61685 7.75052 7.13342C7.69955 6.73888 7.7461 6.33786 7.88609 5.96549C8.09268 5.43121 8.39282 4.93802 8.77246 4.50905C9.42602 3.76079 10.1792 3.10582 11.011 2.5625L11.7931 3.48016C11.2277 4.13535 10.713 4.83255 10.2532 5.56575C10.0596 5.86607 9.91639 6.19599 9.82916 6.54249C9.80483 6.67111 9.82916 6.75453 9.82916 6.7441C9.82916 6.73367 9.8083 6.65373 9.82916 6.66416L10.3888 7.07084L10.9484 7.49491C11.3204 7.77994 11.6888 8.07193 12.0468 8.36391C12.7733 8.94787 13.4789 9.54922 14.1707 10.1714L12.5891 12.0276Z" fill="var(--fill-0, #DAA8A6)"/>
<path id="Vector_2" d="M13.9189 12.677C12.6815 12.8578 9.82422 9.9588 9.82422 9.9588L11.7812 7.7168C12.7372 8.32423 13.6242 9.03405 14.4264 9.83367C15.5665 11.0225 15.2746 12.4789 13.9189 12.677Z" fill="var(--fill-0, #407BFF)"/>
<path id="Vector_3" opacity="0.7" d="M13.9189 12.677C12.6815 12.8578 9.82422 9.9588 9.82422 9.9588L11.7812 7.7168C12.7372 8.32423 13.6242 9.03405 14.4264 9.83367C15.5665 11.0225 15.2746 12.4789 13.9189 12.677Z" fill="var(--fill-0, white)"/>
<path id="Vector_4" d="M10.7461 3.08548L11.0728 1.50391L12.498 2.58842C12.498 2.58842 12.1226 3.9788 11.4135 3.75286L10.7461 3.08548Z" fill="var(--fill-0, #E0B1AF)"/>
<path id="Vector_5" d="M12.1657 0.337891L13.0729 1.68309L12.4994 2.58685L11.0742 1.50234L12.1657 0.337891Z" fill="var(--fill-0, #947270)"/>
<path id="Vector_6" opacity="0.2" d="M13.3809 11.1053C12.8039 11.5989 11.5108 11.154 10.7461 10.8203C11.6464 11.6198 12.9951 12.673 13.8015 12.673C13.8953 11.804 13.9336 10.6396 13.3809 11.1053Z" fill="var(--fill-0, black)"/>
<path id="Vector_7" d="M5.69313 60.3257L4.09766 59.7452L4.97708 55.9043L6.57255 56.4813L5.69313 60.3257Z" fill="var(--fill-0, #7F3E3B)"/>
<path id="Vector_8" d="M18.2701 62.4424H16.5808L16.0977 58.5215H17.7905L18.2701 62.4424Z" fill="var(--fill-0, #7F3E3B)"/>
<path id="Vector_9" d="M16.3567 62.25H18.418C18.4518 62.2493 18.4849 62.2603 18.5116 62.2812C18.5382 62.3021 18.5567 62.3317 18.564 62.3647L18.9116 63.8698C18.9195 63.9063 18.919 63.9441 18.9102 63.9803C18.9014 64.0166 18.8844 64.0504 18.8607 64.0792C18.8369 64.1079 18.807 64.131 18.773 64.1465C18.7391 64.162 18.7021 64.1696 18.6648 64.1688C18.0009 64.1688 17.5177 64.1201 16.68 64.1201C16.1656 64.1201 14.6153 64.1723 13.8992 64.1723C13.1832 64.1723 13.0893 63.4771 13.3813 63.4075C14.6813 63.1225 15.6615 62.7297 16.0752 62.3647C16.1121 62.3279 16.1561 62.2987 16.2044 62.2791C16.2527 62.2594 16.3045 62.2495 16.3567 62.25Z" fill="var(--fill-0, #407BFF)"/>
<path id="Vector_10" d="M4.04359 59.4249L5.85458 59.8142C5.88714 59.8218 5.91634 59.8398 5.93769 59.8655C5.95903 59.8913 5.97135 59.9233 5.97276 59.9567L5.99709 61.4966C5.99808 61.5338 5.99051 61.5707 5.97497 61.6046C5.95943 61.6384 5.93633 61.6682 5.90746 61.6917C5.87858 61.7152 5.8447 61.7318 5.80841 61.7401C5.77212 61.7485 5.73441 61.7484 5.69816 61.7399C5.04815 61.5904 4.10963 61.3471 3.2893 61.1733C2.32993 60.9647 1.73554 60.7736 0.609324 60.5302C-0.0858713 60.3842 -0.120628 59.6578 0.178306 59.6543C1.53394 59.6543 2.35426 59.915 3.61604 59.4666C3.75187 59.4131 3.89998 59.3986 4.04359 59.4249Z" fill="var(--fill-0, #407BFF)"/>
<path id="Vector_11" opacity="0.2" d="M4.97923 55.9043L4.52734 57.8856L6.12283 58.4626L6.5747 56.4848L4.97923 55.9043Z" fill="var(--fill-0, black)"/>
<path id="Vector_12" opacity="0.2" d="M17.7905 58.5234H16.0977L16.3479 60.543H18.0407L17.7905 58.5234Z" fill="var(--fill-0, black)"/>
<path id="Vector_13" d="M23.22 10.9582C22.5038 12.8258 21.923 14.7426 21.482 16.6936C21.1657 17.9762 20.9189 19.2067 20.7242 20.326C20.2654 22.9503 20.0812 24.9699 19.9213 25.6407L11.0402 23.8437C10.9741 14.1109 13.8974 9.50525 13.8974 9.50525C14.6201 9.46718 15.3444 9.47298 16.0664 9.52263L16.5322 9.56434C17.8043 9.74564 19.0648 10.001 20.3071 10.3291C20.5435 10.3881 20.7833 10.4542 21.0023 10.5237C21.7262 10.7381 22.4687 10.8835 23.22 10.9582Z" fill="var(--fill-0, #407BFF)"/>
<path id="Vector_14" opacity="0.7" d="M23.22 10.9582C22.5038 12.8258 21.923 14.7426 21.482 16.6936C21.1657 17.9762 20.9189 19.2067 20.7242 20.326C20.2654 22.9503 20.0812 24.9699 19.9213 25.6407L11.0402 23.8437C10.9741 14.1109 13.8974 9.50525 13.8974 9.50525C14.6201 9.46718 15.3444 9.47298 16.0664 9.52263L16.5322 9.56434C17.8043 9.74564 19.0648 10.001 20.3071 10.3291C20.5435 10.3881 20.7833 10.4542 21.0023 10.5237C21.7262 10.7381 22.4687 10.8835 23.22 10.9582Z" fill="var(--fill-0, white)"/>
<path id="Vector_15" d="M16.6625 11.4082C16.3149 12.0791 14.2293 20.3658 13.6836 22.1594C13.7496 22.5591 13.8365 22.9624 13.9408 23.369C14.2258 23.0214 14.5283 22.6739 14.8411 22.3436C15.2234 20.6056 16.6903 12.3328 17.0761 11.4708L16.6625 11.4082Z" fill="var(--fill-0, #407BFF)"/>
<path id="Vector_16" d="M16.6499 11.9284L16.5039 11.0316L17.1574 10.8926L17.5536 11.2576L16.6499 11.9284Z" fill="var(--fill-0, #407BFF)"/>
<path id="Vector_17" d="M20.764 5.99805C20.2913 7.16598 19.6239 9.34542 20.3191 10.3291C19.8688 10.6424 19.3564 10.8552 18.8166 10.953C18.2768 11.0507 17.7223 11.0312 17.1907 10.8957C16.1479 10.6628 16.2383 9.92243 16.5476 9.5644C17.9658 9.51226 18.1223 8.50075 18.0701 7.5101L20.764 5.99805Z" fill="var(--fill-0, #E0B1AF)"/>
<path id="Vector_18" d="M17.1602 10.8905C17.1602 10.8905 17.4521 11.478 17.8136 12.0723C18.5783 11.8534 20.3859 11.2173 20.5145 10.2996C20.4606 10.0935 20.338 9.91204 20.1669 9.78516C19.231 10.3137 18.2155 10.687 17.1602 10.8905Z" fill="var(--fill-0, white)"/>
<path id="Vector_19" d="M17.1565 10.8882C16.7542 11.1056 16.3834 11.3769 16.0546 11.6946C15.634 11.2462 16.2701 9.62642 16.496 9.48043C16.7204 9.37945 16.9709 9.35148 17.2121 9.40048C17.2121 9.40048 16.4126 10.5267 17.1565 10.8882Z" fill="var(--fill-0, white)"/>
<path id="Vector_20" opacity="0.2" d="M19.6619 6.61719L18.0664 7.51052C18.0875 7.74177 18.0875 7.97446 18.0664 8.20571C18.5982 8.237 19.4186 7.81293 19.5785 7.2811C19.6474 7.06694 19.6757 6.84176 19.6619 6.61719Z" fill="var(--fill-0, black)"/>
<path id="Vector_21" d="M17.684 1.77324C17.2217 2.27725 16.7559 3.53556 17.7674 3.51122C18.7789 3.48689 18.4765 0.907717 17.684 1.77324Z" fill="var(--fill-0, #263238)"/>
<path id="Vector_22" d="M21.5677 4.55597C20.949 6.11668 20.6674 7.06215 19.5968 7.60787C17.9875 8.43168 16.2634 7.04129 16.4024 5.32415C16.5276 3.77734 17.5147 1.50058 19.2805 1.37544C19.671 1.35147 20.0613 1.42687 20.4147 1.59459C20.7682 1.7623 21.0734 2.01687 21.3019 2.33451C21.5303 2.65216 21.6745 3.02251 21.721 3.41099C21.7675 3.79946 21.7147 4.19339 21.5677 4.55597Z" fill="var(--fill-0, #E0B1AF)"/>
<path id="Vector_23" d="M18.1073 2.38957C17.0645 1.8647 16.7169 0.404788 18.4549 0.0293824L18.5731 0.005048C18.6647 -0.00605825 18.7577 0.00120485 18.8465 0.0264122C18.9353 0.0516196 19.0182 0.0942682 19.0904 0.151866C19.1625 0.209464 19.2225 0.280856 19.2668 0.36188C19.311 0.442904 19.3387 0.531933 19.3482 0.623772C19.3542 0.658186 19.3635 0.691945 19.376 0.724578C19.6713 0.446922 20.0529 0.278851 20.457 0.248371C20.5521 0.245665 20.6466 0.263514 20.7341 0.300699C20.8216 0.337884 20.9001 0.393524 20.9641 0.463821C21.0281 0.534119 21.0762 0.617418 21.1051 0.708014C21.134 0.798611 21.1429 0.894369 21.1314 0.988751C21.1186 1.05526 21.1206 1.12378 21.1374 1.1894C21.1542 1.25502 21.1853 1.31611 21.2285 1.36828C21.2717 1.42045 21.3259 1.46241 21.3873 1.49114C21.4486 1.51988 21.5155 1.53468 21.5833 1.53448C22.4905 1.55881 23.5507 2.22967 23.0223 3.13343C23.7905 4.09628 22.5913 5.43105 20.895 5.56661C20.4327 4.63505 21.18 3.25509 21.18 3.25509C20.1096 3.16708 19.0663 2.87319 18.1073 2.38957Z" fill="var(--fill-0, #263238)"/>
<path id="Vector_24" d="M22.7773 3.16779C22.8732 3.16118 22.9661 3.13169 23.0482 3.0818C23.1304 3.0319 23.1993 2.96305 23.2494 2.88101C23.2994 2.79897 23.329 2.70613 23.3358 2.61028C23.3426 2.51442 23.3263 2.41834 23.2883 2.33008C23.8688 2.81324 23.4447 3.26512 22.7773 3.16779Z" fill="var(--fill-0, #263238)"/>
<path id="Vector_25" d="M22.6211 3.28479C22.7114 3.25139 22.8084 3.24016 22.9039 3.25205C22.9995 3.26393 23.0907 3.29858 23.1701 3.35308C23.2495 3.40757 23.3146 3.48033 23.36 3.56523C23.4054 3.65012 23.4297 3.74469 23.431 3.84095C23.7612 3.15966 23.1912 2.91634 22.6211 3.28479Z" fill="var(--fill-0, #263238)"/>
<path id="Vector_26" d="M21.7452 6.08417C21.6226 6.25408 21.4671 6.39763 21.288 6.50631C21.1088 6.61498 20.9097 6.68656 20.7024 6.71679C20.1497 6.79674 19.9411 6.2823 20.1497 5.79566C20.3583 5.30902 20.8449 4.78763 21.3767 4.93014C21.4922 4.96282 21.5977 5.02359 21.6839 5.10701C21.7702 5.19042 21.8344 5.2939 21.8709 5.40819C21.9074 5.52249 21.915 5.64404 21.8931 5.762C21.8711 5.87995 21.8203 5.99064 21.7452 6.08417Z" fill="var(--fill-0, #E0B1AF)"/>
<path id="Vector_27" d="M4.05859 57.302L6.75943 58.2822C6.75943 58.2822 8.86935 48.9944 9.98861 43.8465C10.4883 41.8087 11.1034 39.801 11.8309 37.833C12.8528 34.941 14.0764 31.83 15.0635 29.3968C16.1063 26.835 16.8815 25.0275 16.8815 25.0275L11.0418 23.8457C11.0418 23.8457 6.5891 36.6651 5.58802 41.7296C4.5487 46.9992 4.05859 57.302 4.05859 57.302Z" fill="var(--fill-0, #263238)"/>
<path id="Vector_28" opacity="0.6" d="M11.8281 37.8285C12.8501 34.9365 14.0736 31.8255 15.0608 29.3923L14.6089 28.002C12.937 29.5418 11.8942 34.867 11.8281 37.8285Z" fill="var(--fill-0, black)"/>
<path id="Vector_29" d="M14.1966 24.4688C14.1966 24.4688 13.1538 39.0679 13.0912 44.0489C13.0217 49.4888 15.5627 60.1392 15.5627 60.1392H18.6632C18.6632 60.1392 17.4258 50.5282 17.8394 45.1404C18.2983 39.1165 19.925 25.6297 19.925 25.6297L14.1966 24.4688Z" fill="var(--fill-0, #263238)"/>
<path id="Vector_30" d="M15.1899 60.2202H18.8396L18.8292 59.1287L15.0195 58.9063L15.1899 60.2202Z" fill="var(--fill-0, #263238)"/>
<path id="Vector_31" d="M3.69141 57.2682L6.92754 58.3875L7.27862 57.3447L3.74354 56.0586L3.69141 57.2682Z" fill="var(--fill-0, #263238)"/>
<path id="Vector_32" d="M19.0072 4.18686C18.9654 4.31895 18.8612 4.3989 18.7777 4.37109C18.6943 4.34328 18.6596 4.21467 18.7013 4.08606C18.743 3.95745 18.8438 3.87403 18.9307 3.90184C19.0176 3.92964 19.0489 4.05825 19.0072 4.18686Z" fill="var(--fill-0, #263238)"/>
<path id="Vector_33" d="M17.5423 3.6962C17.5006 3.82481 17.3963 3.90476 17.3129 3.87695C17.2295 3.84914 17.1947 3.72053 17.2364 3.59192C17.2781 3.46331 17.3789 3.37989 17.4658 3.40769C17.5527 3.4355 17.584 3.56411 17.5423 3.6962Z" fill="var(--fill-0, #263238)"/>
<path id="Vector_34" d="M17.9919 3.91602C17.7063 4.24595 17.3764 4.53487 17.0117 4.77458C17.082 4.86446 17.1702 4.93871 17.2707 4.99257C17.3713 5.04644 17.482 5.07875 17.5957 5.08742L17.9919 3.91602Z" fill="var(--fill-0, #947270)"/>
<path id="Vector_35" d="M19.6108 3.86715C19.5969 3.86546 19.5837 3.85957 19.5732 3.85026C19.5626 3.84095 19.5552 3.82866 19.5517 3.81501C19.5215 3.718 19.469 3.62941 19.3984 3.55637C19.3278 3.48333 19.241 3.42786 19.145 3.39441C19.1348 3.39202 19.1252 3.38755 19.1167 3.38126C19.1083 3.37498 19.1012 3.36701 19.096 3.35788C19.0908 3.34874 19.0875 3.33863 19.0864 3.32817C19.0852 3.31771 19.0863 3.30713 19.0894 3.29709C19.0944 3.27701 19.1069 3.25964 19.1244 3.24862C19.1419 3.23761 19.163 3.23379 19.1833 3.23799C19.3049 3.2785 19.4151 3.34716 19.5051 3.43837C19.5951 3.52958 19.6623 3.64077 19.7012 3.76287C19.7079 3.78269 19.7066 3.80436 19.6975 3.82321C19.6884 3.84206 19.6722 3.85658 19.6525 3.86367C19.6395 3.86988 19.6247 3.87112 19.6108 3.86715Z" fill="var(--fill-0, #263238)"/>
<path id="Vector_36" d="M17.079 2.97873C17.0633 2.97608 17.0488 2.96882 17.0372 2.95787C17.0233 2.94202 17.0156 2.92163 17.0156 2.90052C17.0156 2.87941 17.0233 2.85902 17.0372 2.84317C17.1251 2.74985 17.2342 2.67903 17.3552 2.63668C17.4761 2.59433 17.6055 2.5817 17.7324 2.59985C17.7527 2.60482 17.7704 2.61722 17.782 2.6346C17.7936 2.65197 17.7982 2.67307 17.795 2.6937C17.7934 2.70419 17.7896 2.71422 17.7839 2.72316C17.7782 2.7321 17.7707 2.73976 17.7619 2.74564C17.753 2.75153 17.7431 2.75551 17.7326 2.75734C17.7222 2.75917 17.7115 2.7588 17.7012 2.75627C17.6012 2.74315 17.4995 2.75466 17.405 2.78979C17.3105 2.82493 17.226 2.88263 17.1589 2.95787C17.1499 2.96992 17.1371 2.97856 17.1226 2.98235C17.1081 2.98614 17.0927 2.98486 17.079 2.97873Z" fill="var(--fill-0, #263238)"/>
<path id="Vector_37" d="M15.7984 62.5454C15.683 62.5528 15.5682 62.5223 15.4717 62.4585C15.4415 62.4327 15.4182 62.3999 15.4036 62.3629C15.3891 62.3259 15.3838 62.286 15.3883 62.2465C15.3885 62.2233 15.3948 62.2006 15.4063 62.1805C15.4179 62.1605 15.4344 62.1437 15.4543 62.1318C15.642 62.038 16.1912 62.3716 16.2538 62.4099C16.2578 62.4161 16.26 62.4233 16.26 62.4307C16.26 62.4381 16.2578 62.4454 16.2538 62.4516C16.2523 62.4588 16.249 62.4655 16.2441 62.471C16.2392 62.4765 16.2329 62.4806 16.226 62.4829C16.0861 62.5188 15.9428 62.5397 15.7984 62.5454ZM15.5447 62.1979C15.5275 62.1938 15.5097 62.1938 15.4925 62.1979C15.4925 62.1979 15.4682 62.1979 15.4682 62.243C15.4645 62.2701 15.4677 62.2976 15.4774 62.3231C15.4872 62.3486 15.5031 62.3713 15.5238 62.389C15.7125 62.4774 15.9283 62.4887 16.1252 62.4203C15.9481 62.3082 15.7509 62.2315 15.5447 62.1944V62.1979Z" fill="var(--fill-0, #407BFF)"/>
<path id="Vector_38" d="M16.233 62.487H16.2122C16.0384 62.3932 15.6943 62.0213 15.729 61.8336C15.7346 61.8044 15.7502 61.7781 15.773 61.7591C15.7958 61.7401 15.8245 61.7295 15.8542 61.7293C15.8849 61.7243 15.9164 61.7261 15.9464 61.7345C15.9764 61.7429 16.0042 61.7577 16.0279 61.7779C16.1749 61.9719 16.2597 62.2058 16.2713 62.4488C16.2746 62.4546 16.2764 62.4612 16.2764 62.4679C16.2764 62.4746 16.2746 62.4812 16.2713 62.487H16.233ZM15.8854 61.7918H15.8646C15.8124 61.7918 15.809 61.8231 15.809 61.8336C15.7881 61.9448 16.0071 62.2263 16.1809 62.3584C16.1673 62.1646 16.0959 61.9793 15.9758 61.8266C15.95 61.8068 15.9179 61.7969 15.8854 61.7988V61.7918Z" fill="var(--fill-0, #407BFF)"/>
<path id="Vector_39" d="M3.83041 59.616C3.55233 59.616 3.06222 59.5742 2.91275 59.3726C2.89095 59.3437 2.87641 59.31 2.87036 59.2743C2.86431 59.2387 2.86693 59.202 2.87799 59.1676C2.88386 59.1465 2.89487 59.1272 2.91004 59.1114C2.92521 59.0956 2.94405 59.0839 2.96489 59.0772C3.19083 59.0077 3.78522 59.4873 3.85474 59.543C3.85954 59.5495 3.86213 59.5574 3.86213 59.5656C3.86213 59.5737 3.85954 59.5816 3.85474 59.5882C3.85371 59.5946 3.85088 59.6006 3.84657 59.6056C3.84227 59.6105 3.83667 59.6141 3.83041 59.616ZM2.99965 59.1537C2.9912 59.1567 2.98361 59.1618 2.97756 59.1685C2.9715 59.1752 2.96716 59.1832 2.96489 59.1919C2.95748 59.2147 2.95582 59.2391 2.96006 59.2627C2.96431 59.2864 2.97433 59.3086 2.98922 59.3275C3.20069 59.4796 3.4596 59.5511 3.71918 59.5291C3.51406 59.3464 3.26684 59.2174 2.99965 59.1537Z" fill="var(--fill-0, #407BFF)"/>
<path id="Vector_40" d="M3.83001 59.6169C3.82578 59.6194 3.82099 59.6206 3.81611 59.6206C3.81123 59.6206 3.80643 59.6194 3.8022 59.6169C3.62145 59.4848 3.29818 59.0434 3.36423 58.8626C3.38161 58.8209 3.42333 58.7723 3.53456 58.7827C3.61511 58.7932 3.68854 58.8342 3.73964 58.8974C3.85344 59.1102 3.89722 59.3535 3.86477 59.5926C3.86419 59.6 3.86163 59.6072 3.85736 59.6133C3.85308 59.6194 3.84723 59.6243 3.84044 59.6274L3.83001 59.6169ZM3.48241 58.8557C3.44765 58.8557 3.44071 58.8765 3.43723 58.8835C3.39552 58.9912 3.60755 59.3319 3.78483 59.4987C3.80322 59.3049 3.76327 59.11 3.67012 58.9391C3.63316 58.8928 3.57949 58.8628 3.52065 58.8557H3.48241Z" fill="var(--fill-0, #407BFF)"/>
<path id="Vector_41" opacity="0.2" d="M22.184 11.9297L20.9883 12.4337V13.188C20.9883 13.188 21.1968 14.7105 21.8468 15.2736C22.111 14.2621 22.4134 13.188 22.7645 12.18C22.5772 12.0828 22.3833 11.9991 22.184 11.9297Z" fill="var(--fill-0, black)"/>
<path id="Vector_42" d="M22.4336 11.4138C22.9202 11.3373 23.4451 11.2678 23.9456 11.1774C24.4462 11.0871 24.9537 11.0071 25.4438 10.9028C25.913 10.8114 26.3771 10.6954 26.8342 10.5552C27.0095 10.4957 27.1813 10.426 27.3486 10.3467C27.3646 10.3341 27.3822 10.3236 27.4008 10.3154C27.3766 10.3426 27.3545 10.3717 27.3347 10.4023C27.2861 10.4996 27.3139 10.4857 27.3347 10.4405C27.3692 10.2655 27.382 10.0869 27.373 9.90869C27.3673 9.67611 27.3487 9.44402 27.3173 9.21349C27.2652 8.72338 27.1713 8.22285 27.0775 7.71535C26.9836 7.20786 26.8724 6.70037 26.7508 6.1894C26.6291 5.67843 26.5144 5.1466 26.4032 4.65997L27.5328 4.23242C27.7866 4.72253 28.0021 5.21613 28.228 5.71667C28.454 6.21721 28.6313 6.72817 28.8155 7.24609C29.0044 7.77464 29.1646 8.31305 29.2952 8.85895C29.3646 9.15009 29.418 9.44484 29.4551 9.74185C29.5059 10.0872 29.5118 10.4378 29.4725 10.7846C29.4359 11.0637 29.3425 11.3323 29.1978 11.5737C29.1446 11.6607 29.0829 11.7422 29.0136 11.817C28.9476 11.89 28.9163 11.9109 28.8676 11.9595C28.7842 12.0369 28.696 12.1089 28.6035 12.175C28.3163 12.3712 28.01 12.5377 27.6893 12.6721C27.1475 12.8963 26.5898 13.0799 26.0208 13.2213C24.9444 13.5012 23.8488 13.701 22.743 13.8192L22.4336 11.4138Z" fill="var(--fill-0, #DAA8A6)"/>
<path id="Vector_43" d="M21.4423 13.6314C22.4294 14.3857 26.034 13.6071 26.034 13.6071L25.4535 10.4961C24.3691 10.5874 23.2953 10.777 22.2452 11.0627C20.5559 11.5458 20.2396 12.7207 21.4423 13.6314Z" fill="var(--fill-0, #407BFF)"/>
<path id="Vector_44" opacity="0.7" d="M21.4423 13.6314C22.4294 14.3857 26.034 13.6071 26.034 13.6071L25.4535 10.4961C24.3691 10.5874 23.2953 10.777 22.2452 11.0627C20.5559 11.5458 20.2396 12.7207 21.4423 13.6314Z" fill="var(--fill-0, white)"/>
<path id="Vector_45" d="M27.7003 4.61766L27.822 2.98047L25.8789 3.71738C25.8789 3.71738 26.0875 5.1321 26.8522 5.10777L27.7003 4.61766Z" fill="var(--fill-0, #E0B1AF)"/>
<path id="Vector_46" d="M27.0781 1.85547L25.5 2.54371L25.8824 3.71512L27.8254 2.97821L27.0781 1.85547Z" fill="var(--fill-0, #947270)"/>
<path id="Vector_47" d="M17.2465 5.64948C17.7448 5.61255 18.2455 5.62536 18.7412 5.68771C18.6601 5.87726 18.5165 6.03336 18.3344 6.13009C18.1523 6.22683 17.9426 6.25839 17.7401 6.21954C17.6689 6.21868 17.5986 6.20272 17.534 6.17271C17.4694 6.14271 17.4118 6.09935 17.3652 6.04548C17.3185 5.99161 17.2838 5.92846 17.2634 5.8602C17.2429 5.79194 17.2372 5.72012 17.2465 5.64948Z" fill="var(--fill-0, white)"/>
</g>
</svg>
