<svg preserveAspectRatio="none" width="100%" height="100%" overflow="visible" style="display: block;" viewBox="0 0 18.9309 24.4307" fill="none" xmlns="http://www.w3.org/2000/svg">
<g id="freepik--Pin--inject-2">
<path id="Vector" d="M18.9307 10.1106H18.5613C18.5614 9.17007 18.4258 8.23446 18.1586 7.33268L18.528 7.22924C18.8006 8.16524 18.9362 9.13575 18.9307 10.1106ZM17.3386 5.38592C16.4924 3.8675 15.2567 2.60219 13.7587 1.72041C12.2607 0.838628 10.5547 0.372268 8.81641 0.369404V0C10.6208 0.00180047 12.392 0.485571 13.9467 1.40129C15.5015 2.317 16.7834 3.63142 17.6599 5.2086L17.3386 5.38592Z" fill="var(--fill-0, #407BFF)"/>
<path id="Vector_2" d="M8.81398 1.29492C6.47603 1.2959 4.23417 2.22533 2.58133 3.87886C0.928495 5.53239 -2.05164e-07 7.77465 0 10.1126C0 18.6089 8.81398 24.4307 8.81398 24.4307C8.81398 24.4307 17.6354 18.6052 17.6354 10.1126C17.6344 7.77367 16.7046 5.53087 15.0503 3.87734C13.3961 2.22381 11.1529 1.29492 8.81398 1.29492ZM8.81398 14.2647C8.00024 14.264 7.20497 14.022 6.52872 13.5694C5.85247 13.1168 5.3256 12.4738 5.0147 11.7218C4.7038 10.9698 4.62283 10.1425 4.78203 9.34445C4.94123 8.54643 5.33345 7.81352 5.90912 7.23838C6.48478 6.66323 7.21804 6.27167 8.0162 6.11318C8.81436 5.9547 9.6416 6.03641 10.3933 6.34798C11.1451 6.65956 11.7875 7.18701 12.2396 7.86366C12.6916 8.54032 12.9328 9.3358 12.9328 10.1495C12.9328 10.6903 12.8263 11.2257 12.6192 11.7252C12.4122 12.2247 12.1088 12.6785 11.7262 13.0607C11.3437 13.4429 10.8896 13.7459 10.3899 13.9525C9.89022 14.1591 9.3547 14.2652 8.81398 14.2647Z" fill="var(--fill-0, #407BFF)"/>
</g>
</svg>
