<svg preserveAspectRatio="none" width="100%" height="100%" overflow="visible" style="display: block;" viewBox="0 0 15.8056 15.8056" fill="none" xmlns="http://www.w3.org/2000/svg">
<path id="Vector" d="M11.0968 0H4.70804C3.4597 0.00146701 2.26293 0.498071 1.38029 1.38085C0.49766 2.26364 0.00125712 3.4605 0 4.70883L0 11.0976C0.00146701 12.3459 0.498071 13.5427 1.38085 14.4253C2.26364 15.308 3.4605 15.8044 4.70883 15.8056H11.0976C12.3459 15.8042 13.5427 15.3076 14.4253 14.4248C15.308 13.542 15.8044 12.3451 15.8056 11.0968V4.70804C15.8042 3.4597 15.3076 2.26293 14.4248 1.38029C13.542 0.49766 12.3451 0.00125712 11.0968 0V0ZM14.216 11.0968C14.216 11.5064 14.1353 11.912 13.9785 12.2904C13.8218 12.6689 13.592 13.0127 13.3024 13.3024C13.0127 13.592 12.6689 13.8218 12.2904 13.9785C11.912 14.1353 11.5064 14.216 11.0968 14.216H4.70804C3.88092 14.2157 3.08776 13.887 2.50297 13.3021C1.91818 12.7172 1.58967 11.9239 1.58967 11.0968V4.70804C1.58988 3.88092 1.91859 3.08776 2.50353 2.50297C3.08846 1.91818 3.88172 1.58967 4.70883 1.58967H11.0976C11.9247 1.58988 12.7179 1.91859 13.3027 2.50353C13.8874 3.08846 14.216 3.88172 14.216 4.70883V11.0976V11.0968Z" fill="var(--fill-0, white)"/>
</svg>
