<svg preserveAspectRatio="none" width="100%" height="100%" overflow="visible" style="display: block;" viewBox="0 0 15.8333 12.6667" fill="none" xmlns="http://www.w3.org/2000/svg">
<path id="Vector" d="M15.8333 1.49785C15.2399 1.75703 14.6114 1.92697 13.9682 2.00215C14.6433 1.60571 15.151 0.977022 15.3963 0.233563C14.7567 0.605906 14.059 0.868166 13.3325 1.0094C13.0265 0.688934 12.6585 0.434162 12.2508 0.260621C11.8432 0.0870805 11.4045 -0.00158915 10.9614 2.15566e-05C9.1675 2.15566e-05 7.71321 1.43294 7.71321 3.19835C7.71321 3.44852 7.74171 3.69315 7.79712 3.92669C6.51033 3.86549 5.25042 3.53672 4.0978 2.96136C2.94517 2.386 1.92514 1.57669 1.10279 0.585063C0.814487 1.07146 0.662954 1.62672 0.664208 2.19215C0.66476 2.72095 0.797072 3.24129 1.04919 3.70612C1.3013 4.17096 1.66527 4.56565 2.10821 4.85452C1.59322 4.8379 1.08935 4.7004 0.637292 4.45315V4.49273C0.637292 6.04281 1.7575 7.33561 3.24187 7.63011C2.9629 7.70413 2.6755 7.74165 2.38687 7.74173C2.17708 7.74173 1.97362 7.72194 1.77492 7.68236C1.98715 8.32196 2.39329 8.8796 2.93694 9.27783C3.48059 9.67606 4.13475 9.89511 4.80858 9.90456C3.6528 10.7948 2.23394 11.2758 0.775042 11.2718C0.512208 11.2718 0.254125 11.2559 0 11.2274C1.48933 12.1701 3.21622 12.6693 4.97879 12.6667C10.9535 12.6667 14.2199 7.7924 14.2199 3.56569L14.2088 3.15165C14.846 2.7033 15.3964 2.14294 15.8333 1.49785V1.49785Z" fill="var(--fill-0, white)"/>
</svg>
