<svg preserveAspectRatio="none" width="100%" height="100%" overflow="visible" style="display: block;" viewBox="0 0 8.17554 8.17554" fill="none" xmlns="http://www.w3.org/2000/svg">
<path id="Vector" d="M4.08658 0C3.00313 0.00167553 1.96455 0.432872 1.1985 1.19906C0.43246 1.96525 0.00146566 3.00392 0 4.08738C0.00125672 5.1711 0.432268 6.21009 1.1985 6.97648C1.96474 7.74286 3.00365 8.17407 4.08737 8.17554C5.17124 8.17428 6.21035 7.74316 6.97676 6.97676C7.74316 6.21035 8.17428 5.17124 8.17554 4.08738C8.17386 3.00365 7.74245 1.96482 6.97592 1.19874C6.20938 0.432649 5.17031 0.00183878 4.08658 0.000791987V0ZM4.08658 6.58587C3.42415 6.58587 2.78885 6.32272 2.32044 5.85431C1.85203 5.3859 1.58887 4.7506 1.58887 4.08817C1.58887 3.42573 1.85203 2.79043 2.32044 2.32202C2.78885 1.85361 3.42415 1.59046 4.08658 1.59046C4.74902 1.59046 5.38432 1.85361 5.85273 2.32202C6.32114 2.79043 6.58429 3.42573 6.58429 4.08817C6.58429 4.7506 6.32114 5.3859 5.85273 5.85431C5.38432 6.32272 4.74902 6.58587 4.08658 6.58587V6.58587Z" fill="var(--fill-0, white)"/>
</svg>
