<svg preserveAspectRatio="none" width="100%" height="100%" overflow="visible" style="display: block;" viewBox="0 0 15.7993 11.058" fill="none" xmlns="http://www.w3.org/2000/svg">
<path id="Vector" d="M12.5178 0.000791667H3.28146C1.46854 0.000791667 0 1.4535 0 3.24583V7.81217C0 9.6045 1.46933 11.058 3.28146 11.058H12.5178C14.3308 11.058 15.7993 9.6045 15.7993 7.81217V3.24583C15.7993 1.4535 14.33 0 12.5178 0V0.000791667ZM10.2988 5.75067L5.97867 7.78921C5.95232 7.8019 5.92319 7.80771 5.89398 7.80611C5.86478 7.80452 5.83646 7.79556 5.81165 7.78007C5.78684 7.76459 5.76635 7.74308 5.75209 7.71754C5.73783 7.69201 5.73026 7.66329 5.73008 7.63404V3.43108C5.73061 3.40169 5.73857 3.37291 5.75322 3.34742C5.76787 3.32194 5.78873 3.30057 5.81386 3.28532C5.83899 3.27007 5.86757 3.26142 5.89694 3.2602C5.92631 3.25897 5.95552 3.26519 5.98183 3.27829L10.3028 5.4435C10.3315 5.45785 10.3557 5.48003 10.3724 5.50749C10.3892 5.53494 10.3978 5.56656 10.3974 5.59872C10.397 5.63088 10.3875 5.66227 10.3701 5.68928C10.3526 5.7163 10.3279 5.73785 10.2988 5.75146V5.75067Z" fill="var(--fill-0, white)"/>
</svg>
