<svg preserveAspectRatio="none" width="100%" height="100%" overflow="visible" style="display: block;" viewBox="0 0 17.917 17.917" fill="none" xmlns="http://www.w3.org/2000/svg">
<g id="elements">
<path id="Icon" d="M8.95801 0C13.9055 0 17.9168 4.01061 17.917 8.95801C17.917 13.9056 13.9056 17.917 8.95801 17.917C4.01061 17.9168 0 13.9054 0 8.95801C4.40507e-05 7.72413 0.24971 6.54691 0.702148 5.47559C0.820862 5.1945 0.901625 5.00435 0.955078 4.8584C1.00953 4.70969 1.01662 4.65547 1.01758 4.6416C1.02293 4.56337 1.00314 4.45662 0.868164 3.95215L0.0214844 0.786133C-0.0360588 0.570605 0.0248683 0.340372 0.182617 0.182617C0.340369 0.0248663 0.570604 -0.0360554 0.786133 0.0214844L3.95215 0.868164C4.4566 1.00314 4.56337 1.02293 4.6416 1.01758C4.65548 1.01662 4.7097 1.00952 4.8584 0.955078C5.00435 0.901625 5.1945 0.820862 5.47559 0.702148C6.54692 0.249708 7.72413 4.59253e-05 8.95801 0ZM8.95801 1.25C7.8942 1.25005 6.88211 1.46491 5.96191 1.85352L5.94727 1.86035C5.68449 1.97134 5.46604 2.06276 5.28809 2.12793C5.10989 2.19319 4.92247 2.25117 4.72852 2.26465C4.41346 2.28645 4.08638 2.19864 3.71094 2.09766C3.68408 2.09043 3.65628 2.0835 3.62891 2.07617L1.50879 1.50879L2.07617 3.62891C2.08346 3.65613 2.09047 3.68324 2.09766 3.70996C2.1987 4.08559 2.28646 4.41334 2.26465 4.72852C2.25117 4.92247 2.19319 5.10989 2.12793 5.28809C2.06276 5.46604 1.97134 5.68448 1.86035 5.94727L1.85352 5.96191C1.46492 6.88211 1.25004 7.8942 1.25 8.95801C1.25 13.2151 4.70097 16.6668 8.95801 16.667C13.2152 16.667 16.667 13.2152 16.667 8.95801C16.6668 4.70096 13.2151 1.25 8.95801 1.25ZM11.3047 4.26172C11.6208 4.18998 11.9163 4.12284 12.3047 4.2041C12.5882 4.26346 12.8524 4.41391 13.0566 4.57715C13.2607 4.74032 13.4647 4.96433 13.585 5.22754C13.7506 5.59009 13.7507 5.9588 13.75 6.3584C13.75 6.38388 13.75 6.40981 13.75 6.43555C13.75 6.61919 13.7441 6.929 13.625 7.21484C13.4827 7.55628 13.189 7.83717 12.7295 7.90918L12.7246 7.91016C12.1552 7.99939 11.7222 8.0678 11.416 8.1123C11.2629 8.13456 11.1356 8.15179 11.0361 8.16309C10.9544 8.17237 10.842 8.18419 10.748 8.17871C10.3401 8.15484 10.015 7.98863 9.76367 7.81641C9.60399 7.70692 9.43043 7.56059 9.29395 7.44531C9.24027 7.39998 9.19245 7.35866 9.15332 7.32715L8.58496 6.87012C8.2665 7.10831 7.95862 7.37342 7.66602 7.66602C7.37341 7.95862 7.10832 8.2665 6.87012 8.58496L7.32715 9.15332C7.35862 9.19241 7.39906 9.24034 7.44434 9.29395C7.55977 9.43062 7.7068 9.60471 7.81641 9.76465C7.98859 10.0159 8.15385 10.3402 8.17773 10.748C8.18323 10.842 8.17237 10.9544 8.16309 11.0361C8.15178 11.1356 8.13458 11.2637 8.1123 11.417C8.06779 11.7232 7.99939 12.1562 7.91016 12.7256L7.90918 12.7305C7.83707 13.1896 7.55607 13.4827 7.21484 13.625C6.929 13.7441 6.61919 13.75 6.43555 13.75C6.40975 13.75 6.38394 13.75 6.3584 13.75C5.95882 13.7507 5.59007 13.7515 5.22754 13.5859C4.96408 13.4656 4.73941 13.2608 4.57617 13.0566C4.41297 12.8524 4.26345 12.5881 4.2041 12.3047C4.12287 11.9163 4.18997 11.6209 4.26172 11.3047C4.26502 11.2902 4.26818 11.2754 4.27148 11.2607C4.63359 9.65719 5.4799 8.08455 6.78223 6.78223C8.08455 5.47994 9.65721 4.63357 11.2607 4.27148C11.2753 4.26819 11.2902 4.265 11.3047 4.26172ZM6.16602 9.7041C5.85586 10.3002 5.62991 10.9175 5.49023 11.5361C5.4075 11.9025 5.40655 11.9476 5.42773 12.0488C5.43555 12.0862 5.47157 12.1748 5.55273 12.2764C5.63387 12.3778 5.71237 12.4324 5.74707 12.4482C5.83298 12.4875 5.91532 12.5 6.43555 12.5C6.51718 12.5 6.58374 12.4978 6.63965 12.4912C6.65623 12.4893 6.67072 12.4865 6.68262 12.4844C6.76865 11.9354 6.83293 11.5257 6.875 11.2363C6.8967 11.087 6.91184 10.9753 6.9209 10.8955C6.9272 10.8401 6.92909 10.8134 6.92969 10.8066C6.92113 10.7128 6.88095 10.6105 6.78516 10.4707C6.71057 10.3619 6.63723 10.2754 6.5459 10.168C6.49006 10.1023 6.4271 10.0289 6.35352 9.9375L6.16602 9.7041ZM12.0488 5.42773C11.9476 5.40654 11.9026 5.40846 11.5361 5.49121C10.9175 5.63091 10.2993 5.8558 9.70312 6.16602L9.93652 6.35352C10.028 6.42715 10.1022 6.49003 10.168 6.5459C10.2754 6.63724 10.3619 6.71056 10.4707 6.78516C10.6106 6.881 10.7127 6.92116 10.8066 6.92969C10.8134 6.92909 10.84 6.9272 10.8955 6.9209C10.9753 6.91183 11.087 6.8967 11.2363 6.875C11.5257 6.83293 11.9354 6.76866 12.4844 6.68262C12.4865 6.67087 12.4883 6.65692 12.4902 6.64062C12.4969 6.58463 12.5 6.5174 12.5 6.43555C12.5 5.91532 12.4875 5.833 12.4482 5.74707C12.4324 5.71236 12.3769 5.6339 12.2754 5.55273C12.1741 5.47189 12.0862 5.43558 12.0488 5.42773Z" fill="var(--fill-0, #002EC1)"/>
</g>
</svg>
