<svg width="75" height="75" viewBox="0 0 75 75" fill="none" xmlns="http://www.w3.org/2000/svg">
<path d="M37.5 0.5C57.9345 0.5 74.5 17.0655 74.5 37.5C74.5 57.9345 57.9345 74.5 37.5 74.5C17.0655 74.5 0.5 57.9345 0.5 37.5C0.5 17.0655 17.0655 0.5 37.5 0.5Z" fill="#EBF1FF"/>
<path d="M37.5 0.5C57.9345 0.5 74.5 17.0655 74.5 37.5C74.5 57.9345 57.9345 74.5 37.5 74.5C17.0655 74.5 0.5 57.9345 0.5 37.5C0.5 17.0655 17.0655 0.5 37.5 0.5Z" stroke="white"/>
<path d="M59.991 57.313C59.991 64.8948 15.0098 64.8948 15.0098 57.313C15.0098 49.7313 32.7596 46.7832 37.5002 46.7832C42.2411 46.7832 59.991 49.7313 59.991 57.313Z" fill="#CFE1FF"/>
<path d="M37.5023 50.6819C35.3014 50.6819 33.5176 48.8977 33.5176 46.6971V37.6191H41.487V46.6971C41.487 48.898 39.7032 50.6819 37.5023 50.6819Z" fill="#A0C4FF"/>
<path d="M41.4843 44.3657V40.8906H33.5156V44.3657C34.7465 44.8663 36.0941 45.1411 37.5019 45.1411C38.9097 45.1411 40.2535 44.8663 41.4843 44.3657Z" fill="#80B1FF"/>
<path d="M37.501 42.5612C31.6357 42.5612 26.8809 37.8063 26.8809 31.941V23.5108C26.8809 17.6455 31.6357 12.8906 37.501 12.8906C43.3663 12.8906 48.1212 17.6455 48.1212 23.5108V31.941C48.1212 37.8063 43.3663 42.5612 37.501 42.5612Z" fill="#A0C4FF"/>
<path d="M25.811 33.668C27.4153 33.668 28.7158 32.3675 28.7158 30.7632C28.7158 29.1589 27.4153 27.8584 25.811 27.8584C24.2068 27.8584 22.9062 29.1589 22.9062 30.7632C22.9062 32.3675 24.2068 33.668 25.811 33.668Z" fill="#A0C4FF"/>
<path d="M23.737 30.9502C23.6331 30.9502 23.5488 30.8659 23.5488 30.762C23.5488 29.5142 24.564 28.499 25.8115 28.499C25.9154 28.499 25.9997 28.5833 25.9997 28.6872C25.9997 28.7911 25.9154 28.8754 25.8115 28.8754C24.7714 28.8754 23.9252 29.7216 23.9252 30.762C23.9252 30.8659 23.8409 30.9502 23.737 30.9502Z" fill="#0E2443"/>
<path d="M49.1919 33.668C50.7962 33.668 52.0967 32.3675 52.0967 30.7632C52.0967 29.1589 50.7962 27.8584 49.1919 27.8584C47.5876 27.8584 46.2871 29.1589 46.2871 30.7632C46.2871 32.3675 47.5876 33.668 49.1919 33.668Z" fill="#A0C4FF"/>
<path d="M51.2665 30.9502C51.1627 30.9502 51.0783 30.8659 51.0783 30.762C51.0783 29.7216 50.2321 28.8754 49.1921 28.8754C49.0882 28.8754 49.0039 28.7911 49.0039 28.6872C49.0039 28.5833 49.0882 28.499 49.1921 28.499C50.4396 28.499 51.4548 29.5142 51.4548 30.762C51.4548 30.8659 51.3704 30.9502 51.2665 30.9502Z" fill="#0E2443"/>
<path d="M26.7846 20.4152C23.2166 27.3856 34.9329 24.4259 35.3074 19.9047C35.9665 23.0809 40.4786 23.7732 41.1226 20.0832C41.7851 25.085 49.0394 27.7338 48.8934 20.8356C49.001 15.372 43.5942 14.3127 42.1676 13.9062C38.7516 10.5779 24.5352 10.9427 26.7846 20.4152Z" fill="#0E2443"/>
</svg>
