<svg width="32" height="40" viewBox="0 0 32 40" fill="none" xmlns="http://www.w3.org/2000/svg">
<path d="M28.1053 11.247C28.106 10.0379 27.8078 8.84743 27.2374 7.78139C26.6669 6.71536 25.8417 5.80686 24.8353 5.13672L24.0938 6.2467C25.1754 6.96889 25.9939 8.02208 26.4267 9.24851C26.8595 10.4749 26.8833 11.8086 26.4946 13.0497L27.7684 13.4503C27.9922 12.7373 28.1058 11.9943 28.1053 11.247Z" fill="#4B5563"/>
<path d="M27.1212 14.9197L25.9655 14.251C25.4534 15.1343 24.7262 15.8736 23.8516 16.4003L24.5397 17.5445C25.6079 16.9014 26.496 15.9985 27.1212 14.9197Z" fill="#4B5563"/>
<path d="M23.6501 9.57713L24.8058 8.90839C24.4453 8.28739 23.9478 7.75691 23.3511 7.35742L22.6094 8.4674C23.0362 8.75327 23.3922 9.13282 23.6501 9.57713Z" fill="#4B5563"/>
<path d="M25.4331 11.2469C25.4331 10.9862 25.4115 10.7259 25.3685 10.4688L24.0516 10.6898C24.0823 10.8739 24.0978 11.0603 24.0978 11.2469C24.1 11.8239 23.9516 12.3914 23.6673 12.8935C23.3829 13.3955 22.9725 13.8147 22.4766 14.1095L23.1647 15.2538C23.8547 14.8365 24.4258 14.2487 24.823 13.547C25.2203 12.8453 25.4304 12.0532 25.4331 11.2469Z" fill="#4B5563"/>
<path d="M21.1016 11.8179L21.7897 12.9622C22.0794 12.7886 22.3204 12.5446 22.4903 12.2528C22.6602 11.961 22.7536 11.631 22.7617 11.2934C22.7698 10.9559 22.6923 10.6218 22.5366 10.3222C22.3808 10.0226 22.1518 9.76733 21.8708 9.58008L21.129 10.6901C21.2229 10.7523 21.2995 10.8374 21.3515 10.9373C21.4036 11.0373 21.4295 11.1488 21.4267 11.2614C21.424 11.374 21.3927 11.4841 21.3359 11.5814C21.279 11.6787 21.1984 11.7599 21.1016 11.8176V11.8179Z" fill="#4B5563"/>
<path d="M1.39844 11.2469C1.39778 11.9941 1.51125 12.7371 1.73494 13.4501L3.00916 13.0495C2.62046 11.8084 2.64434 10.4748 3.07721 9.24838C3.51009 8.02197 4.32865 6.96883 5.4103 6.2467L4.6687 5.13672C3.66229 5.80681 2.8371 6.71526 2.26655 7.78127C1.69601 8.84727 1.39779 10.0378 1.39844 11.2469Z" fill="#4B5563"/>
<path d="M4.96431 17.5445L5.65249 16.4003C4.77783 15.8736 4.05062 15.1343 3.53853 14.251L2.38281 14.9194C3.00802 15.9982 3.89608 16.9013 4.96431 17.5445Z" fill="#4B5563"/>
<path d="M6.89173 8.46862L6.14997 7.35864C5.55332 7.75813 5.05578 8.28861 4.69531 8.90961L5.85102 9.57835C6.10893 9.13404 6.46488 8.75449 6.89173 8.46862Z" fill="#4B5563"/>
<path d="M7.02686 14.1095C6.53091 13.8147 6.12048 13.3955 5.83615 12.8935C5.55181 12.3914 5.40342 11.8239 5.40563 11.2469C5.40563 11.0603 5.42109 10.8739 5.45186 10.6898L4.13491 10.4688C3.97932 11.3955 4.10632 12.3476 4.49938 13.2011C4.89244 14.0546 5.53335 14.7701 6.33868 15.2543L7.02686 14.1095Z" fill="#4B5563"/>
<path d="M7.7147 12.9618L8.40289 11.8176C8.30608 11.7599 8.22547 11.6787 8.1686 11.5814C8.11173 11.4841 8.08046 11.374 8.07772 11.2614C8.07497 11.1488 8.10085 11.0373 8.15291 10.9373C8.20498 10.8374 8.28154 10.7523 8.37543 10.6901L7.63366 9.58008C7.35269 9.76733 7.12366 10.0226 6.96789 10.3222C6.81212 10.6218 6.73467 10.9559 6.74276 11.2934C6.75085 11.631 6.84421 11.961 7.01415 12.2528C7.18409 12.5446 7.42508 12.7886 7.7147 12.9622V12.9618Z" fill="#4B5563"/>
<path d="M9.41406 10.9633C9.41406 12.0197 9.72732 13.0524 10.3142 13.9308C10.9011 14.8091 11.7353 15.4937 12.7113 15.898C13.6873 16.3023 14.7612 16.408 15.7973 16.2019C16.8334 15.9958 17.7852 15.4871 18.5321 14.7402C19.2791 13.9932 19.7878 13.0414 19.9939 12.0053C20.2 10.9692 20.0943 9.8953 19.69 8.91931C19.2857 7.94333 18.6011 7.10914 17.7228 6.52223C16.8444 5.93533 15.8117 5.62207 14.7553 5.62207C13.3392 5.62366 11.9816 6.18691 10.9802 7.18824C9.9789 8.18958 9.41565 9.54722 9.41406 10.9633ZM18.7613 10.9633C18.7613 11.7556 18.5263 12.5301 18.0861 13.1889C17.646 13.8477 17.0203 14.3611 16.2883 14.6643C15.5563 14.9675 14.7509 15.0469 13.9738 14.8923C13.1967 14.7377 12.4829 14.3562 11.9227 13.7959C11.3624 13.2357 10.9809 12.5219 10.8263 11.7448C10.6718 10.9678 10.7511 10.1623 11.0543 9.43031C11.3575 8.69833 11.871 8.07268 12.5297 7.63251C13.1885 7.19233 13.963 6.95738 14.7553 6.95738C15.8174 6.95855 16.8356 7.38098 17.5866 8.13199C18.3377 8.88299 18.7601 9.90124 18.7613 10.9633Z" fill="#4B5563"/>
<path d="M12.75 8.95965V12.9656C12.75 13.1427 12.8203 13.3125 12.9456 13.4377C13.0708 13.5629 13.2406 13.6332 13.4177 13.6332C13.5947 13.6332 13.7646 13.5629 13.8898 13.4377C14.015 13.3125 14.0853 13.1427 14.0853 12.9656V11.6303H15.0868C15.5295 11.6303 15.954 11.4544 16.2671 11.1414C16.5801 10.8284 16.7559 10.4038 16.7559 9.96113C16.7559 9.51845 16.5801 9.0939 16.2671 8.78087C15.954 8.46785 15.5295 8.29199 15.0868 8.29199H13.4177C13.2406 8.29199 13.0708 8.36233 12.9456 8.48754C12.8203 8.61275 12.75 8.78258 12.75 8.95965ZM14.0853 9.6273H15.0868C15.1753 9.6273 15.2602 9.66248 15.3228 9.72508C15.3855 9.78769 15.4206 9.8726 15.4206 9.96113C15.4206 10.0497 15.3855 10.1346 15.3228 10.1972C15.2602 10.2598 15.1753 10.295 15.0868 10.295H14.0853V9.6273Z" fill="#4B5563"/>
<path d="M25.9348 24.9838H22.3723L19.2296 21.841C19.1676 21.779 19.094 21.7299 19.013 21.6963C18.932 21.6628 18.8452 21.6455 18.7575 21.6455H8.075C7.98732 21.6455 7.9005 21.6628 7.81949 21.6963C7.73849 21.7299 7.66488 21.779 7.60288 21.841L4.34122 25.1027L1.76748 26.3896C1.65659 26.4451 1.56333 26.5303 1.49815 26.6358C1.43297 26.7412 1.39844 26.8628 1.39844 26.9868V30.325C1.39844 30.4349 1.42557 30.5432 1.47743 30.6401C1.52929 30.737 1.60427 30.8196 1.69571 30.8805L3.69868 32.2158C3.80837 32.289 3.93724 32.328 4.06906 32.328H4.8039C4.95754 33.0822 5.36707 33.7601 5.96317 34.2471C6.55927 34.734 7.30531 34.9999 8.075 34.9999C8.84469 34.9999 9.59073 34.734 10.1868 34.2471C10.7829 33.7601 11.1925 33.0822 11.3461 32.328H20.8277C20.9813 33.0822 21.3908 33.7601 21.9869 34.2471C22.583 34.734 23.3291 34.9999 24.0988 34.9999C24.8684 34.9999 25.6145 34.734 26.2106 34.2471C26.8067 33.7601 27.2162 33.0822 27.3699 32.328H29.44C29.6171 32.328 29.7869 32.2577 29.9121 32.1325C30.0373 32.0072 30.1077 31.8374 30.1077 31.6604V29.1566C30.1064 28.0503 29.6664 26.9897 28.8841 26.2074C28.1018 25.4251 27.0411 24.985 25.9348 24.9838ZM12.7486 22.9808H18.481L20.484 24.9838H12.7486V22.9808ZM8.35149 22.9808H11.4133V24.9838H6.34861L8.35149 22.9808ZM8.075 33.6633C7.67885 33.6633 7.2916 33.5458 6.96221 33.3258C6.63282 33.1057 6.3761 32.7928 6.2245 32.4269C6.0729 32.0609 6.03323 31.6581 6.11052 31.2696C6.1878 30.8811 6.37857 30.5242 6.65869 30.244C6.93881 29.9639 7.2957 29.7732 7.68424 29.6959C8.07278 29.6186 8.47551 29.6583 8.8415 29.8099C9.2075 29.9615 9.52032 30.2182 9.74041 30.5476C9.9605 30.877 10.078 31.2642 10.078 31.6604C10.0774 32.1914 9.86613 32.7005 9.49063 33.076C9.11513 33.4515 8.60603 33.6627 8.075 33.6633ZM24.0988 33.6633C23.7026 33.6633 23.3153 33.5458 22.986 33.3258C22.6566 33.1057 22.3999 32.7928 22.2483 32.4269C22.0967 32.0609 22.057 31.6581 22.1343 31.2696C22.2116 30.8811 22.4023 30.5242 22.6824 30.244C22.9626 29.9639 23.3195 29.7732 23.708 29.6959C24.0965 29.6186 24.4993 29.6583 24.8653 29.8099C25.2312 29.9615 25.5441 30.2182 25.7642 30.5476C25.9842 30.877 26.1017 31.2642 26.1017 31.6604C26.1011 32.1914 25.8899 32.7005 25.5144 33.076C25.1389 33.4515 24.6298 33.6627 24.0988 33.6633ZM28.7723 30.9927H27.3703C27.2166 30.2385 26.8071 29.5606 26.211 29.0737C25.6149 28.5867 24.8689 28.3208 24.0992 28.3208C23.3295 28.3208 22.5834 28.5867 21.9873 29.0737C21.3912 29.5606 20.9817 30.2385 20.8281 30.9927H11.3465C11.1929 30.2385 10.7833 29.5606 10.1872 29.0737C9.59114 28.5867 8.8451 28.3208 8.07542 28.3208C7.30573 28.3208 6.55969 28.5867 5.96359 29.0737C5.36749 29.5606 4.95796 30.2385 4.80432 30.9927H4.27161L2.73375 29.9678V27.3994L4.89437 26.3191H25.9348C26.6871 26.3199 27.4084 26.6192 27.9403 27.1511C28.4723 27.6831 28.7715 28.4043 28.7723 29.1566V30.9927Z" fill="#4B5563"/>
<path d="M18.0925 27.6543H15.4219V28.9896H18.0925V27.6543Z" fill="#4B5563"/>
</svg>
