<svg width="38" height="38" viewBox="0 0 38 38" fill="none" xmlns="http://www.w3.org/2000/svg">
<g clip-path="url(#clip0_17269_4084)">
<path d="M37.5828 19.0004C37.5828 29.2723 29.2703 37.5848 18.9984 37.5848C8.72656 37.5848 0.414062 29.2723 0.414062 19.0004C0.414062 8.72852 8.72656 0.416016 18.9984 0.416016C29.2703 0.416016 37.5828 8.72852 37.5828 19.0004ZM18.9984 1.54414C9.32031 1.54414 1.54219 9.32227 1.54219 19.0004C1.54219 28.6785 9.37969 36.4566 18.9984 36.4566C28.6766 36.4566 36.4547 28.6191 36.4547 19.0004C36.4547 9.32227 28.6766 1.54414 18.9984 1.54414Z" fill="url(#paint0_linear_17269_4084)"/>
<path d="M18.9992 1.54395C9.32109 1.54395 1.54297 9.32207 1.54297 19.0002C1.54297 28.6783 9.38047 36.4564 18.9992 36.4564C28.6773 36.4564 36.4555 28.6189 36.4555 19.0002C36.4555 9.32207 28.6773 1.54395 18.9992 1.54395ZM18.9992 35.3283C9.97422 35.3283 2.67109 28.0252 2.67109 19.0002C2.67109 9.97519 9.97422 2.67207 18.9992 2.67207C28.0242 2.67207 35.3273 9.97519 35.3273 19.0002C35.3273 28.0252 28.0242 35.3283 18.9992 35.3283Z" fill="url(#paint1_linear_17269_4084)"/>
<path opacity="0.4" d="M19 37.5844C29.2719 37.5844 37.5844 29.2719 37.5844 19C37.5844 8.72813 29.2719 0.415625 19 0.415625C8.72813 0.415625 0.415625 8.72813 0.415625 19C0.415625 29.2719 8.72813 37.5844 19 37.5844ZM19 0C29.45 0 38 8.55 38 19C38 29.45 29.45 38 19 38C8.55 38 0 29.45 0 19C0 8.55 8.55 0 19 0Z" fill="url(#paint2_linear_17269_4084)"/>
<path d="M1.30469 19.0598C1.30469 9.32226 9.20156 1.30664 18.9984 1.30664C28.7953 1.30664 36.6922 9.26289 36.6922 19.0598C36.6922 28.7973 28.7953 36.6941 18.9984 36.6941C9.20156 36.6941 1.30469 28.7973 1.30469 19.0598ZM6.82656 6.82852C3.67969 9.97539 1.72031 14.3098 1.72031 19.0598C1.72031 23.8098 3.67969 28.1441 6.76719 31.2316C9.91406 34.3191 14.2484 36.2785 18.9984 36.2785C23.7484 36.2785 28.0828 34.3785 31.1703 31.2316C34.3172 28.1441 36.2172 23.8098 36.2172 19.0598C36.2172 14.3098 34.2578 9.97539 31.1703 6.82852C28.0828 3.68164 23.7484 1.72227 18.9984 1.72227C14.2484 1.72227 9.91406 3.68164 6.82656 6.82852Z" fill="white"/>
<path opacity="0.4" d="M19.0008 35.3873C14.607 35.3873 10.5102 33.6654 7.42266 30.5779C4.33516 27.4904 2.61328 23.3936 2.61328 18.9998C2.61328 14.6061 4.33516 10.5092 7.42266 7.42168C10.5102 4.33418 14.607 2.6123 19.0008 2.6123C23.3945 2.6123 27.4914 4.33418 30.5789 7.42168C33.6664 10.5092 35.3883 14.6061 35.3883 18.9998C35.3883 23.3936 33.6664 27.4904 30.5789 30.5779C27.4914 33.6654 23.3945 35.3873 19.0008 35.3873ZM19.0008 34.9123C23.2164 34.9123 27.2539 33.2498 30.2227 30.2811C33.2508 27.2529 34.8539 23.2748 34.8539 19.0592C34.8539 14.8436 33.1914 10.8061 30.2227 7.8373C27.1945 4.80918 23.2164 3.20605 19.0008 3.20605C14.7852 3.20605 10.7477 4.86855 7.77891 7.8373C4.75078 10.7467 3.08828 14.7842 3.08828 18.9998C3.08828 23.2154 4.75078 27.2529 7.71953 30.2217C10.7477 33.2498 14.7852 34.9123 19.0008 34.9123Z" fill="url(#paint3_linear_17269_4084)"/>
<path d="M33.4297 26.7189C33.1328 26.4814 21.6734 17.3971 21.6734 17.3971L19.0016 2.1377C18.8234 2.19707 18.5859 2.3752 18.4672 2.6127L16.5672 17.4564L4.75156 26.5408C4.75156 26.5408 4.51406 26.8377 4.39531 27.0158C4.33594 27.1346 4.33594 27.3127 4.33594 27.4908L18.9422 21.4939L33.5484 27.4908C33.6672 27.1939 33.5484 26.8971 33.4297 26.7189Z" fill="white"/>
<path d="M19.1188 19.4746L19 22.2058L32.4187 27.609C32.8937 27.8465 33.25 27.7277 33.6062 27.4902L19.2969 19.4152C19.2375 19.3558 19.1188 19.4152 19.1188 19.4746Z" fill="#565F64"/>
<path d="M19.1172 19.4746C19.1172 19.4746 19.8891 20.8402 20.7797 21.7902C22.0266 23.1558 23.6891 24.1058 23.6891 24.1058L32.4172 27.609C32.8922 27.8465 33.2484 27.7277 33.6047 27.4902L19.2953 19.4152C19.2359 19.3558 19.1172 19.4152 19.1172 19.4746Z" fill="url(#paint4_linear_17269_4084)"/>
<path d="M33.5477 26.9561C33.5477 26.8967 33.4883 26.8373 33.4289 26.7186L21.1977 17.7529L19.5352 18.8217C19.5352 18.8217 19.6539 18.8811 19.7133 18.8217C19.8914 18.7623 20.2477 18.7029 20.6039 18.8217C20.9008 18.9404 33.5477 27.0154 33.5477 26.9561C33.5477 27.0154 33.5477 27.0154 33.5477 26.9561Z" fill="#A4AAAE" fill-opacity="0.6"/>
<path d="M33.1297 26.4215L21.7297 17.3965L21.1953 17.7527L33.4266 26.7777C33.3672 26.659 33.2484 26.5402 33.1297 26.4215Z" fill="#333E46"/>
<path d="M19.2977 18.5848L19.2383 18.6441C19.2383 18.6441 19.2383 18.7629 19.357 18.7035C19.4164 18.6441 21.1383 17.7535 21.732 17.3973L19.6539 3.14727C19.5945 2.61289 19.357 2.37539 18.9414 2.19727L19.1789 18.7035L19.2977 18.5848Z" fill="#565F64"/>
<path d="M18.2883 3.14727V3.91914L16.982 17.041C16.982 17.2191 17.0414 17.3973 17.2195 17.516L17.9914 18.1098L18.5258 3.62227L18.5852 2.49414C18.407 2.61289 18.3477 2.85039 18.2883 3.14727ZM17.5758 18.3473L16.8633 17.7535L4.81016 26.4816C4.81016 26.4816 4.45391 26.7191 4.39453 26.9566L4.81016 26.7191L17.457 18.7629C17.6945 18.6441 17.7539 18.5254 17.5758 18.3473Z" fill="#A4AAAE" fill-opacity="0.6"/>
<path d="M18.8234 19.4746C18.8234 19.4152 18.7641 19.3558 18.7047 19.4152L4.33594 27.5496C4.69219 27.7871 5.04844 27.8465 5.52344 27.6683L18.9422 22.2652L18.8234 19.4746Z" fill="#565F64"/>
<path d="M19.2383 18.6436C19.2383 18.6436 19.2383 18.7029 19.2977 18.7029H19.357C19.4164 18.6436 21.1383 17.7529 21.732 17.3967L21.4945 15.6748L19.6539 3.14668C19.6539 2.90918 19.5945 2.73105 19.4758 2.6123C19.4758 2.6123 20.3664 14.6061 20.3664 15.9123C20.3664 17.6342 19.2383 18.6436 19.2383 18.6436Z" fill="url(#paint5_linear_17269_4084)"/>
<path d="M18.8234 19.4746C18.8234 19.4152 18.7641 19.3558 18.7047 19.4152L4.33594 27.5496C4.69219 27.7871 5.04844 27.8465 5.52344 27.6683L18.9422 22.2652L18.8234 19.4746Z" fill="url(#paint6_linear_17269_4084)" fill-opacity="0.8"/>
<path opacity="0.8" d="M5.52031 27.6094L18.9391 22.2063L18.8203 19.5938C18.5828 20.3062 18.1672 21.0781 17.0391 21.6719C16.2078 22.1469 8.25156 26.0656 5.40156 27.4312C5.22344 27.55 4.98594 27.6094 4.86719 27.6687C5.10469 27.7875 5.28281 27.7281 5.52031 27.6094Z" fill="url(#paint7_linear_17269_4084)"/>
<path d="M19.2977 18.5848L19.2383 18.6441C19.2383 18.6441 19.2383 18.7629 19.357 18.7035C19.4164 18.6441 21.1383 17.7535 21.732 17.3973L19.6539 3.14727C19.5945 2.61289 19.357 2.37539 18.9414 2.19727L19.1789 18.7035L19.2977 18.5848Z" fill="url(#paint8_linear_17269_4084)"/>
<path d="M19.2977 18.5848L19.2383 18.6441C19.2383 18.6441 19.2383 18.7629 19.357 18.7035C19.4164 18.6441 21.1383 17.7535 21.732 17.3973L19.6539 3.14727C19.5945 2.61289 19.357 2.37539 18.9414 2.19727L19.1789 18.7035L19.2977 18.5848Z" fill="url(#paint9_linear_17269_4084)"/>
<path d="M3.02656 26.3625C2.61094 25.4125 0.235938 20.7812 2.84844 11.875H1.83906C1.30469 13.6562 0.889063 14.725 0.651563 16.3281C0.651563 16.3281 0.532813 16.9219 0.473438 17.575C0.414063 18.2281 0.414062 18.5844 0.414062 19C0.414062 22.5625 1.30469 24.6406 1.30469 24.6406C2.25469 27.6094 3.91719 30.2812 6.17344 32.3C8.13281 34.0219 11.1609 35.3281 13.6547 35.8031C13.2391 35.7437 6.11406 32.7156 3.02656 26.3625Z" fill="url(#paint10_linear_17269_4084)"/>
<path d="M19.2375 19.3566H18.7031C18.7625 19.3566 18.8219 19.3566 18.8219 19.416L18.9406 22.1473H19L19.1188 19.416C19.1188 19.3566 19.1781 19.2972 19.2375 19.3566Z" fill="url(#paint11_linear_17269_4084)"/>
<path d="M24.9375 1.36523C31.1719 3.74023 37.05 10.2715 37.05 18.5246C37.05 28.4996 29.0938 36.634 19 36.634V37.584C29.0938 37.584 37.5844 29.2715 37.5844 18.9996C37.5844 10.8059 32.3594 3.91836 24.9375 1.36523Z" fill="url(#paint12_linear_17269_4084)"/>
<path d="M34.9125 11.9937C30.7562 2.43433 21.375 1.89995 20.8406 1.84058H20.7812C27.9656 3.14683 32.5375 7.83745 34.1406 12.7656V12.825C34.8531 14.7249 35.2094 16.7437 35.2688 18.9406C35.3281 21.0187 34.8531 23.3343 33.9625 25.4718C33.9031 25.7687 33.8438 26.125 33.7844 26.125H34.7344C37.5844 20.7812 36.3375 15.3781 34.9125 11.9937Z" fill="url(#paint13_linear_17269_4084)"/>
<path d="M1.30469 19.0598C1.30469 9.32226 9.20156 1.30664 18.9984 1.30664C28.7953 1.30664 36.6922 9.26289 36.6922 19.0598C36.6922 28.7973 28.7953 36.6941 18.9984 36.6941C9.20156 36.6941 1.30469 28.7973 1.30469 19.0598ZM6.82656 6.82852C3.67969 9.97539 1.72031 14.3098 1.72031 19.0598C1.72031 23.8098 3.67969 28.1441 6.76719 31.2316C9.91406 34.3191 14.2484 36.2785 18.9984 36.2785C23.7484 36.2785 28.0828 34.3785 31.1703 31.2316C34.3172 28.1441 36.2172 23.8098 36.2172 19.0598C36.2172 14.3098 34.2578 9.97539 31.1703 6.82852C28.0828 3.68164 23.7484 1.72227 18.9984 1.72227C14.2484 1.72227 9.91406 3.68164 6.82656 6.82852Z" fill="#FBFBFB"/>
<path d="M4.69141 26.5998L16.8039 17.8717C17.457 18.2279 18.5258 18.7029 18.6445 18.7029C18.7633 18.7623 18.7633 18.6436 18.7633 18.6436L17.2789 17.3967C17.1008 17.2779 17.0414 17.0998 17.0414 16.9217L18.4664 2.6123C18.407 2.67168 18.407 2.79043 18.3477 2.8498C18.2883 2.96855 18.2883 3.02793 18.2883 3.14668L16.2102 17.4561L4.81016 26.4217C4.75078 26.4811 4.69141 26.5404 4.69141 26.5998Z" fill="#333F47"/>
</g>
<defs>
<linearGradient id="paint0_linear_17269_4084" x1="4.74725" y1="7.06483" x2="33.2496" y2="30.936" gradientUnits="userSpaceOnUse">
<stop stop-color="white"/>
<stop offset="0.1" stop-color="#CDD0D0"/>
<stop offset="0.2" stop-color="#A5ACAF"/>
<stop offset="0.3" stop-color="#98A0A4"/>
<stop offset="0.4" stop-color="#828A8F"/>
<stop offset="0.5" stop-color="#667075"/>
<stop offset="0.6" stop-color="#535C63"/>
<stop offset="0.7" stop-color="#475158"/>
<stop offset="0.8" stop-color="#434D54"/>
<stop offset="1" stop-color="#475157"/>
</linearGradient>
<linearGradient id="paint1_linear_17269_4084" x1="5.62262" y1="7.75398" x2="32.3414" y2="30.1977" gradientUnits="userSpaceOnUse">
<stop stop-color="#0B1F2A"/>
<stop offset="0.2" stop-color="#333F47"/>
<stop offset="0.5" stop-color="#81898D"/>
<stop offset="0.7" stop-color="#B3B8B8"/>
<stop offset="0.8" stop-color="#DEE0DD"/>
<stop offset="1" stop-color="#FBFBFB"/>
</linearGradient>
<linearGradient id="paint2_linear_17269_4084" x1="25.4938" y1="36.8499" x2="12.4907" y2="1.10675" gradientUnits="userSpaceOnUse">
<stop stop-color="#E1E3E1"/>
<stop offset="0.1" stop-color="#C1C5C4"/>
<stop offset="0.3" stop-color="#9BA1A2"/>
<stop offset="0.5" stop-color="#7D8487"/>
<stop offset="0.7" stop-color="#687074" stop-opacity="0"/>
<stop offset="0.8" stop-color="#5B6469" stop-opacity="0"/>
<stop offset="1" stop-color="#576065" stop-opacity="0"/>
</linearGradient>
<linearGradient id="paint3_linear_17269_4084" x1="10.8076" y1="4.80977" x2="27.1939" y2="33.1898" gradientUnits="userSpaceOnUse">
<stop stop-color="#E1E3E1"/>
<stop offset="0.1" stop-color="#C1C5C4"/>
<stop offset="0.3" stop-color="#9BA1A2"/>
<stop offset="0.5" stop-color="#7D8487"/>
<stop offset="0.7" stop-color="#687074" stop-opacity="0"/>
<stop offset="0.8" stop-color="#5B6469" stop-opacity="0"/>
<stop offset="1" stop-color="#576065" stop-opacity="0"/>
</linearGradient>
<linearGradient id="paint4_linear_17269_4084" x1="26.4132" y1="23.3892" x2="25.4038" y2="25.0517" gradientUnits="userSpaceOnUse">
<stop stop-color="#27343C"/>
<stop offset="1" stop-color="#00111E" stop-opacity="0"/>
</linearGradient>
<linearGradient id="paint5_linear_17269_4084" x1="23.5014" y1="17.2851" x2="21.8389" y2="14.6132" gradientUnits="userSpaceOnUse">
<stop offset="0.1" stop-color="#02131F"/>
<stop offset="0.9" stop-color="#02131F" stop-opacity="0"/>
</linearGradient>
<linearGradient id="paint6_linear_17269_4084" x1="18.9909" y1="21.5741" x2="16.4971" y2="22.2866" gradientUnits="userSpaceOnUse">
<stop offset="0.2" stop-color="#02131F"/>
<stop offset="0.9" stop-color="#02131F" stop-opacity="0"/>
</linearGradient>
<linearGradient id="paint7_linear_17269_4084" x1="12.3431" y1="24.8805" x2="11.9868" y2="23.9899" gradientUnits="userSpaceOnUse">
<stop stop-color="#02131F"/>
<stop offset="0.1" stop-color="#02131F"/>
<stop offset="1" stop-color="#02131F" stop-opacity="0"/>
</linearGradient>
<linearGradient id="paint8_linear_17269_4084" x1="21.1395" y1="10.2212" x2="19.1207" y2="10.4587" gradientUnits="userSpaceOnUse">
<stop offset="0.3" stop-color="#02131F"/>
<stop offset="0.8" stop-color="#02131F" stop-opacity="0"/>
</linearGradient>
<linearGradient id="paint9_linear_17269_4084" x1="21.2024" y1="10.1874" x2="19.8362" y2="10.3655" gradientUnits="userSpaceOnUse">
<stop offset="0.4" stop-color="#27343C"/>
<stop offset="1" stop-color="#3B474E" stop-opacity="0"/>
</linearGradient>
<linearGradient id="paint10_linear_17269_4084" x1="-0.215313" y1="19.4934" x2="16.3503" y2="29.0528" gradientUnits="userSpaceOnUse">
<stop stop-color="#25323B" stop-opacity="0"/>
<stop offset="0.1" stop-color="#27343C"/>
</linearGradient>
<linearGradient id="paint11_linear_17269_4084" x1="18.9703" y1="22.2066" x2="18.9703" y2="19.3566" gradientUnits="userSpaceOnUse">
<stop offset="0.3" stop-color="#A5ABAF"/>
<stop offset="1" stop-color="#A5ABAF" stop-opacity="0"/>
</linearGradient>
<linearGradient id="paint12_linear_17269_4084" x1="28.2922" y1="1.36523" x2="28.2922" y2="37.584" gradientUnits="userSpaceOnUse">
<stop stop-color="#6B7378"/>
<stop offset="0.2" stop-color="#333F47"/>
<stop offset="0.5" stop-color="#27343C"/>
<stop offset="0.8" stop-color="#333F47"/>
<stop offset="1" stop-color="#434D54"/>
</linearGradient>
<linearGradient id="paint13_linear_17269_4084" x1="34.0153" y1="4.80517" x2="25.9997" y2="16.5614" gradientUnits="userSpaceOnUse">
<stop offset="0.7" stop-color="#49545B"/>
<stop offset="0.8" stop-color="white" stop-opacity="0"/>
</linearGradient>
<clipPath id="clip0_17269_4084">
<rect width="38" height="38" fill="white"/>
</clipPath>
</defs>
</svg>
