<svg width="20" height="20" viewBox="0 0 20 20" fill="none" xmlns="http://www.w3.org/2000/svg">
<path opacity="0.4" d="M13.5334 3.0415H6.4667C4.40837 3.0415 2.7417 4.7165 2.7417 6.7665V14.6082C2.7417 16.6582 4.4167 18.3332 6.4667 18.3332H13.525C15.5834 18.3332 17.25 16.6582 17.25 14.6082V6.7665C17.2584 4.70817 15.5834 3.0415 13.5334 3.0415Z" fill="#002EC1"/>
<path d="M11.9582 1.6665H8.04155C7.17489 1.6665 6.46655 2.3665 6.46655 3.23317V4.0165C6.46655 4.88317 7.16655 5.58317 8.03322 5.58317H11.9582C12.8249 5.58317 13.5249 4.88317 13.5249 4.0165V3.23317C13.5332 2.3665 12.8249 1.6665 11.9582 1.6665Z" fill="#002EC1"/>
<path d="M9.00842 14.1252C8.85008 14.1252 8.69175 14.0669 8.56675 13.9419L7.31675 12.6919C7.07508 12.4502 7.07508 12.0502 7.31675 11.8085C7.55841 11.5669 7.95842 11.5669 8.20008 11.8085L9.00842 12.6169L11.9001 9.7252C12.1417 9.48353 12.5417 9.48353 12.7834 9.7252C13.0251 9.96686 13.0251 10.3669 12.7834 10.6085L9.45008 13.9419C9.33342 14.0669 9.16675 14.1252 9.00842 14.1252Z" fill="#002EC1"/>
</svg>
