<svg width="157" height="128" viewBox="0 0 157 128" fill="none" xmlns="http://www.w3.org/2000/svg">
<circle opacity="0.1" cx="78.873" cy="80.4069" r="47.0304" fill="#002EC1"/>
<circle cx="26.5327" cy="44.7549" r="3.03422" fill="#002EC1"/>
<circle cx="83.8036" cy="11.7578" r="6.44772" fill="#002EC1"/>
<circle cx="141.833" cy="72.0626" r="6.06844" fill="#002EC1"/>
<path d="M115.284 3.79297L116.863 8.28231L121.352 9.86141L116.863 11.4405L115.284 15.9299L113.704 11.4405L109.215 9.86141L113.704 8.28231L115.284 3.79297Z" fill="#002EC1"/>
<path d="M21.7185 59.5698C21.7185 59.5698 20.4696 64.6114 14.5547 64.8285C10.6114 64.9732 9.68374 60.8866 5.07733 63.6529C3.0259 64.8848 1.50037 68.6279 1.50037 68.6279" stroke="#002EC1" stroke-width="3" stroke-linecap="round"/>
<path d="M23.8777 88.751L26.0686 94.525L31.8426 96.7158L26.0686 98.9066L23.8777 104.681L21.6869 98.9066L15.9129 96.7158L21.6869 94.525L23.8777 88.751Z" fill="#002EC1"/>
<circle cx="76.5974" cy="2.2759" r="1.51711" fill="#002EC1"/>
<path d="M29.0543 2.85388C29.8 9.33647 44.8645 15.7978 45.2002 10.4941C45.7321 2.08955 25.4153 8.64246 53.1332 19.6559" stroke="#002EC1" stroke-width="3" stroke-linecap="round"/>
<path d="M140.316 101.502C144.081 100.968 152.292 101.868 155.009 109.745" stroke="#002EC1" stroke-width="3" stroke-linecap="round"/>
<path d="M136.583 28.3449C136.583 28.3449 142.089 31.1461 144.397 28.6356C146.502 26.3456 144.068 22.7716 146.614 20.9857C148.687 19.5325 153.077 20.4897 153.077 20.4897" stroke="#002EC1" stroke-width="3" stroke-linecap="round"/>
<rect x="134.247" y="56.1333" width="5.30989" height="5.30989" rx="2" fill="#002EC1"/>
<path d="M71.2197 49.979C76.1201 47.9493 81.6259 47.9493 86.5263 49.979L94.9765 53.479C99.8771 55.5089 103.771 59.4027 105.801 64.3032L109.301 72.7534C111.33 77.6539 111.33 83.1596 109.301 88.0601L105.801 96.5103C103.771 101.411 99.8771 105.305 94.9765 107.334L86.5263 110.834C81.6259 112.864 76.1201 112.864 71.2197 110.834L62.7695 107.334C57.8689 105.305 53.9751 101.411 51.9453 96.5103L48.4453 88.0601C46.4155 83.1596 46.4155 77.6538 48.4453 72.7534L51.9453 64.3032C53.9751 59.4027 57.8689 55.5089 62.7695 53.479L71.2197 49.979Z" fill="#FAFAFA" stroke="#002EC1" stroke-width="8"/>
<path fill-rule="evenodd" clip-rule="evenodd" d="M87.8835 71.2137C88.3081 70.7928 88.8814 70.5559 89.4793 70.5542C90.0772 70.5526 90.6517 70.7863 91.0787 71.2049C91.5057 71.6235 91.7507 72.1933 91.7609 72.7911C91.7711 73.3889 91.5456 73.9667 91.1332 74.3996L79.0205 89.5404C78.8124 89.7646 78.5611 89.9445 78.2818 90.0694C78.0025 90.1943 77.7009 90.2616 77.395 90.2673C77.0891 90.273 76.7851 90.2169 76.5014 90.1024C76.2177 89.9879 75.9599 89.8174 75.7436 89.6011L67.7181 81.5725C67.4945 81.3642 67.3152 81.1129 67.1908 80.8338C67.0664 80.5547 66.9995 80.2533 66.9941 79.9478C66.9887 79.6422 67.0449 79.3387 67.1594 79.0553C67.2739 78.772 67.4442 78.5146 67.6603 78.2985C67.8764 78.0824 68.1338 77.912 68.4172 77.7976C68.7005 77.6831 69.004 77.6269 69.3096 77.6323C69.6151 77.6377 69.9165 77.7046 70.1956 77.829C70.4748 77.9533 70.726 78.1327 70.9343 78.3562L77.288 84.7069L87.8258 71.2804C87.8447 71.2569 87.8649 71.2346 87.8865 71.2137H87.8835Z" fill="#002EC1"/>
</svg>
