<svg width="162" height="162" viewBox="0 0 162 162" fill="none" xmlns="http://www.w3.org/2000/svg">
<circle cx="81" cy="81" r="48" fill="#002EC1"/>
<path d="M15.3513 102.886C15.69 103.051 15.9222 103.317 16.0477 103.683C16.1689 104.036 16.1403 104.384 15.962 104.727C15.7963 105.066 15.5306 105.298 15.1649 105.424C14.8118 105.545 14.4595 105.525 14.1081 105.363C13.7693 105.198 13.5394 104.938 13.4182 104.585C13.2927 104.219 13.3106 103.861 13.472 103.509C13.6376 103.171 13.9033 102.939 14.2691 102.813C14.6348 102.688 14.9955 102.712 15.3513 102.886ZM24.7285 109.619L18.8869 112.981C17.974 113.506 17.3865 114.183 17.1245 115.011C16.8575 115.856 16.9469 116.667 17.3925 117.441C17.8381 118.215 18.4904 118.693 19.3492 118.876C20.2032 119.077 21.0867 118.914 21.9996 118.389L29.5746 114.029L30.7418 116.057L25.611 119.01C24.594 119.596 24.315 120.287 24.774 121.084L25.0234 121.518L23.0126 122.675L22.7632 122.242C22.4573 121.71 22.3945 121.2 22.5749 120.712C21.1728 121.349 19.7997 121.463 18.4555 121.052C17.1113 120.641 16.0867 119.823 15.3817 118.598C14.6169 117.269 14.4513 115.872 14.885 114.407C15.3072 112.949 16.252 111.797 17.7197 110.953L23.5612 107.591L24.7285 109.619ZM29.3852 108.969C29.7088 108.783 30.0526 108.739 30.4168 108.837C30.7809 108.935 31.0561 109.146 31.2423 109.47C31.4286 109.793 31.4726 110.137 31.3745 110.501C31.2831 110.877 31.0756 111.158 30.752 111.344C30.4284 111.53 30.0846 111.574 29.7205 111.476C29.3381 111.373 29.0538 111.16 28.8676 110.836C28.6814 110.513 28.6373 110.169 28.7354 109.805C28.8335 109.441 29.0501 109.162 29.3852 108.969ZM24.7038 120.911L25.5997 122.039C25.8817 122.394 26.2174 122.57 26.6068 122.567C27.0066 122.556 27.4206 122.38 27.8486 122.04L32.4679 118.37L33.9268 120.174L29.2918 123.856C28.8638 124.196 28.5992 124.56 28.4979 124.947C28.4071 125.326 28.5069 125.698 28.7972 126.063L29.7055 127.206L27.889 128.649L26.9808 127.506C26.284 126.629 26.0831 125.691 26.3779 124.69C25.3366 124.751 24.4717 124.348 23.7832 123.482L22.8874 122.355L24.7038 120.911ZM22.2085 124.554C22.5749 124.587 22.8742 124.749 23.1065 125.041C23.3304 125.323 23.422 125.642 23.3813 125.998C23.3384 126.373 23.176 126.672 22.8942 126.896C22.6123 127.12 22.2882 127.216 21.9218 127.183C21.5471 127.141 21.2478 126.978 21.0239 126.696C20.7999 126.414 20.7094 126.086 20.7523 125.711C20.8035 125.347 20.97 125.053 21.2518 124.829C21.5337 124.605 21.8526 124.514 22.2085 124.554ZM23.4665 127.616C23.7483 127.393 24.0725 127.297 24.4388 127.329C24.7948 127.37 25.0889 127.536 25.3211 127.829C25.5368 128.1 25.6284 128.419 25.5959 128.785C25.553 129.16 25.3907 129.459 25.1088 129.683C24.8269 129.907 24.4987 129.998 24.124 129.955C23.7493 129.912 23.4542 129.755 23.2385 129.484C23.0145 129.202 22.924 128.873 22.9669 128.499C23.0181 128.135 23.1846 127.84 23.4665 127.616ZM31.1661 128.436C30.9805 127.356 31.2744 126.411 32.0476 125.601C33.0049 124.598 34.1717 124.08 35.5478 124.048C36.9428 124.015 38.137 124.473 39.1305 125.421C40.1241 126.369 40.6323 127.536 40.6553 128.922C40.6971 130.307 40.2393 131.501 39.282 132.505C38.3339 133.498 37.1717 134.011 35.7956 134.043C34.4195 134.075 33.2298 133.613 32.2267 132.655L27.669 128.306L29.2707 126.628L31.1661 128.436ZM33.0206 129.1C33.0286 129.845 33.2978 130.471 33.8284 130.977C34.3589 131.483 34.9917 131.728 35.7269 131.711C36.4713 131.684 37.0967 131.405 37.6029 130.875C38.1092 130.344 38.3538 129.711 38.3366 128.976C38.3286 128.231 38.0594 127.606 37.5288 127.099C36.9983 126.593 36.3609 126.353 35.6165 126.38C34.8813 126.397 34.2605 126.671 33.7542 127.202C33.248 127.732 33.0034 128.365 33.0206 129.1ZM37.2895 137.187L38.5977 135.271L43.8171 138.835L45.1591 136.87C45.6629 136.132 45.8652 135.398 45.766 134.669C45.6669 133.939 45.2925 133.352 44.6428 132.909C44.1473 132.57 43.565 132.383 42.8961 132.346L43.2701 130.131C44.2536 130.157 45.1472 130.444 45.951 130.993C47.1292 131.797 47.8273 132.879 48.0452 134.239C48.2741 135.606 47.9563 136.923 47.0916 138.189L45.7496 140.155L47.1535 141.113L45.8453 143.029L37.2895 137.187ZM45.7684 142.885L46.7248 140.771L55.9084 144.927L56.4508 143.68C56.9554 142.532 57.001 141.477 56.5878 140.515C56.1867 139.557 55.3848 138.807 54.1822 138.263L50.3922 136.548L51.3486 134.434L55.248 136.198C56.9486 136.968 58.1187 138.134 58.758 139.696C59.4151 141.252 59.3649 142.883 58.6075 144.59L58.0221 145.883L59.4616 146.535L58.5234 148.657L45.7684 142.885ZM55.9376 133.898C56.097 133.546 56.3531 133.303 56.706 133.17C57.0589 133.037 57.4054 133.048 57.7455 133.201C58.0857 133.355 58.3223 133.609 58.4553 133.962C58.6004 134.32 58.5933 134.675 58.4339 135.028C58.2745 135.38 58.0184 135.623 57.6655 135.756C57.3005 135.883 56.9479 135.87 56.6077 135.716C56.2676 135.562 56.031 135.309 55.898 134.956C55.765 134.603 55.7782 134.25 55.9376 133.898ZM58.6899 146.157L60.0757 146.548C60.5248 146.675 60.9065 146.624 61.2209 146.394C61.5388 146.151 61.772 145.767 61.9206 145.241L63.5295 139.543L65.7622 140.174L64.1533 145.871C64.0047 146.397 64.0024 146.847 64.1464 147.22C64.2941 147.58 64.586 147.822 65.0223 147.945L66.4273 148.342L65.7968 150.575L64.3918 150.178C63.3268 149.877 62.6215 149.235 62.276 148.25C61.4667 148.909 60.5231 149.085 59.4452 148.781L58.0594 148.39L58.6899 146.157ZM65.719 137.751C65.8168 137.405 66.0221 137.144 66.3347 136.969C66.651 136.781 66.9888 136.738 67.3481 136.839C67.7073 136.941 67.9726 137.154 68.144 137.48C68.3189 137.792 68.3575 138.122 68.2596 138.468C68.1582 138.828 67.9511 139.095 67.6385 139.27C67.3258 139.445 66.9899 139.481 66.6306 139.38C66.2713 139.279 66.0042 139.071 65.8292 138.759C65.6543 138.446 65.6175 138.11 65.719 137.751ZM62.9526 135.993C63.2653 135.818 63.5948 135.779 63.9413 135.877C64.2877 135.975 64.553 136.189 64.7372 136.518C64.925 136.834 64.97 137.165 64.8721 137.512C64.7743 137.858 64.5626 138.117 64.2372 138.288C63.9081 138.473 63.5703 138.516 63.2238 138.418C62.8774 138.32 62.6103 138.113 62.4225 137.797C62.2475 137.484 62.2108 137.148 62.3122 136.789C62.4101 136.442 62.6235 136.177 62.9526 135.993ZM66.4252 148.207C67.354 148.299 67.8763 147.761 67.9922 146.593L68.577 140.702L70.9056 140.934L70.3425 146.606C70.2806 147.229 70.3785 147.728 70.6361 148.102C70.907 148.477 71.2813 148.689 71.759 148.736C72.2234 148.782 72.6253 148.648 72.9647 148.333C73.3054 148.005 73.5061 147.536 73.5667 146.926L74.1297 141.254L76.4384 141.483L75.8753 147.155C75.8147 147.765 75.9192 148.265 76.1888 148.653C76.4598 149.029 76.8274 149.239 77.2918 149.285C77.7562 149.331 78.1581 149.197 78.4975 148.882C78.8382 148.554 79.0389 148.085 79.0995 147.475L79.6625 141.803L81.9712 142.032L81.3864 147.923C81.3324 148.467 81.409 148.91 81.6162 149.252C81.8247 149.581 82.1612 149.769 82.6256 149.815L83.1231 149.864L82.894 152.173L82.3964 152.123C81.2023 152.005 80.3787 151.461 79.9255 150.491C79.1845 151.342 78.2302 151.71 77.0626 151.594C75.8287 151.471 74.9559 150.882 74.4444 149.827C73.7353 150.761 72.7637 151.167 71.5298 151.045C70.3224 150.925 69.459 150.377 68.9395 149.401C68.3047 150.262 67.3902 150.634 66.196 150.515L65.6985 150.466L65.9276 148.157L66.4252 148.207ZM82.9982 152.061L82.7362 149.756L85.3395 149.46C84.3913 148.91 83.854 148.079 83.7275 146.966C83.5709 145.588 83.9212 144.361 84.7784 143.284C85.6473 142.192 86.7641 141.569 88.1286 141.414C89.4932 141.258 90.7147 141.616 91.7932 142.487C92.8835 143.342 93.5069 144.459 93.6635 145.837L93.8103 147.129C93.857 147.539 94.0007 147.858 94.2412 148.086C94.4935 148.299 94.8118 148.383 95.196 148.34L95.7524 148.277L96.0144 150.582L95.458 150.645C94.8088 150.719 94.2484 150.628 93.7765 150.373C93.3047 150.118 92.9511 149.722 92.7156 149.185C91.9208 150.457 90.7682 151.178 89.2579 151.35L82.9982 152.061ZM86.0503 146.682C86.1331 147.411 86.4622 148.004 87.0376 148.462C87.6145 148.933 88.2673 149.127 88.9959 149.044C89.7246 148.962 90.3179 148.633 90.7758 148.057C91.2323 147.468 91.4191 146.81 91.3363 146.081C91.2534 145.353 90.9243 144.759 90.3489 144.301C89.772 143.83 89.1193 143.636 88.3906 143.719C87.662 143.802 87.0694 144.137 86.613 144.726C86.155 145.301 85.9675 145.953 86.0503 146.682ZM94.9924 148.346L95.5356 148.209C96.428 147.986 96.7316 147.305 96.4464 146.167L93.6456 134.992L95.9154 134.424L98.7161 145.598C99.0111 146.775 98.9212 147.815 98.4464 148.717C97.9683 149.607 97.1861 150.188 96.0997 150.46L95.5565 150.596L94.9924 148.346ZM104.403 148.107L102.174 148.822L97.4121 133.966L99.6404 133.252L104.403 148.107ZM113.445 148.961L109.877 142.961C109.339 142.056 109.192 141.143 109.435 140.223C109.679 139.302 110.242 138.579 111.125 138.055L111.537 137.809C111.178 136.735 111.192 135.664 111.581 134.596C111.974 133.509 112.675 132.665 113.683 132.066C114.863 131.364 116.124 131.188 117.465 131.539C118.81 131.871 119.838 132.633 120.546 133.825L121.211 134.942C121.422 135.297 121.684 135.529 121.997 135.638C122.315 135.728 122.639 135.675 122.972 135.477L123.436 135.201L124.622 137.195L124.158 137.471C123 138.16 121.967 138.091 121.058 137.267C120.855 138.753 120.101 139.884 118.794 140.661C117.786 141.26 116.708 141.483 115.561 141.327C114.418 141.153 113.461 140.652 112.689 139.824L112.311 140.049C111.6 140.471 111.459 141.043 111.889 141.765L115.456 147.765L113.445 148.961ZM113.935 137.733C114.317 138.375 114.87 138.783 115.594 138.957C116.307 139.138 116.978 139.041 117.608 138.667C118.239 138.292 118.644 137.748 118.826 137.035C119 136.311 118.9 135.634 118.525 135.004C118.15 134.373 117.606 133.967 116.894 133.786C116.174 133.594 115.499 133.685 114.869 134.06C114.239 134.434 113.83 134.987 113.645 135.718C113.463 136.431 113.56 137.103 113.935 137.733ZM122.92 135.462L124.014 134.526C124.358 134.231 124.522 133.889 124.505 133.5C124.479 133.101 124.288 132.693 123.932 132.278L120.094 127.797L121.843 126.273L125.694 130.769C126.05 131.184 126.423 131.435 126.813 131.522C127.195 131.599 127.563 131.486 127.918 131.182L129.027 130.232L130.536 131.994L129.427 132.944C128.576 133.673 127.646 133.908 126.635 133.65C126.734 134.689 126.364 135.568 125.523 136.288L124.429 137.224L122.92 135.462ZM126.653 137.822C126.672 137.455 126.823 137.149 127.106 136.907C127.38 136.672 127.695 136.569 128.052 136.597C128.428 136.626 128.733 136.777 128.968 137.05C129.202 137.324 129.309 137.644 129.29 138.012C129.261 138.388 129.11 138.693 128.837 138.927C128.563 139.161 128.239 139.264 127.863 139.235C127.497 139.197 127.197 139.041 126.963 138.768C126.728 138.494 126.625 138.179 126.653 137.822ZM129.666 136.452C129.432 136.179 129.325 135.858 129.343 135.491C129.371 135.134 129.527 134.834 129.81 134.591C130.074 134.365 130.389 134.262 130.756 134.281C131.132 134.31 131.437 134.461 131.671 134.735C131.906 135.008 132.008 135.333 131.979 135.709C131.95 136.085 131.804 136.386 131.541 136.611C131.267 136.845 130.942 136.948 130.566 136.919C130.201 136.881 129.901 136.725 129.666 136.452ZM128.342 130.811L129.334 129.767C129.646 129.439 129.774 129.082 129.717 128.697C129.651 128.302 129.419 127.917 129.023 127.54L124.746 123.475L126.33 121.78L130.621 125.858C131.017 126.235 131.414 126.447 131.811 126.493C132.199 126.53 132.554 126.38 132.875 126.042L133.881 124.983L135.563 126.582L134.557 127.64C133.785 128.452 132.883 128.781 131.852 128.628C132.057 129.651 131.778 130.564 131.016 131.366L130.024 132.409L128.342 130.811ZM132.296 132.776C132.278 132.409 132.397 132.09 132.654 131.819C132.902 131.558 133.205 131.423 133.563 131.414C133.94 131.405 134.259 131.524 134.52 131.772C134.781 132.02 134.921 132.327 134.94 132.695C134.949 133.072 134.83 133.391 134.582 133.652C134.334 133.913 134.022 134.048 133.645 134.058C133.277 134.057 132.962 133.933 132.702 133.685C132.441 133.437 132.306 133.134 132.296 132.776ZM135.154 131.105C134.893 130.857 134.753 130.549 134.735 130.182C134.725 129.824 134.849 129.509 135.107 129.239C135.346 128.988 135.649 128.853 136.016 128.834C136.393 128.824 136.712 128.943 136.973 129.191C137.234 129.439 137.369 129.752 137.379 130.129C137.388 130.506 137.274 130.82 137.035 131.071C136.787 131.332 136.474 131.468 136.097 131.477C135.729 131.477 135.415 131.353 135.154 131.105ZM135.277 126.816L133.385 125.473L135.121 123.027C133.923 123.402 132.796 123.216 131.741 122.467C130.708 121.734 130.094 120.734 129.898 119.467C129.691 118.192 129.981 117 130.768 115.891C131.594 114.727 132.689 114.049 134.052 113.856C135.412 113.644 136.696 113.966 137.903 114.823L139.925 116.258L140.967 114.79L142.859 116.133L135.277 126.816ZM133.306 120.954C133.915 121.386 134.582 121.54 135.307 121.417C136.032 121.294 136.607 120.934 137.031 120.336L138.571 118.167L136.385 116.615C135.776 116.183 135.11 116.029 134.384 116.152C133.659 116.275 133.085 116.635 132.66 117.233C132.236 117.831 132.085 118.493 132.208 119.218C132.331 119.943 132.697 120.522 133.306 120.954ZM128.498 113.077C128.438 112.724 128.512 112.401 128.72 112.107C128.929 111.814 129.219 111.635 129.591 111.572C129.952 111.501 130.284 111.574 130.589 111.79C130.882 111.998 131.055 112.284 131.107 112.649C131.17 113.02 131.098 113.353 130.89 113.647C130.681 113.94 130.396 114.122 130.036 114.193C129.671 114.246 129.343 114.167 129.049 113.959C128.745 113.743 128.561 113.449 128.498 113.077ZM126.827 117.091C126.522 116.874 126.34 116.59 126.28 116.237C126.217 115.865 126.289 115.532 126.498 115.239C126.706 114.945 126.996 114.767 127.368 114.703C127.729 114.633 128.062 114.705 128.366 114.921C128.66 115.13 128.833 115.416 128.885 115.78C128.948 116.152 128.875 116.485 128.667 116.778C128.459 117.072 128.174 117.254 127.813 117.325C127.449 117.377 127.12 117.299 126.827 117.091ZM140.513 115.4L141.118 114.25C141.335 113.837 141.364 113.453 141.204 113.098C141.039 112.724 140.714 112.411 140.23 112.156L134.991 109.401L136.08 107.33L141.319 110.085C142.393 110.65 143.105 111.416 143.455 112.383C143.793 113.344 143.699 114.327 143.171 115.33L142.566 116.48L140.513 115.4ZM131.388 109.246C131.282 108.904 131.313 108.574 131.48 108.255C131.654 107.925 131.918 107.709 132.272 107.609C132.62 107.491 132.954 107.516 133.272 107.684C133.603 107.857 133.818 108.121 133.918 108.475C134.024 108.817 133.991 109.153 133.817 109.484C133.649 109.803 133.391 110.021 133.043 110.139C132.701 110.245 132.365 110.212 132.034 110.038C131.716 109.87 131.5 109.606 131.388 109.246ZM133.036 106.113C132.93 105.771 132.964 105.435 133.137 105.104C133.305 104.786 133.566 104.576 133.92 104.476C134.268 104.358 134.601 104.383 134.92 104.55C135.251 104.724 135.466 104.988 135.566 105.342C135.672 105.684 135.642 106.014 135.474 106.333C135.3 106.663 135.042 106.882 134.7 106.988C134.358 107.094 134.022 107.061 133.691 106.887C133.373 106.719 133.154 106.461 133.036 106.113ZM145.63 104.749C145.468 104.408 145.452 104.056 145.582 103.692C145.707 103.34 145.946 103.085 146.299 102.928C146.64 102.766 146.992 102.75 147.357 102.88C147.708 103.005 147.971 103.24 148.146 103.585C148.308 103.926 148.326 104.272 148.201 104.624C148.071 104.988 147.834 105.257 147.489 105.432C147.148 105.593 146.796 105.61 146.431 105.48C146.067 105.35 145.8 105.107 145.63 104.749Z" fill="black"/>
<path d="M23.3614 44.3401C23.076 42.7055 23.4147 41.2031 24.3775 39.8329C24.9172 39.0649 25.589 38.4614 26.3928 38.0224C27.2028 37.5747 28.0597 37.3294 28.9633 37.2865L29.0146 39.3563C27.7543 39.4615 26.7716 40.0159 26.0663 41.0196C25.4346 41.9185 25.2091 42.9073 25.3898 43.9859C25.5705 45.0646 26.1103 45.9198 27.0092 46.5514C27.9169 47.1892 28.9131 47.4134 29.9979 47.224C31.0739 47.0285 31.9278 46.4812 32.5595 45.5823C32.909 45.0849 33.128 44.5413 33.2165 43.9516C33.3111 43.3532 33.2719 42.7781 33.099 42.2264L35.0195 41.3857C35.329 42.2811 35.4173 43.2036 35.2845 44.1533C35.1579 45.0942 34.8124 45.9661 34.2482 46.769C33.2854 48.1392 31.9836 48.9714 30.3429 49.2655C28.6995 49.5448 27.1927 49.203 25.8225 48.2402C24.4611 47.2835 23.6407 45.9835 23.3614 44.3401ZM30.4122 36.8687L31.7403 35.5044L34.9504 38.6295C35.5618 39.2248 36.1619 39.5336 36.7505 39.5558C37.3315 39.5707 37.8341 39.3603 38.2582 38.9246C38.6823 38.489 38.8792 37.9809 38.8488 37.4005C38.8107 36.8127 38.486 36.2211 37.8746 35.6259L34.6645 32.5008L35.9927 31.1365L42.2981 37.2751L41.0815 38.5247L39.9831 37.6116C40.1332 38.115 40.1514 38.6315 40.0378 39.161C39.9317 39.6829 39.6777 40.1502 39.2759 40.5629C38.5244 41.3349 37.6617 41.6934 36.6879 41.6386C35.7065 41.5763 34.6846 41.028 33.6222 39.9938L30.4122 36.8687ZM41.8049 34.3932C42.2158 34.4503 42.6703 34.3986 43.1682 34.2382C43.6745 34.0712 44.1248 33.8329 44.5191 33.5233C44.9134 33.2137 45.1744 32.9071 45.3021 32.6034C45.4316 32.2847 45.4009 32.0037 45.2098 31.7604C45.0452 31.5507 44.7708 31.4949 44.3867 31.593C44.0027 31.6911 43.5722 31.8596 43.0952 32.0985C42.62 32.3224 42.1242 32.5286 41.6077 32.7172C41.0912 32.9057 40.5685 32.9567 40.0395 32.8703C39.504 32.7755 39.0452 32.4847 38.6631 31.9981C38.1954 31.4025 38.0599 30.729 38.2567 29.9778C38.4535 29.2266 38.9503 28.5381 39.7474 27.9123C40.9806 26.944 42.22 26.588 43.4654 26.8442L43.2708 28.4617C42.885 28.3849 42.4698 28.4261 42.0252 28.5853C41.5806 28.7445 41.1863 28.9592 40.8424 29.2292C40.4816 29.5125 40.2383 29.7985 40.1124 30.0872C39.9865 30.3759 40.0026 30.621 40.1607 30.8223C40.3056 31.0069 40.5668 31.0459 40.9442 30.9394C41.3217 30.8329 41.7522 30.6644 42.2358 30.4339C42.7127 30.195 43.2127 29.9855 43.7358 29.8054C44.2523 29.6168 44.7783 29.57 45.3139 29.6648C45.8495 29.7596 46.3083 30.0504 46.6903 30.537C47.2568 31.2585 47.4198 32.0188 47.1793 32.8179C46.9406 33.602 46.4228 34.307 45.6257 34.9328C45.0553 35.3807 44.4057 35.728 43.6771 35.9746C42.9569 36.2146 42.25 36.2814 41.5562 36.1751L41.8049 34.3932ZM43.2797 25.4082L44.3252 24.7565L43.019 22.1771L44.3632 21.3391L45.8867 23.7832L47.6382 22.6913L48.5354 24.1306L46.7839 25.2224L48.6882 28.2775C49.0042 28.7844 49.3572 29.0986 49.7471 29.22C50.1371 29.3415 50.5402 29.2724 50.9566 29.0128C51.1286 28.9056 51.2899 28.7611 51.4405 28.5792L52.745 29.7646C52.4732 30.1351 52.1246 30.453 51.6991 30.7182C50.9116 31.2091 50.1092 31.3636 49.292 31.1818C48.4838 30.9942 47.7496 30.3709 47.0894 29.3119L45.1681 26.2296L44.1769 26.8475L43.2797 25.4082ZM50.4071 22.6542C50.8259 21.4903 51.6047 20.6403 52.7435 20.1042C53.863 19.5771 55.0118 19.5255 56.1899 19.9494C57.368 20.3733 58.2206 21.145 58.7476 22.2645C59.2792 23.3936 59.333 24.5472 58.9091 25.7253C58.4852 26.9035 57.7136 27.756 56.5941 28.2831C55.4553 28.8192 54.2969 28.8753 53.1188 28.4514C51.9503 28.023 51.1003 27.2442 50.5687 26.1151C50.0371 24.986 49.9833 23.8323 50.4071 22.6542ZM52.3203 25.2904C52.6292 25.9467 53.1173 26.3948 53.7844 26.6349C54.4515 26.8749 55.1132 26.8404 55.7694 26.5315C56.416 26.2271 56.8594 25.7413 57.0994 25.0742C57.3349 24.3974 57.3004 23.7357 56.996 23.0891C56.6916 22.4425 56.2058 21.9992 55.5387 21.7592C54.8716 21.5192 54.2147 21.5513 53.5681 21.8558C52.9119 22.1647 52.4637 22.6528 52.2237 23.3199C51.9837 23.987 52.0159 24.6439 52.3203 25.2904ZM60.4102 26.4465L58.1494 17.9418L59.8349 17.4938L60.2884 18.7639C60.387 18.2631 60.6096 17.8342 60.9562 17.4771C61.3001 17.1098 61.7039 16.8645 62.1678 16.7412C62.776 16.5795 63.3363 16.5906 63.8488 16.7744C64.3612 16.9583 64.7863 17.2702 65.124 17.7102C65.2014 17.1709 65.4116 16.6956 65.7548 16.2843C66.0953 15.8626 66.5387 15.5792 67.085 15.434C68.0643 15.1736 68.9279 15.3083 69.6758 15.8379C70.4312 16.3545 70.9966 17.319 71.372 18.7313L72.5641 23.2155L70.724 23.7047L69.5319 19.2204C69.3182 18.4164 69.0074 17.8699 68.5994 17.581C68.1888 17.2818 67.7412 17.1966 67.2567 17.3254C66.7825 17.4514 66.4363 17.7476 66.2182 18.214C65.9972 18.6701 65.9937 19.3001 66.2074 20.1042L67.3995 24.5885L65.5594 25.0776L64.3673 20.5934C64.1508 19.779 63.8386 19.2274 63.4307 18.9385C63.0228 18.6496 62.5766 18.5695 62.0921 18.6983C61.6179 18.8244 61.2772 19.1412 61.07 19.6488C60.8703 20.1434 60.8801 20.803 61.0994 21.6277L62.2503 25.9573L60.4102 26.4465ZM72.8494 15.6726C73.6526 14.722 74.671 14.1985 75.9046 14.1023C77.1594 14.0044 78.252 14.3632 79.1822 15.1787C80.1116 15.9835 80.6248 17.008 80.7219 18.2523C80.7244 18.2842 80.7296 18.5566 80.7375 19.0695L73.8943 19.6033C74.0544 20.1471 74.3935 20.5861 74.9118 20.9201C75.4291 21.2436 76.0175 21.3796 76.6768 21.3281C77.6233 21.2543 78.3588 20.876 78.8832 20.1931L80.4733 21.032C80.1009 21.6067 79.5815 22.0805 78.9151 22.4535C78.2488 22.8264 77.5487 23.0415 76.8149 23.0987C75.4856 23.2024 74.3403 22.8531 73.379 22.0508C72.4169 21.2378 71.8869 20.2039 71.789 18.949C71.6928 17.7154 72.0463 16.6233 72.8494 15.6726ZM73.7748 18.0719L78.7039 17.6875C78.6067 17.128 78.3093 16.6751 77.8115 16.3288C77.3235 15.9709 76.7392 15.8186 76.0586 15.8717C75.3993 15.9231 74.8564 16.1634 74.4298 16.5925C74.0032 17.0217 73.7849 17.5148 73.7748 18.0719ZM81.5179 13.9197L83.2605 13.989L83.335 15.337C83.9154 14.4313 84.8078 14.0024 86.0122 14.0503C86.0335 14.0512 86.0602 14.0522 86.0921 14.0535C86.3586 14.0641 86.6031 14.0898 86.8257 14.1307L86.3695 15.938C86.2953 15.9244 86.1943 15.915 86.0664 15.9099C85.2777 15.8786 84.6178 16.0979 84.0867 16.5678C83.556 17.0271 83.2686 17.811 83.2246 18.9194L83.0708 22.7884L81.1683 22.7127L81.5179 13.9197ZM91.3315 14.7416L93.0455 15.0638L92.9229 16.4083C93.629 15.5968 94.5744 15.3024 95.759 15.5251C95.7799 15.529 95.8061 15.5339 95.8376 15.5399C96.0997 15.5891 96.3378 15.6502 96.552 15.723L95.8376 17.4447C95.7662 17.4204 95.6676 17.3964 95.5418 17.3728C94.7661 17.2269 94.0813 17.3478 93.4874 17.7354C92.8956 18.1126 92.4972 18.8463 92.2922 19.9365L91.5768 23.7418L89.7056 23.39L91.3315 14.7416ZM97.8852 17.4494C98.9852 16.8673 100.125 16.7619 101.306 17.1331C102.506 17.5108 103.386 18.2515 103.945 19.3553C104.506 20.4489 104.6 21.5909 104.226 22.7814C104.216 22.812 104.119 23.0666 103.935 23.5454L97.3872 21.486C97.3327 22.0503 97.4835 22.5841 97.8395 23.0875C98.1988 23.5807 98.6938 23.9265 99.3247 24.1249C100.23 24.4097 101.054 24.3333 101.795 23.8956L102.957 25.2674C102.397 25.6615 101.738 25.9072 100.981 26.0045C100.224 26.1017 99.4939 26.0399 98.7918 25.8191C97.5199 25.419 96.5878 24.6674 95.9955 23.5642C95.4064 22.4508 95.3007 21.2938 95.6784 20.0931C96.0496 18.9128 96.7852 18.0316 97.8852 17.4494ZM97.848 20.0207L102.564 21.5041C102.683 20.9488 102.576 20.4176 102.244 19.9105C101.925 19.3964 101.439 19.0369 100.788 18.8321C100.157 18.6337 99.5639 18.6539 99.0079 18.8928C98.452 19.1316 98.0653 19.5076 97.848 20.0207ZM107.677 19.5961L107.193 25.9129L111.743 21.513L113.596 22.3862L106.805 28.9137L105.111 28.1156L105.824 18.7229L107.677 19.5961ZM109.698 30.355L114.153 22.766L115.795 23.7299L111.34 31.3189L109.698 30.355ZM114.982 21.0073C115.138 20.7406 115.37 20.5673 115.676 20.4875C115.988 20.3986 116.278 20.4324 116.544 20.589C116.811 20.7456 116.982 20.9817 117.056 21.2975C117.136 21.6041 117.097 21.8908 116.941 22.1575C116.784 22.4243 116.553 22.5976 116.246 22.6773C115.94 22.7571 115.653 22.7187 115.386 22.5621C115.119 22.4055 114.946 22.1739 114.866 21.8673C114.787 21.5608 114.825 21.2741 114.982 21.0073ZM117.056 26.0998C118.284 25.8969 119.399 26.1587 120.4 26.8854C121.419 27.6246 122.018 28.6062 122.198 29.8302C122.383 31.0455 122.11 32.1583 121.377 33.1684C121.358 33.1943 121.185 33.405 120.859 33.8006L115.303 29.7695C115.072 30.2874 115.046 30.8414 115.224 31.4318C115.408 32.0135 115.767 32.4985 116.303 32.8869C117.071 33.4444 117.876 33.6333 118.718 33.4536L119.385 35.1233C118.729 35.3193 118.026 35.3432 117.277 35.195C116.528 35.0468 115.855 34.7566 115.26 34.3244C114.181 33.5413 113.535 32.5327 113.324 31.2986C113.118 30.0558 113.385 28.925 114.125 27.9063C114.851 26.9048 115.829 26.3026 117.056 26.0998ZM116.205 28.5263L120.207 31.4298C120.495 30.941 120.563 30.4033 120.408 29.8169C120.269 29.2281 119.923 28.7332 119.37 28.3323C118.835 27.9439 118.266 27.7747 117.663 27.8248C117.06 27.8749 116.574 28.1087 116.205 28.5263ZM124.319 29.9764L125.728 31.4408L122.86 36.9301L128.423 34.2428L129.765 35.638L126.865 41.0926L132.461 38.4399L133.87 39.9043L125.409 43.8029L124.111 42.4538L126.898 37.0422L121.394 39.6288L120.096 38.2797L124.319 29.9764ZM129.715 44.9507C129.629 45.3565 129.647 45.8134 129.771 46.3217C129.901 46.8387 130.106 47.3051 130.386 47.7207C130.667 48.1364 130.954 48.4189 131.247 48.5683C131.556 48.7205 131.838 48.7101 132.095 48.5372C132.316 48.3881 132.391 48.1185 132.321 47.7284C132.251 47.3382 132.114 46.8967 131.911 46.4037C131.722 45.9135 131.552 45.4041 131.401 44.8753C131.25 44.3466 131.237 43.8215 131.362 43.3002C131.495 42.7729 131.818 42.3363 132.331 41.9904C132.959 41.567 133.641 41.4806 134.376 41.7312C135.111 41.9818 135.761 42.5272 136.328 43.3674C137.205 44.6675 137.47 45.9293 137.124 47.153L135.525 46.8418C135.63 46.4626 135.619 46.0455 135.492 45.5906C135.365 45.1357 135.18 44.7269 134.935 44.3643C134.679 43.984 134.411 43.7206 134.132 43.5741C133.854 43.4277 133.608 43.426 133.396 43.5691C133.201 43.7003 133.143 43.958 133.222 44.3422C133.301 44.7263 133.438 45.1679 133.633 45.6669C133.837 46.1599 134.01 46.6737 134.151 47.2085C134.302 47.7372 134.311 48.2653 134.177 48.7926C134.044 49.3199 133.721 49.7565 133.208 50.1023C132.447 50.6152 131.677 50.7227 130.898 50.425C130.133 50.1302 129.467 49.5627 128.901 48.7225C128.495 48.1211 128.196 47.4482 128.003 46.7037C127.815 45.968 127.8 45.258 127.956 44.5738L129.715 44.9507Z" fill="#6B7280"/>
<path d="M23.3614 44.3401C23.076 42.7055 23.4147 41.2031 24.3775 39.8329C24.9172 39.0649 25.589 38.4614 26.3928 38.0224C27.2028 37.5747 28.0597 37.3294 28.9633 37.2865L29.0146 39.3563C27.7543 39.4615 26.7716 40.0159 26.0663 41.0196C25.4346 41.9185 25.2091 42.9073 25.3898 43.9859C25.5705 45.0646 26.1103 45.9198 27.0092 46.5514C27.9169 47.1892 28.9131 47.4134 29.9979 47.224C31.0739 47.0285 31.9278 46.4812 32.5595 45.5823C32.909 45.0849 33.128 44.5413 33.2165 43.9516C33.3111 43.3532 33.2719 42.7781 33.099 42.2264L35.0195 41.3857C35.329 42.2811 35.4173 43.2036 35.2845 44.1533C35.1579 45.0942 34.8124 45.9661 34.2482 46.769C33.2854 48.1392 31.9836 48.9714 30.3429 49.2655C28.6995 49.5448 27.1927 49.203 25.8225 48.2402C24.4611 47.2835 23.6407 45.9835 23.3614 44.3401ZM30.4122 36.8687L31.7403 35.5044L34.9504 38.6295C35.5618 39.2248 36.1619 39.5336 36.7505 39.5558C37.3315 39.5707 37.8341 39.3603 38.2582 38.9246C38.6823 38.489 38.8792 37.9809 38.8488 37.4005C38.8107 36.8127 38.486 36.2211 37.8746 35.6259L34.6645 32.5008L35.9927 31.1365L42.2981 37.2751L41.0815 38.5247L39.9831 37.6116C40.1332 38.115 40.1514 38.6315 40.0378 39.161C39.9317 39.6829 39.6777 40.1502 39.2759 40.5629C38.5244 41.3349 37.6617 41.6934 36.6879 41.6386C35.7065 41.5763 34.6846 41.028 33.6222 39.9938L30.4122 36.8687ZM41.8049 34.3932C42.2158 34.4503 42.6703 34.3986 43.1682 34.2382C43.6745 34.0712 44.1248 33.8329 44.5191 33.5233C44.9134 33.2137 45.1744 32.9071 45.3021 32.6034C45.4316 32.2847 45.4009 32.0037 45.2098 31.7604C45.0452 31.5507 44.7708 31.4949 44.3867 31.593C44.0027 31.6911 43.5722 31.8596 43.0952 32.0985C42.62 32.3224 42.1242 32.5286 41.6077 32.7172C41.0912 32.9057 40.5685 32.9567 40.0395 32.8703C39.504 32.7755 39.0452 32.4847 38.6631 31.9981C38.1954 31.4025 38.0599 30.729 38.2567 29.9778C38.4535 29.2266 38.9503 28.5381 39.7474 27.9123C40.9806 26.944 42.22 26.588 43.4654 26.8442L43.2708 28.4617C42.885 28.3849 42.4698 28.4261 42.0252 28.5853C41.5806 28.7445 41.1863 28.9592 40.8424 29.2292C40.4816 29.5125 40.2383 29.7985 40.1124 30.0872C39.9865 30.3759 40.0026 30.621 40.1607 30.8223C40.3056 31.0069 40.5668 31.0459 40.9442 30.9394C41.3217 30.8329 41.7522 30.6644 42.2358 30.4339C42.7127 30.195 43.2127 29.9855 43.7358 29.8054C44.2523 29.6168 44.7783 29.57 45.3139 29.6648C45.8495 29.7596 46.3083 30.0504 46.6903 30.537C47.2568 31.2585 47.4198 32.0188 47.1793 32.8179C46.9406 33.602 46.4228 34.307 45.6257 34.9328C45.0553 35.3807 44.4057 35.728 43.6771 35.9746C42.9569 36.2146 42.25 36.2814 41.5562 36.1751L41.8049 34.3932ZM43.2797 25.4082L44.3252 24.7565L43.019 22.1771L44.3632 21.3391L45.8867 23.7832L47.6382 22.6913L48.5354 24.1306L46.7839 25.2224L48.6882 28.2775C49.0042 28.7844 49.3572 29.0986 49.7471 29.22C50.1371 29.3415 50.5402 29.2724 50.9566 29.0128C51.1286 28.9056 51.2899 28.7611 51.4405 28.5792L52.745 29.7646C52.4732 30.1351 52.1246 30.453 51.6991 30.7182C50.9116 31.2091 50.1092 31.3636 49.292 31.1818C48.4838 30.9942 47.7496 30.3709 47.0894 29.3119L45.1681 26.2296L44.1769 26.8475L43.2797 25.4082ZM50.4071 22.6542C50.8259 21.4903 51.6047 20.6403 52.7435 20.1042C53.863 19.5771 55.0118 19.5255 56.1899 19.9494C57.368 20.3733 58.2206 21.145 58.7476 22.2645C59.2792 23.3936 59.333 24.5472 58.9091 25.7253C58.4852 26.9035 57.7136 27.756 56.5941 28.2831C55.4553 28.8192 54.2969 28.8753 53.1188 28.4514C51.9503 28.023 51.1003 27.2442 50.5687 26.1151C50.0371 24.986 49.9833 23.8323 50.4071 22.6542ZM52.3203 25.2904C52.6292 25.9467 53.1173 26.3948 53.7844 26.6349C54.4515 26.8749 55.1132 26.8404 55.7694 26.5315C56.416 26.2271 56.8594 25.7413 57.0994 25.0742C57.3349 24.3974 57.3004 23.7357 56.996 23.0891C56.6916 22.4425 56.2058 21.9992 55.5387 21.7592C54.8716 21.5192 54.2147 21.5513 53.5681 21.8558C52.9119 22.1647 52.4637 22.6528 52.2237 23.3199C51.9837 23.987 52.0159 24.6439 52.3203 25.2904ZM60.4102 26.4465L58.1494 17.9418L59.8349 17.4938L60.2884 18.7639C60.387 18.2631 60.6096 17.8342 60.9562 17.4771C61.3001 17.1098 61.7039 16.8645 62.1678 16.7412C62.776 16.5795 63.3363 16.5906 63.8488 16.7744C64.3612 16.9583 64.7863 17.2702 65.124 17.7102C65.2014 17.1709 65.4116 16.6956 65.7548 16.2843C66.0953 15.8626 66.5387 15.5792 67.085 15.434C68.0643 15.1736 68.9279 15.3083 69.6758 15.8379C70.4312 16.3545 70.9966 17.319 71.372 18.7313L72.5641 23.2155L70.724 23.7047L69.5319 19.2204C69.3182 18.4164 69.0074 17.8699 68.5994 17.581C68.1888 17.2818 67.7412 17.1966 67.2567 17.3254C66.7825 17.4514 66.4363 17.7476 66.2182 18.214C65.9972 18.6701 65.9937 19.3001 66.2074 20.1042L67.3995 24.5885L65.5594 25.0776L64.3673 20.5934C64.1508 19.779 63.8386 19.2274 63.4307 18.9385C63.0228 18.6496 62.5766 18.5695 62.0921 18.6983C61.6179 18.8244 61.2772 19.1412 61.07 19.6488C60.8703 20.1434 60.8801 20.803 61.0994 21.6277L62.2503 25.9573L60.4102 26.4465ZM72.8494 15.6726C73.6526 14.722 74.671 14.1985 75.9046 14.1023C77.1594 14.0044 78.252 14.3632 79.1822 15.1787C80.1116 15.9835 80.6248 17.008 80.7219 18.2523C80.7244 18.2842 80.7296 18.5566 80.7375 19.0695L73.8943 19.6033C74.0544 20.1471 74.3935 20.5861 74.9118 20.9201C75.4291 21.2436 76.0175 21.3796 76.6768 21.3281C77.6233 21.2543 78.3588 20.876 78.8832 20.1931L80.4733 21.032C80.1009 21.6067 79.5815 22.0805 78.9151 22.4535C78.2488 22.8264 77.5487 23.0415 76.8149 23.0987C75.4856 23.2024 74.3403 22.8531 73.379 22.0508C72.4169 21.2378 71.8869 20.2039 71.789 18.949C71.6928 17.7154 72.0463 16.6233 72.8494 15.6726ZM73.7748 18.0719L78.7039 17.6875C78.6067 17.128 78.3093 16.6751 77.8115 16.3288C77.3235 15.9709 76.7392 15.8186 76.0586 15.8717C75.3993 15.9231 74.8564 16.1634 74.4298 16.5925C74.0032 17.0217 73.7849 17.5148 73.7748 18.0719ZM81.5179 13.9197L83.2605 13.989L83.335 15.337C83.9154 14.4313 84.8078 14.0024 86.0122 14.0503C86.0335 14.0512 86.0602 14.0522 86.0921 14.0535C86.3586 14.0641 86.6031 14.0898 86.8257 14.1307L86.3695 15.938C86.2953 15.9244 86.1943 15.915 86.0664 15.9099C85.2777 15.8786 84.6178 16.0979 84.0867 16.5678C83.556 17.0271 83.2686 17.811 83.2246 18.9194L83.0708 22.7884L81.1683 22.7127L81.5179 13.9197ZM91.3315 14.7416L93.0455 15.0638L92.9229 16.4083C93.629 15.5968 94.5744 15.3024 95.759 15.5251C95.7799 15.529 95.8061 15.5339 95.8376 15.5399C96.0997 15.5891 96.3378 15.6502 96.552 15.723L95.8376 17.4447C95.7662 17.4204 95.6676 17.3964 95.5418 17.3728C94.7661 17.2269 94.0813 17.3478 93.4874 17.7354C92.8956 18.1126 92.4972 18.8463 92.2922 19.9365L91.5768 23.7418L89.7056 23.39L91.3315 14.7416ZM97.8852 17.4494C98.9852 16.8673 100.125 16.7619 101.306 17.1331C102.506 17.5108 103.386 18.2515 103.945 19.3553C104.506 20.4489 104.6 21.5909 104.226 22.7814C104.216 22.812 104.119 23.0666 103.935 23.5454L97.3872 21.486C97.3327 22.0503 97.4835 22.5841 97.8395 23.0875C98.1988 23.5807 98.6938 23.9265 99.3247 24.1249C100.23 24.4097 101.054 24.3333 101.795 23.8956L102.957 25.2674C102.397 25.6615 101.738 25.9072 100.981 26.0045C100.224 26.1017 99.4939 26.0399 98.7918 25.8191C97.5199 25.419 96.5878 24.6674 95.9955 23.5642C95.4064 22.4508 95.3007 21.2938 95.6784 20.0931C96.0496 18.9128 96.7852 18.0316 97.8852 17.4494ZM97.848 20.0207L102.564 21.5041C102.683 20.9488 102.576 20.4176 102.244 19.9105C101.925 19.3964 101.439 19.0369 100.788 18.8321C100.157 18.6337 99.5639 18.6539 99.0079 18.8928C98.452 19.1316 98.0653 19.5076 97.848 20.0207ZM107.677 19.5961L107.193 25.9129L111.743 21.513L113.596 22.3862L106.805 28.9137L105.111 28.1156L105.824 18.7229L107.677 19.5961ZM109.698 30.355L114.153 22.766L115.795 23.7299L111.34 31.3189L109.698 30.355ZM114.982 21.0073C115.138 20.7406 115.37 20.5673 115.676 20.4875C115.988 20.3986 116.278 20.4324 116.544 20.589C116.811 20.7456 116.982 20.9817 117.056 21.2975C117.136 21.6041 117.097 21.8908 116.941 22.1575C116.784 22.4243 116.553 22.5976 116.246 22.6773C115.94 22.7571 115.653 22.7187 115.386 22.5621C115.119 22.4055 114.946 22.1739 114.866 21.8673C114.787 21.5608 114.825 21.2741 114.982 21.0073ZM117.056 26.0998C118.284 25.8969 119.399 26.1587 120.4 26.8854C121.419 27.6246 122.018 28.6062 122.198 29.8302C122.383 31.0455 122.11 32.1583 121.377 33.1684C121.358 33.1943 121.185 33.405 120.859 33.8006L115.303 29.7695C115.072 30.2874 115.046 30.8414 115.224 31.4318C115.408 32.0135 115.767 32.4985 116.303 32.8869C117.071 33.4444 117.876 33.6333 118.718 33.4536L119.385 35.1233C118.729 35.3193 118.026 35.3432 117.277 35.195C116.528 35.0468 115.855 34.7566 115.26 34.3244C114.181 33.5413 113.535 32.5327 113.324 31.2986C113.118 30.0558 113.385 28.925 114.125 27.9063C114.851 26.9048 115.829 26.3026 117.056 26.0998ZM116.205 28.5263L120.207 31.4298C120.495 30.941 120.563 30.4033 120.408 29.8169C120.269 29.2281 119.923 28.7332 119.37 28.3323C118.835 27.9439 118.266 27.7747 117.663 27.8248C117.06 27.8749 116.574 28.1087 116.205 28.5263ZM124.319 29.9764L125.728 31.4408L122.86 36.9301L128.423 34.2428L129.765 35.638L126.865 41.0926L132.461 38.4399L133.87 39.9043L125.409 43.8029L124.111 42.4538L126.898 37.0422L121.394 39.6288L120.096 38.2797L124.319 29.9764ZM129.715 44.9507C129.629 45.3565 129.647 45.8134 129.771 46.3217C129.901 46.8387 130.106 47.3051 130.386 47.7207C130.667 48.1364 130.954 48.4189 131.247 48.5683C131.556 48.7205 131.838 48.7101 132.095 48.5372C132.316 48.3881 132.391 48.1185 132.321 47.7284C132.251 47.3382 132.114 46.8967 131.911 46.4037C131.722 45.9135 131.552 45.4041 131.401 44.8753C131.25 44.3466 131.237 43.8215 131.362 43.3002C131.495 42.7729 131.818 42.3363 132.331 41.9904C132.959 41.567 133.641 41.4806 134.376 41.7312C135.111 41.9818 135.761 42.5272 136.328 43.3674C137.205 44.6675 137.47 45.9293 137.124 47.153L135.525 46.8418C135.63 46.4626 135.619 46.0455 135.492 45.5906C135.365 45.1357 135.18 44.7269 134.935 44.3643C134.679 43.984 134.411 43.7206 134.132 43.5741C133.854 43.4277 133.608 43.426 133.396 43.5691C133.201 43.7003 133.143 43.958 133.222 44.3422C133.301 44.7263 133.438 45.1679 133.633 45.6669C133.837 46.1599 134.01 46.6737 134.151 47.2085C134.302 47.7372 134.311 48.2653 134.177 48.7926C134.044 49.3199 133.721 49.7565 133.208 50.1023C132.447 50.6152 131.677 50.7227 130.898 50.425C130.133 50.1302 129.467 49.5627 128.901 48.7225C128.495 48.1211 128.196 47.4482 128.003 46.7037C127.815 45.968 127.8 45.258 127.956 44.5738L129.715 44.9507Z" fill="black" fill-opacity="0.2"/>
<path d="M82.5571 58.8348L84.3171 62.3548C84.5571 62.8448 85.1971 63.3148 85.7371 63.4048L88.9271 63.9348C90.9671 64.2748 91.4471 65.7548 89.9771 67.2148L87.4971 69.6948C87.0771 70.1148 86.8471 70.9248 86.9771 71.5048L87.6871 74.5748C88.2471 77.0048 86.9571 77.9448 84.8071 76.6748L81.8171 74.9048C81.2771 74.5848 80.3871 74.5848 79.8371 74.9048L76.8471 76.6748C74.7071 77.9448 73.4071 76.9948 73.9671 74.5748L74.6771 71.5048C74.8071 70.9248 74.5771 70.1148 74.1571 69.6948L71.6771 67.2148C70.2171 65.7548 70.6871 64.2748 72.7271 63.9348L75.9171 63.4048C76.4471 63.3148 77.0871 62.8448 77.3271 62.3548L79.0871 58.8348C80.0471 56.9248 81.6071 56.9248 82.5571 58.8348Z" stroke="white" stroke-width="1.5" stroke-linecap="round" stroke-linejoin="round"/>
<path d="M67.5284 96.8642L74.2884 87.7242H77.0884V96.6442H78.2884V98.9842H77.0884V102.324H74.7084V98.9842H67.5284V96.8642ZM70.2284 96.6442H74.7084V91.0042L70.2284 96.6442ZM79.6313 100.124C79.898 99.8576 80.2247 99.7242 80.6113 99.7242C80.9847 99.7242 81.3047 99.8642 81.5713 100.144C81.838 100.411 81.9713 100.738 81.9713 101.124C81.9713 101.498 81.838 101.824 81.5713 102.104C81.3047 102.371 80.9847 102.504 80.6113 102.504C80.2247 102.504 79.8913 102.371 79.6113 102.104C79.3447 101.838 79.2113 101.511 79.2113 101.124C79.2113 100.738 79.3513 100.404 79.6313 100.124ZM84.8362 89.0042C85.8628 88.0042 87.1162 87.5042 88.5962 87.5042C90.0628 87.5042 91.3095 88.0109 92.3362 89.0242C93.3762 90.0242 93.8962 91.2576 93.8962 92.7242C93.8962 93.9509 93.5295 95.0176 92.7962 95.9242L87.9962 102.324H85.0762L88.6562 97.6642C88.4562 97.6909 88.2628 97.7042 88.0762 97.7042C86.9162 97.7042 85.8228 97.2509 84.7962 96.3442C83.7828 95.4242 83.2762 94.2176 83.2762 92.7242C83.2762 91.2576 83.7962 90.0176 84.8362 89.0042ZM85.6762 92.7242C85.6762 93.5109 85.9562 94.1776 86.5162 94.7242C87.0895 95.2709 87.7828 95.5442 88.5962 95.5442C89.3962 95.5442 90.0762 95.2709 90.6362 94.7242C91.1962 94.1776 91.4762 93.5109 91.4762 92.7242C91.4762 91.9376 91.1962 91.2709 90.6362 90.7242C90.0762 90.1642 89.3962 89.8842 88.5962 89.8842C87.7828 89.8842 87.0895 90.1642 86.5162 90.7242C85.9562 91.2709 85.6762 91.9376 85.6762 92.7242Z" fill="#FAFAFA"/>
</svg>
