<svg width="162" height="162" viewBox="0 0 162 162" fill="none" xmlns="http://www.w3.org/2000/svg">
<circle cx="81" cy="81" r="48" fill="#002EC1"/>
<path d="M25.8033 122.583C26.1773 122.631 26.4824 122.809 26.7185 123.115C26.9465 123.41 27.0311 123.749 26.9723 124.132C26.924 124.506 26.7468 124.811 26.4406 125.047C26.145 125.275 25.8049 125.369 25.4203 125.329C25.0463 125.28 24.7453 125.108 24.5173 124.813C24.2811 124.507 24.1831 124.161 24.2232 123.777C24.2715 123.403 24.4487 123.098 24.7549 122.861C25.0611 122.625 25.4105 122.532 25.8033 122.583ZM35.0398 124.399L36.7915 125.95L32.3224 130.996C31.624 131.784 31.2821 132.613 31.2969 133.481C31.3129 134.367 31.6552 135.107 32.3239 135.699C32.9826 136.283 33.7532 136.529 34.6355 136.438C35.509 136.357 36.295 135.922 36.9934 135.133L46.5018 124.399L48.2385 125.937L40.5999 134.561C40.2374 134.97 40.0399 135.374 40.0074 135.773C39.9837 136.161 40.1416 136.506 40.4809 136.806L40.93 137.204L39.3917 138.941L38.9426 138.543C38.4835 138.136 38.2618 137.673 38.2775 137.152C37.141 138.194 35.8702 138.734 34.4652 138.772C33.0701 138.818 31.8435 138.373 30.7856 137.436C29.6378 136.419 29.0366 135.148 28.9819 133.621C28.9183 132.104 29.448 130.712 30.5708 129.444L35.0398 124.399ZM39.4082 138.833L40.5946 136.84L42.8461 138.179C42.424 137.168 42.4992 136.181 43.072 135.219C43.781 134.027 44.8027 133.262 46.1368 132.923C47.4893 132.58 48.7556 132.759 49.9358 133.461C51.116 134.164 51.8721 135.187 52.204 136.533C52.5542 137.874 52.3747 139.14 51.6657 140.332L51.0009 141.449C50.7895 141.804 50.7107 142.145 50.7645 142.472C50.8366 142.794 51.0388 143.054 51.3711 143.252L51.8523 143.538L50.666 145.532L50.1847 145.246C49.6233 144.912 49.2319 144.5 49.0106 144.012C48.7893 143.523 48.7473 142.994 48.8847 142.424C47.4827 142.955 46.1285 142.832 44.8223 142.055L39.4082 138.833ZM45.0931 136.398C44.7181 137.028 44.6211 137.7 44.8021 138.412C44.9762 139.137 45.3784 139.686 46.0086 140.061C46.6388 140.436 47.3103 140.533 48.0231 140.352C48.7427 140.16 49.29 139.749 49.665 139.118C50.04 138.488 50.137 137.817 49.956 137.104C49.7819 136.38 49.3797 135.83 48.7495 135.455C48.1193 135.08 47.4444 134.989 46.7248 135.181C46.012 135.362 45.4681 135.768 45.0931 136.398ZM51.265 143.161L52.5962 143.711C53.0276 143.889 53.4127 143.881 53.7515 143.69C54.0954 143.485 54.3716 143.13 54.58 142.625L56.8374 137.152L58.9821 138.037L56.7247 143.51C56.5163 144.015 56.462 144.461 56.5618 144.849C56.6667 145.224 56.9287 145.498 57.3478 145.671L58.6975 146.227L57.8128 148.372L56.4631 147.815C55.4401 147.393 54.8139 146.673 54.5847 145.656C53.7046 146.216 52.7469 146.282 51.7115 145.855L50.3803 145.306L51.265 143.161ZM59.2197 135.625C59.357 135.293 59.591 135.057 59.9218 134.92C60.2577 134.77 60.5982 134.766 60.9433 134.908C61.2884 135.051 61.5272 135.294 61.6598 135.637C61.7973 135.967 61.7975 136.299 61.6602 136.632C61.5179 136.977 61.2813 137.219 60.9505 137.356C60.6197 137.494 60.2817 137.491 59.9366 137.349C59.5915 137.207 59.3501 136.97 59.2125 136.639C59.075 136.308 59.0773 135.97 59.2197 135.625ZM56.6754 133.559C57.0062 133.421 57.338 133.421 57.6708 133.559C58.0036 133.696 58.2424 133.939 58.3872 134.287C58.5371 134.623 58.5435 134.957 58.4062 135.29C58.2689 135.623 58.0287 135.855 57.6856 135.988C57.3374 136.133 56.9969 136.136 56.6641 135.999C56.3313 135.862 56.0899 135.625 55.94 135.289C55.8024 134.959 55.8048 134.621 55.9472 134.275C56.0844 133.943 56.3272 133.704 56.6754 133.559ZM58.1024 145.953L67.8737 148.345L68.1496 147.219C68.4313 145.956 68.2853 144.87 67.7118 143.961C67.1414 143.039 66.2216 142.423 64.9524 142.112L60.834 141.103L61.3858 138.85L68.8174 134.904L71.8479 135.646L64.2997 139.564L65.6401 139.892C67.4403 140.332 68.7918 141.288 69.6947 142.758C70.6138 144.219 70.8578 145.857 70.4268 147.673L70.1272 148.897L71.7978 149.306L71.2461 151.56L57.5506 148.206L58.1024 145.953ZM73.9309 149.281C73.0879 148.581 72.6969 147.671 72.7581 146.553C72.8338 145.168 73.3842 144.017 74.4092 143.098C75.4482 142.167 76.6534 141.738 78.0247 141.813C79.396 141.888 80.5406 142.445 81.4587 143.483C82.3907 144.509 82.8189 145.714 82.7432 147.099C82.6682 148.47 82.1182 149.615 81.0932 150.534C80.0682 151.453 78.8633 151.874 77.4787 151.799L71.1881 151.455L71.3148 149.138L73.9309 149.281ZM75.7719 148.581C76.262 149.141 76.8732 149.442 77.6054 149.482C78.3376 149.522 78.9776 149.297 79.5252 148.806C80.0735 148.302 80.3677 147.683 80.4078 146.951C80.4478 146.219 80.2224 145.579 79.7316 145.031C79.2415 144.47 78.6303 144.17 77.898 144.13C77.1658 144.09 76.5255 144.322 75.9772 144.826C75.4296 145.317 75.1357 145.929 75.0957 146.661C75.0557 147.393 75.2811 148.033 75.7719 148.581ZM89.6384 150.086L87.8494 143.588L90.1055 142.967L91.8944 149.465C92.1917 150.545 92.666 151.313 93.3173 151.77C93.9686 152.227 94.712 152.34 95.5476 152.11C96.3832 151.88 96.9638 151.402 97.2895 150.676C97.6152 149.951 97.6294 149.048 97.3321 147.968L95.0123 139.542L97.2684 138.92L97.9744 141.485C99.1235 139.329 100.514 138.027 102.147 137.577C103.522 137.199 104.772 137.366 105.895 138.081C107.027 138.778 107.799 139.873 108.209 141.364L108.395 142.039C108.7 143.144 109.27 143.582 110.105 143.352L110.626 143.209L111.242 145.446L110.721 145.589C109.628 145.89 108.696 145.669 107.925 144.927C107.578 145.977 106.819 146.663 105.65 146.985L99.8262 148.588C99.9957 150.008 99.7449 151.231 99.0737 152.26C98.419 153.297 97.4489 153.993 96.1634 154.347C94.6979 154.75 93.3626 154.572 92.1574 153.811C90.9523 153.05 90.1126 151.809 89.6384 150.086ZM105.034 144.748C105.497 144.621 105.827 144.364 106.025 143.978C106.232 143.575 106.254 143.078 106.091 142.486L105.964 142.024C105.723 141.15 105.294 140.521 104.677 140.138C104.056 139.741 103.335 139.657 102.512 139.883C101.149 140.258 99.8793 141.673 98.7017 144.127L99.3069 146.325L105.034 144.748ZM110.417 143.135L119.073 137.97L118.461 136.984C117.787 135.88 116.927 135.206 115.88 134.961C114.827 134.705 113.739 134.911 112.617 135.581L109.044 137.713L107.856 135.72L111.531 133.527C113.122 132.577 114.758 132.3 116.438 132.695C118.118 133.09 119.445 134.092 120.42 135.699L121.065 136.781L122.422 135.972L123.628 137.954L111.606 145.128L110.417 143.135ZM123.514 137.919L121.979 136.18L124.228 134.195C122.975 134.287 121.921 133.848 121.065 132.878C120.227 131.928 119.858 130.814 119.956 129.536C120.046 128.247 120.601 127.153 121.621 126.253C122.69 125.309 123.911 124.899 125.282 125.022C126.655 125.127 127.831 125.734 128.81 126.843L131.986 130.442L123.514 137.919ZM122.935 131.762C123.429 132.322 124.043 132.625 124.777 132.67C125.511 132.716 126.153 132.496 126.702 132.011L128.697 130.251L126.923 128.242C126.429 127.682 125.815 127.379 125.081 127.333C124.347 127.287 123.705 127.507 123.156 127.992C122.606 128.478 122.308 129.087 122.262 129.821C122.216 130.555 122.441 131.202 122.935 131.762ZM118.981 125.408C118.725 125.118 118.609 124.785 118.632 124.409C118.656 124.032 118.813 123.716 119.103 123.46C119.392 123.204 119.726 123.088 120.102 123.112C120.478 123.135 120.795 123.292 121.05 123.582C121.306 123.872 121.422 124.205 121.399 124.581C121.375 124.958 121.219 125.274 120.929 125.53C120.639 125.786 120.306 125.902 119.929 125.878C119.553 125.855 119.237 125.698 118.981 125.408ZM134.644 124.12C134.598 123.746 134.694 123.407 134.932 123.102C135.162 122.808 135.469 122.642 135.854 122.604C136.228 122.558 136.568 122.654 136.873 122.892C137.167 123.122 137.342 123.428 137.399 123.811C137.444 124.185 137.352 124.519 137.123 124.814C136.885 125.118 136.574 125.299 136.192 125.355C135.817 125.401 135.478 125.305 135.173 125.067C134.869 124.829 134.692 124.513 134.644 124.12Z" fill="black"/>
<path d="M27.6719 38.3057C27.567 36.6496 28.068 35.1933 29.175 33.9366C29.7954 33.2323 30.5292 32.7059 31.3762 32.3575C32.2303 32.0011 33.1088 31.851 34.0118 31.9072L33.8363 33.9702C32.5721 33.9369 31.5346 34.3805 30.7238 35.3009C29.9975 36.1254 29.6652 37.0836 29.7268 38.1755C29.7884 39.2675 30.2314 40.1765 31.0559 40.9028C31.8883 41.636 32.854 41.9679 33.953 41.8982C35.044 41.8216 35.9526 41.3711 36.6788 40.5466C37.0807 40.0904 37.3579 39.574 37.5103 38.9976C37.6698 38.4131 37.6938 37.8372 37.5823 37.2699L39.5832 36.6443C39.7929 37.5682 39.7798 38.4948 39.5439 39.4242C39.315 40.3457 38.8763 41.1745 38.2276 41.9109C37.1207 43.1676 35.7357 43.8523 34.0726 43.9652C32.4086 44.0631 30.9482 43.5585 29.6916 42.4516C28.4429 41.3517 27.7697 39.9697 27.6719 38.3057ZM37.0406 31.9356C37.1603 30.7044 37.7061 29.6889 38.6781 28.8892C39.6335 28.103 40.7344 27.7705 41.9805 27.8916C43.2267 28.0128 44.2429 28.5511 45.0291 29.5065C45.822 30.4703 46.1579 31.5752 46.0368 32.8214C45.9157 34.0675 45.3774 35.0837 44.4219 35.8699C43.4499 36.6696 42.3409 37.0089 41.0947 36.8878C39.8568 36.7599 38.8413 36.2141 38.0484 35.2504C37.2554 34.2867 36.9195 33.1817 37.0406 31.9356ZM39.5433 34.0203C40.0042 34.5804 40.5875 34.8947 41.2931 34.9633C41.9988 35.0319 42.6317 34.8358 43.1918 34.3749C43.7437 33.9208 44.0539 33.341 44.1225 32.6353C44.1843 31.9214 43.9882 31.2885 43.5341 30.7366C43.08 30.1848 42.5001 29.8745 41.7945 29.806C41.0888 29.7374 40.46 29.9301 39.9082 30.3842C39.3481 30.8451 39.0337 31.4283 38.9651 32.134C38.8965 32.8397 39.0893 33.4684 39.5433 34.0203ZM47.6761 33.1455L43.3813 25.4647L44.9035 24.6135L45.6572 25.7319C45.6288 25.2223 45.7384 24.7516 45.9859 24.3199C46.2281 23.8789 46.5587 23.5413 46.9777 23.3071C47.527 22.9999 48.0726 22.872 48.6146 22.9234C49.1566 22.9747 49.6456 23.1718 50.0817 23.5145C50.0232 22.9728 50.1094 22.4603 50.3401 21.9768C50.5656 21.4841 50.9251 21.0998 51.4185 20.8239C52.303 20.3293 53.173 20.2461 54.0287 20.5742C54.8884 20.8879 55.6749 21.6824 56.3881 22.9579L58.6527 27.0078L56.9908 27.937L54.7263 23.8871C54.3202 23.161 53.8838 22.7084 53.4171 22.5294C52.9452 22.3411 52.4904 22.3693 52.0529 22.614C51.6246 22.8534 51.3625 23.2261 51.2665 23.7319C51.1653 24.2285 51.3177 24.8398 51.7238 25.566L53.9883 29.6159L52.3265 30.5451L50.0619 26.4953C49.6507 25.7598 49.2117 25.3025 48.745 25.1236C48.2783 24.9446 47.8261 24.9774 47.3885 25.2221C46.9603 25.4616 46.7086 25.8528 46.6334 26.3959C46.5623 26.9245 46.735 27.5612 47.1515 28.306L49.338 32.2162L47.6761 33.1455ZM59.8045 30.4308L55.9006 18.7457L57.5548 18.1931L58.1832 19.7207C58.2739 19.1505 58.5299 18.6208 58.9512 18.1314C59.3725 17.642 59.8917 17.2942 60.5089 17.0881C61.6116 16.7197 62.6928 16.8252 63.7523 17.4046C64.822 17.9807 65.5528 18.8555 65.9449 20.0291C66.3404 21.2128 66.2838 22.3563 65.7752 23.4596C65.2767 24.5596 64.4761 25.2938 63.3734 25.6622C62.7664 25.865 62.1542 25.9009 61.5368 25.7697C60.9194 25.6386 60.4032 25.3725 59.988 24.9713L61.6104 29.8275L59.8045 30.4308ZM60.4375 23.8427C61.0888 24.1762 61.7634 24.2264 62.4615 23.9932C63.1495 23.7633 63.6551 23.3245 63.9785 22.6766C64.3086 22.0153 64.3571 21.3356 64.1238 20.6375C63.894 19.9495 63.4501 19.4456 62.7921 19.1256C62.1409 18.7921 61.4713 18.7402 60.7834 18.9701C60.0853 19.2033 59.5712 19.6506 59.2411 20.3119C58.9177 20.9598 58.8709 21.6277 59.1008 22.3156C59.334 23.0137 59.7796 23.5227 60.4375 23.8427ZM69.3978 23.7997L67.5396 24.2152L64.8162 12.036L66.6743 11.6205L69.3978 23.7997ZM70.0005 16.0869C70.7596 15.1007 71.753 14.5314 72.981 14.3791C74.23 14.2241 75.3378 14.5328 76.3042 15.305C77.2693 16.0667 77.8287 17.0667 77.9823 18.3052C77.9862 18.337 78.0039 18.6089 78.0351 19.1209L71.2233 19.9659C71.4081 20.5019 71.7669 20.925 72.2998 21.2351C72.8313 21.5346 73.4253 21.6436 74.0816 21.5622C75.0237 21.4453 75.7412 21.0339 76.234 20.3278L77.8606 21.0934C77.5147 21.6845 77.0175 22.1815 76.3688 22.5844C75.7201 22.9873 75.0306 23.2341 74.3002 23.3247C72.977 23.4888 71.817 23.192 70.8201 22.4343C69.822 21.666 69.2454 20.6573 69.0905 19.4082C68.9381 18.1803 69.2415 17.0732 70.0005 16.0869ZM71.0342 18.4416L75.9406 17.833C75.8181 17.2785 75.5003 16.8396 74.9873 16.5163C74.4835 16.1811 73.8929 16.0555 73.2155 16.1396C72.5592 16.221 72.0277 16.4858 71.6211 16.9339C71.2145 17.382 71.0189 17.8846 71.0342 18.4416ZM77.8669 13.9458L79.0989 13.9415L79.3448 11.0606L80.9288 11.0551L80.9389 13.935L83.0029 13.9278L83.0088 15.6238L80.9448 15.631L80.9575 19.231C80.9596 19.8283 81.0945 20.2812 81.3622 20.5896C81.63 20.898 82.0092 21.0513 82.4999 21.0496C82.7025 21.0489 82.9157 21.0108 83.1395 20.9354L83.6254 22.6297C83.1993 22.8018 82.7356 22.8888 82.2343 22.8906C81.3063 22.8938 80.5426 22.6032 79.9432 22.0186C79.3545 21.434 79.058 20.5177 79.0536 19.2697L79.0409 15.6377L77.8729 15.6418L77.8669 13.9458ZM85.3551 15.3597C86.322 14.5761 87.4203 14.2525 88.6501 14.3888C89.9011 14.5275 90.9072 15.0844 91.6684 16.0596C92.4308 17.0241 92.7432 18.1266 92.6057 19.367C92.6022 19.3988 92.5563 19.6674 92.4681 20.1727L85.6459 19.4164C85.7014 19.9806 85.9524 20.4753 86.3989 20.9004C86.8467 21.3149 87.3992 21.5586 88.0565 21.6315C89 21.7361 89.7933 21.5021 90.4363 20.9295L91.8413 22.0511C91.3679 22.5459 90.769 22.9142 90.0446 23.1559C89.3203 23.3975 88.5923 23.4778 87.8608 23.3967C86.5356 23.2498 85.4759 22.6923 84.6817 21.7242C83.8887 20.7456 83.5616 19.6307 83.7003 18.3797C83.8366 17.1499 84.3882 16.1432 85.3551 15.3597ZM85.8151 17.8898L90.729 18.4345C90.7383 17.8667 90.5309 17.3662 90.1067 16.9328C89.6943 16.49 89.1489 16.231 88.4703 16.1558C87.813 16.0829 87.2347 16.2173 86.7353 16.5591C86.236 16.9008 85.9292 17.3443 85.8151 17.8898ZM98.279 17.5264C99.3761 16.9551 100.525 16.8586 101.725 17.237C102.427 17.4582 103.037 17.8294 103.555 18.3505C104.073 18.8716 104.448 19.4761 104.678 20.1639L102.85 20.6949C102.557 19.8867 101.988 19.3496 101.143 19.0834C100.452 18.8654 99.7913 18.9201 99.1625 19.2476C98.5336 19.575 98.1118 20.0796 97.897 20.7612C97.6789 21.453 97.7336 22.1133 98.0611 22.7421C98.3886 23.371 98.8982 23.7944 99.59 24.0124C100.465 24.2882 101.264 24.1485 101.987 23.5935L103.165 25.072C102.592 25.5402 101.936 25.8479 101.196 25.995C100.46 26.1319 99.7303 26.0865 99.008 25.8589C97.8076 25.4806 96.9182 24.7361 96.3399 23.6256C95.7718 22.5183 95.6754 21.3695 96.0505 20.1792C96.4256 18.989 97.1684 18.1047 98.279 17.5264ZM107.88 15.6528L109.6 16.4703L107.429 21.0366C107.853 20.7419 108.321 20.5632 108.835 20.5005C109.359 20.4423 109.881 20.5369 110.401 20.7842C111.365 21.2421 111.975 21.9457 112.233 22.8948C112.49 23.8439 112.303 24.9832 111.671 26.3126L109.747 30.3587L108.028 29.5413L109.951 25.4952C110.318 24.7245 110.414 24.0618 110.241 23.507C110.072 22.9426 109.713 22.5298 109.164 22.2688C108.615 22.0078 108.068 21.99 107.524 22.2156C106.985 22.4315 106.532 22.9248 106.165 23.6955L104.242 27.7416L102.522 26.9241L107.88 15.6528ZM114.845 24.7024C116.064 24.4507 117.188 24.668 118.218 25.3542C119.265 26.0523 119.903 27.0092 120.131 28.2251C120.364 29.4321 120.135 30.5549 119.443 31.5933C119.425 31.62 119.261 31.8374 118.951 32.2457L113.239 28.4391C113.029 28.9657 113.025 29.5204 113.226 30.1032C113.433 30.6771 113.812 31.1474 114.362 31.5142C115.152 32.0407 115.964 32.1973 116.798 31.9842L117.531 33.626C116.883 33.848 116.182 33.8999 115.428 33.7816C114.673 33.6634 113.99 33.4002 113.377 32.992C112.268 32.2526 111.583 31.2705 111.322 30.0457C111.068 28.8121 111.289 27.6716 111.987 26.6243C112.674 25.5946 113.626 24.954 114.845 24.7024ZM114.091 27.1609L118.205 29.9028C118.474 29.4028 118.52 28.8629 118.342 28.283C118.179 27.7003 117.814 27.2196 117.246 26.841C116.696 26.4742 116.12 26.3278 115.52 26.4019C114.919 26.4759 114.443 26.7289 114.091 27.1609ZM122.613 30.192C123.848 30.1182 124.936 30.499 125.877 31.3343C126.428 31.8228 126.833 32.4106 127.093 33.0977C127.354 33.7849 127.449 34.4895 127.378 35.2115L125.493 34.9502C125.555 34.0926 125.255 33.3701 124.592 32.7825C124.05 32.3011 123.425 32.0816 122.717 32.1239C122.009 32.1662 121.418 32.4546 120.944 32.9892C120.463 33.5318 120.243 34.157 120.285 34.8647C120.328 35.5724 120.62 36.167 121.163 36.6484C121.849 37.2572 122.635 37.4557 123.522 37.2441L123.994 39.0746C123.28 39.2684 122.555 39.2815 121.82 39.1139C121.092 38.9383 120.444 38.5992 119.878 38.0966C118.936 37.2612 118.428 36.2187 118.353 34.9688C118.287 33.7261 118.668 32.6379 119.496 31.7044C120.324 30.7709 121.363 30.2667 122.613 30.192ZM122.646 40.4993L132.147 32.4072L133.33 33.7958L127.8 38.5058L132.801 38.8495L134.243 40.5426L129.391 40.3244L127.792 46.541L126.35 44.8478L127.518 40.322L125.839 40.1761L123.829 41.8879L122.646 40.4993Z" fill="#6B7280"/>
<path d="M27.6719 38.3057C27.567 36.6496 28.068 35.1933 29.175 33.9366C29.7954 33.2323 30.5292 32.7059 31.3762 32.3575C32.2303 32.0011 33.1088 31.851 34.0118 31.9072L33.8363 33.9702C32.5721 33.9369 31.5346 34.3805 30.7238 35.3009C29.9975 36.1254 29.6652 37.0836 29.7268 38.1755C29.7884 39.2675 30.2314 40.1765 31.0559 40.9028C31.8883 41.636 32.854 41.9679 33.953 41.8982C35.044 41.8216 35.9526 41.3711 36.6788 40.5466C37.0807 40.0904 37.3579 39.574 37.5103 38.9976C37.6698 38.4131 37.6938 37.8372 37.5823 37.2699L39.5832 36.6443C39.7929 37.5682 39.7798 38.4948 39.5439 39.4242C39.315 40.3457 38.8763 41.1745 38.2276 41.9109C37.1207 43.1676 35.7357 43.8523 34.0726 43.9652C32.4086 44.0631 30.9482 43.5585 29.6916 42.4516C28.4429 41.3517 27.7697 39.9697 27.6719 38.3057ZM37.0406 31.9356C37.1603 30.7044 37.7061 29.6889 38.6781 28.8892C39.6335 28.103 40.7344 27.7705 41.9805 27.8916C43.2267 28.0128 44.2429 28.5511 45.0291 29.5065C45.822 30.4703 46.1579 31.5752 46.0368 32.8214C45.9157 34.0675 45.3774 35.0837 44.4219 35.8699C43.4499 36.6696 42.3409 37.0089 41.0947 36.8878C39.8568 36.7599 38.8413 36.2141 38.0484 35.2504C37.2554 34.2867 36.9195 33.1817 37.0406 31.9356ZM39.5433 34.0203C40.0042 34.5804 40.5875 34.8947 41.2931 34.9633C41.9988 35.0319 42.6317 34.8358 43.1918 34.3749C43.7437 33.9208 44.0539 33.341 44.1225 32.6353C44.1843 31.9214 43.9882 31.2885 43.5341 30.7366C43.08 30.1848 42.5001 29.8745 41.7945 29.806C41.0888 29.7374 40.46 29.9301 39.9082 30.3842C39.3481 30.8451 39.0337 31.4283 38.9651 32.134C38.8965 32.8397 39.0893 33.4684 39.5433 34.0203ZM47.6761 33.1455L43.3813 25.4647L44.9035 24.6135L45.6572 25.7319C45.6288 25.2223 45.7384 24.7516 45.9859 24.3199C46.2281 23.8789 46.5587 23.5413 46.9777 23.3071C47.527 22.9999 48.0726 22.872 48.6146 22.9234C49.1566 22.9747 49.6456 23.1718 50.0817 23.5145C50.0232 22.9728 50.1094 22.4603 50.3401 21.9768C50.5656 21.4841 50.9251 21.0998 51.4185 20.8239C52.303 20.3293 53.173 20.2461 54.0287 20.5742C54.8884 20.8879 55.6749 21.6824 56.3881 22.9579L58.6527 27.0078L56.9908 27.937L54.7263 23.8871C54.3202 23.161 53.8838 22.7084 53.4171 22.5294C52.9452 22.3411 52.4904 22.3693 52.0529 22.614C51.6246 22.8534 51.3625 23.2261 51.2665 23.7319C51.1653 24.2285 51.3177 24.8398 51.7238 25.566L53.9883 29.6159L52.3265 30.5451L50.0619 26.4953C49.6507 25.7598 49.2117 25.3025 48.745 25.1236C48.2783 24.9446 47.8261 24.9774 47.3885 25.2221C46.9603 25.4616 46.7086 25.8528 46.6334 26.3959C46.5623 26.9245 46.735 27.5612 47.1515 28.306L49.338 32.2162L47.6761 33.1455ZM59.8045 30.4308L55.9006 18.7457L57.5548 18.1931L58.1832 19.7207C58.2739 19.1505 58.5299 18.6208 58.9512 18.1314C59.3725 17.642 59.8917 17.2942 60.5089 17.0881C61.6116 16.7197 62.6928 16.8252 63.7523 17.4046C64.822 17.9807 65.5528 18.8555 65.9449 20.0291C66.3404 21.2128 66.2838 22.3563 65.7752 23.4596C65.2767 24.5596 64.4761 25.2938 63.3734 25.6622C62.7664 25.865 62.1542 25.9009 61.5368 25.7697C60.9194 25.6386 60.4032 25.3725 59.988 24.9713L61.6104 29.8275L59.8045 30.4308ZM60.4375 23.8427C61.0888 24.1762 61.7634 24.2264 62.4615 23.9932C63.1495 23.7633 63.6551 23.3245 63.9785 22.6766C64.3086 22.0153 64.3571 21.3356 64.1238 20.6375C63.894 19.9495 63.4501 19.4456 62.7921 19.1256C62.1409 18.7921 61.4713 18.7402 60.7834 18.9701C60.0853 19.2033 59.5712 19.6506 59.2411 20.3119C58.9177 20.9598 58.8709 21.6277 59.1008 22.3156C59.334 23.0137 59.7796 23.5227 60.4375 23.8427ZM69.3978 23.7997L67.5396 24.2152L64.8162 12.036L66.6743 11.6205L69.3978 23.7997ZM70.0005 16.0869C70.7596 15.1007 71.753 14.5314 72.981 14.3791C74.23 14.2241 75.3378 14.5328 76.3042 15.305C77.2693 16.0667 77.8287 17.0667 77.9823 18.3052C77.9862 18.337 78.0039 18.6089 78.0351 19.1209L71.2233 19.9659C71.4081 20.5019 71.7669 20.925 72.2998 21.2351C72.8313 21.5346 73.4253 21.6436 74.0816 21.5622C75.0237 21.4453 75.7412 21.0339 76.234 20.3278L77.8606 21.0934C77.5147 21.6845 77.0175 22.1815 76.3688 22.5844C75.7201 22.9873 75.0306 23.2341 74.3002 23.3247C72.977 23.4888 71.817 23.192 70.8201 22.4343C69.822 21.666 69.2454 20.6573 69.0905 19.4082C68.9381 18.1803 69.2415 17.0732 70.0005 16.0869ZM71.0342 18.4416L75.9406 17.833C75.8181 17.2785 75.5003 16.8396 74.9873 16.5163C74.4835 16.1811 73.8929 16.0555 73.2155 16.1396C72.5592 16.221 72.0277 16.4858 71.6211 16.9339C71.2145 17.382 71.0189 17.8846 71.0342 18.4416ZM77.8669 13.9458L79.0989 13.9415L79.3448 11.0606L80.9288 11.0551L80.9389 13.935L83.0029 13.9278L83.0088 15.6238L80.9448 15.631L80.9575 19.231C80.9596 19.8283 81.0945 20.2812 81.3622 20.5896C81.63 20.898 82.0092 21.0513 82.4999 21.0496C82.7025 21.0489 82.9157 21.0108 83.1395 20.9354L83.6254 22.6297C83.1993 22.8018 82.7356 22.8888 82.2343 22.8906C81.3063 22.8938 80.5426 22.6032 79.9432 22.0186C79.3545 21.434 79.058 20.5177 79.0536 19.2697L79.0409 15.6377L77.8729 15.6418L77.8669 13.9458ZM85.3551 15.3597C86.322 14.5761 87.4203 14.2525 88.6501 14.3888C89.9011 14.5275 90.9072 15.0844 91.6684 16.0596C92.4308 17.0241 92.7432 18.1266 92.6057 19.367C92.6022 19.3988 92.5563 19.6674 92.4681 20.1727L85.6459 19.4164C85.7014 19.9806 85.9524 20.4753 86.3989 20.9004C86.8467 21.3149 87.3992 21.5586 88.0565 21.6315C89 21.7361 89.7933 21.5021 90.4363 20.9295L91.8413 22.0511C91.3679 22.5459 90.769 22.9142 90.0446 23.1559C89.3203 23.3975 88.5923 23.4778 87.8608 23.3967C86.5356 23.2498 85.4759 22.6923 84.6817 21.7242C83.8887 20.7456 83.5616 19.6307 83.7003 18.3797C83.8366 17.1499 84.3882 16.1432 85.3551 15.3597ZM85.8151 17.8898L90.729 18.4345C90.7383 17.8667 90.5309 17.3662 90.1067 16.9328C89.6943 16.49 89.1489 16.231 88.4703 16.1558C87.813 16.0829 87.2347 16.2173 86.7353 16.5591C86.236 16.9008 85.9292 17.3443 85.8151 17.8898ZM98.279 17.5264C99.3761 16.9551 100.525 16.8586 101.725 17.237C102.427 17.4582 103.037 17.8294 103.555 18.3505C104.073 18.8716 104.448 19.4761 104.678 20.1639L102.85 20.6949C102.557 19.8867 101.988 19.3496 101.143 19.0834C100.452 18.8654 99.7913 18.9201 99.1625 19.2476C98.5336 19.575 98.1118 20.0796 97.897 20.7612C97.6789 21.453 97.7336 22.1133 98.0611 22.7421C98.3886 23.371 98.8982 23.7944 99.59 24.0124C100.465 24.2882 101.264 24.1485 101.987 23.5935L103.165 25.072C102.592 25.5402 101.936 25.8479 101.196 25.995C100.46 26.1319 99.7303 26.0865 99.008 25.8589C97.8076 25.4806 96.9182 24.7361 96.3399 23.6256C95.7718 22.5183 95.6754 21.3695 96.0505 20.1792C96.4256 18.989 97.1684 18.1047 98.279 17.5264ZM107.88 15.6528L109.6 16.4703L107.429 21.0366C107.853 20.7419 108.321 20.5632 108.835 20.5005C109.359 20.4423 109.881 20.5369 110.401 20.7842C111.365 21.2421 111.975 21.9457 112.233 22.8948C112.49 23.8439 112.303 24.9832 111.671 26.3126L109.747 30.3587L108.028 29.5413L109.951 25.4952C110.318 24.7245 110.414 24.0618 110.241 23.507C110.072 22.9426 109.713 22.5298 109.164 22.2688C108.615 22.0078 108.068 21.99 107.524 22.2156C106.985 22.4315 106.532 22.9248 106.165 23.6955L104.242 27.7416L102.522 26.9241L107.88 15.6528ZM114.845 24.7024C116.064 24.4507 117.188 24.668 118.218 25.3542C119.265 26.0523 119.903 27.0092 120.131 28.2251C120.364 29.4321 120.135 30.5549 119.443 31.5933C119.425 31.62 119.261 31.8374 118.951 32.2457L113.239 28.4391C113.029 28.9657 113.025 29.5204 113.226 30.1032C113.433 30.6771 113.812 31.1474 114.362 31.5142C115.152 32.0407 115.964 32.1973 116.798 31.9842L117.531 33.626C116.883 33.848 116.182 33.8999 115.428 33.7816C114.673 33.6634 113.99 33.4002 113.377 32.992C112.268 32.2526 111.583 31.2705 111.322 30.0457C111.068 28.8121 111.289 27.6716 111.987 26.6243C112.674 25.5946 113.626 24.954 114.845 24.7024ZM114.091 27.1609L118.205 29.9028C118.474 29.4028 118.52 28.8629 118.342 28.283C118.179 27.7003 117.814 27.2196 117.246 26.841C116.696 26.4742 116.12 26.3278 115.52 26.4019C114.919 26.4759 114.443 26.7289 114.091 27.1609ZM122.613 30.192C123.848 30.1182 124.936 30.499 125.877 31.3343C126.428 31.8228 126.833 32.4106 127.093 33.0977C127.354 33.7849 127.449 34.4895 127.378 35.2115L125.493 34.9502C125.555 34.0926 125.255 33.3701 124.592 32.7825C124.05 32.3011 123.425 32.0816 122.717 32.1239C122.009 32.1662 121.418 32.4546 120.944 32.9892C120.463 33.5318 120.243 34.157 120.285 34.8647C120.328 35.5724 120.62 36.167 121.163 36.6484C121.849 37.2572 122.635 37.4557 123.522 37.2441L123.994 39.0746C123.28 39.2684 122.555 39.2815 121.82 39.1139C121.092 38.9383 120.444 38.5992 119.878 38.0966C118.936 37.2612 118.428 36.2187 118.353 34.9688C118.287 33.7261 118.668 32.6379 119.496 31.7044C120.324 30.7709 121.363 30.2667 122.613 30.192ZM122.646 40.4993L132.147 32.4072L133.33 33.7958L127.8 38.5058L132.801 38.8495L134.243 40.5426L129.391 40.3244L127.792 46.541L126.35 44.8478L127.518 40.322L125.839 40.1761L123.829 41.8879L122.646 40.4993Z" fill="black" fill-opacity="0.2"/>
<path d="M74.8281 59.3242C76.4981 58.0742 78.5781 57.3242 80.8281 57.3242C86.3481 57.3242 90.8281 61.8042 90.8281 67.3242C90.8281 72.8442 86.3481 77.3242 80.8281 77.3242C75.3081 77.3242 70.8281 72.8442 70.8281 67.3242C70.8281 65.5142 71.3081 63.8142 72.1581 62.3442L80.8281 67.3242" stroke="white" stroke-width="1.5" stroke-miterlimit="10" stroke-linecap="round" stroke-linejoin="round"/>
<path d="M75.6581 64.2842C75.1281 65.1742 74.8281 66.2142 74.8281 67.3242C74.8281 70.6342 77.5181 73.3242 80.8281 73.3242C84.1381 73.3242 86.8281 70.6342 86.8281 67.3242C86.8281 64.0142 84.1381 61.3242 80.8281 61.3242C79.9181 61.3242 79.0481 61.5242 78.2781 61.8942" stroke="white" stroke-width="1.5" stroke-miterlimit="10" stroke-linecap="round" stroke-linejoin="round"/>
<path d="M57.3238 95.9842V94.0642H60.7438V90.6242H62.6838V94.0642H66.1238V95.9842H62.6838V99.4242H60.7438V95.9842H57.3238ZM69.9093 98.3642C70.1093 98.8842 70.4626 99.3109 70.9693 99.6442C71.4893 99.9776 72.056 100.144 72.6693 100.144C73.4826 100.144 74.176 99.8642 74.7493 99.3042C75.3226 98.7442 75.6093 98.0642 75.6093 97.2642C75.6093 96.4509 75.3226 95.7642 74.7493 95.2042C74.1893 94.6442 73.5093 94.3642 72.7093 94.3642C72.2026 94.3642 71.7226 94.4842 71.2693 94.7242C70.8293 94.9509 70.476 95.2642 70.2093 95.6642H67.8293L68.3893 87.7242H77.5093V89.9642H70.6093L70.3893 93.1642C71.1493 92.4976 72.036 92.1642 73.0493 92.1642C74.4626 92.1642 75.6426 92.6509 76.5893 93.6242C77.536 94.5976 78.0093 95.8242 78.0093 97.3042C78.0093 98.7842 77.4826 100.024 76.4293 101.024C75.3893 102.024 74.1226 102.524 72.6293 102.524C71.4826 102.524 70.456 102.224 69.5493 101.624C68.656 101.011 68.016 100.198 67.6293 99.1842L69.9093 98.3642ZM81.209 89.5042C82.2623 88.1709 83.6423 87.5042 85.349 87.5042C87.0423 87.5042 88.4157 88.1776 89.469 89.5242C90.5357 90.8709 91.069 92.7042 91.069 95.0242C91.069 97.3576 90.5357 99.2042 89.469 100.564C88.4157 101.911 87.0423 102.584 85.349 102.584C83.6423 102.584 82.2557 101.911 81.189 100.564C80.1357 99.2042 79.609 97.3576 79.609 95.0242C79.609 92.6909 80.1423 90.8509 81.209 89.5042ZM82.029 94.9842C82.029 96.7042 82.3357 98.0042 82.949 98.8842C83.5757 99.7509 84.3757 100.184 85.349 100.184C86.309 100.184 87.0957 99.7509 87.709 98.8842C88.3357 98.0042 88.649 96.7042 88.649 94.9842C88.649 93.3176 88.3357 92.0576 87.709 91.2042C87.0957 90.3376 86.309 89.9042 85.349 89.9042C84.3757 89.9042 83.5757 90.3376 82.949 91.2042C82.3357 92.0576 82.029 93.3176 82.029 94.9842ZM94.4707 89.5042C95.524 88.1709 96.904 87.5042 98.6107 87.5042C100.304 87.5042 101.677 88.1776 102.731 89.5242C103.797 90.8709 104.331 92.7042 104.331 95.0242C104.331 97.3576 103.797 99.2042 102.731 100.564C101.677 101.911 100.304 102.584 98.6107 102.584C96.904 102.584 95.5174 101.911 94.4507 100.564C93.3974 99.2042 92.8707 97.3576 92.8707 95.0242C92.8707 92.6909 93.404 90.8509 94.4707 89.5042ZM95.2907 94.9842C95.2907 96.7042 95.5974 98.0042 96.2107 98.8842C96.8374 99.7509 97.6374 100.184 98.6107 100.184C99.5707 100.184 100.357 99.7509 100.971 98.8842C101.597 98.0042 101.911 96.7042 101.911 94.9842C101.911 93.3176 101.597 92.0576 100.971 91.2042C100.357 90.3376 99.5707 89.9042 98.6107 89.9042C97.6374 89.9042 96.8374 90.3376 96.2107 91.2042C95.5974 92.0576 95.2907 93.3176 95.2907 94.9842Z" fill="#FAFAFA"/>
</svg>
