<svg width="162" height="162" viewBox="0 0 162 162" fill="none" xmlns="http://www.w3.org/2000/svg">
<circle cx="81" cy="81" r="48" fill="#002EC1"/>
<path d="M21.0846 115.507C21.4498 115.601 21.7306 115.815 21.9271 116.148C22.1168 116.469 22.1588 116.816 22.0532 117.188C21.959 117.553 21.7454 117.834 21.4124 118.03C21.0908 118.22 20.7417 118.271 20.3651 118.184C19.9999 118.09 19.7225 117.882 19.5328 117.56C19.3363 117.227 19.2817 116.872 19.3691 116.496C19.4633 116.131 19.6769 115.85 20.0099 115.653C20.3429 115.457 20.7012 115.408 21.0846 115.507ZM34.152 122.52C35.5285 122.523 36.7013 123.011 37.6704 123.984L41.0577 127.385L36.8632 131.562C36.0318 132.39 35.9455 133.135 36.6041 133.796L37.0275 134.221L35.3837 135.859L34.9603 135.434C34.0288 134.498 33.7858 133.451 34.2313 132.292C32.8543 132.516 31.6389 132.099 30.5851 131.041C29.6066 130.058 29.1187 128.879 29.1215 127.502C29.1243 126.126 29.6122 124.953 30.5852 123.984C31.5677 123.005 32.7566 122.517 34.152 122.52ZM32.2507 125.628C31.7311 126.145 31.4658 126.776 31.4549 127.521C31.4534 128.256 31.7114 128.884 32.2289 129.403C32.7276 129.904 33.3164 130.146 33.9952 130.128C34.6741 130.111 35.2969 129.82 35.8637 129.255L37.7626 127.364L36.0266 125.621C35.5092 125.101 34.878 124.846 34.1331 124.854C33.3978 124.852 32.7703 125.11 32.2507 125.628ZM37.3525 120.377C37.6075 120.123 37.9142 119.996 38.2725 119.997C38.6496 119.998 38.9652 120.126 39.2192 120.381C39.4827 120.645 39.6093 120.961 39.5991 121.329C39.6078 121.697 39.4846 122.008 39.2296 122.262C38.965 122.525 38.6489 122.652 38.2813 122.642C37.923 122.641 37.6121 122.508 37.3487 122.244C37.0946 121.989 36.9633 121.677 36.9546 121.31C36.9553 120.951 37.0879 120.64 37.3525 120.377ZM39.8647 122.899C40.1197 122.645 40.4264 122.519 40.7847 122.519C41.1524 122.511 41.468 122.639 41.7314 122.903C41.9855 123.158 42.1074 123.47 42.0972 123.837C42.1059 124.205 41.9827 124.516 41.7277 124.77C41.4631 125.033 41.147 125.16 40.7794 125.15C40.4211 125.149 40.1149 125.021 39.8609 124.766C39.5974 124.502 39.4661 124.19 39.4668 123.832C39.4675 123.474 39.6002 123.163 39.8647 122.899ZM36.7585 133.871L38.4196 134.985L42.6971 128.606L44.6239 129.898L43.1424 132.107C45.5254 131.57 47.4256 131.777 48.8431 132.728C50.028 133.522 50.7203 134.572 50.9202 135.878C51.1311 137.192 50.8133 138.48 49.9667 139.742L49.5546 140.357C48.8417 141.42 48.0079 142.065 47.0532 142.291C46.117 142.514 45.1505 142.292 44.1539 141.623L35.4664 135.798L36.7585 133.871ZM45.446 139.696C46.2544 140.239 46.9816 140.028 47.6277 139.064L48.0399 138.45C48.5226 137.73 48.7038 137.017 48.5837 136.31C48.471 135.592 48.0548 134.992 47.335 134.51C46.1612 133.722 44.2549 133.68 41.6163 134.383L40.3465 136.277L45.446 139.696ZM48.8872 128.712C49.2572 128.639 49.6028 128.71 49.924 128.925C50.234 129.133 50.4218 129.428 50.4874 129.809C50.5714 130.186 50.5094 130.53 50.3015 130.84C50.0936 131.15 49.7954 131.343 49.4069 131.42C49.0369 131.493 48.6968 131.425 48.3868 131.218C48.0656 131.002 47.8686 130.709 47.7956 130.339C47.7227 129.969 47.7939 129.624 48.0092 129.303C48.2246 128.982 48.5172 128.785 48.8872 128.712ZM53.8303 137.262C55.1049 136.743 56.3813 136.752 57.6594 137.289C59.0236 137.864 59.9392 138.799 60.4065 140.095C60.8789 141.378 60.8074 142.751 60.1919 144.214L58.6094 147.974C58.0302 149.351 57.1402 150.314 55.9392 150.865C54.7383 151.416 53.4312 151.394 52.0179 150.799C51.2437 150.473 50.57 149.994 49.9968 149.363C49.4185 148.743 49.0358 148.054 48.8487 147.295L50.9314 146.523C51.057 146.981 51.2996 147.401 51.6593 147.784C52.019 148.167 52.4323 148.456 52.8993 148.653C53.5998 148.948 54.2566 148.985 54.8697 148.766C55.4828 148.547 55.938 148.152 56.2354 147.583L53.9496 146.621C52.5731 146.042 51.6102 145.116 51.0609 143.843C50.5238 142.576 50.5345 141.278 51.0931 139.951C51.6309 138.673 52.5433 137.777 53.8303 137.262ZM53.2455 142.983C53.5405 143.657 54.0752 144.157 54.8494 144.483L57.1353 145.445L58.1127 143.122C58.4385 142.348 58.4775 141.619 58.2296 140.936C57.987 140.241 57.4969 139.738 56.7596 139.428C56.0714 139.138 55.3868 139.132 54.7058 139.41C54.0248 139.687 53.5395 140.17 53.2499 140.859C52.9396 141.596 52.9381 142.304 53.2455 142.983ZM57.8391 150.645C58.0838 150.81 58.3218 150.925 58.553 150.989C59.8118 151.339 60.6486 150.77 61.0636 149.28L63.7464 139.646L66.006 140.255L63.9402 147.673L65.8669 148.209L65.2445 150.444L63.3178 149.908L63.189 150.37C62.8599 151.552 62.2595 152.416 61.3876 152.962C60.5158 153.508 59.3863 153.588 57.9991 153.201C57.4853 153.058 57.0315 152.849 56.6378 152.573L57.8391 150.645ZM69.3366 148.543L67.1213 144.056L67.5792 140.566L75.1741 141.563C76.3507 141.717 77.2589 142.072 77.8989 142.626C78.5521 143.183 78.8154 143.943 78.6888 144.908C78.6367 145.305 78.5111 145.699 78.3119 146.089C78.1145 146.467 77.821 146.859 77.4316 147.265C77.057 147.66 76.7242 147.992 76.4332 148.264C76.1438 148.521 75.7349 148.871 75.2063 149.313L79.4499 149.87L79.1679 152.172L64.8903 150.299L65.1921 147.999L69.3366 148.543ZM69.8683 144.336L72.0731 148.902L72.5887 148.969C72.7083 148.878 72.8961 148.727 73.1521 148.519C73.4098 148.297 73.5918 148.14 73.6982 148.046C73.8179 147.954 73.9841 147.814 74.1969 147.627C74.4098 147.44 74.5694 147.3 74.6758 147.206C74.784 147.099 74.9154 146.968 75.0702 146.814C75.2381 146.661 75.363 146.53 75.4447 146.419C75.5264 146.309 75.609 146.192 75.6924 146.068C75.7908 145.933 75.861 145.808 75.9031 145.693C75.9451 145.577 75.974 145.46 75.9896 145.341C76.0572 144.825 75.9304 144.459 75.6093 144.242C75.2898 144.012 74.7666 143.849 74.0394 143.754L70.0139 143.226L69.8683 144.336ZM81.595 149.616C80.6807 149.012 80.193 148.15 80.1318 147.032C80.0562 145.648 80.4777 144.443 81.3965 143.418C82.3278 142.379 83.4792 141.822 84.8504 141.747C86.2217 141.672 87.4202 142.1 88.446 143.032C89.4843 143.951 90.0413 145.102 90.1169 146.486C90.1919 147.858 89.77 149.056 88.8512 150.081C87.9324 151.106 86.7807 151.656 85.3961 151.732L79.1055 152.076L78.9789 149.759L81.595 149.616ZM83.3487 148.719C83.897 149.223 84.5373 149.455 85.2695 149.415C86.0018 149.375 86.6133 149.082 87.1042 148.534C87.5943 147.973 87.8193 147.326 87.7793 146.594C87.7393 145.862 87.4455 145.25 86.8979 144.76C86.3496 144.255 85.7093 144.023 84.977 144.063C84.2448 144.103 83.6336 144.404 83.1435 144.965C82.6527 145.512 82.4272 146.152 82.4673 146.884C82.5073 147.617 82.8011 148.228 83.3487 148.719ZM96.1072 141.538C96.7554 140.324 97.7365 139.517 99.0505 139.118L103.834 137.663L105.289 142.447C105.692 143.774 105.569 145.044 104.921 146.259C104.26 147.477 103.273 148.286 101.959 148.685C100.645 149.085 99.3744 148.962 98.1473 148.318C96.9329 147.67 96.1241 146.682 95.7208 145.356C95.3175 144.029 95.4463 142.756 96.1072 141.538ZM97.9596 144.675C98.1768 145.389 98.6098 145.92 99.2585 146.266C99.9073 146.612 100.582 146.679 101.284 146.466C101.986 146.252 102.51 145.821 102.856 145.172C103.202 144.524 103.267 143.842 103.05 143.128L102.27 140.564L99.7252 141.337C99.0236 141.551 98.4996 141.982 98.1533 142.63C97.807 143.279 97.7425 143.961 97.9596 144.675ZM95.9646 137.631C95.8599 137.286 95.8919 136.956 96.0606 136.64C96.2382 136.307 96.4992 136.089 96.8437 135.984C97.1881 135.879 97.5267 135.916 97.8594 136.093C98.1882 136.258 98.405 136.513 98.5097 136.857C98.6144 137.202 98.576 137.534 98.3945 137.854C98.2169 138.186 97.9559 138.405 97.6115 138.51C97.2671 138.614 96.9304 138.584 96.6016 138.42C96.2855 138.251 96.0732 137.988 95.9646 137.631ZM99.4473 136.572C99.3426 136.228 99.3746 135.897 99.5433 135.581C99.7209 135.249 99.9819 135.03 100.326 134.925C100.671 134.821 101.009 134.857 101.342 135.035C101.671 135.199 101.888 135.454 101.992 135.798C102.097 136.143 102.059 136.475 101.877 136.795C101.7 137.128 101.439 137.346 101.094 137.451C100.75 137.556 100.413 137.526 100.084 137.361C99.7682 137.192 99.5559 136.929 99.4473 136.572ZM107.593 149.277C107.887 149.251 108.144 149.19 108.364 149.094C109.012 148.812 109.391 148.429 109.5 147.945C109.622 147.456 109.512 146.82 109.172 146.038L105.246 137.015L107.383 136.063L111.317 145.104C111.94 146.535 112.068 147.766 111.703 148.797C111.343 149.841 110.551 150.629 109.329 151.161C108.84 151.373 108.355 151.497 107.876 151.531L107.593 149.277ZM106.03 130.466L108.095 129.367L113.506 139.537C114.058 140.573 114.739 140.875 115.551 140.443L115.993 140.208L117.083 142.256L116.641 142.491C115.652 143.017 114.682 143.11 113.731 142.77C112.774 142.419 112.011 141.707 111.441 140.636L106.03 130.466ZM115.128 140.667L116.339 139.888C116.72 139.642 116.928 139.326 116.964 138.938C116.992 138.539 116.859 138.11 116.563 137.65L113.368 132.69L115.308 131.417L118.513 136.394C118.809 136.854 119.145 137.153 119.52 137.292C119.888 137.42 120.268 137.358 120.66 137.105L121.887 136.314L123.144 138.265L121.916 139.055C120.974 139.662 120.02 139.769 119.054 139.376C119.011 140.418 118.525 141.239 117.595 141.838L116.384 142.618L115.128 140.667ZM118.506 143.512C118.574 143.15 118.765 142.868 119.079 142.666C119.382 142.471 119.708 142.412 120.059 142.488C120.427 142.568 120.709 142.759 120.904 143.061C121.099 143.364 121.162 143.696 121.093 144.057C121.013 144.426 120.822 144.708 120.52 144.903C120.217 145.098 119.881 145.155 119.513 145.075C119.155 144.988 118.879 144.793 118.684 144.491C118.489 144.188 118.43 143.862 118.506 143.512ZM121.677 142.563C121.482 142.261 121.419 141.929 121.488 141.567C121.564 141.217 121.759 140.941 122.072 140.739C122.364 140.551 122.69 140.492 123.052 140.56C123.42 140.64 123.702 140.831 123.897 141.134C124.092 141.437 124.149 141.772 124.07 142.141C123.99 142.509 123.804 142.788 123.513 142.975C123.21 143.17 122.874 143.228 122.506 143.148C122.148 143.061 121.872 142.866 121.677 142.563ZM122.967 138.293L121.398 136.584L121.84 136.178C122.173 135.872 122.325 135.524 122.294 135.136C122.255 134.738 122.05 134.338 121.68 133.935L117.675 129.575L119.384 128.006L123.24 132.204C123.655 132.655 124.097 132.91 124.566 132.968C125.027 133.015 125.429 132.882 125.772 132.566C126.126 132.241 126.293 131.852 126.275 131.398C126.266 130.935 126.05 130.473 125.626 130.012L121.77 125.814L123.493 124.231L127.349 128.429C127.764 128.88 128.206 129.135 128.676 129.193C129.136 129.241 129.538 129.107 129.882 128.791C130.225 128.475 130.393 128.086 130.384 127.623C130.367 127.151 130.15 126.689 129.735 126.237L125.88 122.039L127.603 120.456L131.459 124.654C132.315 125.606 132.734 126.633 132.715 127.737C132.697 128.821 132.276 129.742 131.451 130.5C130.538 131.339 129.517 131.597 128.389 131.276C128.604 132.436 128.255 133.436 127.342 134.274C126.478 135.068 125.494 135.347 124.39 135.112C124.61 136.159 124.283 137.084 123.409 137.887L122.967 138.293ZM139.546 117.191C139.455 116.825 139.51 116.476 139.709 116.145C139.902 115.825 140.187 115.623 140.565 115.539C140.931 115.449 141.279 115.503 141.61 115.703C141.93 115.895 142.141 116.178 142.243 116.551C142.334 116.917 142.283 117.26 142.09 117.58C141.891 117.911 141.605 118.128 141.232 118.23C140.866 118.32 140.517 118.266 140.186 118.066C139.855 117.867 139.641 117.575 139.546 117.191Z" fill="black"/>
<path d="M29.4259 33.7715L37.6983 37.691L33.6645 29.4797L35.216 27.9087L40.5696 39.1099L39.1417 40.5557L27.8632 35.3539L29.4259 33.7715ZM39.3206 30.0022C39.4892 28.7692 40.0684 27.7815 41.0584 27.0391C42.0653 26.284 43.18 26.0014 44.4024 26.1913C45.6184 26.3727 46.6008 26.9627 47.3495 27.9611C47.3687 27.9867 47.5191 28.2139 47.8007 28.6427L42.3092 32.7608C42.7358 33.1342 43.2574 33.323 43.874 33.3273C44.4841 33.3231 45.0537 33.1226 45.5828 32.7258C46.3423 32.1562 46.7605 31.4427 46.8373 30.5851L48.6293 30.4412C48.6229 31.126 48.4383 31.8044 48.0756 32.4763C47.7129 33.1483 47.2371 33.7051 46.6483 34.1467C45.5816 34.9466 44.4275 35.2655 43.1859 35.1032C41.9379 34.9325 40.9363 34.3436 40.1812 33.3367C39.4388 32.3468 39.152 31.2353 39.3206 30.0022ZM41.3877 31.5319L45.3431 28.5658C44.9612 28.1455 44.4674 27.9225 43.8615 27.8969C43.2578 27.8563 42.6828 28.0408 42.1367 28.4504C41.6076 28.8472 41.2779 29.341 41.1478 29.9319C41.0176 30.5228 41.0976 31.0562 41.3877 31.5319ZM44.0146 20.6339L45.6856 19.7214L48.1089 24.1588C48.1188 23.6429 48.2493 23.1585 48.5002 22.7055C48.7604 22.2474 49.1434 21.8803 49.6489 21.6042C50.5851 21.093 51.5129 21.0116 52.4325 21.3602C53.3521 21.7088 54.1646 22.529 54.8701 23.821L57.0173 27.7529L55.3462 28.6654L53.199 24.7335C52.79 23.9846 52.3101 23.5175 51.7592 23.3321C51.2032 23.1375 50.6584 23.1858 50.1248 23.4772C49.5912 23.7686 49.256 24.2008 49.1192 24.7738C48.9773 25.3374 49.1109 25.9937 49.5199 26.7427L51.667 30.6746L49.996 31.5871L44.0146 20.6339ZM57.5291 27.5568L54.0774 19.4619L55.8289 18.7151L59.2805 26.81L57.5291 27.5568ZM53.1562 17.7501C53.0349 17.4656 53.0333 17.1763 53.1515 16.8824C53.2655 16.5787 53.4648 16.3662 53.7493 16.2449C54.0339 16.1235 54.3252 16.1269 54.6233 16.2549C54.9172 16.3731 55.1248 16.5744 55.2461 16.859C55.3675 17.1435 55.369 17.4327 55.2508 17.7266C55.1326 18.0206 54.9313 18.2282 54.6467 18.3495C54.3622 18.4708 54.073 18.4724 53.779 18.3542C53.4851 18.236 53.2775 18.0347 53.1562 17.7501ZM58.4817 19.0837C59.046 17.983 59.9272 17.2396 61.1252 16.8536C61.8257 16.6279 62.538 16.5777 63.262 16.703C63.986 16.8283 64.641 17.1048 65.227 17.5323L64.0432 19.0232C63.3363 18.5337 62.5616 18.4248 61.7189 18.6963C61.0285 18.9187 60.5216 19.3454 60.1982 19.9763C59.8748 20.6073 59.8226 21.2628 60.0418 21.9431C60.2643 22.6334 60.6909 23.1403 61.3219 23.4638C61.9528 23.7872 62.6134 23.8377 63.3038 23.6152C64.177 23.3339 64.7478 22.7578 65.0163 21.8868L66.8326 22.411C66.6365 23.1242 66.2793 23.7548 65.7611 24.3028C65.2396 24.8406 64.6184 25.2257 63.8976 25.458C62.6995 25.844 61.5434 25.7514 60.4293 25.1802C59.3252 24.6058 58.5818 23.7246 58.1991 22.5368C57.8164 21.3489 57.9106 20.1979 58.4817 19.0837ZM69.4886 23.7835L67.6299 24.196L64.9259 12.0125L66.7847 11.5999L69.4886 23.7835ZM70.1038 16.0718C70.8644 15.0868 71.8588 14.5191 73.087 14.3689C74.3364 14.216 75.4436 14.5265 76.4087 15.3003C77.3726 16.0636 77.9303 17.0646 78.0819 18.3033C78.0857 18.3351 78.1029 18.607 78.1333 19.1191L71.3201 19.9528C71.504 20.4891 71.8621 20.9128 72.3944 21.2237C72.9255 21.5241 73.5193 21.6341 74.1757 21.5538C75.118 21.4385 75.8362 21.0283 76.3302 20.323L77.9555 21.0913C77.6087 21.6818 77.1106 22.178 76.4613 22.5798C75.8119 22.9817 75.122 23.2273 74.3914 23.3167C73.068 23.4786 71.9084 23.1799 70.9128 22.4205C69.9159 21.6506 69.3411 20.6409 69.1882 19.3916C69.0379 18.1634 69.3431 17.0568 70.1038 16.0718ZM71.1336 18.4282L76.041 17.8277C75.9194 17.273 75.6023 16.8336 75.0898 16.5095C74.5866 16.1734 73.9962 16.0469 73.3186 16.1298C72.6622 16.2101 72.1303 16.474 71.7229 16.9214C71.3156 17.3689 71.1191 17.8711 71.1336 18.4282ZM81.6309 13.8915L82.7496 13.9448L82.7626 13.6732C82.8226 12.4159 83.1648 11.5085 83.7895 10.951C84.4252 10.3833 85.2226 10.1223 86.1815 10.1681C86.6396 10.1899 87.0782 10.2856 87.4973 10.4551L86.921 12.1255C86.5826 12.056 86.3708 12.0192 86.2856 12.0151C85.7848 11.9912 85.3944 12.1168 85.1143 12.3918C84.8454 12.6566 84.6954 13.1139 84.6644 13.7639L84.6515 14.0356L86.825 14.1393L86.7442 15.8333L84.5706 15.7296L84.2321 22.8256L82.3311 22.7189L82.6688 15.6389L81.5501 15.5856L81.6309 13.8915ZM88.6008 15.6488C89.6038 14.9248 90.7266 14.6633 91.9692 14.864C93.1906 15.0614 94.1678 15.6677 94.9005 16.683C95.6333 17.6982 95.901 18.8166 95.7036 20.0381C95.5045 21.2701 94.8973 22.2525 93.8821 22.9852C92.8669 23.718 91.7485 23.9857 90.527 23.7883C89.2845 23.5875 88.2968 22.9795 87.5641 21.9642C86.8418 20.9507 86.5803 19.8279 86.7794 18.5959C86.9784 17.3639 87.5856 16.3815 88.6008 15.6488ZM88.6906 18.9048C88.5749 19.6208 88.7245 20.2663 89.1394 20.8412C89.5543 21.4161 90.1198 21.7614 90.8359 21.8771C91.5414 21.9911 92.1816 21.8406 92.7565 21.4257C93.3331 21.0002 93.6784 20.4347 93.7924 19.7292C93.9064 19.0237 93.7559 18.3835 93.341 17.8086C92.9261 17.2337 92.3658 16.8893 91.6603 16.7753C90.9443 16.6595 90.2988 16.8092 89.7239 17.2241C89.149 17.639 88.8046 18.1993 88.6906 18.9048ZM97.5007 16.019L99.1767 16.5012L98.9281 17.8282C99.7075 17.0868 100.676 16.8828 101.835 17.2161C101.855 17.222 101.881 17.2294 101.912 17.2382C102.168 17.3119 102.399 17.3952 102.606 17.4878L101.732 19.1345C101.663 19.1037 101.568 19.0705 101.445 19.0351C100.686 18.8169 99.9928 18.8727 99.3651 19.2027C98.7403 19.5224 98.2746 20.2153 97.9678 21.2813L96.8972 25.0024L95.0674 24.4759L97.5007 16.019ZM105.014 25.1932C105.146 25.5866 105.394 25.9707 105.759 26.3452C106.134 26.7244 106.548 27.0217 107 27.2371C107.453 27.4525 107.844 27.5499 108.173 27.5291C108.516 27.5034 108.754 27.3508 108.887 27.0715C109.001 26.8307 108.929 26.5601 108.67 26.2598C108.412 25.9595 108.069 25.6489 107.643 25.328C107.231 25.0021 106.826 24.6497 106.427 24.271C106.029 23.8924 105.75 23.4469 105.593 22.9347C105.439 22.4129 105.496 21.8726 105.761 21.314C106.087 20.6301 106.63 20.2092 107.39 20.0512C108.15 19.8933 108.988 20.032 109.903 20.4674C111.319 21.1412 112.189 22.0928 112.514 23.3222L110.978 23.8674C110.876 23.4877 110.654 23.1342 110.314 22.8068C109.973 22.4795 109.606 22.2219 109.211 22.034C108.796 21.8369 108.432 21.7462 108.118 21.7618C107.803 21.7775 107.591 21.9009 107.481 22.1321C107.38 22.344 107.461 22.5953 107.724 22.886C107.988 23.1766 108.33 23.4873 108.752 23.8178C109.178 24.1387 109.588 24.4933 109.982 24.8816C110.38 25.2603 110.656 25.7106 110.81 26.2324C110.963 26.7543 110.907 27.2945 110.641 27.8531C110.247 28.6815 109.638 29.1657 108.816 29.3058C108.007 29.4408 107.145 29.2906 106.23 28.8552C105.576 28.5436 104.976 28.1163 104.431 27.5735C103.895 27.0352 103.521 26.4318 103.307 25.7632L105.014 25.1932ZM114.37 24.4013C115.544 24.1176 116.615 24.2971 117.584 24.9398C118.126 25.2995 118.534 25.7749 118.808 26.3659C119.087 26.9481 119.194 27.5306 119.127 28.1136L120.14 26.7889L121.593 27.7529L116.729 35.0862L115.276 34.1221L116.093 32.6869C115.588 32.9661 115.013 33.0902 114.368 33.0591C113.723 33.0281 113.129 32.8327 112.587 32.473C111.618 31.8303 111.032 30.9101 110.828 29.7124C110.633 28.5206 110.877 27.4092 111.561 26.3781C112.251 25.3381 113.187 24.6792 114.37 24.4013ZM112.789 29.4195C112.926 30.138 113.297 30.6978 113.902 31.0988C114.515 31.5056 115.177 31.6372 115.886 31.4936C116.611 31.347 117.174 30.9715 117.574 30.367C117.981 29.7537 118.109 29.0893 117.956 28.3737C117.818 27.6551 117.443 27.0924 116.829 26.6855C116.225 26.2846 115.565 26.1603 114.849 26.3129C114.14 26.4565 113.581 26.835 113.175 27.4483C112.774 28.0527 112.645 28.7098 112.789 29.4195ZM118.717 36.7273L117.246 35.5193L125.163 25.8726L126.635 27.0806L118.717 36.7273ZM125.164 32.4669C126.409 32.4648 127.466 32.9032 128.337 33.782C129.223 34.6759 129.656 35.7413 129.636 36.9782C129.623 38.2076 129.173 39.2616 128.287 40.1401C128.264 40.1626 128.06 40.3428 127.673 40.6805L122.841 35.8055C122.53 36.2793 122.414 36.8219 122.495 37.4332C122.582 38.037 122.859 38.5737 123.325 39.0434C123.993 39.7176 124.757 40.034 125.617 39.9926L126.006 41.7479C125.326 41.8354 124.629 41.7456 123.914 41.4785C123.198 41.2113 122.582 40.8164 122.063 40.2937C121.125 39.3467 120.651 38.2472 120.641 36.9951C120.639 35.7355 121.085 34.6626 121.979 33.7765C122.858 32.9055 123.919 32.4689 125.164 32.4669ZM123.932 34.7242L127.413 38.2355C127.777 37.7997 127.93 37.2799 127.872 36.6763C127.829 36.0727 127.568 35.5285 127.087 35.0436C126.622 34.5739 126.087 34.3151 125.484 34.2672C124.881 34.2193 124.364 34.3716 123.932 34.7242Z" fill="#6B7280"/>
<path d="M29.4259 33.7715L37.6983 37.691L33.6645 29.4797L35.216 27.9087L40.5696 39.1099L39.1417 40.5557L27.8632 35.3539L29.4259 33.7715ZM39.3206 30.0022C39.4892 28.7692 40.0684 27.7815 41.0584 27.0391C42.0653 26.284 43.18 26.0014 44.4024 26.1913C45.6184 26.3727 46.6008 26.9627 47.3495 27.9611C47.3687 27.9867 47.5191 28.2139 47.8007 28.6427L42.3092 32.7608C42.7358 33.1342 43.2574 33.323 43.874 33.3273C44.4841 33.3231 45.0537 33.1226 45.5828 32.7258C46.3423 32.1562 46.7605 31.4427 46.8373 30.5851L48.6293 30.4412C48.6229 31.126 48.4383 31.8044 48.0756 32.4763C47.7129 33.1483 47.2371 33.7051 46.6483 34.1467C45.5816 34.9466 44.4275 35.2655 43.1859 35.1032C41.9379 34.9325 40.9363 34.3436 40.1812 33.3367C39.4388 32.3468 39.152 31.2353 39.3206 30.0022ZM41.3877 31.5319L45.3431 28.5658C44.9612 28.1455 44.4674 27.9225 43.8615 27.8969C43.2578 27.8563 42.6828 28.0408 42.1367 28.4504C41.6076 28.8472 41.2779 29.341 41.1478 29.9319C41.0176 30.5228 41.0976 31.0562 41.3877 31.5319ZM44.0146 20.6339L45.6856 19.7214L48.1089 24.1588C48.1188 23.6429 48.2493 23.1585 48.5002 22.7055C48.7604 22.2474 49.1434 21.8803 49.6489 21.6042C50.5851 21.093 51.5129 21.0116 52.4325 21.3602C53.3521 21.7088 54.1646 22.529 54.8701 23.821L57.0173 27.7529L55.3462 28.6654L53.199 24.7335C52.79 23.9846 52.3101 23.5175 51.7592 23.3321C51.2032 23.1375 50.6584 23.1858 50.1248 23.4772C49.5912 23.7686 49.256 24.2008 49.1192 24.7738C48.9773 25.3374 49.1109 25.9937 49.5199 26.7427L51.667 30.6746L49.996 31.5871L44.0146 20.6339ZM57.5291 27.5568L54.0774 19.4619L55.8289 18.7151L59.2805 26.81L57.5291 27.5568ZM53.1562 17.7501C53.0349 17.4656 53.0333 17.1763 53.1515 16.8824C53.2655 16.5787 53.4648 16.3662 53.7493 16.2449C54.0339 16.1235 54.3252 16.1269 54.6233 16.2549C54.9172 16.3731 55.1248 16.5744 55.2461 16.859C55.3675 17.1435 55.369 17.4327 55.2508 17.7266C55.1326 18.0206 54.9313 18.2282 54.6467 18.3495C54.3622 18.4708 54.073 18.4724 53.779 18.3542C53.4851 18.236 53.2775 18.0347 53.1562 17.7501ZM58.4817 19.0837C59.046 17.983 59.9272 17.2396 61.1252 16.8536C61.8257 16.6279 62.538 16.5777 63.262 16.703C63.986 16.8283 64.641 17.1048 65.227 17.5323L64.0432 19.0232C63.3363 18.5337 62.5616 18.4248 61.7189 18.6963C61.0285 18.9187 60.5216 19.3454 60.1982 19.9763C59.8748 20.6073 59.8226 21.2628 60.0418 21.9431C60.2643 22.6334 60.6909 23.1403 61.3219 23.4638C61.9528 23.7872 62.6134 23.8377 63.3038 23.6152C64.177 23.3339 64.7478 22.7578 65.0163 21.8868L66.8326 22.411C66.6365 23.1242 66.2793 23.7548 65.7611 24.3028C65.2396 24.8406 64.6184 25.2257 63.8976 25.458C62.6995 25.844 61.5434 25.7514 60.4293 25.1802C59.3252 24.6058 58.5818 23.7246 58.1991 22.5368C57.8164 21.3489 57.9106 20.1979 58.4817 19.0837ZM69.4886 23.7835L67.6299 24.196L64.9259 12.0125L66.7847 11.5999L69.4886 23.7835ZM70.1038 16.0718C70.8644 15.0868 71.8588 14.5191 73.087 14.3689C74.3364 14.216 75.4436 14.5265 76.4087 15.3003C77.3726 16.0636 77.9303 17.0646 78.0819 18.3033C78.0857 18.3351 78.1029 18.607 78.1333 19.1191L71.3201 19.9528C71.504 20.4891 71.8621 20.9128 72.3944 21.2237C72.9255 21.5241 73.5193 21.6341 74.1757 21.5538C75.118 21.4385 75.8362 21.0283 76.3302 20.323L77.9555 21.0913C77.6087 21.6818 77.1106 22.178 76.4613 22.5798C75.8119 22.9817 75.122 23.2273 74.3914 23.3167C73.068 23.4786 71.9084 23.1799 70.9128 22.4205C69.9159 21.6506 69.3411 20.6409 69.1882 19.3916C69.0379 18.1634 69.3431 17.0568 70.1038 16.0718ZM71.1336 18.4282L76.041 17.8277C75.9194 17.273 75.6023 16.8336 75.0898 16.5095C74.5866 16.1734 73.9962 16.0469 73.3186 16.1298C72.6622 16.2101 72.1303 16.474 71.7229 16.9214C71.3156 17.3689 71.1191 17.8711 71.1336 18.4282ZM81.6309 13.8915L82.7496 13.9448L82.7626 13.6732C82.8226 12.4159 83.1648 11.5085 83.7895 10.951C84.4252 10.3833 85.2226 10.1223 86.1815 10.1681C86.6396 10.1899 87.0782 10.2856 87.4973 10.4551L86.921 12.1255C86.5826 12.056 86.3708 12.0192 86.2856 12.0151C85.7848 11.9912 85.3944 12.1168 85.1143 12.3918C84.8454 12.6566 84.6954 13.1139 84.6644 13.7639L84.6515 14.0356L86.825 14.1393L86.7442 15.8333L84.5706 15.7296L84.2321 22.8256L82.3311 22.7189L82.6688 15.6389L81.5501 15.5856L81.6309 13.8915ZM88.6008 15.6488C89.6038 14.9248 90.7266 14.6633 91.9692 14.864C93.1906 15.0614 94.1678 15.6677 94.9005 16.683C95.6333 17.6982 95.901 18.8166 95.7036 20.0381C95.5045 21.2701 94.8973 22.2525 93.8821 22.9852C92.8669 23.718 91.7485 23.9857 90.527 23.7883C89.2845 23.5875 88.2968 22.9795 87.5641 21.9642C86.8418 20.9507 86.5803 19.8279 86.7794 18.5959C86.9784 17.3639 87.5856 16.3815 88.6008 15.6488ZM88.6906 18.9048C88.5749 19.6208 88.7245 20.2663 89.1394 20.8412C89.5543 21.4161 90.1198 21.7614 90.8359 21.8771C91.5414 21.9911 92.1816 21.8406 92.7565 21.4257C93.3331 21.0002 93.6784 20.4347 93.7924 19.7292C93.9064 19.0237 93.7559 18.3835 93.341 17.8086C92.9261 17.2337 92.3658 16.8893 91.6603 16.7753C90.9443 16.6595 90.2988 16.8092 89.7239 17.2241C89.149 17.639 88.8046 18.1993 88.6906 18.9048ZM97.5007 16.019L99.1767 16.5012L98.9281 17.8282C99.7075 17.0868 100.676 16.8828 101.835 17.2161C101.855 17.222 101.881 17.2294 101.912 17.2382C102.168 17.3119 102.399 17.3952 102.606 17.4878L101.732 19.1345C101.663 19.1037 101.568 19.0705 101.445 19.0351C100.686 18.8169 99.9928 18.8727 99.3651 19.2027C98.7403 19.5224 98.2746 20.2153 97.9678 21.2813L96.8972 25.0024L95.0674 24.4759L97.5007 16.019ZM105.014 25.1932C105.146 25.5866 105.394 25.9707 105.759 26.3452C106.134 26.7244 106.548 27.0217 107 27.2371C107.453 27.4525 107.844 27.5499 108.173 27.5291C108.516 27.5034 108.754 27.3508 108.887 27.0715C109.001 26.8307 108.929 26.5601 108.67 26.2598C108.412 25.9595 108.069 25.6489 107.643 25.328C107.231 25.0021 106.826 24.6497 106.427 24.271C106.029 23.8924 105.75 23.4469 105.593 22.9347C105.439 22.4129 105.496 21.8726 105.761 21.314C106.087 20.6301 106.63 20.2092 107.39 20.0512C108.15 19.8933 108.988 20.032 109.903 20.4674C111.319 21.1412 112.189 22.0928 112.514 23.3222L110.978 23.8674C110.876 23.4877 110.654 23.1342 110.314 22.8068C109.973 22.4795 109.606 22.2219 109.211 22.034C108.796 21.8369 108.432 21.7462 108.118 21.7618C107.803 21.7775 107.591 21.9009 107.481 22.1321C107.38 22.344 107.461 22.5953 107.724 22.886C107.988 23.1766 108.33 23.4873 108.752 23.8178C109.178 24.1387 109.588 24.4933 109.982 24.8816C110.38 25.2603 110.656 25.7106 110.81 26.2324C110.963 26.7543 110.907 27.2945 110.641 27.8531C110.247 28.6815 109.638 29.1657 108.816 29.3058C108.007 29.4408 107.145 29.2906 106.23 28.8552C105.576 28.5436 104.976 28.1163 104.431 27.5735C103.895 27.0352 103.521 26.4318 103.307 25.7632L105.014 25.1932ZM114.37 24.4013C115.544 24.1176 116.615 24.2971 117.584 24.9398C118.126 25.2995 118.534 25.7749 118.808 26.3659C119.087 26.9481 119.194 27.5306 119.127 28.1136L120.14 26.7889L121.593 27.7529L116.729 35.0862L115.276 34.1221L116.093 32.6869C115.588 32.9661 115.013 33.0902 114.368 33.0591C113.723 33.0281 113.129 32.8327 112.587 32.473C111.618 31.8303 111.032 30.9101 110.828 29.7124C110.633 28.5206 110.877 27.4092 111.561 26.3781C112.251 25.3381 113.187 24.6792 114.37 24.4013ZM112.789 29.4195C112.926 30.138 113.297 30.6978 113.902 31.0988C114.515 31.5056 115.177 31.6372 115.886 31.4936C116.611 31.347 117.174 30.9715 117.574 30.367C117.981 29.7537 118.109 29.0893 117.956 28.3737C117.818 27.6551 117.443 27.0924 116.829 26.6855C116.225 26.2846 115.565 26.1603 114.849 26.3129C114.14 26.4565 113.581 26.835 113.175 27.4483C112.774 28.0527 112.645 28.7098 112.789 29.4195ZM118.717 36.7273L117.246 35.5193L125.163 25.8726L126.635 27.0806L118.717 36.7273ZM125.164 32.4669C126.409 32.4648 127.466 32.9032 128.337 33.782C129.223 34.6759 129.656 35.7413 129.636 36.9782C129.623 38.2076 129.173 39.2616 128.287 40.1401C128.264 40.1626 128.06 40.3428 127.673 40.6805L122.841 35.8055C122.53 36.2793 122.414 36.8219 122.495 37.4332C122.582 38.037 122.859 38.5737 123.325 39.0434C123.993 39.7176 124.757 40.034 125.617 39.9926L126.006 41.7479C125.326 41.8354 124.629 41.7456 123.914 41.4785C123.198 41.2113 122.582 40.8164 122.063 40.2937C121.125 39.3467 120.651 38.2472 120.641 36.9951C120.639 35.7355 121.085 34.6626 121.979 33.7765C122.858 32.9055 123.919 32.4689 125.164 32.4669ZM123.932 34.7242L127.413 38.2355C127.777 37.7997 127.93 37.2799 127.872 36.6763C127.829 36.0727 127.568 35.5285 127.087 35.0436C126.622 34.5739 126.087 34.3151 125.484 34.2672C124.881 34.2193 124.364 34.3716 123.932 34.7242Z" fill="black" fill-opacity="0.2"/>
<path d="M84.3381 58.1523H77.3181C74.8281 58.1523 74.2781 59.3923 73.9581 60.9123L72.8281 66.3223H88.8281L87.6981 60.9123C87.3781 59.3923 86.8281 58.1523 84.3381 58.1523Z" stroke="white" stroke-width="1.5" stroke-linecap="round" stroke-linejoin="round"/>
<path d="M90.8169 75.1442C90.9269 76.3142 89.9869 77.3242 88.7869 77.3242H86.9069C85.8269 77.3242 85.6769 76.8642 85.4869 76.2942L85.2869 75.6942C85.0069 74.8742 84.8269 74.3242 83.3869 74.3242H78.2669C76.8269 74.3242 76.6169 74.9442 76.3669 75.6942L76.1669 76.2942C75.9769 76.8642 75.8269 77.3242 74.7469 77.3242H72.8669C71.6669 77.3242 70.7269 76.3142 70.8369 75.1442L71.3969 69.0542C71.5369 67.5542 71.8269 66.3242 74.4469 66.3242H87.2069C89.8269 66.3242 90.1169 67.5542 90.2569 69.0542L90.8169 75.1442Z" stroke="white" stroke-width="1.5" stroke-linecap="round" stroke-linejoin="round"/>
<path d="M72.8281 63.3242H71.8281" stroke="white" stroke-width="1.5" stroke-linecap="round" stroke-linejoin="round"/>
<path d="M89.8281 63.3242H88.8281" stroke="white" stroke-width="1.5" stroke-linecap="round" stroke-linejoin="round"/>
<path d="M80.8281 58.3242V60.3242" stroke="white" stroke-width="1.5" stroke-linecap="round" stroke-linejoin="round"/>
<path d="M79.3281 60.3242H82.3281" stroke="white" stroke-width="1.5" stroke-linecap="round" stroke-linejoin="round"/>
<path d="M74.8281 70.3242H77.8281" stroke="white" stroke-width="1.5" stroke-linecap="round" stroke-linejoin="round"/>
<path d="M83.8281 70.3242H86.8281" stroke="white" stroke-width="1.5" stroke-linecap="round" stroke-linejoin="round"/>
<path d="M51.8453 95.9842V94.0642H55.2653V90.6242H57.2053V94.0642H60.6453V95.9842H57.2053V99.4242H55.2653V95.9842H51.8453ZM66.5308 102.324H64.1508V89.9642H62.1508V87.7242H66.5308V102.324ZM70.7234 105.124H69.1234L69.6834 99.9442H71.8234L70.7234 105.124ZM72.9297 102.324V100.784L78.7697 95.5042C80.0097 94.4376 80.6297 93.4109 80.6297 92.4242C80.6297 91.6376 80.383 91.0109 79.8897 90.5442C79.3964 90.0642 78.783 89.8242 78.0497 89.8242C77.3964 89.8242 76.823 90.0109 76.3297 90.3842C75.8364 90.7576 75.4897 91.2109 75.2897 91.7442L73.0897 90.9842C73.3964 89.9709 74.0097 89.1309 74.9297 88.4642C75.8497 87.7842 76.8764 87.4442 78.0097 87.4442C79.4364 87.4442 80.623 87.8976 81.5697 88.8042C82.5297 89.7109 83.0097 90.9176 83.0097 92.4242C83.0097 93.9176 82.1364 95.4509 80.3897 97.0242L76.7497 100.084H83.3697V102.324H72.9297ZM86.8047 89.5042C87.858 88.1709 89.238 87.5042 90.9447 87.5042C92.638 87.5042 94.0114 88.1776 95.0647 89.5242C96.1314 90.8709 96.6647 92.7042 96.6647 95.0242C96.6647 97.3576 96.1314 99.2042 95.0647 100.564C94.0114 101.911 92.638 102.584 90.9447 102.584C89.238 102.584 87.8514 101.911 86.7847 100.564C85.7314 99.2042 85.2047 97.3576 85.2047 95.0242C85.2047 92.6909 85.738 90.8509 86.8047 89.5042ZM87.6247 94.9842C87.6247 96.7042 87.9314 98.0042 88.5447 98.8842C89.1714 99.7509 89.9714 100.184 90.9447 100.184C91.9047 100.184 92.6914 99.7509 93.3047 98.8842C93.9314 98.0042 94.2447 96.7042 94.2447 94.9842C94.2447 93.3176 93.9314 92.0576 93.3047 91.2042C92.6914 90.3376 91.9047 89.9042 90.9447 89.9042C89.9714 89.9042 89.1714 90.3376 88.5447 91.2042C87.9314 92.0576 87.6247 93.3176 87.6247 94.9842ZM100.066 89.5042C101.12 88.1709 102.5 87.5042 104.206 87.5042C105.9 87.5042 107.273 88.1776 108.326 89.5242C109.393 90.8709 109.926 92.7042 109.926 95.0242C109.926 97.3576 109.393 99.2042 108.326 100.564C107.273 101.911 105.9 102.584 104.206 102.584C102.5 102.584 101.113 101.911 100.046 100.564C98.9931 99.2042 98.4664 97.3576 98.4664 95.0242C98.4664 92.6909 98.9997 90.8509 100.066 89.5042ZM100.886 94.9842C100.886 96.7042 101.193 98.0042 101.806 98.8842C102.433 99.7509 103.233 100.184 104.206 100.184C105.166 100.184 105.953 99.7509 106.566 98.8842C107.193 98.0042 107.506 96.7042 107.506 94.9842C107.506 93.3176 107.193 92.0576 106.566 91.2042C105.953 90.3376 105.166 89.9042 104.206 89.9042C103.233 89.9042 102.433 90.3376 101.806 91.2042C101.193 92.0576 100.886 93.3176 100.886 94.9842Z" fill="#FAFAFA"/>
</svg>
